<?xml version="1.0" encoding="utf-8"?>
<!-- Generator: Adobe Illustrator 16.0.5, SVG Export Plug-In . SVG Version: 6.00 Build 0)  -->
<!DOCTYPE svg PUBLIC "-//W3C//DTD SVG 1.1//EN" "http://www.w3.org/Graphics/SVG/1.1/DTD/svg11.dtd">
<svg version="1.1" id="Layer_1" xmlns="http://www.w3.org/2000/svg" xmlns:xlink="http://www.w3.org/1999/xlink" x="0px" y="0px"
	 width="20px" height="20px" viewBox="0 0 20 20" enable-background="new 0 0 20 20" xml:space="preserve">
<path id="White_2_" fill="#FFFFFF" d="M18.903-0.001H1.111c-0.609,0-1.104,0.495-1.104,1.104v17.793C0.007,19.506,0.501,20,1.111,20
	h9.58v-7.744H8.083V9.235h2.607V7.009c0-2.583,1.576-3.989,3.88-3.989c1.104,0,2.053,0.082,2.33,0.119v2.7l-1.6,0
	c-1.252,0-1.496,0.596-1.496,1.469v1.927h2.99l-0.391,3.021h-2.6V20h5.098c0.609,0,1.104-0.494,1.104-1.104V1.103
	C20.007,0.494,19.513-0.001,18.903-0.001z"/>
</svg>
