<?xml version="1.0" encoding="utf-8"?>
<!-- Generator: Adobe Illustrator 19.1.0, SVG Export Plug-In . SVG Version: 6.00 Build 0)  -->
<svg version="1.1" id="Layer_1" xmlns="http://www.w3.org/2000/svg" xmlns:xlink="http://www.w3.org/1999/xlink" x="0px" y="0px"
	 viewBox="0 0 60 37.9" style="enable-background:new 0 0 60 37.9;" xml:space="preserve">
<style type="text/css">
	.st0{fill:#666666;}
</style>
<path class="st0" d="M57.7,0.5H2.3c-1.1,0-2.1,0.9-2.1,2.1v32.8c0,1.1,0.9,2.1,2.1,2.1h55.3c1.1,0,2.1-0.9,2.1-2.1V2.5
	C59.7,1.4,58.8,0.5,57.7,0.5z M4.4,6l15.9,13l-15.9,13V6z M30,23.2C22.4,17,14.7,10.8,7.1,4.6h45.8C45.8,10.4,31.2,22.2,30,23.2z
	 M22.6,20.7l6.6,5.3c0.5,0.4,1.2,0.4,1.7,0l6.6-5.3l15.5,12.6H7.1L22.6,20.7z M39.6,19L55.6,6v25.9L39.6,19z"/>
</svg>
