<?xml version="1.0" encoding="utf-8"?>
<!-- Generator: Adobe Illustrator 19.1.0, SVG Export Plug-In . SVG Version: 6.00 Build 0)  -->
<svg version="1.1" id="Layer_1" xmlns="http://www.w3.org/2000/svg" xmlns:xlink="http://www.w3.org/1999/xlink" x="0px" y="0px"
	 viewBox="0 0 60 61" style="enable-background:new 0 0 60 61;" xml:space="preserve">
<style type="text/css">
	.st0{fill:#666666;}
</style>
<path class="st0" d="M49,24.9c1.1,0,2-0.9,2-2c0-1.2-0.9-2.1-2-2.1c-1.1,0-2,0.9-2,2.1C47,24,47.9,24.9,49,24.9z M41.2,20.8
	c-1.2,0-2.1,0.9-2.1,2.1c0,1.1,0.9,2,2.1,2c1.1,0,2-0.9,2-2C43.2,21.7,42.3,20.8,41.2,20.8z M36.8,37.8H23.1c-1.8,0-1.8,2.7,0,2.7
	h13.7C38.6,40.5,38.6,37.8,36.8,37.8z M36.8,42.7H23.1c-1.8,0-1.8,2.8,0,2.8h13.7C38.6,45.5,38.6,42.7,36.8,42.7z M36.8,47.9H23.1
	c-1.8,0-1.8,2.8,0,2.8h13.7C38.6,50.7,38.6,47.9,36.8,47.9z M57.5,11.4c-3.4,0-6.7,0-10,0c0-2.6,0-8.3,0-8.3c0-1.1-0.9-2-2-2H14.6
	c-1.2,0-2.1,0.9-2.1,2c0,0,0,5.6,0,8.3c-2.8,0-9.9,0-9.9,0c-1.2,0-2.1,0.9-2.1,2v25.7c0,1.2,0.9,2.1,2.1,2.1c0,0,7.1,0,9.9,0
	c0,3.3,0,16.7,0,16.7c0,1.2,0.9,2.1,2.1,2.1h30.9c1.1,0,2-0.9,2-2.1c0,0,0-13.5,0-16.7c2.8,0,10,0,10,0c1.1,0,2-0.9,2-2.1V13.4
	C59.5,12.3,58.6,11.4,57.5,11.4z M16.6,5.2h26.7v7.5H16.6V5.2z M43.4,55.9H16.6c0-7.5,0-14.9,0-22.4h26.7
	C43.4,41,43.4,48.4,43.4,55.9z M55.4,37.1h-9.2v-4.9c0-0.8-0.6-1.4-1.4-1.4H15.3c-0.8,0-1.4,0.6-1.4,1.4v4.9H4.6V15.5
	c16.9,0,33.8,0,50.7,0V37.1z"/>
</svg>
