<?xml version="1.0" encoding="utf-8"?>
<!-- Generator: Adobe Illustrator 16.0.5, SVG Export Plug-In . SVG Version: 6.00 Build 0)  -->
<!DOCTYPE svg PUBLIC "-//W3C//DTD SVG 1.1//EN" "http://www.w3.org/Graphics/SVG/1.1/DTD/svg11.dtd">
<svg version="1.1" id="Shutter_xA9_HelenStock" xmlns="http://www.w3.org/2000/svg" xmlns:xlink="http://www.w3.org/1999/xlink"
	 x="0px" y="0px" width="72.312px" height="41.559px" viewBox="0 0 72.312 41.559" enable-background="new 0 0 72.312 41.559"
	 xml:space="preserve">
<g id="INDIVIDUALS">
	<path fill-rule="evenodd" clip-rule="evenodd" fill="#0076C7" d="M17.837,25.087c5.994,2.91,11.864,4.51,17.796,5.147
		c0.119,0.01,0.215,0.116,0.215,0.233c0,2.795,0,5.604,0,8.401c0,0.147-0.131,0.233-0.276,0.233
		c-5.765-0.014-12.841-1.95-17.672-5.076c-0.063-0.039-0.104-0.114-0.104-0.188c0-1.222,0-8.287,0.021-8.743
		C17.816,25.087,17.816,25.087,17.837,25.087L17.837,25.087z M68.211,24.045c1.611,0.532,1.769,2.822,0.477,3.721
		c-0.085,0.056-0.127,0.149-0.104,0.254c0.741,3.737,1.494,7.489,2.244,11.229c0.106,0.544-0.136,1.08-0.624,1.348
		c-1.42,0.802-3.519,0.985-5.202,0.485c-0.635-0.178-1.006-0.814-0.878-1.462c0.773-3.866,1.547-7.733,2.328-11.601
		c0.022-0.104-0.021-0.198-0.116-0.266c-1.564-1.018-1.228-3.125,0.297-3.665c0.105-0.031,0.171-0.125,0.171-0.245
		c-0.009-1.463-0.053-2.94-0.065-4.406c0-0.298-0.22-0.71-0.516-0.56c-9.609,4.966-20.108,8.757-29.918,10.497
		c-0.053,0.013-0.096,0.013-0.162,0c-11.79-1.905-24.809-6.696-35.351-13.443c-0.36-0.223-0.253-0.762,0.16-0.843
		c13.041-2.545,24.494-7.646,35.032-13.675c0.158-0.087,0.329-0.087,0.478,0.01c10.395,6.229,22.811,11.323,34.962,13.65
		c0.425,0.088,0.517,0.644,0.15,0.857c-1.221,0.708-2.461,1.409-3.711,2.073c-0.105,0.064-0.149,0.206-0.085,0.311
		c0.158,0.254,0.214,0.612,0.214,1.112c0.01,1.418,0.031,2.944,0.041,4.387C68.032,23.92,68.105,24.015,68.211,24.045L68.211,24.045
		z M53.37,25.773c-5.573,2.702-11.028,4.184-16.538,4.777c-0.105,0.013-0.191,0.107-0.191,0.214c0,2.605,0,5.211,0,7.807
		c0,0.137,0.118,0.21,0.244,0.21c5.359,0,11.93-1.81,16.424-4.711c0.062-0.044,0.093-0.111,0.093-0.186c0-1.12,0-7.688-0.011-8.1
		C53.391,25.762,53.379,25.762,53.37,25.773L53.37,25.773z"/>
</g>
</svg>
