<?xml version="1.0" encoding="utf-8"?>
<!-- Generator: Adobe Illustrator 16.0.5, SVG Export Plug-In . SVG Version: 6.00 Build 0)  -->
<!DOCTYPE svg PUBLIC "-//W3C//DTD SVG 1.1//EN" "http://www.w3.org/Graphics/SVG/1.1/DTD/svg11.dtd">
<svg version="1.1" id="Shutter" xmlns="http://www.w3.org/2000/svg" xmlns:xlink="http://www.w3.org/1999/xlink" x="0px" y="0px"
	 width="31.402px" height="41.559px" viewBox="0 0 31.402 41.559" enable-background="new 0 0 31.402 41.559" xml:space="preserve">
<g id="INDIVIDUALS">
	<path id="Students" display="none" fill-rule="evenodd" clip-rule="evenodd" fill="#0076C7" d="M17.837,25.087
		c5.994,2.91,11.864,4.51,17.796,5.147c0.119,0.01,0.215,0.116,0.215,0.233c0,2.795,0,5.604,0,8.401
		c0,0.147-0.131,0.233-0.276,0.233c-5.765-0.014-12.841-1.95-17.672-5.076c-0.063-0.039-0.104-0.114-0.104-0.188
		c0-1.222,0-8.287,0.021-8.743C17.816,25.087,17.816,25.087,17.837,25.087L17.837,25.087z M68.211,24.045
		c1.611,0.532,1.769,2.822,0.477,3.721c-0.085,0.056-0.127,0.149-0.104,0.254c0.741,3.737,1.494,7.489,2.244,11.229
		c0.106,0.544-0.136,1.08-0.624,1.348c-1.42,0.802-3.519,0.985-5.202,0.485c-0.635-0.178-1.006-0.814-0.878-1.462
		c0.773-3.866,1.547-7.733,2.328-11.601c0.022-0.104-0.021-0.198-0.116-0.266c-1.564-1.018-1.228-3.125,0.297-3.665
		c0.105-0.031,0.171-0.125,0.171-0.245c-0.009-1.463-0.053-2.94-0.065-4.406c0-0.298-0.22-0.71-0.516-0.56
		c-9.609,4.966-20.108,8.757-29.918,10.497c-0.053,0.013-0.096,0.013-0.162,0c-11.79-1.905-24.809-6.696-35.351-13.443
		c-0.36-0.223-0.253-0.762,0.16-0.843c13.041-2.545,24.494-7.646,35.032-13.675c0.158-0.087,0.329-0.087,0.478,0.01
		c10.395,6.229,22.811,11.323,34.962,13.65c0.425,0.088,0.517,0.644,0.15,0.857c-1.221,0.708-2.461,1.409-3.711,2.073
		c-0.105,0.064-0.149,0.206-0.085,0.311c0.158,0.254,0.214,0.612,0.214,1.112c0.01,1.418,0.031,2.944,0.041,4.387
		C68.032,23.92,68.105,24.015,68.211,24.045L68.211,24.045z M53.37,25.773c-5.573,2.702-11.028,4.184-16.538,4.777
		c-0.105,0.013-0.191,0.107-0.191,0.214c0,2.605,0,5.211,0,7.807c0,0.137,0.118,0.21,0.244,0.21c5.359,0,11.93-1.81,16.424-4.711
		c0.062-0.044,0.093-0.111,0.093-0.186c0-1.12,0-7.688-0.011-8.1C53.391,25.762,53.379,25.762,53.37,25.773L53.37,25.773z"/>
	<path id="Teaching" display="none" fill-rule="evenodd" clip-rule="evenodd" fill="#0076C7" d="M5.663,0h45.219
		c3.116,0,5.663,2.549,5.663,5.667v30.25c0,3.117-2.547,5.665-5.663,5.665H5.663C2.548,41.581,0,39.034,0,35.917V5.667
		C0,2.549,2.548,0,5.663,0L5.663,0z M6.22,2.417h44.098c2.1,0,3.822,1.709,3.822,3.813v29.132c0,2.094-1.723,3.815-3.822,3.815H6.22
		c-2.093,0-3.816-1.721-3.816-3.815V6.23C2.404,4.126,4.127,2.417,6.22,2.417L6.22,2.417z M37.318,10.506
		c1.946-1.383,5.685-2.869,6.907,0.163c0.516,1.27,0.289,2.359-0.707,3.313c2.201-0.521,3.789,1.039,3.679,3.193
		c-0.12,2.63-3.493,3.947-5.628,4.613c-1.148,0.361-1.737-1.506-0.558-1.833c1.536-0.429,4.557-1.358,3.714-3.456
		c-0.473-1.16-1.757-1.042-2.794-0.72c-0.438,0.135-0.902-0.075-1.086-0.5c-0.179-0.419-0.018-0.911,0.38-1.128
		c0.824-0.473,1.433-1.189,0.995-2.271c-0.668-1.645-2.59-0.691-3.639,0c-0.361,0.228-0.599,0.464-1.071,0.322
		C36.734,11.973,36.634,11.002,37.318,10.506L37.318,10.506z M21.001,27.939c0.599-1.688,1.55-3.435,2.1-5.133
		c0.971-3.044-1.055-5.549-3.231-3.051c-1.729,1.999-3.112,0.429-1.231-1.514c3.752-3.904,8.505-0.461,6.596,4.678
		c-0.227,0.607-1.72,3.83,0.405,2.968c0.601-0.238,1.201-0.483,1.799-0.724c1.121-0.449,1.897,1.467,0.776,1.923
		c-1.967,0.792-3.94,1.593-5.907,2.388C21.396,29.846,20.577,29.126,21.001,27.939L21.001,27.939z M34.551,21.078
		c0.22,0.549,0.446,1.106,0.665,1.661c0.455,1.118-1.459,1.893-1.916,0.777c-0.225-0.557-0.446-1.113-0.674-1.66
		c-0.185-0.459-0.71-0.674-1.163-0.498c-0.508,0.21-1.013,0.413-1.521,0.615c-1.097,0.446-1.796-1.266-0.689-1.712
		c0.504-0.203,1.011-0.405,1.517-0.617c0.457-0.185,0.676-0.706,0.492-1.163c-0.222-0.548-0.442-1.09-0.661-1.638
		c-0.454-1.125,1.461-1.898,1.916-0.774c0.22,0.549,0.446,1.086,0.667,1.635c0.184,0.457,0.709,0.683,1.162,0.498
		c0.508-0.208,1.014-0.414,1.521-0.617c1.104-0.444,1.797,1.266,0.699,1.714c-0.516,0.2-1.02,0.403-1.527,0.615
		C34.582,20.098,34.363,20.623,34.551,21.078L34.551,21.078z M49.66,3.858c-14.259,0-28.517,0-42.776,0
		c-1.695,0-3.08,1.349-3.08,2.995c0,9.292,0,18.587,0,27.876c0,1.646,1.384,3.004,3.08,3.004c1.105,0,2.211,0,3.318,0
		c0.48,0,0.876-0.396,0.876-0.879c0-0.783,0-1.567,0-2.351c0-0.212,0.169-0.38,0.38-0.38c4.495,0,8.994,0,13.48,0
		c0.212,0,0.39,0.168,0.39,0.38c0,0.783,0,1.567,0,2.351c0,0.483,0.397,0.879,0.878,0.879c7.819,0,15.634,0,23.454,0
		c1.689,0,3.08-1.358,3.08-3.004c0-9.29,0-18.585,0-27.876C52.74,5.208,51.356,3.858,49.66,3.858L49.66,3.858z"/>
	<path display="none" fill-rule="evenodd" clip-rule="evenodd" fill="#0076C7" d="M0.68,6.201h5.951c0.374,0,0.68,0.306,0.68,0.679
		v33.781c0,0.372-0.306,0.681-0.68,0.681H0.68c-0.375,0-0.68-0.309-0.68-0.681V6.88C0,6.507,0.305,6.201,0.68,6.201L0.68,6.201z
		 M25.661,0.13c0.443-0.161,0.908,0.167,0.908,0.638c0,11.23,0,22.463,0,33.69c0,0.298-0.173,0.54-0.444,0.646
		c-5.717,2.059-11.431,4.125-17.142,6.195c-0.45,0.16-0.917-0.169-0.917-0.639c0-11.233,0-22.465,0-33.689
		c0-0.298,0.175-0.549,0.453-0.646l1.623-0.583c0.589-0.214,0.936-0.083,0.936,0.729v15.983c0,0.134,0.16,0.188,0.243,0.087
		l1.624-2.096c0.055-0.077,0.165-0.071,0.214,0l1.512,2.074c0.078,0.103,0.243,0.049,0.243-0.084c0-5.979,0-11.959,0-17.943
		c0-0.538,0.249-0.566,0.659-0.712C18.939,2.565,22.297,1.344,25.661,0.13L25.661,0.13z M2.47,5.514
		C7.512,3.691,12.558,1.866,17.6,0.042c0.444-0.16,0.909,0.166,0.909,0.643c0,0.326,0,0.646,0,0.97c0,0.155-0.089,0.281-0.229,0.33
		C16.63,2.581,9.026,5.313,8.16,5.62C8.087,5.645,8.067,5.645,7.985,5.645c-1.824,0-3.656,0-5.48,0
		C2.165,5.645,2.165,5.627,2.47,5.514L2.47,5.514z"/>
	<path fill="#0076C7" d="M0.312,41.059c9.848-3.531,20.832-3.685,31.048,0c0.271,0.099,0.197,0.5-0.086,0.5
		c-10.297,0-20.586,0-30.875,0C0.109,41.559,0.042,41.158,0.312,41.059L0.312,41.059z M15.498,12.733
		c-1.413-0.864-2.696-1.936-3.771-3.152c-0.039-0.042-0.099-0.05-0.142-0.013c-1.161,0.928-2.187,2.028-3.047,3.24
		C8.5,12.856,8.52,12.922,8.569,12.956c1.652,1.007,3.305,2.013,4.958,3.014c0.049,0.031,0.117,0.02,0.14-0.029
		c0.622-1.02,1.242-2.047,1.864-3.066C15.561,12.83,15.547,12.765,15.498,12.733L15.498,12.733z M7.199,26.581
		c1.02-1.683,2.044-3.366,3.07-5.051c0.031-0.048,0.013-0.116-0.036-0.148c-1.346-0.803-2.796-1.412-4.294-1.773
		c-0.056-0.015-0.116,0.028-0.125,0.088c-0.281,2.344,0.062,4.722,1.199,6.878C7.051,26.646,7.154,26.646,7.199,26.581L7.199,26.581
		z M17.887,5.177c-2.431-0.848-5.024-0.891-7.42-0.214c-0.061,0.017-0.093,0.078-0.068,0.132c0.375,0.911,0.86,1.767,1.438,2.57
		c0.03,0.042,0.099,0.053,0.142,0.025c1.763-1.167,3.759-1.984,5.891-2.316C17.973,5.361,17.993,5.207,17.887,5.177L17.887,5.177z
		 M9.04,5.453C6.922,6.337,5.03,7.818,3.636,9.826c-0.038,0.049-0.019,0.119,0.03,0.147c1.21,0.739,2.414,1.472,3.625,2.207
		c0.048,0.026,0.111,0.013,0.142-0.03c0.939-1.346,2.069-2.56,3.347-3.589c0.042-0.031,0.055-0.098,0.02-0.14
		C10.147,7.517,9.6,6.541,9.182,5.514C9.159,5.459,9.096,5.435,9.04,5.453L9.04,5.453z M2.85,11.116
		c-1.139,2.151-1.579,4.511-1.394,6.791c0.004,0.062,0.054,0.102,0.116,0.098c1.037-0.098,2.082-0.069,3.126,0.068
		c0.05,0.006,0.099-0.025,0.111-0.081c0.368-1.592,0.989-3.147,1.825-4.588c0.024-0.051,0.011-0.111-0.037-0.144
		c-1.198-0.723-2.403-1.453-3.6-2.186C2.946,11.043,2.88,11.062,2.85,11.116L2.85,11.116z M4.982,25.622
		c0.048,0.049,0.22,0.037,0.17-0.106c-0.688-1.964-0.86-4.027-0.601-6.061c0.005-0.063-0.03-0.112-0.092-0.121
		c-0.897-0.113-1.799-0.138-2.697-0.061c-0.061,0.009-0.104,0.061-0.093,0.124C2.143,21.715,3.267,23.89,4.982,25.622L4.982,25.622z
		 M10.541,28.884c2.008,0.552,4.091,0.583,6.069,0.126c0.063-0.01,0.093-0.077,0.074-0.139c-0.276-0.707-0.606-1.387-0.994-2.038
		c-0.03-0.059-0.093-0.068-0.147-0.038c-1.513,0.953-3.196,1.615-4.988,1.887C10.442,28.7,10.437,28.854,10.541,28.884
		L10.541,28.884z M18.059,28.583c2.347-0.849,4.455-2.403,5.965-4.589c0.038-0.049,0.026-0.118-0.03-0.147
		c-1.123-0.681-2.254-1.371-3.379-2.059c-0.048-0.024-0.109-0.012-0.14,0.039c-1.015,1.578-2.269,2.984-3.718,4.113
		c-0.043,0.031-0.048,0.087-0.023,0.135c0.467,0.775,0.871,1.597,1.191,2.451C17.942,28.577,18.004,28.608,18.059,28.583
		L18.059,28.583z M24.812,22.709c1.248-2.357,1.659-4.953,1.327-7.432c-0.006-0.056-0.055-0.098-0.117-0.095
		c-0.977,0.121-1.96,0.131-2.943,0.05c-0.048,0-0.098,0.037-0.109,0.094c-0.296,1.812-0.897,3.58-1.752,5.209
		c-0.025,0.05-0.006,0.111,0.037,0.142c1.137,0.687,2.273,1.384,3.41,2.069C24.718,22.779,24.781,22.76,24.812,22.709L24.812,22.709
		z M25.85,13.79c-0.546-2.089-1.628-4.043-3.208-5.627c-0.072-0.075-0.203,0-0.172,0.105c0.597,1.815,0.799,3.709,0.67,5.584
		c0,0.054,0.038,0.104,0.098,0.11c0.836,0.063,1.684,0.047,2.521-0.045C25.824,13.913,25.863,13.853,25.85,13.79L25.85,13.79z
		 M11.044,20.252c0.614-1.008,1.235-2.021,1.849-3.035c0.031-0.05,0.013-0.118-0.036-0.15c-1.659-1.005-3.325-2.02-4.988-3.026
		c-0.051-0.032-0.111-0.017-0.143,0.038c-0.754,1.301-1.315,2.702-1.652,4.14C6.062,18.273,6.1,18.33,6.153,18.342
		c1.652,0.387,3.262,1.056,4.749,1.949C10.952,20.319,11.013,20.302,11.044,20.252L11.044,20.252z M12.143,21.112
		c1.432,1.039,2.717,2.298,3.767,3.722c0.038,0.052,0.104,0.064,0.147,0.026c1.286-1.021,2.408-2.286,3.318-3.698
		c0.03-0.05,0.018-0.117-0.038-0.148c-1.732-1.048-3.465-2.107-5.202-3.164c-0.05-0.029-0.111-0.011-0.142,0.037
		c-0.626,1.026-1.252,2.058-1.88,3.086C12.09,21.019,12.1,21.076,12.143,21.112L12.143,21.112z M14.86,25.58
		c-0.947-1.283-2.089-2.414-3.374-3.361c-0.049-0.031-0.116-0.019-0.147,0.031c-1.039,1.707-2.083,3.421-3.121,5.129
		c-0.038,0.068,0.005,0.153,0.085,0.153c2.371,0.081,4.594-0.601,6.523-1.808C14.883,25.696,14.896,25.626,14.86,25.58L14.86,25.58z
		 M12.789,8.839c0.971,1.081,2.114,2.021,3.373,2.8c0.049,0.031,0.118,0.015,0.148-0.038c0.995-1.64,1.99-3.28,2.992-4.918
		c0.042-0.073-0.013-0.166-0.099-0.16c-2.322,0.147-4.497,0.935-6.396,2.162C12.751,8.721,12.747,8.795,12.789,8.839L12.789,8.839z
		 M17.481,12.365c1.346,0.662,2.784,1.145,4.258,1.407c0.061,0.012,0.123-0.031,0.123-0.093c0.142-2.192-0.221-4.409-1.192-6.461
		c-0.03-0.081-0.135-0.087-0.177-0.013c-1.019,1.669-2.033,3.34-3.054,5.01C17.408,12.273,17.427,12.34,17.481,12.365L17.481,12.365
		z M21.61,15.048c-1.67-0.28-3.298-0.828-4.816-1.591c-0.043-0.025-0.104-0.005-0.129,0.043c-0.634,1.034-1.266,2.072-1.892,3.109
		c-0.031,0.048-0.02,0.111,0.03,0.143c1.726,1.048,3.453,2.092,5.179,3.143c0.048,0.033,0.116,0.014,0.14-0.035
		c0.762-1.467,1.297-3.062,1.566-4.687C21.702,15.116,21.667,15.061,21.61,15.048L21.61,15.048z M20.954,5.201
		c6.469,3.932,8.521,12.365,4.589,18.831c-3.938,6.467-12.366,8.519-18.834,4.59C0.245,24.687-1.808,16.253,2.124,9.79
		C6.057,3.322,14.485,1.268,20.954,5.201L20.954,5.201z M22.225,1.521c6.586,4.253,9.239,10.278,9.063,16.003
		c-0.079,2.575-0.738,5.082-1.874,7.342c-1.138,2.261-2.746,4.275-4.743,5.85c-4.442,3.52-10.738,4.877-17.779,2.015
		c-1.849-0.751-0.779-3.047,1.032-2.322c6.058,2.432,11.421,1.29,15.176-1.677c1.701-1.347,3.077-3.066,4.049-5.002
		c0.968-1.935,1.533-4.078,1.602-6.284c0.154-4.916-2.188-10.117-7.975-13.835C18.607,2.221,19.829-0.025,22.225,1.521L22.225,1.521
		z M15.836,34.824c0.989,0,1.788,0.626,1.788,1.409c0,0.777-0.799,1.412-1.788,1.412s-1.794-0.634-1.794-1.412
		C14.042,35.451,14.847,34.824,15.836,34.824L15.836,34.824z"/>
</g>
</svg>
