<?xml version="1.0" encoding="utf-8"?>
<!-- Generator: Adobe Illustrator 16.0.5, SVG Export Plug-In . SVG Version: 6.00 Build 0)  -->
<!DOCTYPE svg PUBLIC "-//W3C//DTD SVG 1.1//EN" "http://www.w3.org/Graphics/SVG/1.1/DTD/svg11.dtd">
<svg version="1.1" id="Shutter_xA9_Olha_Chernova" xmlns="http://www.w3.org/2000/svg" xmlns:xlink="http://www.w3.org/1999/xlink"
	 x="0px" y="0px" width="31.153px" height="30.583px" viewBox="0 0 31.153 30.583" enable-background="new 0 0 31.153 30.583"
	 xml:space="preserve">
<g id="INDIVIDUALS">
	<path id="Students" display="none" fill-rule="evenodd" clip-rule="evenodd" fill="#0076C7" d="M17.837,14.112
		c5.994,2.91,11.864,4.51,17.796,5.147c0.119,0.01,0.215,0.116,0.215,0.233c0,2.795,0,5.604,0,8.401
		c0,0.147-0.131,0.233-0.276,0.233c-5.765-0.014-12.841-1.95-17.672-5.076c-0.063-0.039-0.104-0.114-0.104-0.188
		c0-1.222,0-8.287,0.021-8.743C17.816,14.112,17.816,14.112,17.837,14.112L17.837,14.112z M68.211,13.07
		c1.611,0.532,1.769,2.822,0.477,3.721c-0.085,0.056-0.127,0.149-0.104,0.254c0.741,3.737,1.494,7.489,2.244,11.229
		c0.106,0.544-0.136,1.08-0.624,1.348c-1.42,0.802-3.519,0.985-5.202,0.485c-0.635-0.178-1.006-0.814-0.878-1.462
		c0.773-3.866,1.547-7.733,2.328-11.601c0.022-0.104-0.021-0.198-0.116-0.266c-1.564-1.018-1.228-3.125,0.297-3.665
		c0.105-0.031,0.171-0.125,0.171-0.245c-0.009-1.463-0.053-2.94-0.065-4.406c0-0.298-0.22-0.71-0.516-0.56
		C56.612,12.869,46.113,16.66,36.304,18.4c-0.053,0.013-0.096,0.013-0.162,0c-11.79-1.905-24.809-6.696-35.351-13.443
		c-0.36-0.223-0.253-0.762,0.16-0.843C13.992,1.569,25.445-3.533,35.983-9.561c0.158-0.087,0.329-0.087,0.478,0.01
		C46.855-3.323,59.271,1.772,71.423,4.099c0.425,0.088,0.517,0.644,0.15,0.857c-1.221,0.708-2.461,1.409-3.711,2.073
		c-0.105,0.064-0.149,0.206-0.085,0.311c0.158,0.254,0.214,0.612,0.214,1.112c0.01,1.418,0.031,2.944,0.041,4.387
		C68.032,12.945,68.105,13.04,68.211,13.07L68.211,13.07z M53.37,14.798c-5.573,2.702-11.028,4.184-16.538,4.777
		c-0.105,0.013-0.191,0.107-0.191,0.214c0,2.605,0,5.211,0,7.807c0,0.137,0.118,0.21,0.244,0.21c5.359,0,11.93-1.81,16.424-4.711
		c0.062-0.044,0.093-0.111,0.093-0.186c0-1.12,0-7.688-0.011-8.1C53.391,14.787,53.379,14.787,53.37,14.798L53.37,14.798z"/>
	<path id="Teaching" display="none" fill-rule="evenodd" clip-rule="evenodd" fill="#0076C7" d="M5.663-10.975h45.219
		c3.116,0,5.663,2.549,5.663,5.667v30.25c0,3.117-2.547,5.665-5.663,5.665H5.663C2.548,30.606,0,28.059,0,24.941v-30.25
		C0-8.426,2.548-10.975,5.663-10.975L5.663-10.975z M6.22-8.558h44.098c2.1,0,3.822,1.709,3.822,3.813v29.132
		c0,2.094-1.723,3.815-3.822,3.815H6.22c-2.093,0-3.816-1.721-3.816-3.815V-4.745C2.404-6.849,4.127-8.558,6.22-8.558L6.22-8.558z
		 M37.318-0.469c1.946-1.383,5.685-2.869,6.907,0.163c0.516,1.27,0.289,2.359-0.707,3.313c2.201-0.521,3.789,1.039,3.679,3.193
		c-0.12,2.63-3.493,3.947-5.628,4.613c-1.148,0.361-1.737-1.506-0.558-1.833c1.536-0.429,4.557-1.358,3.714-3.456
		c-0.473-1.16-1.757-1.042-2.794-0.72c-0.438,0.135-0.902-0.075-1.086-0.5c-0.179-0.419-0.018-0.911,0.38-1.128
		c0.824-0.473,1.433-1.189,0.995-2.271c-0.668-1.645-2.59-0.691-3.639,0c-0.361,0.228-0.599,0.464-1.071,0.322
		C36.734,0.998,36.634,0.027,37.318-0.469L37.318-0.469z M21.001,16.964c0.599-1.688,1.55-3.435,2.1-5.133
		c0.971-3.044-1.055-5.549-3.231-3.051c-1.729,1.999-3.112,0.429-1.231-1.514c3.752-3.904,8.505-0.461,6.596,4.678
		c-0.227,0.607-1.72,3.83,0.405,2.968c0.601-0.238,1.201-0.483,1.799-0.724c1.121-0.449,1.897,1.467,0.776,1.923
		c-1.967,0.792-3.94,1.593-5.907,2.388C21.396,18.871,20.577,18.151,21.001,16.964L21.001,16.964z M34.551,10.103
		c0.22,0.549,0.446,1.106,0.665,1.661c0.455,1.118-1.459,1.893-1.916,0.777c-0.225-0.557-0.446-1.113-0.674-1.66
		c-0.185-0.459-0.71-0.674-1.163-0.498c-0.508,0.21-1.013,0.413-1.521,0.615c-1.097,0.446-1.796-1.266-0.689-1.712
		c0.504-0.203,1.011-0.405,1.517-0.617c0.457-0.185,0.676-0.706,0.492-1.163c-0.222-0.548-0.442-1.09-0.661-1.638
		c-0.454-1.125,1.461-1.898,1.916-0.774c0.22,0.549,0.446,1.086,0.667,1.635c0.184,0.457,0.709,0.683,1.162,0.498
		c0.508-0.208,1.014-0.414,1.521-0.617c1.104-0.444,1.797,1.266,0.699,1.714c-0.516,0.2-1.02,0.403-1.527,0.615
		C34.582,9.123,34.363,9.647,34.551,10.103L34.551,10.103z M49.66-7.117c-14.259,0-28.517,0-42.776,0
		c-1.695,0-3.08,1.349-3.08,2.995c0,9.292,0,18.587,0,27.876c0,1.646,1.384,3.004,3.08,3.004c1.105,0,2.211,0,3.318,0
		c0.48,0,0.876-0.396,0.876-0.879c0-0.783,0-1.567,0-2.351c0-0.212,0.169-0.38,0.38-0.38c4.495,0,8.994,0,13.48,0
		c0.212,0,0.39,0.168,0.39,0.38c0,0.783,0,1.567,0,2.351c0,0.483,0.397,0.879,0.878,0.879c7.819,0,15.634,0,23.454,0
		c1.689,0,3.08-1.358,3.08-3.004c0-9.29,0-18.585,0-27.876C52.74-5.768,51.356-7.117,49.66-7.117L49.66-7.117z"/>
	<path display="none" fill-rule="evenodd" clip-rule="evenodd" fill="#0076C7" d="M0.68-4.774h5.951c0.374,0,0.68,0.306,0.68,0.679
		v33.781c0,0.372-0.306,0.681-0.68,0.681H0.68c-0.375,0-0.68-0.309-0.68-0.681V-4.095C0-4.468,0.305-4.774,0.68-4.774L0.68-4.774z
		 M25.661-10.845c0.443-0.161,0.908,0.167,0.908,0.638c0,11.23,0,22.463,0,33.69c0,0.298-0.173,0.54-0.444,0.646
		c-5.717,2.059-11.431,4.125-17.142,6.195c-0.45,0.16-0.917-0.169-0.917-0.639c0-11.233,0-22.465,0-33.689
		c0-0.298,0.175-0.549,0.453-0.646l1.623-0.583c0.589-0.214,0.936-0.083,0.936,0.729v15.983c0,0.134,0.16,0.188,0.243,0.087
		l1.624-2.096c0.055-0.077,0.165-0.071,0.214,0l1.512,2.074c0.078,0.103,0.243,0.049,0.243-0.084c0-5.979,0-11.959,0-17.943
		c0-0.538,0.249-0.566,0.659-0.712C18.939-8.41,22.297-9.631,25.661-10.845L25.661-10.845z M2.47-5.461
		c5.042-1.823,10.088-3.648,15.13-5.472c0.444-0.16,0.909,0.166,0.909,0.643c0,0.326,0,0.646,0,0.97c0,0.155-0.089,0.281-0.229,0.33
		C16.63-8.394,9.026-5.663,8.16-5.355C8.087-5.33,8.067-5.33,7.985-5.33c-1.824,0-3.656,0-5.48,0C2.165-5.33,2.165-5.348,2.47-5.461
		L2.47-5.461z"/>
	<path display="none" fill="#0076C7" d="M0.312,30.084c9.848-3.531,20.832-3.685,31.048,0c0.271,0.099,0.197,0.5-0.086,0.5
		c-10.297,0-20.586,0-30.875,0C0.109,30.583,0.042,30.183,0.312,30.084L0.312,30.084z M15.498,1.758
		c-1.413-0.864-2.696-1.936-3.771-3.152c-0.039-0.042-0.099-0.05-0.142-0.013c-1.161,0.928-2.187,2.028-3.047,3.24
		C8.5,1.881,8.52,1.947,8.569,1.98c1.652,1.007,3.305,2.013,4.958,3.014c0.049,0.031,0.117,0.02,0.14-0.029
		c0.622-1.02,1.242-2.047,1.864-3.066C15.561,1.855,15.547,1.79,15.498,1.758L15.498,1.758z M7.199,15.605
		c1.02-1.683,2.044-3.366,3.07-5.051c0.031-0.048,0.013-0.116-0.036-0.148C8.888,9.604,7.438,8.995,5.94,8.634
		C5.884,8.619,5.824,8.662,5.815,8.722c-0.281,2.344,0.062,4.722,1.199,6.878C7.051,15.671,7.154,15.671,7.199,15.605L7.199,15.605z
		 M17.887-5.798c-2.431-0.848-5.024-0.891-7.42-0.214c-0.061,0.017-0.093,0.078-0.068,0.132c0.375,0.911,0.86,1.767,1.438,2.57
		c0.03,0.042,0.099,0.053,0.142,0.025c1.763-1.167,3.759-1.984,5.891-2.316C17.973-5.614,17.993-5.768,17.887-5.798L17.887-5.798z
		 M9.04-5.522C6.922-4.638,5.03-3.157,3.636-1.149C3.598-1.1,3.617-1.031,3.666-1.002C4.875-0.263,6.08,0.47,7.291,1.205
		c0.048,0.026,0.111,0.013,0.142-0.03c0.939-1.346,2.069-2.56,3.347-3.589c0.042-0.031,0.055-0.098,0.02-0.14
		C10.147-3.458,9.6-4.434,9.182-5.461C9.159-5.516,9.096-5.541,9.04-5.522L9.04-5.522z M2.85,0.141
		C1.711,2.292,1.271,4.652,1.456,6.932C1.46,6.994,1.51,7.034,1.572,7.029C2.609,6.932,3.654,6.96,4.698,7.098
		c0.05,0.006,0.099-0.025,0.111-0.081C5.177,5.425,5.798,3.87,6.634,2.429c0.024-0.051,0.011-0.111-0.037-0.144
		c-1.198-0.723-2.403-1.453-3.6-2.186C2.946,0.068,2.88,0.086,2.85,0.141L2.85,0.141z M4.982,14.647
		c0.048,0.049,0.22,0.037,0.17-0.106c-0.688-1.964-0.86-4.027-0.601-6.061c0.005-0.063-0.03-0.112-0.092-0.121
		C3.563,8.247,2.66,8.222,1.762,8.299C1.701,8.308,1.658,8.36,1.669,8.423C2.143,10.74,3.267,12.915,4.982,14.647L4.982,14.647z
		 M10.541,17.909c2.008,0.552,4.091,0.583,6.069,0.126c0.063-0.01,0.093-0.077,0.074-0.139c-0.276-0.707-0.606-1.387-0.994-2.038
		c-0.03-0.059-0.093-0.068-0.147-0.038c-1.513,0.953-3.196,1.615-4.988,1.887C10.442,17.725,10.437,17.879,10.541,17.909
		L10.541,17.909z M18.059,17.608c2.347-0.849,4.455-2.403,5.965-4.589c0.038-0.049,0.026-0.118-0.03-0.147
		c-1.123-0.681-2.254-1.371-3.379-2.059c-0.048-0.024-0.109-0.012-0.14,0.039c-1.015,1.578-2.269,2.984-3.718,4.113
		c-0.043,0.031-0.048,0.087-0.023,0.135c0.467,0.775,0.871,1.597,1.191,2.451C17.942,17.602,18.004,17.633,18.059,17.608
		L18.059,17.608z M24.812,11.734c1.248-2.357,1.659-4.953,1.327-7.432c-0.006-0.056-0.055-0.098-0.117-0.095
		c-0.977,0.121-1.96,0.131-2.943,0.05c-0.048,0-0.098,0.037-0.109,0.094c-0.296,1.812-0.897,3.58-1.752,5.209
		c-0.025,0.05-0.006,0.111,0.037,0.142c1.137,0.687,2.273,1.384,3.41,2.069C24.718,11.804,24.781,11.785,24.812,11.734
		L24.812,11.734z M25.85,2.814c-0.546-2.089-1.628-4.043-3.208-5.627c-0.072-0.075-0.203,0-0.172,0.105
		c0.597,1.815,0.799,3.709,0.67,5.584c0,0.054,0.038,0.104,0.098,0.11c0.836,0.063,1.684,0.047,2.521-0.045
		C25.824,2.938,25.863,2.877,25.85,2.814L25.85,2.814z M11.044,9.277c0.614-1.008,1.235-2.021,1.849-3.035
		c0.031-0.05,0.013-0.118-0.036-0.15c-1.659-1.005-3.325-2.02-4.988-3.026C7.818,3.035,7.758,3.05,7.727,3.104
		c-0.754,1.301-1.315,2.702-1.652,4.14C6.062,7.298,6.1,7.354,6.153,7.367c1.652,0.387,3.262,1.056,4.749,1.949
		C10.952,9.344,11.013,9.327,11.044,9.277L11.044,9.277z M12.143,10.137c1.432,1.039,2.717,2.298,3.767,3.722
		c0.038,0.052,0.104,0.064,0.147,0.026c1.286-1.021,2.408-2.286,3.318-3.698c0.03-0.05,0.018-0.117-0.038-0.148
		c-1.732-1.048-3.465-2.107-5.202-3.164c-0.05-0.029-0.111-0.011-0.142,0.037c-0.626,1.026-1.252,2.058-1.88,3.086
		C12.09,10.043,12.1,10.101,12.143,10.137L12.143,10.137z M14.86,14.604c-0.947-1.283-2.089-2.414-3.374-3.361
		c-0.049-0.031-0.116-0.019-0.147,0.031c-1.039,1.707-2.083,3.421-3.121,5.129c-0.038,0.068,0.005,0.153,0.085,0.153
		c2.371,0.081,4.594-0.601,6.523-1.808C14.883,14.721,14.896,14.651,14.86,14.604L14.86,14.604z M12.789-2.136
		c0.971,1.081,2.114,2.021,3.373,2.8c0.049,0.031,0.118,0.015,0.148-0.038c0.995-1.64,1.99-3.28,2.992-4.918
		c0.042-0.073-0.013-0.166-0.099-0.16c-2.322,0.147-4.497,0.935-6.396,2.162C12.751-2.254,12.747-2.18,12.789-2.136L12.789-2.136z
		 M17.481,1.39c1.346,0.662,2.784,1.145,4.258,1.407c0.061,0.012,0.123-0.031,0.123-0.093c0.142-2.192-0.221-4.409-1.192-6.461
		c-0.03-0.081-0.135-0.087-0.177-0.013c-1.019,1.669-2.033,3.34-3.054,5.01C17.408,1.298,17.427,1.365,17.481,1.39L17.481,1.39z
		 M21.61,4.073c-1.67-0.28-3.298-0.828-4.816-1.591c-0.043-0.025-0.104-0.005-0.129,0.043c-0.634,1.034-1.266,2.072-1.892,3.109
		c-0.031,0.048-0.02,0.111,0.03,0.143c1.726,1.048,3.453,2.092,5.179,3.143c0.048,0.033,0.116,0.014,0.14-0.035
		c0.762-1.467,1.297-3.062,1.566-4.687C21.702,4.141,21.667,4.086,21.61,4.073L21.61,4.073z M20.954-5.774
		c6.469,3.932,8.521,12.365,4.589,18.831c-3.938,6.467-12.366,8.519-18.834,4.59C0.245,13.712-1.808,5.278,2.124-1.185
		C6.057-7.653,14.485-9.707,20.954-5.774L20.954-5.774z M22.225-9.454c6.586,4.253,9.239,10.278,9.063,16.003
		c-0.079,2.575-0.738,5.082-1.874,7.342c-1.138,2.261-2.746,4.275-4.743,5.85c-4.442,3.52-10.738,4.877-17.779,2.015
		c-1.849-0.751-0.779-3.047,1.032-2.322c6.058,2.432,11.421,1.29,15.176-1.677c1.701-1.347,3.077-3.066,4.049-5.002
		c0.968-1.935,1.533-4.078,1.602-6.284c0.154-4.916-2.188-10.117-7.975-13.835C18.607-8.754,19.829-11,22.225-9.454L22.225-9.454z
		 M15.836,23.849c0.989,0,1.788,0.626,1.788,1.409c0,0.777-0.799,1.412-1.788,1.412s-1.794-0.634-1.794-1.412
		C14.042,24.476,14.847,23.849,15.836,23.849L15.836,23.849z"/>
</g>
<g id="ORGANISATIONS">
	<path id="MOBILITY" display="none" fill-rule="evenodd" clip-rule="evenodd" fill="#0076C7" d="M7.082-5.049
		c1.566,0,3.136,0,4.699,0c0.134,0,0.242-0.109,0.242-0.24c0-0.316,0-0.635,0-0.95c0-1.052,1.582-1.052,1.582,0
		c0,0.314,0,0.633,0,0.95c0,0.13,0.103,0.24,0.237,0.24c2.826,0,5.66,0,8.485,0c0.121,0,0.223,0.037,0.314,0.12
		c0.888,0.787,1.776,1.577,2.657,2.369c0.146,0.126,0.152,0.354,0.008,0.489c-0.89,0.826-1.778,1.655-2.666,2.483
		c-0.091,0.083-0.193,0.125-0.32,0.125c-2.827,0-5.653,0-8.479,0c-0.134,0-0.237,0.105-0.237,0.235c0,0.424,0,0.854,0,1.276
		c0,0.132,0.103,0.234,0.237,0.234c1.54,0,3.081,0,4.621,0c0.18,0,0.332,0.152,0.332,0.334c0,1.643,0,3.287,0,4.928
		c0,0.182-0.151,0.328-0.332,0.328c-1.54,0-3.081,0-4.621,0c-0.134,0-0.237,0.109-0.237,0.24c0,0.382,0,0.768,0,1.148
		c0,0.133,0.103,0.243,0.237,0.243c2.826,0,5.66,0,8.485,0c0.121,0,0.223,0.034,0.314,0.119c0.888,0.786,1.776,1.579,2.657,2.368
		c0.146,0.127,0.152,0.357,0.008,0.49c-0.89,0.826-1.778,1.656-2.666,2.48c-0.091,0.085-0.193,0.127-0.32,0.127
		c-2.827,0-5.653,0-8.479,0c-0.134,0-0.237,0.103-0.237,0.238c0,4.819,0,9.639,0,14.459c0,1.051-1.582,1.051-1.582,0
		c0-4.82,0-9.641,0-14.459c0-0.135-0.108-0.238-0.242-0.238c-1.563,0-3.133,0-4.699,0c-0.187,0-0.331-0.15-0.331-0.332
		c0-1.642,0-3.284,0-4.921c0-0.188,0.145-0.332,0.331-0.332c1.566,0,3.136,0,4.699,0c0.134,0,0.242-0.11,0.242-0.243
		c0-0.38,0-0.767,0-1.148c0-0.131-0.108-0.24-0.242-0.24c-2.852,0-5.707,0-8.559,0c-0.127,0-0.234-0.042-0.326-0.125
		c-0.888-0.831-1.77-1.651-2.658-2.479c-0.144-0.133-0.144-0.363,0.008-0.49c0.88-0.791,1.77-1.582,2.657-2.373
		c0.09-0.079,0.192-0.123,0.315-0.123c2.856,0,5.707,0,8.563,0c0.134,0,0.242-0.102,0.242-0.234c0-0.422,0-0.852,0-1.276
		c0-0.13-0.108-0.235-0.242-0.235c-1.563,0-3.133,0-4.699,0c-0.187,0-0.331-0.148-0.331-0.332c0-1.641,0-3.285,0-4.924
		C6.75-4.904,6.895-5.049,7.082-5.049L7.082-5.049z"/>
	<path id="INNOVATION_2" display="none" fill-rule="evenodd" clip-rule="evenodd" fill="#0076C7" d="M18.225-10.84
		c2.613,0,4.94,3.307,6.393,8.404c0.106,0.363,0.488,0.579,0.856,0.479c5.115-1.377,9.148-1.088,10.495,1.165
		c1.396,2.321-0.387,6.18-4.254,10.181c-0.266,0.272-0.266,0.701,0,0.974c3.867,3.996,5.65,7.86,4.254,10.174
		c-1.347,2.253-5.38,2.544-10.495,1.165c-0.368-0.099-0.75,0.117-0.856,0.487c-1.453,5.096-3.779,8.396-6.393,8.396
		c-1.231,0-2.399-0.726-3.441-2.025c-0.079-0.1-0.196-0.148-0.32-0.131c-0.117,0.013-0.233,0.027-0.35,0.027
		c-1.403,0-2.543-1.139-2.543-2.549c0-0.672,0.264-1.288,0.69-1.743c0.093-0.099,0.123-0.228,0.075-0.357
		c-0.18-0.517-0.353-1.059-0.511-1.618c-0.106-0.371-0.488-0.586-0.855-0.487C5.854,23.08,1.82,22.789,0.473,20.536
		c-1.397-2.314,0.387-6.179,4.253-10.174c0.259-0.277,0.259-0.706,0-0.979C4.375,9.019,4.037,8.657,3.722,8.298
		c-0.086-0.097-0.215-0.14-0.343-0.111c-0.155,0.033-0.314,0.05-0.48,0.05c-1.218,0-2.211-0.991-2.211-2.209
		c0-0.431,0.125-0.825,0.333-1.164c0.069-0.111,0.076-0.241,0.013-0.351c-1.113-2.105-1.372-3.965-0.559-5.306
		c1.347-2.253,5.38-2.542,10.496-1.165c0.368,0.1,0.75-0.116,0.855-0.479C13.275-7.534,15.604-10.84,18.225-10.84L18.225-10.84z
		 M18.304,6.262c2.352,0,4.264,1.915,4.264,4.272c0,2.357-1.913,4.272-4.264,4.272c-2.356,0-4.27-1.915-4.27-4.272
		C14.035,8.177,15.948,6.262,18.304,6.262L18.304,6.262z M23.363,5.166c-0.394,0.375-0.929,0.603-1.521,0.603
		c-1.216,0-2.206-0.99-2.206-2.209c0-0.203,0.026-0.393,0.074-0.578c0.044-0.161-0.022-0.32-0.169-0.4
		c-0.388-0.203-0.777-0.402-1.162-0.592c-0.098-0.048-0.209-0.048-0.308,0c-2.284,1.121-4.486,2.443-6.556,3.914
		c-0.086,0.064-0.134,0.155-0.147,0.259c-0.196,2.464-0.196,4.962,0,7.42c0.013,0.104,0.061,0.196,0.147,0.258
		c2.07,1.477,4.28,2.794,6.556,3.915c0.099,0.049,0.21,0.049,0.308,0c2.27-1.121,4.478-2.438,6.548-3.915
		c0.086-0.062,0.135-0.154,0.148-0.258c0.19-2.465,0.19-4.957-0.008-7.42c-0.005-0.104-0.054-0.194-0.14-0.259
		c-0.37-0.264-0.747-0.521-1.127-0.774C23.665,5.036,23.486,5.048,23.363,5.166L23.363,5.166z M26.692,12.502
		c0.888-0.701,1.704-1.409,2.451-2.121c0.295-0.279,0.295-0.741,0-1.018c-0.747-0.706-1.563-1.42-2.451-2.124
		c-0.233-0.19-0.578-0.013-0.565,0.29c0.067,1.557,0.067,3.128,0,4.685C26.114,12.516,26.459,12.695,26.692,12.502L26.692,12.502z
		 M19.986,18.019c1.469-0.787,2.915-1.651,4.313-2.573c0.253-0.167,0.579,0.039,0.543,0.338c-0.168,1.268-0.389,2.477-0.654,3.602
		c-0.093,0.394-0.504,0.628-0.893,0.504c-1.057-0.339-2.159-0.751-3.283-1.236C19.743,18.537,19.724,18.161,19.986,18.019
		L19.986,18.019z M9.742,7.239C8.863,7.943,8.045,8.657,7.294,9.363c-0.29,0.277-0.29,0.739,0,1.018
		c0.751,0.712,1.569,1.42,2.448,2.121c0.241,0.193,0.586,0.014,0.574-0.288c-0.068-1.557-0.068-3.121,0-4.685
		C10.328,7.227,9.983,7.049,9.742,7.239L9.742,7.239z M16.46,1.725c-1.478,0.788-2.917,1.649-4.315,2.573
		c-0.253,0.166-0.586-0.038-0.543-0.338c0.167-1.27,0.389-2.477,0.653-3.597c0.093-0.398,0.505-0.633,0.894-0.51
		c1.057,0.34,2.16,0.752,3.287,1.238C16.705,1.208,16.717,1.588,16.46,1.725L16.46,1.725z M21.842,1.344
		c1.227,0,2.217,0.99,2.217,2.215c0,0.111-0.012,0.215-0.024,0.32c-0.026,0.142,0.037,0.273,0.153,0.346
		c0.308,0.204,0.703,0.14,0.654-0.265c-0.168-1.27-0.389-2.477-0.654-3.597c-0.093-0.398-0.504-0.633-0.893-0.51
		c-1.057,0.34-2.159,0.752-3.283,1.238c-0.269,0.117-0.288,0.498-0.026,0.634c0.05,0.03,0.106,0.062,0.162,0.086
		c0.121,0.068,0.263,0.056,0.372-0.024C20.889,1.509,21.351,1.344,21.842,1.344L21.842,1.344z M13.148,19.89
		c1.057-0.339,2.16-0.751,3.287-1.236c0.271-0.117,0.282-0.493,0.025-0.635c-1.478-0.787-2.917-1.651-4.315-2.573
		c-0.253-0.167-0.586,0.039-0.543,0.338c0.167,1.268,0.389,2.477,0.653,3.602C12.348,19.779,12.759,20.014,13.148,19.89
		L13.148,19.89z M26.127,14.179c1.373-0.998,2.64-2.027,3.785-3.055c0.288-0.258,0.732-0.232,0.991,0.055
		c2.832,3.195,4.049,6.207,2.929,8.078c-1.082,1.803-4.136,2.18-8.081,1.305c-0.374-0.086-0.615-0.456-0.536-0.831
		c0.345-1.644,0.604-3.423,0.764-5.293C25.991,14.326,26.04,14.239,26.127,14.179L26.127,14.179z M14.114,23.363
		c1.409,0,2.547,1.138,2.547,2.543c0,0.424-0.104,0.818-0.282,1.168c-0.086,0.16-0.038,0.357,0.117,0.456
		c0.553,0.365,1.133,0.559,1.729,0.559c2.1,0,3.987-2.418,5.273-6.254c0.117-0.365-0.073-0.756-0.437-0.885
		c-1.508-0.524-3.08-1.183-4.682-1.954c-0.098-0.047-0.209-0.047-0.308,0c-1.605,0.777-3.181,1.429-4.69,1.954
		c-0.363,0.129-0.562,0.521-0.436,0.885c0.152,0.463,0.32,0.911,0.492,1.331C13.56,23.468,13.861,23.363,14.114,23.363
		L14.114,23.363z M11.228,19.73c-0.345-1.644-0.604-3.423-0.77-5.293c-0.007-0.111-0.056-0.198-0.142-0.258
		c-1.379-0.998-2.646-2.027-3.787-3.055c-0.29-0.258-0.731-0.232-0.991,0.055c-2.832,3.195-4.049,6.207-2.928,8.078
		c1.082,1.803,4.135,2.18,8.082,1.305C11.066,20.475,11.301,20.105,11.228,19.73L11.228,19.73z M2.898,3.818
		c1.225,0,2.216,0.986,2.216,2.21c0,0.449-0.135,0.861-0.363,1.211c-0.086,0.129-0.08,0.29,0.019,0.414
		c0.24,0.3,0.499,0.603,0.764,0.912C5.797,8.86,6.239,8.884,6.529,8.619c1.141-1.029,2.408-2.055,3.787-3.053
		c0.086-0.062,0.135-0.146,0.142-0.252c0.166-1.878,0.425-3.657,0.77-5.3c0.073-0.376-0.162-0.745-0.536-0.824
		c-3.947-0.876-7-0.506-8.082,1.297c-0.5,0.831-0.537,1.883-0.172,3.079C2.48,3.725,2.627,3.823,2.788,3.818
		C2.823,3.818,2.861,3.818,2.898,3.818L2.898,3.818z M23.061-1.206c-1.508,0.524-3.08,1.182-4.682,1.958
		c-0.106,0.044-0.209,0.044-0.308,0c-1.605-0.776-3.181-1.434-4.69-1.958c-0.363-0.129-0.562-0.523-0.436-0.887
		c1.286-3.828,3.175-6.253,5.28-6.253c2.1,0,3.987,2.425,5.273,6.253C23.615-1.729,23.425-1.335,23.061-1.206L23.061-1.206z
		 M25.215,0.014c0.345,1.643,0.604,3.422,0.764,5.3c0.012,0.105,0.061,0.19,0.148,0.252c1.373,0.999,2.646,2.024,3.785,3.053
		c0.288,0.265,0.732,0.241,0.991-0.054c2.832-3.196,4.049-6.207,2.929-8.077c-1.082-1.803-4.136-2.173-8.081-1.297
		C25.377-0.731,25.136-0.363,25.215,0.014L25.215,0.014z"/>
	<path id="Innovation" display="none" fill="#0076C7" d="M23.209,6.557c4.378,2.287,7.505,6.549,7.505,11.594
		c0,5.459-3.641,9.957-8.511,12.083c-0.602,0.268-1.116,0.349-1.762,0.349c-3.355,0-6.712,0-10.067,0
		c-0.646,0-1.152-0.082-1.749-0.349c-4.875-2.126-8.518-6.624-8.518-12.083c0-5.045,3.129-9.307,7.505-11.594
		c0.875-0.464,1.374-1.294,1.374-2.274c0-3.828,0-7.651,0-11.475c0-1.584,1.299-2.879,2.888-2.879c2.356,0,4.718,0,7.073,0
		c1.59,0,2.888,1.295,2.888,2.879c0,3.824,0,7.647,0,11.475C21.836,5.263,22.337,6.093,23.209,6.557L23.209,6.557z M22.634,24.254
		c0.54,0,0.976,0.437,0.976,0.985c0,0.538-0.436,0.973-0.976,0.973c-0.538,0-0.977-0.435-0.977-0.973
		C21.658,24.691,22.096,24.254,22.634,24.254L22.634,24.254z M22.083,25.233c-0.012-0.23,0.139-0.458,0.361-0.526
		c0.032-0.007,0.063,0.01,0.071,0.045c0.006,0.05,0.018,0.099,0.024,0.15c0.007,0.027-0.006,0.051-0.031,0.057
		c-0.095,0.037-0.164,0.146-0.164,0.248c0,0.025-0.019,0.051-0.045,0.051c-0.049,0.011-0.107,0.019-0.157,0.024
		C22.109,25.289,22.083,25.264,22.083,25.233L22.083,25.233z M22.634,24.522c-0.393,0-0.715,0.318-0.715,0.717
		c0,0.393,0.322,0.714,0.715,0.714c0.398,0,0.717-0.321,0.717-0.714C23.351,24.84,23.032,24.522,22.634,24.522L22.634,24.522z
		 M18.063,22.153c0.823,0,1.481,0.667,1.481,1.482c0,0.822-0.664,1.487-1.481,1.487c-0.819,0-1.482-0.665-1.482-1.487
		C16.581,22.82,17.244,22.153,18.063,22.153L18.063,22.153z M17.049,23.654c0.089-0.504,0.437-0.948,0.968-1.011
		c0.033,0,0.064,0.017,0.064,0.047c0,0.059,0.008,0.109,0.008,0.158c0,0.034-0.021,0.059-0.046,0.059
		c-0.412,0.049-0.666,0.404-0.734,0.792c-0.007,0.03-0.032,0.05-0.065,0.044c-0.049-0.006-0.099-0.014-0.151-0.026
		C17.061,23.717,17.043,23.686,17.049,23.654L17.049,23.654z M18.063,22.42c-0.672,0-1.215,0.544-1.215,1.215
		c0,0.678,0.543,1.222,1.215,1.222c0.677,0,1.222-0.544,1.222-1.222C19.285,22.965,18.734,22.42,18.063,22.42L18.063,22.42z
		 M21.894,18.783c0.817,0,1.481,0.666,1.481,1.483c0,0.817-0.664,1.478-1.481,1.478c-0.816,0-1.475-0.661-1.475-1.478
		C20.418,19.449,21.083,18.783,21.894,18.783L21.894,18.783z M20.887,20.197c0.062-0.507,0.506-0.937,1.006-0.995
		c0.031-0.006,0.057,0.018,0.063,0.045c0,0.058,0.007,0.106,0.007,0.159c0,0.032-0.018,0.052-0.044,0.057
		c-0.381,0.051-0.721,0.379-0.766,0.76c-0.007,0.024-0.031,0.043-0.058,0.043c-0.052-0.006-0.107-0.006-0.158-0.013
		C20.905,20.253,20.887,20.228,20.887,20.197L20.887,20.197z M21.894,19.049c-0.672,0-1.21,0.545-1.21,1.217
		c0,0.669,0.545,1.215,1.21,1.215c0.671,0,1.217-0.546,1.217-1.215C23.11,19.594,22.565,19.049,21.894,19.049L21.894,19.049z
		 M17.72,13.2c1.317,0,2.381,1.071,2.381,2.387c0,1.317-1.064,2.387-2.381,2.387c-1.323,0-2.388-1.07-2.388-2.387
		C15.332,14.271,16.397,13.2,17.72,13.2L17.72,13.2z M16.061,14.958c0.196-0.614,0.849-1.12,1.489-1.146
		c0.033,0,0.058,0.025,0.058,0.058c0,0.05,0,0.107,0,0.163c0,0.034-0.021,0.052-0.051,0.058c-0.526,0.025-1.064,0.448-1.229,0.944
		c-0.006,0.025-0.037,0.044-0.071,0.036c-0.049-0.011-0.101-0.032-0.157-0.045C16.068,15.023,16.055,14.984,16.061,14.958
		L16.061,14.958z M17.72,13.478c-1.165,0-2.108,0.943-2.108,2.109c0,1.166,0.943,2.108,2.108,2.108c1.16,0,2.103-0.943,2.103-2.108
		C19.823,14.421,18.88,13.478,17.72,13.478L17.72,13.478z M22.616,24.059c0.652,0,1.184,0.534,1.184,1.187
		c0,0.651-0.532,1.182-1.184,1.182c-0.653,0-1.185-0.53-1.185-1.182C21.431,24.593,21.963,24.059,22.616,24.059L22.616,24.059z
		 M18.057,21.862c0.976,0,1.766,0.79,1.766,1.773c0,0.974-0.791,1.775-1.766,1.775c-0.982,0-1.773-0.801-1.773-1.775
		C16.283,22.652,17.074,21.862,18.057,21.862L18.057,21.862z M21.888,18.473c0.975,0,1.767,0.791,1.767,1.768
		c0,0.98-0.792,1.773-1.767,1.773c-0.982,0-1.775-0.792-1.775-1.773C20.113,19.264,20.905,18.473,21.888,18.473L21.888,18.473z
		 M2.047,16.055c-0.722,6.642,2.754,10.659,7.193,12.56c0.469,0.206,0.868,0.271,1.369,0.271c3.337,0,6.319,0,9.656,0
		c0.538,0,0.938-0.049,1.432-0.271c6.357-2.775,9.278-8.759,6.409-15.152c-0.044-0.091-0.133-0.15-0.239-0.15
		c-3.123,0.051-5.499,0.613-7.531,1.333c-0.031,0.011-0.044,0.043-0.037,0.073c0.562,1.729-0.723,3.553-2.583,3.553
		c-1.06,0-1.977-0.608-2.426-1.494c-0.013-0.032-0.044-0.042-0.077-0.032c-3.286,1.272-6.636,1.832-12.81-0.892
		C2.25,15.782,2.065,15.883,2.047,16.055L2.047,16.055z M22.773,7.394c-1.184-0.623-1.886-1.78-1.886-3.111
		c0-3.828,0-7.651,0-11.475c0-1.056-0.875-1.933-1.939-1.933c-2.354,0-4.717,0-7.073,0c-1.064,0-1.938,0.877-1.938,1.933
		c0,3.824,0,7.647,0,11.475c0,1.331-0.703,2.488-1.887,3.111C3.985,9.52,1.06,13.459,1.06,18.151c0,5.08,3.42,9.24,7.941,11.218
		c0.467,0.206,0.867,0.27,1.374,0.27c3.337,0,6.681,0,10.017,0c0.54,0,0.931-0.05,1.432-0.27c4.521-1.978,7.942-6.139,7.942-11.218
		C29.766,13.459,26.839,9.52,22.773,7.394L22.773,7.394z"/>
	<g id="Layer_4" display="none">
		<g display="inline">
			<path fill-rule="evenodd" clip-rule="evenodd" fill="#0076C7" d="M2.845,9.08c0.417,0.714,0.224,1.622-0.418,2.121
				c0.602,0.622,1.305,1.162,2.09,1.59c0.397-0.643,1.213-0.948,1.947-0.673c0.714,0.255,1.132,0.948,1.071,1.672
				c0.428,0.061,0.856,0.092,1.295,0.092s0.866-0.031,1.294-0.092c-0.061-0.724,0.357-1.417,1.07-1.672
				c0.734-0.275,1.55,0.03,1.947,0.673c0.786-0.428,1.488-0.969,2.09-1.59c-0.643-0.5-0.836-1.407-0.418-2.121
				c0.438-0.765,1.396-1.04,2.172-0.632c0.326-0.846,0.499-1.743,0.52-2.691c-0.877,0.143-1.713-0.448-1.876-1.335
				c-0.153-0.856,0.408-1.683,1.254-1.876c-0.357-0.836-0.846-1.601-1.447-2.274c-0.591,0.561-1.529,0.602-2.162,0.062
				c-0.601-0.5-0.754-1.346-0.408-2.019c-0.754-0.377-1.58-0.653-2.457-0.806c-0.184,0.693-0.826,1.204-1.58,1.204
				s-1.397-0.51-1.581-1.204C6.372-2.339,5.546-2.063,4.782-1.686c0.357,0.673,0.204,1.519-0.397,2.019
				c-0.632,0.541-1.57,0.5-2.162-0.062C1.621,0.944,1.132,1.709,0.775,2.545c0.846,0.193,1.407,1.02,1.253,1.876
				C1.866,5.308,1.03,5.899,0.153,5.756c0.021,0.948,0.194,1.845,0.52,2.691C1.448,8.04,2.407,8.315,2.845,9.08z M6.382,2.667h4.894
				v6.056H6.382V2.667z"/>
			<rect x="6.372" y="21.324" fill-rule="evenodd" clip-rule="evenodd" fill="#0076C7" width="5.067" height="1.753"/>
			<path fill-rule="evenodd" clip-rule="evenodd" fill="#0076C7" d="M15.864,21.039c-0.153-0.775,0.265-1.54,0.958-1.855
				c-0.316-0.847-0.765-1.631-1.315-2.325c-0.612,0.51-1.509,0.54-2.141,0.021c-0.663-0.53-0.815-1.448-0.398-2.151
				c-0.784-0.438-1.641-0.745-2.548-0.907c-0.102,0.815-0.795,1.468-1.642,1.478c-0.856,0.02-1.57-0.602-1.692-1.427
				c-0.907,0.204-1.753,0.54-2.528,0.999c0.449,0.693,0.326,1.621-0.316,2.172c-0.612,0.54-1.509,0.54-2.131,0.051
				c-0.53,0.714-0.948,1.519-1.233,2.376c0.703,0.285,1.142,1.029,1.019,1.814c-0.122,0.754-0.713,1.305-1.438,1.407
				c0.062,0.907,0.265,1.774,0.591,2.579c0.673-0.143,1.397,0.153,1.774,0.775c0.357,0.601,0.296,1.335-0.091,1.865
				c0.602,0.643,1.305,1.193,2.09,1.621c0.438-0.459,1.121-0.652,1.764-0.428c0.643,0.214,1.06,0.775,1.131,1.396
				c0.428,0.062,0.877,0.092,1.326,0.082c0.449-0.011,0.897-0.051,1.325-0.132c0.051-0.622,0.449-1.193,1.07-1.438
				c0.643-0.244,1.335-0.071,1.785,0.377c0.764-0.459,1.448-1.03,2.029-1.692c-0.408-0.52-0.49-1.254-0.153-1.866
				c0.356-0.642,1.07-0.958,1.753-0.846c0.285-0.816,0.459-1.682,0.489-2.589C16.618,22.323,16.007,21.783,15.864,21.039z
				 M8.9,25.79c-1.978,0-3.588-1.61-3.588-3.588c0-1.988,1.611-3.589,3.588-3.589c1.988,0,3.589,1.601,3.589,3.589
				C12.49,24.179,10.889,25.79,8.9,25.79z"/>
			<path fill-rule="evenodd" clip-rule="evenodd" fill="#0076C7" d="M30.168,12.76c-0.143-0.795,0.295-1.55,0.999-1.855
				c-0.306-0.856-0.744-1.652-1.285-2.354c-0.622,0.5-1.529,0.509-2.151-0.021c-0.653-0.551-0.795-1.479-0.356-2.182
				c-0.786-0.449-1.642-0.775-2.56-0.958C24.703,6.215,24,6.857,23.144,6.857c-0.867,0-1.57-0.642-1.683-1.468
				c-0.907,0.183-1.774,0.509-2.549,0.958c0.429,0.704,0.285,1.631-0.356,2.182c-0.306,0.255-0.684,0.387-1.05,0.397
				c-0.398,0.011-0.786-0.122-1.112-0.376c-0.541,0.703-0.979,1.498-1.285,2.354c0.714,0.306,1.142,1.061,0.999,1.855
				c-0.132,0.744-0.744,1.295-1.468,1.376c0.051,0.918,0.234,1.794,0.55,2.61c0.683-0.132,1.397,0.184,1.764,0.815
				c0.357,0.612,0.286,1.346-0.122,1.876c0.214,0.234,0.438,0.449,0.673,0.663c0.428,0.377,0.896,0.713,1.406,1.009
				c0.449-0.459,1.142-0.642,1.784-0.408c0.632,0.224,1.05,0.795,1.112,1.427c0.428,0.071,0.876,0.102,1.335,0.102
				c0.448,0,0.896-0.03,1.335-0.102c0.061-0.632,0.468-1.203,1.101-1.427c0.642-0.234,1.335-0.051,1.784,0.408
				c0.786-0.449,1.479-1.009,2.08-1.672c-0.408-0.53-0.479-1.264-0.123-1.876c0.367-0.632,1.081-0.948,1.774-0.815
				c0.306-0.815,0.489-1.692,0.54-2.61C30.912,14.055,30.3,13.504,30.168,12.76z M23.144,10.375c0.713,0,1.386,0.225,1.937,0.612
				l-1.937,1.937l-1.948-1.937C21.747,10.599,22.419,10.375,23.144,10.375z M20.309,15.758c-0.377-0.561-0.602-1.223-0.602-1.948
				c0-0.724,0.224-1.386,0.602-1.937l1.937,1.937L20.309,15.758z M23.144,17.247c-0.724,0-1.397-0.225-1.948-0.602l1.948-1.947
				l1.937,1.947C24.53,17.022,23.857,17.247,23.144,17.247z M25.967,15.758L24.03,13.81l1.937-1.937
				c0.377,0.551,0.602,1.213,0.602,1.937C26.569,14.535,26.344,15.197,25.967,15.758z"/>
		</g>
	</g>
	<path id="JEAN_MONNET" display="none" fill-rule="evenodd" clip-rule="evenodd" fill="#0076C7" d="M10.244,29.102
		c1.944-2.336,3.894-4.67,5.842-7.008c0.47-0.565,0.627-1.253,0.455-1.963c-1.962-8.076-3.927-16.153-5.891-24.228
		c-0.116-0.494-0.552-0.833-1.06-0.833c-0.855,0-1.715,0-2.571,0c-0.509,0-0.945,0.339-1.068,0.833
		C3.994,3.978,2.031,12.056,0.068,20.131c-0.173,0.709-0.014,1.398,0.455,1.963c1.962,2.351,3.92,4.708,5.882,7.056
		C7.943,30.997,8.543,31.141,10.244,29.102L10.244,29.102z M5.461-10.8c-0.529,0.097-0.909,0.552-0.901,1.097
		c0.028,1.558,0.29,2.327,1.186,3.692c0.212,0.325,0.551,0.503,0.935,0.491c1.098-0.021,2.15-0.021,3.247,0
		c0.386,0.012,0.722-0.166,0.936-0.491c0.894-1.365,1.158-2.134,1.185-3.692c0.008-0.545-0.372-1-0.901-1.097
		C9.893-11.027,6.715-11.027,5.461-10.8L5.461-10.8z"/>
	<path id="SPORT" fill-rule="evenodd" clip-rule="evenodd" fill="#0076C7" d="M15.576,0.326c8.353,0,15.126,6.773,15.126,15.131
		c0,8.355-6.773,15.126-15.126,15.126c-8.352,0-15.125-6.771-15.125-15.126C0.451,7.1,7.225,0.326,15.576,0.326L15.576,0.326z
		 M1.574,19.057c2.241,0.177,3.627-0.029,6.83-0.487c0.103-0.019,0.166-0.121,0.131-0.222c-0.955-2.849-3.666-6.045-6.37-8.721
		C2.089,9.551,2.066,9.442,2.113,9.345c0.058-0.133,0.12-0.263,0.182-0.39c0.076-0.154,0.276-0.189,0.402-0.069
		c2.854,2.709,5.54,5.828,6.681,9.328c0.028,0.086,0.12,0.138,0.206,0.109c1.002-0.289,1.999-0.567,3.002-0.854
		c0.097-0.03,0.15-0.132,0.108-0.224C10.214,10.839,10.65,6.52,12.001,1.26c0.022-0.097,0.092-0.166,0.189-0.183
		c0.131-0.035,0.27-0.063,0.408-0.092c0.182-0.041,0.338,0.126,0.297,0.309c-1.284,5.163-1.725,9.7,0.625,15.745
		c0.028,0.085,0.12,0.125,0.206,0.103c0.853-0.251,1.69-0.566,2.532-0.871c0.104-0.034,0.145-0.153,0.087-0.251
		c-2.476-3.846,1.621-9.368,5.855-13.569c0.079-0.08,0.194-0.098,0.298-0.045c0.114,0.063,0.228,0.125,0.337,0.188
		c0.15,0.08,0.179,0.282,0.059,0.396c-4.045,4.045-7.988,9.321-5.685,12.811c0.045,0.064,0.126,0.092,0.202,0.064
		c5.305-1.873,8.472-3.078,11.766-5.305c0.145-0.093,0.334-0.029,0.386,0.132c0.052,0.141,0.096,0.291,0.142,0.439
		c0.035,0.109-0.006,0.218-0.098,0.282c-3.027,2.08-5.878,3.111-11.608,5.133c-0.108,0.04-0.148,0.167-0.081,0.258
		c2.79,3.798,6.755,4.571,10.933,4.269c0.188-0.011,0.325,0.177,0.246,0.355c-0.063,0.149-0.131,0.293-0.199,0.442
		c-0.041,0.086-0.115,0.137-0.208,0.142c-4.401,0.345-8.462-0.555-11.653-4.996c-0.041-0.061-0.12-0.084-0.189-0.061
		c-0.929,0.331-1.851,0.686-2.79,0.96c-0.092,0.031-0.145,0.132-0.109,0.231c2.319,5.821,4.279,7.745,8.818,9.773
		c0.188,0.087,0.199,0.351,0.016,0.454c-0.148,0.084-0.298,0.166-0.446,0.239c-0.075,0.039-0.149,0.039-0.218,0.007
		c-4.394-1.903-6.422-3.799-8.989-10.272c-0.035-0.087-0.122-0.128-0.206-0.104c-1.027,0.291-2.052,0.588-3.083,0.882
		c-0.091,0.023-0.142,0.12-0.114,0.212c0.967,3.185,1.019,6.444,0.899,9.712c-0.012,0.169-0.182,0.286-0.344,0.229
		c-0.126-0.052-0.245-0.097-0.372-0.151c-0.098-0.038-0.154-0.13-0.154-0.239c0.091-3.249,0.011-6.528-0.861-9.398
		c-0.022-0.08-0.102-0.13-0.188-0.12c-3.776,0.585-5.305,0.808-7.029,0.671c-0.11-0.012-0.196-0.075-0.225-0.177
		c-0.052-0.161-0.098-0.322-0.143-0.488C1.265,19.21,1.396,19.045,1.574,19.057L1.574,19.057z"/>
</g>
</svg>
