<?xml version="1.0" encoding="utf-8"?>
<!-- Generator: Adobe Illustrator 16.0.5, SVG Export Plug-In . SVG Version: 6.00 Build 0)  -->
<!DOCTYPE svg PUBLIC "-//W3C//DTD SVG 1.1//EN" "http://www.w3.org/Graphics/SVG/1.1/DTD/svg11.dtd">
<svg version="1.1" id="Shutter_xA9_Olha_Chernova" xmlns="http://www.w3.org/2000/svg" xmlns:xlink="http://www.w3.org/1999/xlink"
	 x="0px" y="0px" width="25.596px" height="37.834px" viewBox="0 0 25.596 37.834" enable-background="new 0 0 25.596 37.834"
	 xml:space="preserve">
<g id="INDIVIDUALS">
	<path id="Students" display="none" fill-rule="evenodd" clip-rule="evenodd" fill="#0076C7" d="M17.837,21.362
		c5.994,2.91,11.864,4.51,17.796,5.147c0.119,0.01,0.215,0.116,0.215,0.233c0,2.795,0,5.604,0,8.401
		c0,0.147-0.131,0.233-0.276,0.233c-5.765-0.014-12.841-1.95-17.672-5.076c-0.063-0.039-0.104-0.114-0.104-0.188
		c0-1.222,0-8.287,0.021-8.743C17.816,21.362,17.816,21.362,17.837,21.362L17.837,21.362z M68.211,20.32
		c1.611,0.532,1.769,2.822,0.477,3.721c-0.085,0.056-0.127,0.149-0.104,0.254c0.741,3.737,1.494,7.489,2.244,11.229
		c0.106,0.544-0.136,1.08-0.624,1.348c-1.42,0.802-3.519,0.985-5.202,0.485c-0.635-0.178-1.006-0.814-0.878-1.462
		c0.773-3.866,1.547-7.733,2.328-11.601c0.022-0.104-0.021-0.198-0.116-0.266c-1.564-1.018-1.228-3.125,0.297-3.665
		c0.105-0.031,0.171-0.125,0.171-0.245c-0.009-1.463-0.053-2.94-0.065-4.406c0-0.298-0.22-0.71-0.516-0.56
		c-9.609,4.966-20.108,8.757-29.918,10.497c-0.053,0.013-0.096,0.013-0.162,0c-11.79-1.905-24.809-6.696-35.351-13.443
		c-0.36-0.223-0.253-0.762,0.16-0.843C13.992,8.819,25.445,3.718,35.983-2.311c0.158-0.087,0.329-0.087,0.478,0.01
		C46.855,3.928,59.271,9.022,71.423,11.35c0.425,0.088,0.517,0.644,0.15,0.857c-1.221,0.708-2.461,1.409-3.711,2.073
		c-0.105,0.064-0.149,0.206-0.085,0.311c0.158,0.254,0.214,0.612,0.214,1.112c0.01,1.418,0.031,2.944,0.041,4.387
		C68.032,20.195,68.105,20.29,68.211,20.32L68.211,20.32z M53.37,22.049c-5.573,2.702-11.028,4.184-16.538,4.777
		c-0.105,0.013-0.191,0.107-0.191,0.214c0,2.605,0,5.211,0,7.807c0,0.137,0.118,0.21,0.244,0.21c5.359,0,11.93-1.81,16.424-4.711
		c0.062-0.044,0.093-0.111,0.093-0.186c0-1.12,0-7.688-0.011-8.1C53.391,22.037,53.379,22.037,53.37,22.049L53.37,22.049z"/>
	<path id="Teaching" display="none" fill-rule="evenodd" clip-rule="evenodd" fill="#0076C7" d="M5.663-3.725h45.219
		c3.116,0,5.663,2.549,5.663,5.667v30.25c0,3.117-2.547,5.665-5.663,5.665H5.663C2.548,37.856,0,35.309,0,32.192V1.942
		C0-1.176,2.548-3.725,5.663-3.725L5.663-3.725z M6.22-1.307h44.098c2.1,0,3.822,1.709,3.822,3.813v29.132
		c0,2.094-1.723,3.815-3.822,3.815H6.22c-2.093,0-3.816-1.721-3.816-3.815V2.505C2.404,0.402,4.127-1.307,6.22-1.307L6.22-1.307z
		 M37.318,6.781c1.946-1.383,5.685-2.869,6.907,0.163c0.516,1.27,0.289,2.359-0.707,3.313c2.201-0.521,3.789,1.039,3.679,3.193
		c-0.12,2.63-3.493,3.947-5.628,4.613c-1.148,0.361-1.737-1.506-0.558-1.833c1.536-0.429,4.557-1.358,3.714-3.456
		c-0.473-1.16-1.757-1.042-2.794-0.72c-0.438,0.135-0.902-0.075-1.086-0.5c-0.179-0.419-0.018-0.911,0.38-1.128
		c0.824-0.473,1.433-1.189,0.995-2.271c-0.668-1.645-2.59-0.691-3.639,0c-0.361,0.228-0.599,0.464-1.071,0.322
		C36.734,8.249,36.634,7.277,37.318,6.781L37.318,6.781z M21.001,24.214c0.599-1.688,1.55-3.435,2.1-5.133
		c0.971-3.044-1.055-5.549-3.231-3.051c-1.729,1.999-3.112,0.429-1.231-1.514c3.752-3.904,8.505-0.461,6.596,4.678
		c-0.227,0.607-1.72,3.83,0.405,2.968c0.601-0.238,1.201-0.483,1.799-0.724c1.121-0.449,1.897,1.467,0.776,1.923
		c-1.967,0.792-3.94,1.593-5.907,2.388C21.396,26.122,20.577,25.401,21.001,24.214L21.001,24.214z M34.551,17.354
		c0.22,0.549,0.446,1.106,0.665,1.661c0.455,1.118-1.459,1.893-1.916,0.777c-0.225-0.557-0.446-1.113-0.674-1.66
		c-0.185-0.459-0.71-0.674-1.163-0.498c-0.508,0.21-1.013,0.413-1.521,0.615c-1.097,0.446-1.796-1.266-0.689-1.712
		c0.504-0.203,1.011-0.405,1.517-0.617c0.457-0.185,0.676-0.706,0.492-1.163c-0.222-0.548-0.442-1.09-0.661-1.638
		c-0.454-1.125,1.461-1.898,1.916-0.774c0.22,0.549,0.446,1.086,0.667,1.635c0.184,0.457,0.709,0.683,1.162,0.498
		c0.508-0.208,1.014-0.414,1.521-0.617c1.104-0.444,1.797,1.266,0.699,1.714c-0.516,0.2-1.02,0.403-1.527,0.615
		C34.582,16.374,34.363,16.898,34.551,17.354L34.551,17.354z M49.66,0.134c-14.259,0-28.517,0-42.776,0
		c-1.695,0-3.08,1.349-3.08,2.995c0,9.292,0,18.587,0,27.876c0,1.646,1.384,3.004,3.08,3.004c1.105,0,2.211,0,3.318,0
		c0.48,0,0.876-0.396,0.876-0.879c0-0.783,0-1.567,0-2.351c0-0.212,0.169-0.38,0.38-0.38c4.495,0,8.994,0,13.48,0
		c0.212,0,0.39,0.168,0.39,0.38c0,0.783,0,1.567,0,2.351c0,0.483,0.397,0.879,0.878,0.879c7.819,0,15.634,0,23.454,0
		c1.689,0,3.08-1.358,3.08-3.004c0-9.29,0-18.585,0-27.876C52.74,1.483,51.356,0.134,49.66,0.134L49.66,0.134z"/>
	<path display="none" fill-rule="evenodd" clip-rule="evenodd" fill="#0076C7" d="M0.68,2.477h5.951c0.374,0,0.68,0.306,0.68,0.679
		v33.781c0,0.372-0.306,0.681-0.68,0.681H0.68c-0.375,0-0.68-0.309-0.68-0.681V3.155C0,2.782,0.305,2.477,0.68,2.477L0.68,2.477z
		 M25.661-3.594c0.443-0.161,0.908,0.167,0.908,0.638c0,11.23,0,22.463,0,33.69c0,0.298-0.173,0.54-0.444,0.646
		c-5.717,2.059-11.431,4.125-17.142,6.195c-0.45,0.16-0.917-0.169-0.917-0.639c0-11.233,0-22.465,0-33.689
		c0-0.298,0.175-0.549,0.453-0.646l1.623-0.583c0.589-0.214,0.936-0.083,0.936,0.729V18.73c0,0.134,0.16,0.188,0.243,0.087
		l1.624-2.096c0.055-0.077,0.165-0.071,0.214,0l1.512,2.074c0.078,0.103,0.243,0.049,0.243-0.084c0-5.979,0-11.959,0-17.943
		c0-0.538,0.249-0.566,0.659-0.712C18.939-1.159,22.297-2.38,25.661-3.594L25.661-3.594z M2.47,1.789
		C7.512-0.034,12.558-1.859,17.6-3.683c0.444-0.16,0.909,0.166,0.909,0.643c0,0.326,0,0.646,0,0.97c0,0.155-0.089,0.281-0.229,0.33
		C16.63-1.144,9.026,1.588,8.16,1.896C8.087,1.92,8.067,1.92,7.985,1.92c-1.824,0-3.656,0-5.48,0C2.165,1.92,2.165,1.902,2.47,1.789
		L2.47,1.789z"/>
	<path display="none" fill="#0076C7" d="M0.312,37.334c9.848-3.531,20.832-3.685,31.048,0c0.271,0.099,0.197,0.5-0.086,0.5
		c-10.297,0-20.586,0-30.875,0C0.109,37.834,0.042,37.434,0.312,37.334L0.312,37.334z M15.498,9.008
		c-1.413-0.864-2.696-1.936-3.771-3.152c-0.039-0.042-0.099-0.05-0.142-0.013c-1.161,0.928-2.187,2.028-3.047,3.24
		C8.5,9.132,8.52,9.198,8.569,9.231c1.652,1.007,3.305,2.013,4.958,3.014c0.049,0.031,0.117,0.02,0.14-0.029
		c0.622-1.02,1.242-2.047,1.864-3.066C15.561,9.105,15.547,9.04,15.498,9.008L15.498,9.008z M7.199,22.856
		c1.02-1.683,2.044-3.366,3.07-5.051c0.031-0.048,0.013-0.116-0.036-0.148c-1.346-0.803-2.796-1.412-4.294-1.773
		c-0.056-0.015-0.116,0.028-0.125,0.088c-0.281,2.344,0.062,4.722,1.199,6.878C7.051,22.921,7.154,22.921,7.199,22.856L7.199,22.856
		z M17.887,1.452c-2.431-0.848-5.024-0.891-7.42-0.214c-0.061,0.017-0.093,0.078-0.068,0.132c0.375,0.911,0.86,1.767,1.438,2.57
		c0.03,0.042,0.099,0.053,0.142,0.025c1.763-1.167,3.759-1.984,5.891-2.316C17.973,1.636,17.993,1.482,17.887,1.452L17.887,1.452z
		 M9.04,1.729C6.922,2.613,5.03,4.094,3.636,6.101C3.598,6.15,3.617,6.22,3.666,6.249C4.875,6.987,6.08,7.72,7.291,8.455
		c0.048,0.026,0.111,0.013,0.142-0.03c0.939-1.346,2.069-2.56,3.347-3.589c0.042-0.031,0.055-0.098,0.02-0.14
		C10.147,3.792,9.6,2.816,9.182,1.79C9.159,1.735,9.096,1.71,9.04,1.729L9.04,1.729z M2.85,7.392
		c-1.139,2.151-1.579,4.511-1.394,6.791c0.004,0.062,0.054,0.102,0.116,0.098c1.037-0.098,2.082-0.069,3.126,0.068
		c0.05,0.006,0.099-0.025,0.111-0.081c0.368-1.592,0.989-3.147,1.825-4.588c0.024-0.051,0.011-0.111-0.037-0.144
		c-1.198-0.723-2.403-1.453-3.6-2.186C2.946,7.318,2.88,7.337,2.85,7.392L2.85,7.392z M4.982,21.897
		c0.048,0.049,0.22,0.037,0.17-0.106c-0.688-1.964-0.86-4.027-0.601-6.061c0.005-0.063-0.03-0.112-0.092-0.121
		c-0.897-0.113-1.799-0.138-2.697-0.061c-0.061,0.009-0.104,0.061-0.093,0.124C2.143,17.991,3.267,20.165,4.982,21.897L4.982,21.897
		z M10.541,25.16c2.008,0.552,4.091,0.583,6.069,0.126c0.063-0.01,0.093-0.077,0.074-0.139c-0.276-0.707-0.606-1.387-0.994-2.038
		c-0.03-0.059-0.093-0.068-0.147-0.038c-1.513,0.953-3.196,1.615-4.988,1.887C10.442,24.975,10.437,25.129,10.541,25.16
		L10.541,25.16z M18.059,24.858c2.347-0.849,4.455-2.403,5.965-4.589c0.038-0.049,0.026-0.118-0.03-0.147
		c-1.123-0.681-2.254-1.371-3.379-2.059c-0.048-0.024-0.109-0.012-0.14,0.039c-1.015,1.578-2.269,2.984-3.718,4.113
		c-0.043,0.031-0.048,0.087-0.023,0.135c0.467,0.775,0.871,1.597,1.191,2.451C17.942,24.852,18.004,24.883,18.059,24.858
		L18.059,24.858z M24.812,18.984c1.248-2.357,1.659-4.953,1.327-7.432c-0.006-0.056-0.055-0.098-0.117-0.095
		c-0.977,0.121-1.96,0.131-2.943,0.05c-0.048,0-0.098,0.037-0.109,0.094c-0.296,1.812-0.897,3.58-1.752,5.209
		c-0.025,0.05-0.006,0.111,0.037,0.142c1.137,0.687,2.273,1.384,3.41,2.069C24.718,19.054,24.781,19.035,24.812,18.984
		L24.812,18.984z M25.85,10.065c-0.546-2.089-1.628-4.043-3.208-5.627c-0.072-0.075-0.203,0-0.172,0.105
		c0.597,1.815,0.799,3.709,0.67,5.584c0,0.054,0.038,0.104,0.098,0.11c0.836,0.063,1.684,0.047,2.521-0.045
		C25.824,10.188,25.863,10.128,25.85,10.065L25.85,10.065z M11.044,16.528c0.614-1.008,1.235-2.021,1.849-3.035
		c0.031-0.05,0.013-0.118-0.036-0.15c-1.659-1.005-3.325-2.02-4.988-3.026c-0.051-0.032-0.111-0.017-0.143,0.038
		c-0.754,1.301-1.315,2.702-1.652,4.14c-0.013,0.054,0.025,0.111,0.079,0.124c1.652,0.387,3.262,1.056,4.749,1.949
		C10.952,16.594,11.013,16.577,11.044,16.528L11.044,16.528z M12.143,17.387c1.432,1.039,2.717,2.298,3.767,3.722
		c0.038,0.052,0.104,0.064,0.147,0.026c1.286-1.021,2.408-2.286,3.318-3.698c0.03-0.05,0.018-0.117-0.038-0.148
		c-1.732-1.048-3.465-2.107-5.202-3.164c-0.05-0.029-0.111-0.011-0.142,0.037c-0.626,1.026-1.252,2.058-1.88,3.086
		C12.09,17.294,12.1,17.352,12.143,17.387L12.143,17.387z M14.86,21.855c-0.947-1.283-2.089-2.414-3.374-3.361
		c-0.049-0.031-0.116-0.019-0.147,0.031c-1.039,1.707-2.083,3.421-3.121,5.129c-0.038,0.068,0.005,0.153,0.085,0.153
		c2.371,0.081,4.594-0.601,6.523-1.808C14.883,21.971,14.896,21.901,14.86,21.855L14.86,21.855z M12.789,5.114
		c0.971,1.081,2.114,2.021,3.373,2.8c0.049,0.031,0.118,0.015,0.148-0.038c0.995-1.64,1.99-3.28,2.992-4.918
		c0.042-0.073-0.013-0.166-0.099-0.16c-2.322,0.147-4.497,0.935-6.396,2.162C12.751,4.996,12.747,5.071,12.789,5.114L12.789,5.114z
		 M17.481,8.64c1.346,0.662,2.784,1.145,4.258,1.407c0.061,0.012,0.123-0.031,0.123-0.093c0.142-2.192-0.221-4.409-1.192-6.461
		c-0.03-0.081-0.135-0.087-0.177-0.013c-1.019,1.669-2.033,3.34-3.054,5.01C17.408,8.548,17.427,8.615,17.481,8.64L17.481,8.64z
		 M21.61,11.324c-1.67-0.28-3.298-0.828-4.816-1.591c-0.043-0.025-0.104-0.005-0.129,0.043c-0.634,1.034-1.266,2.072-1.892,3.109
		c-0.031,0.048-0.02,0.111,0.03,0.143c1.726,1.048,3.453,2.092,5.179,3.143c0.048,0.033,0.116,0.014,0.14-0.035
		c0.762-1.467,1.297-3.062,1.566-4.687C21.702,11.391,21.667,11.336,21.61,11.324L21.61,11.324z M20.954,1.476
		c6.469,3.932,8.521,12.365,4.589,18.831c-3.938,6.467-12.366,8.519-18.834,4.59C0.245,20.962-1.808,12.528,2.124,6.065
		C6.057-0.402,14.485-2.457,20.954,1.476L20.954,1.476z M22.225-2.204c6.586,4.253,9.239,10.278,9.063,16.003
		c-0.079,2.575-0.738,5.082-1.874,7.342c-1.138,2.261-2.746,4.275-4.743,5.85c-4.442,3.52-10.738,4.877-17.779,2.015
		c-1.849-0.751-0.779-3.047,1.032-2.322c6.058,2.432,11.421,1.29,15.176-1.677c1.701-1.347,3.077-3.066,4.049-5.002
		c0.968-1.935,1.533-4.078,1.602-6.284c0.154-4.916-2.188-10.117-7.975-13.835C18.607-1.504,19.829-3.75,22.225-2.204L22.225-2.204z
		 M15.836,31.1c0.989,0,1.788,0.626,1.788,1.409c0,0.777-0.799,1.412-1.788,1.412s-1.794-0.634-1.794-1.412
		C14.042,31.726,14.847,31.1,15.836,31.1L15.836,31.1z"/>
</g>
<g id="ORGANISATIONS">
	<path fill-rule="evenodd" clip-rule="evenodd" fill="#0076C7" d="M7.082,2.201c1.566,0,3.136,0,4.699,0
		c0.134,0,0.242-0.109,0.242-0.24c0-0.316,0-0.635,0-0.95c0-1.052,1.582-1.052,1.582,0c0,0.314,0,0.633,0,0.95
		c0,0.13,0.103,0.24,0.237,0.24c2.826,0,5.66,0,8.485,0c0.121,0,0.223,0.037,0.314,0.12c0.888,0.787,1.776,1.577,2.657,2.369
		c0.146,0.126,0.152,0.354,0.008,0.489c-0.89,0.826-1.778,1.655-2.666,2.483c-0.091,0.083-0.193,0.125-0.32,0.125
		c-2.827,0-5.653,0-8.479,0c-0.134,0-0.237,0.105-0.237,0.235c0,0.424,0,0.854,0,1.276c0,0.132,0.103,0.234,0.237,0.234
		c1.54,0,3.081,0,4.621,0c0.18,0,0.332,0.152,0.332,0.334c0,1.643,0,3.287,0,4.928c0,0.182-0.151,0.328-0.332,0.328
		c-1.54,0-3.081,0-4.621,0c-0.134,0-0.237,0.109-0.237,0.24c0,0.382,0,0.768,0,1.148c0,0.133,0.103,0.243,0.237,0.243
		c2.826,0,5.66,0,8.485,0c0.121,0,0.223,0.034,0.314,0.119c0.888,0.786,1.776,1.579,2.657,2.368c0.146,0.127,0.152,0.357,0.008,0.49
		c-0.89,0.826-1.778,1.656-2.666,2.48c-0.091,0.085-0.193,0.127-0.32,0.127c-2.827,0-5.653,0-8.479,0
		c-0.134,0-0.237,0.103-0.237,0.238c0,4.819,0,9.639,0,14.459c0,1.051-1.582,1.051-1.582,0c0-4.82,0-9.641,0-14.459
		c0-0.135-0.108-0.238-0.242-0.238c-1.563,0-3.133,0-4.699,0c-0.187,0-0.331-0.15-0.331-0.332c0-1.642,0-3.284,0-4.921
		c0-0.188,0.145-0.332,0.331-0.332c1.566,0,3.136,0,4.699,0c0.134,0,0.242-0.11,0.242-0.243c0-0.38,0-0.767,0-1.148
		c0-0.131-0.108-0.24-0.242-0.24c-2.852,0-5.707,0-8.559,0c-0.127,0-0.234-0.042-0.326-0.125c-0.888-0.831-1.77-1.651-2.658-2.479
		c-0.144-0.133-0.144-0.363,0.008-0.49c0.88-0.791,1.77-1.582,2.657-2.373c0.09-0.079,0.192-0.123,0.315-0.123
		c2.856,0,5.707,0,8.563,0c0.134,0,0.242-0.102,0.242-0.234c0-0.422,0-0.852,0-1.276c0-0.13-0.108-0.235-0.242-0.235
		c-1.563,0-3.133,0-4.699,0c-0.187,0-0.331-0.148-0.331-0.332c0-1.641,0-3.285,0-4.924C6.75,2.346,6.895,2.201,7.082,2.201
		L7.082,2.201z"/>
</g>
</svg>
