<?xml version="1.0" encoding="utf-8"?>
<!-- Generator: Adobe Illustrator 16.0.5, SVG Export Plug-In . SVG Version: 6.00 Build 0)  -->
<!DOCTYPE svg PUBLIC "-//W3C//DTD SVG 1.1//EN" "http://www.w3.org/Graphics/SVG/1.1/DTD/svg11.dtd">
<svg version="1.1" id="Layer_1" xmlns="http://www.w3.org/2000/svg" xmlns:xlink="http://www.w3.org/1999/xlink" x="0px" y="0px"
	 width="25px" height="20px" viewBox="0 0 25 20" enable-background="new 0 0 25 20" xml:space="preserve">
<path fill="#FFFFFF" d="M24.865,2.364c-0.906,0.401-1.879,0.673-2.9,0.794c1.043-0.625,1.844-1.614,2.221-2.793
	c-0.977,0.579-2.057,0.999-3.207,1.225c-0.92-0.981-2.232-1.595-3.686-1.595c-2.787,0-5.049,2.262-5.049,5.049
	c0,0.396,0.045,0.78,0.131,1.15C8.179,5.984,4.458,3.975,1.968,0.92C1.533,1.666,1.285,2.533,1.285,3.458
	c0,1.751,0.891,3.297,2.246,4.202C2.703,7.634,1.923,7.407,1.244,7.029c0,0.021,0,0.043,0,0.063c0,2.446,1.74,4.487,4.051,4.951
	c-0.426,0.115-0.871,0.177-1.332,0.177c-0.326,0-0.641-0.031-0.951-0.091c0.645,2.007,2.51,3.467,4.717,3.508
	c-1.727,1.353-3.904,2.16-6.27,2.16c-0.406,0-0.811-0.023-1.203-0.07c2.234,1.433,4.889,2.268,7.738,2.268
	c9.287,0,14.365-7.692,14.365-14.364c0-0.219-0.004-0.436-0.014-0.653C23.332,4.265,24.187,3.376,24.865,2.364z"/>
</svg>
