<?xml version="1.0" standalone="no"?>
<!DOCTYPE svg PUBLIC "-//W3C//DTD SVG 20010904//EN"
 "http://www.w3.org/TR/2001/REC-SVG-20010904/DTD/svg10.dtd">
<svg version="1.0" xmlns="http://www.w3.org/2000/svg"
 width="301.000000pt" height="301.000000pt" viewBox="0 0 301.000000 301.000000"
 preserveAspectRatio="xMidYMid meet">
<metadata>
Created by potrace 1.11, written by Peter Selinger 2001-2013
</metadata>
<g transform="translate(0.000000,301.000000) scale(0.100000,-0.100000)"
fill="#000000" stroke="none">
<path d="M1280 2944 c-117 -21 -130 -24 -228 -55 -96 -31 -246 -100 -332 -154
-116 -72 -285 -225 -371 -335 -229 -294 -342 -679 -305 -1045 41 -417 262
-800 601 -1046 157 -114 382 -212 575 -250 120 -23 350 -31 470 -15 482 61
910 370 1128 811 50 101 100 245 118 340 2 11 6 31 8 45 16 81 19 119 20 245
0 77 -3 165 -8 195 -11 76 -45 229 -55 249 -5 9 -9 18 -8 21 3 12 -51 143 -89
217 -91 175 -242 362 -374 461 -19 15 -37 30 -40 33 -10 13 -177 117 -229 144
-129 65 -286 114 -444 140 -99 15 -348 15 -437 -1z"/>
</g>
</svg>
