<?xml version="1.0" encoding="utf-8"?>
<!-- Generator: Adobe Illustrator 16.0.5, SVG Export Plug-In . SVG Version: 6.00 Build 0)  -->
<!DOCTYPE svg PUBLIC "-//W3C//DTD SVG 1.1//EN" "http://www.w3.org/Graphics/SVG/1.1/DTD/svg11.dtd">
<svg version="1.1" id="Shutter" xmlns="http://www.w3.org/2000/svg" xmlns:xlink="http://www.w3.org/1999/xlink" x="0px" y="0px"
	 width="27.18px" height="41.559px" viewBox="0 0 27.18 41.559" enable-background="new 0 0 27.18 41.559" xml:space="preserve">
<g id="INDIVIDUALS">
	<path id="Students" display="none" fill-rule="evenodd" clip-rule="evenodd" fill="#0076C7" d="M17.837,25.087
		c5.994,2.91,11.864,4.51,17.796,5.147c0.119,0.01,0.215,0.116,0.215,0.233c0,2.795,0,5.604,0,8.401
		c0,0.147-0.131,0.233-0.276,0.233c-5.765-0.014-12.841-1.95-17.672-5.076c-0.063-0.039-0.104-0.114-0.104-0.188
		c0-1.222,0-8.287,0.021-8.743C17.816,25.087,17.816,25.087,17.837,25.087L17.837,25.087z M68.211,24.045
		c1.611,0.532,1.769,2.822,0.477,3.721c-0.085,0.056-0.127,0.149-0.104,0.254c0.741,3.737,1.494,7.489,2.244,11.229
		c0.106,0.544-0.136,1.08-0.624,1.348c-1.42,0.802-3.519,0.985-5.202,0.485c-0.635-0.178-1.006-0.814-0.878-1.462
		c0.773-3.866,1.547-7.733,2.328-11.601c0.022-0.104-0.021-0.198-0.116-0.266c-1.564-1.018-1.228-3.125,0.297-3.665
		c0.105-0.031,0.171-0.125,0.171-0.245c-0.009-1.463-0.053-2.94-0.065-4.406c0-0.298-0.22-0.71-0.516-0.56
		c-9.609,4.966-20.108,8.757-29.918,10.497c-0.053,0.013-0.096,0.013-0.162,0c-11.79-1.905-24.809-6.696-35.351-13.443
		c-0.36-0.223-0.253-0.762,0.16-0.843c13.041-2.545,24.494-7.646,35.032-13.675c0.158-0.087,0.329-0.087,0.478,0.01
		c10.395,6.229,22.811,11.323,34.962,13.65c0.425,0.088,0.517,0.644,0.15,0.857c-1.221,0.708-2.461,1.409-3.711,2.073
		c-0.105,0.064-0.149,0.206-0.085,0.311c0.158,0.254,0.214,0.612,0.214,1.112c0.01,1.418,0.031,2.944,0.041,4.387
		C68.032,23.92,68.105,24.015,68.211,24.045L68.211,24.045z M53.37,25.773c-5.573,2.702-11.028,4.184-16.538,4.777
		c-0.105,0.013-0.191,0.107-0.191,0.214c0,2.605,0,5.211,0,7.807c0,0.137,0.118,0.21,0.244,0.21c5.359,0,11.93-1.81,16.424-4.711
		c0.062-0.044,0.093-0.111,0.093-0.186c0-1.12,0-7.688-0.011-8.1C53.391,25.762,53.379,25.762,53.37,25.773L53.37,25.773z"/>
	<path id="Teaching" display="none" fill-rule="evenodd" clip-rule="evenodd" fill="#0076C7" d="M5.663,0h45.219
		c3.116,0,5.663,2.549,5.663,5.667v30.25c0,3.117-2.547,5.665-5.663,5.665H5.663C2.548,41.581,0,39.034,0,35.917V5.667
		C0,2.549,2.548,0,5.663,0L5.663,0z M6.22,2.417h44.098c2.1,0,3.822,1.709,3.822,3.813v29.132c0,2.094-1.723,3.815-3.822,3.815H6.22
		c-2.093,0-3.816-1.721-3.816-3.815V6.23C2.404,4.126,4.127,2.417,6.22,2.417L6.22,2.417z M37.318,10.506
		c1.946-1.383,5.685-2.869,6.907,0.163c0.516,1.27,0.289,2.359-0.707,3.313c2.201-0.521,3.789,1.039,3.679,3.193
		c-0.12,2.63-3.493,3.947-5.628,4.613c-1.148,0.361-1.737-1.506-0.558-1.833c1.536-0.429,4.557-1.358,3.714-3.456
		c-0.473-1.16-1.757-1.042-2.794-0.72c-0.438,0.135-0.902-0.075-1.086-0.5c-0.179-0.419-0.018-0.911,0.38-1.128
		c0.824-0.473,1.433-1.189,0.995-2.271c-0.668-1.645-2.59-0.691-3.639,0c-0.361,0.228-0.599,0.464-1.071,0.322
		C36.734,11.973,36.634,11.002,37.318,10.506L37.318,10.506z M21.001,27.939c0.599-1.688,1.55-3.435,2.1-5.133
		c0.971-3.044-1.055-5.549-3.231-3.051c-1.729,1.999-3.112,0.429-1.231-1.514c3.752-3.904,8.505-0.461,6.596,4.678
		c-0.227,0.607-1.72,3.83,0.405,2.968c0.601-0.238,1.201-0.483,1.799-0.724c1.121-0.449,1.897,1.467,0.776,1.923
		c-1.967,0.792-3.94,1.593-5.907,2.388C21.396,29.846,20.577,29.126,21.001,27.939L21.001,27.939z M34.551,21.078
		c0.22,0.549,0.446,1.106,0.665,1.661c0.455,1.118-1.459,1.893-1.916,0.777c-0.225-0.557-0.446-1.113-0.674-1.66
		c-0.185-0.459-0.71-0.674-1.163-0.498c-0.508,0.21-1.013,0.413-1.521,0.615c-1.097,0.446-1.796-1.266-0.689-1.712
		c0.504-0.203,1.011-0.405,1.517-0.617c0.457-0.185,0.676-0.706,0.492-1.163c-0.222-0.548-0.442-1.09-0.661-1.638
		c-0.454-1.125,1.461-1.898,1.916-0.774c0.22,0.549,0.446,1.086,0.667,1.635c0.184,0.457,0.709,0.683,1.162,0.498
		c0.508-0.208,1.014-0.414,1.521-0.617c1.104-0.444,1.797,1.266,0.699,1.714c-0.516,0.2-1.02,0.403-1.527,0.615
		C34.582,20.098,34.363,20.623,34.551,21.078L34.551,21.078z M49.66,3.858c-14.259,0-28.517,0-42.776,0
		c-1.695,0-3.08,1.349-3.08,2.995c0,9.292,0,18.587,0,27.876c0,1.646,1.384,3.004,3.08,3.004c1.105,0,2.211,0,3.318,0
		c0.48,0,0.876-0.396,0.876-0.879c0-0.783,0-1.567,0-2.351c0-0.212,0.169-0.38,0.38-0.38c4.495,0,8.994,0,13.48,0
		c0.212,0,0.39,0.168,0.39,0.38c0,0.783,0,1.567,0,2.351c0,0.483,0.397,0.879,0.878,0.879c7.819,0,15.634,0,23.454,0
		c1.689,0,3.08-1.358,3.08-3.004c0-9.29,0-18.585,0-27.876C52.74,5.208,51.356,3.858,49.66,3.858L49.66,3.858z"/>
	<path fill-rule="evenodd" clip-rule="evenodd" fill="#0076C7" d="M0.68,6.201h5.951c0.374,0,0.68,0.306,0.68,0.679v33.781
		c0,0.372-0.306,0.681-0.68,0.681H0.68c-0.375,0-0.68-0.309-0.68-0.681V6.88C0,6.507,0.305,6.201,0.68,6.201L0.68,6.201z
		 M25.661,0.13c0.443-0.161,0.908,0.167,0.908,0.638c0,11.23,0,22.463,0,33.69c0,0.298-0.173,0.54-0.444,0.646
		c-5.717,2.059-11.431,4.125-17.142,6.195c-0.45,0.16-0.917-0.169-0.917-0.639c0-11.233,0-22.465,0-33.689
		c0-0.298,0.175-0.549,0.453-0.646l1.623-0.583c0.589-0.214,0.936-0.083,0.936,0.729v15.983c0,0.134,0.16,0.188,0.243,0.087
		l1.624-2.096c0.055-0.077,0.165-0.071,0.214,0l1.512,2.074c0.078,0.103,0.243,0.049,0.243-0.084c0-5.979,0-11.959,0-17.943
		c0-0.538,0.249-0.566,0.659-0.712C18.939,2.565,22.297,1.344,25.661,0.13L25.661,0.13z M2.47,5.514
		C7.512,3.691,12.558,1.866,17.6,0.042c0.444-0.16,0.909,0.166,0.909,0.643c0,0.326,0,0.646,0,0.97c0,0.155-0.089,0.281-0.229,0.33
		C16.63,2.581,9.026,5.313,8.16,5.62C8.087,5.645,8.067,5.645,7.985,5.645c-1.824,0-3.656,0-5.48,0
		C2.165,5.645,2.165,5.627,2.47,5.514L2.47,5.514z"/>
</g>
</svg>
