<?xml version="1.0" encoding="utf-8"?>
<!-- Generator: Adobe Illustrator 16.0.5, SVG Export Plug-In . SVG Version: 6.00 Build 0)  -->
<!DOCTYPE svg PUBLIC "-//W3C//DTD SVG 1.1//EN" "http://www.w3.org/Graphics/SVG/1.1/DTD/svg11.dtd">
<svg version="1.1" id="Shutter_xA9_Olha_Chernova" xmlns="http://www.w3.org/2000/svg" xmlns:xlink="http://www.w3.org/1999/xlink"
	 x="0px" y="0px" width="31.636px" height="33.602px" viewBox="0 0 31.636 33.602" enable-background="new 0 0 31.636 33.602"
	 xml:space="preserve">
<g id="INDIVIDUALS">
	<path id="Students" display="none" fill-rule="evenodd" clip-rule="evenodd" fill="#0076C7" d="M17.837,17.13
		c5.994,2.91,11.864,4.51,17.796,5.147c0.119,0.01,0.215,0.116,0.215,0.233c0,2.795,0,5.604,0,8.401
		c0,0.147-0.131,0.233-0.276,0.233c-5.765-0.014-12.841-1.95-17.672-5.076c-0.063-0.039-0.104-0.114-0.104-0.188
		c0-1.222,0-8.287,0.021-8.743C17.816,17.13,17.816,17.13,17.837,17.13L17.837,17.13z M68.211,16.088
		c1.611,0.532,1.769,2.822,0.477,3.721c-0.085,0.056-0.127,0.149-0.104,0.254c0.741,3.737,1.494,7.489,2.244,11.229
		c0.106,0.544-0.136,1.08-0.624,1.348c-1.42,0.802-3.519,0.985-5.202,0.485c-0.635-0.178-1.006-0.814-0.878-1.462
		c0.773-3.866,1.547-7.733,2.328-11.601c0.022-0.104-0.021-0.198-0.116-0.266c-1.564-1.018-1.228-3.125,0.297-3.665
		c0.105-0.031,0.171-0.125,0.171-0.245c-0.009-1.463-0.053-2.94-0.065-4.406c0-0.298-0.22-0.71-0.516-0.56
		c-9.609,4.966-20.108,8.757-29.918,10.497c-0.053,0.013-0.096,0.013-0.162,0c-11.79-1.905-24.809-6.696-35.351-13.443
		c-0.36-0.223-0.253-0.762,0.16-0.843C13.992,4.587,25.445-0.515,35.983-6.543c0.158-0.087,0.329-0.087,0.478,0.01
		C46.855-0.305,59.271,4.79,71.423,7.117c0.425,0.088,0.517,0.644,0.15,0.857c-1.221,0.708-2.461,1.409-3.711,2.073
		c-0.105,0.064-0.149,0.206-0.085,0.311c0.158,0.254,0.214,0.612,0.214,1.112c0.01,1.418,0.031,2.944,0.041,4.387
		C68.032,15.963,68.105,16.058,68.211,16.088L68.211,16.088z M53.37,17.816C47.797,20.519,42.342,22,36.832,22.594
		c-0.105,0.013-0.191,0.107-0.191,0.214c0,2.605,0,5.211,0,7.807c0,0.137,0.118,0.21,0.244,0.21c5.359,0,11.93-1.81,16.424-4.711
		c0.062-0.044,0.093-0.111,0.093-0.186c0-1.12,0-7.688-0.011-8.1C53.391,17.805,53.379,17.805,53.37,17.816L53.37,17.816z"/>
	<path id="Teaching" display="none" fill-rule="evenodd" clip-rule="evenodd" fill="#0076C7" d="M5.663-7.957h45.219
		c3.116,0,5.663,2.549,5.663,5.667v30.25c0,3.117-2.547,5.665-5.663,5.665H5.663C2.548,33.624,0,31.077,0,27.959v-30.25
		C0-5.408,2.548-7.957,5.663-7.957L5.663-7.957z M6.22-5.54h44.098c2.1,0,3.822,1.709,3.822,3.813v29.132
		c0,2.094-1.723,3.815-3.822,3.815H6.22c-2.093,0-3.816-1.721-3.816-3.815V-1.727C2.404-3.831,4.127-5.54,6.22-5.54L6.22-5.54z
		 M37.318,2.549c1.946-1.383,5.685-2.869,6.907,0.163c0.516,1.27,0.289,2.359-0.707,3.313c2.201-0.521,3.789,1.039,3.679,3.193
		c-0.12,2.63-3.493,3.947-5.628,4.613c-1.148,0.361-1.737-1.506-0.558-1.833c1.536-0.429,4.557-1.358,3.714-3.456
		c-0.473-1.16-1.757-1.042-2.794-0.72c-0.438,0.135-0.902-0.075-1.086-0.5c-0.179-0.419-0.018-0.911,0.38-1.128
		c0.824-0.473,1.433-1.189,0.995-2.271c-0.668-1.645-2.59-0.691-3.639,0c-0.361,0.228-0.599,0.464-1.071,0.322
		C36.734,4.016,36.634,3.045,37.318,2.549L37.318,2.549z M21.001,19.982c0.599-1.688,1.55-3.435,2.1-5.133
		c0.971-3.044-1.055-5.549-3.231-3.051c-1.729,1.999-3.112,0.429-1.231-1.514c3.752-3.904,8.505-0.461,6.596,4.678
		c-0.227,0.607-1.72,3.83,0.405,2.968c0.601-0.238,1.201-0.483,1.799-0.724c1.121-0.449,1.897,1.467,0.776,1.923
		c-1.967,0.792-3.94,1.593-5.907,2.388C21.396,21.889,20.577,21.169,21.001,19.982L21.001,19.982z M34.551,13.121
		c0.22,0.549,0.446,1.106,0.665,1.661c0.455,1.118-1.459,1.893-1.916,0.777c-0.225-0.557-0.446-1.113-0.674-1.66
		c-0.185-0.459-0.71-0.674-1.163-0.498c-0.508,0.21-1.013,0.413-1.521,0.615c-1.097,0.446-1.796-1.266-0.689-1.712
		c0.504-0.203,1.011-0.405,1.517-0.617c0.457-0.185,0.676-0.706,0.492-1.163c-0.222-0.548-0.442-1.09-0.661-1.638
		c-0.454-1.125,1.461-1.898,1.916-0.774c0.22,0.549,0.446,1.086,0.667,1.635c0.184,0.457,0.709,0.683,1.162,0.498
		c0.508-0.208,1.014-0.414,1.521-0.617c1.104-0.444,1.797,1.266,0.699,1.714c-0.516,0.2-1.02,0.403-1.527,0.615
		C34.582,12.141,34.363,12.666,34.551,13.121L34.551,13.121z M49.66-4.099c-14.259,0-28.517,0-42.776,0
		c-1.695,0-3.08,1.349-3.08,2.995c0,9.292,0,18.587,0,27.876c0,1.646,1.384,3.004,3.08,3.004c1.105,0,2.211,0,3.318,0
		c0.48,0,0.876-0.396,0.876-0.879c0-0.783,0-1.567,0-2.351c0-0.212,0.169-0.38,0.38-0.38c4.495,0,8.994,0,13.48,0
		c0.212,0,0.39,0.168,0.39,0.38c0,0.783,0,1.567,0,2.351c0,0.483,0.397,0.879,0.878,0.879c7.819,0,15.634,0,23.454,0
		c1.689,0,3.08-1.358,3.08-3.004c0-9.29,0-18.585,0-27.876C52.74-2.75,51.356-4.099,49.66-4.099L49.66-4.099z"/>
	<path display="none" fill-rule="evenodd" clip-rule="evenodd" fill="#0076C7" d="M0.68-1.756h5.951c0.374,0,0.68,0.306,0.68,0.679
		v33.781c0,0.372-0.306,0.681-0.68,0.681H0.68c-0.375,0-0.68-0.309-0.68-0.681V-1.077C0-1.45,0.305-1.756,0.68-1.756L0.68-1.756z
		 M25.661-7.827c0.443-0.161,0.908,0.167,0.908,0.638c0,11.23,0,22.463,0,33.69c0,0.298-0.173,0.54-0.444,0.646
		c-5.717,2.059-11.431,4.125-17.142,6.195c-0.45,0.16-0.917-0.169-0.917-0.639c0-11.233,0-22.465,0-33.689
		c0-0.298,0.175-0.549,0.453-0.646l1.623-0.583c0.589-0.214,0.936-0.083,0.936,0.729v15.983c0,0.134,0.16,0.188,0.243,0.087
		l1.624-2.096c0.055-0.077,0.165-0.071,0.214,0l1.512,2.074c0.078,0.103,0.243,0.049,0.243-0.084c0-5.979,0-11.959,0-17.943
		c0-0.538,0.249-0.566,0.659-0.712C18.939-5.392,22.297-6.613,25.661-7.827L25.661-7.827z M2.47-2.443
		C7.512-4.266,12.558-6.091,17.6-7.916c0.444-0.16,0.909,0.166,0.909,0.643c0,0.326,0,0.646,0,0.97c0,0.155-0.089,0.281-0.229,0.33
		C16.63-5.376,9.026-2.645,8.16-2.337C8.087-2.312,8.067-2.312,7.985-2.312c-1.824,0-3.656,0-5.48,0
		C2.165-2.312,2.165-2.33,2.47-2.443L2.47-2.443z"/>
	<path display="none" fill="#0076C7" d="M0.312,33.102c9.848-3.531,20.832-3.685,31.048,0c0.271,0.099,0.197,0.5-0.086,0.5
		c-10.297,0-20.586,0-30.875,0C0.109,33.602,0.042,33.201,0.312,33.102L0.312,33.102z M15.498,4.776
		c-1.413-0.864-2.696-1.936-3.771-3.152c-0.039-0.042-0.099-0.05-0.142-0.013c-1.161,0.928-2.187,2.028-3.047,3.24
		C8.5,4.899,8.52,4.965,8.569,4.999c1.652,1.007,3.305,2.013,4.958,3.014c0.049,0.031,0.117,0.02,0.14-0.029
		c0.622-1.02,1.242-2.047,1.864-3.066C15.561,4.873,15.547,4.808,15.498,4.776L15.498,4.776z M7.199,18.624
		c1.02-1.683,2.044-3.366,3.07-5.051c0.031-0.048,0.013-0.116-0.036-0.148c-1.346-0.803-2.796-1.412-4.294-1.773
		c-0.056-0.015-0.116,0.028-0.125,0.088c-0.281,2.344,0.062,4.722,1.199,6.878C7.051,18.689,7.154,18.689,7.199,18.624L7.199,18.624
		z M17.887-2.78c-2.431-0.848-5.024-0.891-7.42-0.214c-0.061,0.017-0.093,0.078-0.068,0.132c0.375,0.911,0.86,1.767,1.438,2.57
		c0.03,0.042,0.099,0.053,0.142,0.025c1.763-1.167,3.759-1.984,5.891-2.316C17.973-2.596,17.993-2.75,17.887-2.78L17.887-2.78z
		 M9.04-2.504C6.922-1.62,5.03-0.139,3.636,1.869c-0.038,0.049-0.019,0.119,0.03,0.147c1.21,0.739,2.414,1.472,3.625,2.207
		c0.048,0.026,0.111,0.013,0.142-0.03c0.939-1.346,2.069-2.56,3.347-3.589c0.042-0.031,0.055-0.098,0.02-0.14
		C10.147-0.44,9.6-1.416,9.182-2.443C9.159-2.498,9.096-2.522,9.04-2.504L9.04-2.504z M2.85,3.159C1.711,5.31,1.271,7.67,1.456,9.95
		c0.004,0.062,0.054,0.102,0.116,0.098c1.037-0.098,2.082-0.069,3.126,0.068c0.05,0.006,0.099-0.025,0.111-0.081
		c0.368-1.592,0.989-3.147,1.825-4.588c0.024-0.051,0.011-0.111-0.037-0.144C5.399,4.58,4.194,3.85,2.997,3.117
		C2.946,3.086,2.88,3.104,2.85,3.159L2.85,3.159z M4.982,17.665c0.048,0.049,0.22,0.037,0.17-0.106
		c-0.688-1.964-0.86-4.027-0.601-6.061c0.005-0.063-0.03-0.112-0.092-0.121c-0.897-0.113-1.799-0.138-2.697-0.061
		c-0.061,0.009-0.104,0.061-0.093,0.124C2.143,13.758,3.267,15.933,4.982,17.665L4.982,17.665z M10.541,20.927
		c2.008,0.552,4.091,0.583,6.069,0.126c0.063-0.01,0.093-0.077,0.074-0.139c-0.276-0.707-0.606-1.387-0.994-2.038
		c-0.03-0.059-0.093-0.068-0.147-0.038c-1.513,0.953-3.196,1.615-4.988,1.887C10.442,20.743,10.437,20.897,10.541,20.927
		L10.541,20.927z M18.059,20.626c2.347-0.849,4.455-2.403,5.965-4.589c0.038-0.049,0.026-0.118-0.03-0.147
		c-1.123-0.681-2.254-1.371-3.379-2.059c-0.048-0.024-0.109-0.012-0.14,0.039c-1.015,1.578-2.269,2.984-3.718,4.113
		c-0.043,0.031-0.048,0.087-0.023,0.135c0.467,0.775,0.871,1.597,1.191,2.451C17.942,20.62,18.004,20.651,18.059,20.626
		L18.059,20.626z M24.812,14.752c1.248-2.357,1.659-4.953,1.327-7.432c-0.006-0.056-0.055-0.098-0.117-0.095
		c-0.977,0.121-1.96,0.131-2.943,0.05c-0.048,0-0.098,0.037-0.109,0.094c-0.296,1.812-0.897,3.58-1.752,5.209
		c-0.025,0.05-0.006,0.111,0.037,0.142c1.137,0.687,2.273,1.384,3.41,2.069C24.718,14.822,24.781,14.803,24.812,14.752
		L24.812,14.752z M25.85,5.833c-0.546-2.089-1.628-4.043-3.208-5.627c-0.072-0.075-0.203,0-0.172,0.105
		c0.597,1.815,0.799,3.709,0.67,5.584c0,0.054,0.038,0.104,0.098,0.11c0.836,0.063,1.684,0.047,2.521-0.045
		C25.824,5.956,25.863,5.896,25.85,5.833L25.85,5.833z M11.044,12.295c0.614-1.008,1.235-2.021,1.849-3.035
		c0.031-0.05,0.013-0.118-0.036-0.15c-1.659-1.005-3.325-2.02-4.988-3.026C7.818,6.053,7.758,6.068,7.727,6.122
		c-0.754,1.301-1.315,2.702-1.652,4.14c-0.013,0.054,0.025,0.111,0.079,0.124c1.652,0.387,3.262,1.056,4.749,1.949
		C10.952,12.362,11.013,12.345,11.044,12.295L11.044,12.295z M12.143,13.155c1.432,1.039,2.717,2.298,3.767,3.722
		c0.038,0.052,0.104,0.064,0.147,0.026c1.286-1.021,2.408-2.286,3.318-3.698c0.03-0.05,0.018-0.117-0.038-0.148
		c-1.732-1.048-3.465-2.107-5.202-3.164c-0.05-0.029-0.111-0.011-0.142,0.037c-0.626,1.026-1.252,2.058-1.88,3.086
		C12.09,13.062,12.1,13.119,12.143,13.155L12.143,13.155z M14.86,17.623c-0.947-1.283-2.089-2.414-3.374-3.361
		c-0.049-0.031-0.116-0.019-0.147,0.031C10.3,16,9.256,17.714,8.219,19.422c-0.038,0.068,0.005,0.153,0.085,0.153
		c2.371,0.081,4.594-0.601,6.523-1.808C14.883,17.739,14.896,17.669,14.86,17.623L14.86,17.623z M12.789,0.882
		c0.971,1.081,2.114,2.021,3.373,2.8c0.049,0.031,0.118,0.015,0.148-0.038c0.995-1.64,1.99-3.28,2.992-4.918
		c0.042-0.073-0.013-0.166-0.099-0.16C16.88-1.287,14.706-0.5,12.807,0.728C12.751,0.764,12.747,0.838,12.789,0.882L12.789,0.882z
		 M17.481,4.408c1.346,0.662,2.784,1.145,4.258,1.407c0.061,0.012,0.123-0.031,0.123-0.093c0.142-2.192-0.221-4.409-1.192-6.461
		c-0.03-0.081-0.135-0.087-0.177-0.013c-1.019,1.669-2.033,3.34-3.054,5.01C17.408,4.316,17.427,4.383,17.481,4.408L17.481,4.408z
		 M21.61,7.091c-1.67-0.28-3.298-0.828-4.816-1.591c-0.043-0.025-0.104-0.005-0.129,0.043c-0.634,1.034-1.266,2.072-1.892,3.109
		c-0.031,0.048-0.02,0.111,0.03,0.143c1.726,1.048,3.453,2.092,5.179,3.143c0.048,0.033,0.116,0.014,0.14-0.035
		c0.762-1.467,1.297-3.062,1.566-4.687C21.702,7.159,21.667,7.104,21.61,7.091L21.61,7.091z M20.954-2.756
		c6.469,3.932,8.521,12.365,4.589,18.831c-3.938,6.467-12.366,8.519-18.834,4.59C0.245,16.73-1.808,8.296,2.124,1.833
		C6.057-4.635,14.485-6.689,20.954-2.756L20.954-2.756z M22.225-6.436c6.586,4.253,9.239,10.278,9.063,16.003
		c-0.079,2.575-0.738,5.082-1.874,7.342c-1.138,2.261-2.746,4.275-4.743,5.85c-4.442,3.52-10.738,4.877-17.779,2.015
		c-1.849-0.751-0.779-3.047,1.032-2.322c6.058,2.432,11.421,1.29,15.176-1.677c1.701-1.347,3.077-3.066,4.049-5.002
		c0.968-1.935,1.533-4.078,1.602-6.284c0.154-4.916-2.188-10.117-7.975-13.835C18.607-5.736,19.829-7.982,22.225-6.436L22.225-6.436
		z M15.836,26.867c0.989,0,1.788,0.626,1.788,1.409c0,0.777-0.799,1.412-1.788,1.412s-1.794-0.634-1.794-1.412
		C14.042,27.494,14.847,26.867,15.836,26.867L15.836,26.867z"/>
</g>
<g id="ORGANISATIONS">
	<path id="MOBILITY" display="none" fill-rule="evenodd" clip-rule="evenodd" fill="#0076C7" d="M7.082-2.031
		c1.566,0,3.136,0,4.699,0c0.134,0,0.242-0.109,0.242-0.24c0-0.316,0-0.635,0-0.95c0-1.052,1.582-1.052,1.582,0
		c0,0.314,0,0.633,0,0.95c0,0.13,0.103,0.24,0.237,0.24c2.826,0,5.66,0,8.485,0c0.121,0,0.223,0.037,0.314,0.12
		c0.888,0.787,1.776,1.577,2.657,2.369c0.146,0.126,0.152,0.354,0.008,0.489c-0.89,0.826-1.778,1.655-2.666,2.483
		c-0.091,0.083-0.193,0.125-0.32,0.125c-2.827,0-5.653,0-8.479,0c-0.134,0-0.237,0.105-0.237,0.235c0,0.424,0,0.854,0,1.276
		c0,0.132,0.103,0.234,0.237,0.234c1.54,0,3.081,0,4.621,0c0.18,0,0.332,0.152,0.332,0.334c0,1.643,0,3.287,0,4.928
		c0,0.182-0.151,0.328-0.332,0.328c-1.54,0-3.081,0-4.621,0c-0.134,0-0.237,0.109-0.237,0.24c0,0.382,0,0.768,0,1.148
		c0,0.133,0.103,0.243,0.237,0.243c2.826,0,5.66,0,8.485,0c0.121,0,0.223,0.034,0.314,0.119c0.888,0.786,1.776,1.579,2.657,2.368
		c0.146,0.127,0.152,0.357,0.008,0.49c-0.89,0.826-1.778,1.656-2.666,2.48c-0.091,0.085-0.193,0.127-0.32,0.127
		c-2.827,0-5.653,0-8.479,0c-0.134,0-0.237,0.103-0.237,0.238c0,4.819,0,9.639,0,14.459c0,1.051-1.582,1.051-1.582,0
		c0-4.82,0-9.641,0-14.459c0-0.135-0.108-0.238-0.242-0.238c-1.563,0-3.133,0-4.699,0c-0.187,0-0.331-0.15-0.331-0.332
		c0-1.642,0-3.284,0-4.921c0-0.188,0.145-0.332,0.331-0.332c1.566,0,3.136,0,4.699,0c0.134,0,0.242-0.11,0.242-0.243
		c0-0.38,0-0.767,0-1.148c0-0.131-0.108-0.24-0.242-0.24c-2.852,0-5.707,0-8.559,0c-0.127,0-0.234-0.042-0.326-0.125
		c-0.888-0.831-1.77-1.651-2.658-2.479c-0.144-0.133-0.144-0.363,0.008-0.49c0.88-0.791,1.77-1.582,2.657-2.373
		C2.993,5.344,3.094,5.3,3.217,5.3c2.856,0,5.707,0,8.563,0c0.134,0,0.242-0.102,0.242-0.234c0-0.422,0-0.852,0-1.276
		c0-0.13-0.108-0.235-0.242-0.235c-1.563,0-3.133,0-4.699,0c-0.187,0-0.331-0.148-0.331-0.332c0-1.641,0-3.285,0-4.924
		C6.75-1.886,6.895-2.031,7.082-2.031L7.082-2.031z"/>
	<path id="INNOVATION_2" display="none" fill-rule="evenodd" clip-rule="evenodd" fill="#0076C7" d="M18.225-7.822
		c2.613,0,4.94,3.307,6.393,8.404c0.106,0.363,0.488,0.579,0.856,0.479c5.115-1.377,9.148-1.088,10.495,1.165
		c1.396,2.321-0.387,6.18-4.254,10.181c-0.266,0.272-0.266,0.701,0,0.974c3.867,3.996,5.65,7.86,4.254,10.174
		c-1.347,2.253-5.38,2.544-10.495,1.165c-0.368-0.099-0.75,0.117-0.856,0.487c-1.453,5.096-3.779,8.396-6.393,8.396
		c-1.231,0-2.399-0.726-3.441-2.025c-0.079-0.1-0.196-0.148-0.32-0.131c-0.117,0.013-0.233,0.027-0.35,0.027
		c-1.403,0-2.543-1.139-2.543-2.549c0-0.672,0.264-1.288,0.69-1.743c0.093-0.099,0.123-0.228,0.075-0.357
		c-0.18-0.517-0.353-1.059-0.511-1.618c-0.106-0.371-0.488-0.586-0.855-0.487c-5.116,1.379-9.149,1.088-10.496-1.165
		c-1.397-2.314,0.387-6.179,4.253-10.174c0.259-0.277,0.259-0.706,0-0.979c-0.352-0.364-0.689-0.726-1.004-1.084
		c-0.086-0.097-0.215-0.14-0.343-0.111c-0.155,0.033-0.314,0.05-0.48,0.05c-1.218,0-2.211-0.991-2.211-2.209
		c0-0.431,0.125-0.825,0.333-1.164c0.069-0.111,0.076-0.241,0.013-0.351c-1.113-2.105-1.372-3.965-0.559-5.306
		c1.347-2.253,5.38-2.542,10.496-1.165c0.368,0.1,0.75-0.116,0.855-0.479C13.275-4.516,15.604-7.822,18.225-7.822L18.225-7.822z
		 M18.304,9.28c2.352,0,4.264,1.915,4.264,4.272c0,2.357-1.913,4.272-4.264,4.272c-2.356,0-4.27-1.915-4.27-4.272
		C14.035,11.195,15.948,9.28,18.304,9.28L18.304,9.28z M23.363,8.184c-0.394,0.375-0.929,0.603-1.521,0.603
		c-1.216,0-2.206-0.99-2.206-2.209c0-0.203,0.026-0.393,0.074-0.578c0.044-0.161-0.022-0.32-0.169-0.4
		c-0.388-0.203-0.777-0.402-1.162-0.592c-0.098-0.048-0.209-0.048-0.308,0c-2.284,1.121-4.486,2.443-6.556,3.914
		c-0.086,0.064-0.134,0.155-0.147,0.259c-0.196,2.464-0.196,4.962,0,7.42c0.013,0.104,0.061,0.196,0.147,0.258
		c2.07,1.477,4.28,2.794,6.556,3.915c0.099,0.049,0.21,0.049,0.308,0c2.27-1.121,4.478-2.438,6.548-3.915
		c0.086-0.062,0.135-0.154,0.148-0.258c0.19-2.465,0.19-4.957-0.008-7.42c-0.005-0.104-0.054-0.194-0.14-0.259
		c-0.37-0.264-0.747-0.521-1.127-0.774C23.665,8.054,23.486,8.066,23.363,8.184L23.363,8.184z M26.692,15.52
		c0.888-0.701,1.704-1.409,2.451-2.121c0.295-0.279,0.295-0.741,0-1.018c-0.747-0.706-1.563-1.42-2.451-2.124
		c-0.233-0.19-0.578-0.013-0.565,0.29c0.067,1.557,0.067,3.128,0,4.685C26.114,15.534,26.459,15.713,26.692,15.52L26.692,15.52z
		 M19.986,21.037c1.469-0.787,2.915-1.651,4.313-2.573c0.253-0.167,0.579,0.039,0.543,0.338c-0.168,1.268-0.389,2.477-0.654,3.602
		c-0.093,0.394-0.504,0.628-0.893,0.504c-1.057-0.339-2.159-0.751-3.283-1.236C19.743,21.555,19.724,21.179,19.986,21.037
		L19.986,21.037z M9.742,10.257c-0.879,0.704-1.697,1.418-2.448,2.124c-0.29,0.277-0.29,0.739,0,1.018
		c0.751,0.712,1.569,1.42,2.448,2.121c0.241,0.193,0.586,0.014,0.574-0.288c-0.068-1.557-0.068-3.121,0-4.685
		C10.328,10.245,9.983,10.067,9.742,10.257L9.742,10.257z M16.46,4.743c-1.478,0.788-2.917,1.649-4.315,2.573
		c-0.253,0.166-0.586-0.038-0.543-0.338c0.167-1.27,0.389-2.477,0.653-3.597c0.093-0.398,0.505-0.633,0.894-0.51
		c1.057,0.34,2.16,0.752,3.287,1.238C16.705,4.226,16.717,4.606,16.46,4.743L16.46,4.743z M21.842,4.362
		c1.227,0,2.217,0.99,2.217,2.215c0,0.111-0.012,0.215-0.024,0.32c-0.026,0.142,0.037,0.273,0.153,0.346
		c0.308,0.204,0.703,0.14,0.654-0.265c-0.168-1.27-0.389-2.477-0.654-3.597c-0.093-0.398-0.504-0.633-0.893-0.51
		c-1.057,0.34-2.159,0.752-3.283,1.238c-0.269,0.117-0.288,0.498-0.026,0.634c0.05,0.03,0.106,0.062,0.162,0.086
		c0.121,0.068,0.263,0.056,0.372-0.024C20.889,4.527,21.351,4.362,21.842,4.362L21.842,4.362z M13.148,22.908
		c1.057-0.339,2.16-0.751,3.287-1.236c0.271-0.117,0.282-0.493,0.025-0.635c-1.478-0.787-2.917-1.651-4.315-2.573
		c-0.253-0.167-0.586,0.039-0.543,0.338c0.167,1.268,0.389,2.477,0.653,3.602C12.348,22.797,12.759,23.032,13.148,22.908
		L13.148,22.908z M26.127,17.197c1.373-0.998,2.64-2.027,3.785-3.055c0.288-0.258,0.732-0.232,0.991,0.055
		c2.832,3.195,4.049,6.207,2.929,8.078c-1.082,1.803-4.136,2.18-8.081,1.305c-0.374-0.086-0.615-0.456-0.536-0.831
		c0.345-1.644,0.604-3.423,0.764-5.293C25.991,17.344,26.04,17.257,26.127,17.197L26.127,17.197z M14.114,26.381
		c1.409,0,2.547,1.138,2.547,2.543c0,0.424-0.104,0.818-0.282,1.168c-0.086,0.16-0.038,0.357,0.117,0.456
		c0.553,0.365,1.133,0.559,1.729,0.559c2.1,0,3.987-2.418,5.273-6.254c0.117-0.365-0.073-0.756-0.437-0.885
		c-1.508-0.524-3.08-1.183-4.682-1.954c-0.098-0.047-0.209-0.047-0.308,0c-1.605,0.777-3.181,1.429-4.69,1.954
		c-0.363,0.129-0.562,0.521-0.436,0.885c0.152,0.463,0.32,0.911,0.492,1.331C13.56,26.486,13.861,26.381,14.114,26.381
		L14.114,26.381z M11.228,22.749c-0.345-1.644-0.604-3.423-0.77-5.293c-0.007-0.111-0.056-0.198-0.142-0.258
		c-1.379-0.998-2.646-2.027-3.787-3.055c-0.29-0.258-0.731-0.232-0.991,0.055c-2.832,3.195-4.049,6.207-2.928,8.078
		c1.082,1.803,4.135,2.18,8.082,1.305C11.066,23.493,11.301,23.124,11.228,22.749L11.228,22.749z M2.898,6.836
		c1.225,0,2.216,0.986,2.216,2.21c0,0.449-0.135,0.861-0.363,1.211c-0.086,0.129-0.08,0.29,0.019,0.414
		c0.24,0.3,0.499,0.603,0.764,0.912c0.264,0.295,0.706,0.319,0.996,0.054c1.141-1.029,2.408-2.055,3.787-3.053
		c0.086-0.062,0.135-0.146,0.142-0.252c0.166-1.878,0.425-3.657,0.77-5.3c0.073-0.376-0.162-0.745-0.536-0.824
		c-3.947-0.876-7-0.506-8.082,1.297c-0.5,0.831-0.537,1.883-0.172,3.079C2.48,6.743,2.627,6.841,2.788,6.836
		C2.823,6.836,2.861,6.836,2.898,6.836L2.898,6.836z M23.061,1.812c-1.508,0.524-3.08,1.182-4.682,1.958
		c-0.106,0.044-0.209,0.044-0.308,0c-1.605-0.776-3.181-1.434-4.69-1.958c-0.363-0.129-0.562-0.523-0.436-0.887
		c1.286-3.828,3.175-6.253,5.28-6.253c2.1,0,3.987,2.425,5.273,6.253C23.615,1.289,23.425,1.683,23.061,1.812L23.061,1.812z
		 M25.215,3.032c0.345,1.643,0.604,3.422,0.764,5.3c0.012,0.105,0.061,0.19,0.148,0.252c1.373,0.999,2.646,2.024,3.785,3.053
		c0.288,0.265,0.732,0.241,0.991-0.054c2.832-3.196,4.049-6.207,2.929-8.077c-1.082-1.803-4.136-2.173-8.081-1.297
		C25.377,2.287,25.136,2.655,25.215,3.032L25.215,3.032z"/>
	<path id="Innovation" display="none" fill="#0076C7" d="M23.209,9.575c4.378,2.287,7.505,6.549,7.505,11.594
		c0,5.459-3.641,9.957-8.511,12.083c-0.602,0.268-1.116,0.349-1.762,0.349c-3.355,0-6.712,0-10.067,0
		c-0.646,0-1.152-0.082-1.749-0.349c-4.875-2.126-8.518-6.624-8.518-12.083c0-5.045,3.129-9.307,7.505-11.594
		c0.875-0.464,1.374-1.294,1.374-2.274c0-3.828,0-7.651,0-11.475c0-1.584,1.299-2.879,2.888-2.879c2.356,0,4.718,0,7.073,0
		c1.59,0,2.888,1.295,2.888,2.879c0,3.824,0,7.647,0,11.475C21.836,8.281,22.337,9.111,23.209,9.575L23.209,9.575z M22.634,27.272
		c0.54,0,0.976,0.437,0.976,0.985c0,0.538-0.436,0.973-0.976,0.973c-0.538,0-0.977-0.435-0.977-0.973
		C21.658,27.709,22.096,27.272,22.634,27.272L22.634,27.272z M22.083,28.251c-0.012-0.23,0.139-0.458,0.361-0.526
		c0.032-0.007,0.063,0.01,0.071,0.045c0.006,0.05,0.018,0.099,0.024,0.15c0.007,0.027-0.006,0.051-0.031,0.057
		c-0.095,0.037-0.164,0.146-0.164,0.248c0,0.025-0.019,0.051-0.045,0.051c-0.049,0.011-0.107,0.019-0.157,0.024
		C22.109,28.307,22.083,28.282,22.083,28.251L22.083,28.251z M22.634,27.54c-0.393,0-0.715,0.318-0.715,0.717
		c0,0.393,0.322,0.714,0.715,0.714c0.398,0,0.717-0.321,0.717-0.714C23.351,27.858,23.032,27.54,22.634,27.54L22.634,27.54z
		 M18.063,25.171c0.823,0,1.481,0.667,1.481,1.482c0,0.822-0.664,1.487-1.481,1.487c-0.819,0-1.482-0.665-1.482-1.487
		C16.581,25.838,17.244,25.171,18.063,25.171L18.063,25.171z M17.049,26.672c0.089-0.504,0.437-0.948,0.968-1.011
		c0.033,0,0.064,0.017,0.064,0.047c0,0.059,0.008,0.109,0.008,0.158c0,0.034-0.021,0.059-0.046,0.059
		c-0.412,0.049-0.666,0.404-0.734,0.792c-0.007,0.03-0.032,0.05-0.065,0.044c-0.049-0.006-0.099-0.014-0.151-0.026
		C17.061,26.735,17.043,26.704,17.049,26.672L17.049,26.672z M18.063,25.438c-0.672,0-1.215,0.544-1.215,1.215
		c0,0.678,0.543,1.222,1.215,1.222c0.677,0,1.222-0.544,1.222-1.222C19.285,25.983,18.734,25.438,18.063,25.438L18.063,25.438z
		 M21.894,21.801c0.817,0,1.481,0.666,1.481,1.483c0,0.817-0.664,1.478-1.481,1.478c-0.816,0-1.475-0.661-1.475-1.478
		C20.418,22.467,21.083,21.801,21.894,21.801L21.894,21.801z M20.887,23.215c0.062-0.507,0.506-0.937,1.006-0.995
		c0.031-0.006,0.057,0.018,0.063,0.045c0,0.058,0.007,0.106,0.007,0.159c0,0.032-0.018,0.052-0.044,0.057
		c-0.381,0.051-0.721,0.379-0.766,0.76c-0.007,0.024-0.031,0.043-0.058,0.043c-0.052-0.006-0.107-0.006-0.158-0.013
		C20.905,23.271,20.887,23.246,20.887,23.215L20.887,23.215z M21.894,22.067c-0.672,0-1.21,0.545-1.21,1.217
		c0,0.669,0.545,1.215,1.21,1.215c0.671,0,1.217-0.546,1.217-1.215C23.11,22.612,22.565,22.067,21.894,22.067L21.894,22.067z
		 M17.72,16.218c1.317,0,2.381,1.071,2.381,2.387c0,1.317-1.064,2.387-2.381,2.387c-1.323,0-2.388-1.07-2.388-2.387
		C15.332,17.289,16.397,16.218,17.72,16.218L17.72,16.218z M16.061,17.977c0.196-0.614,0.849-1.12,1.489-1.146
		c0.033,0,0.058,0.025,0.058,0.058c0,0.05,0,0.107,0,0.163c0,0.034-0.021,0.052-0.051,0.058c-0.526,0.025-1.064,0.448-1.229,0.944
		c-0.006,0.025-0.037,0.044-0.071,0.036c-0.049-0.011-0.101-0.032-0.157-0.045C16.068,18.041,16.055,18.002,16.061,17.977
		L16.061,17.977z M17.72,16.496c-1.165,0-2.108,0.943-2.108,2.109c0,1.166,0.943,2.108,2.108,2.108c1.16,0,2.103-0.943,2.103-2.108
		C19.823,17.439,18.88,16.496,17.72,16.496L17.72,16.496z M22.616,27.077c0.652,0,1.184,0.534,1.184,1.187
		c0,0.651-0.532,1.182-1.184,1.182c-0.653,0-1.185-0.53-1.185-1.182C21.431,27.611,21.963,27.077,22.616,27.077L22.616,27.077z
		 M18.057,24.88c0.976,0,1.766,0.79,1.766,1.773c0,0.974-0.791,1.775-1.766,1.775c-0.982,0-1.773-0.801-1.773-1.775
		C16.283,25.67,17.074,24.88,18.057,24.88L18.057,24.88z M21.888,21.491c0.975,0,1.767,0.791,1.767,1.768
		c0,0.98-0.792,1.773-1.767,1.773c-0.982,0-1.775-0.792-1.775-1.773C20.113,22.282,20.905,21.491,21.888,21.491L21.888,21.491z
		 M2.047,19.073c-0.722,6.642,2.754,10.659,7.193,12.56c0.469,0.206,0.868,0.271,1.369,0.271c3.337,0,6.319,0,9.656,0
		c0.538,0,0.938-0.049,1.432-0.271c6.357-2.775,9.278-8.759,6.409-15.152c-0.044-0.091-0.133-0.15-0.239-0.15
		c-3.123,0.051-5.499,0.613-7.531,1.333c-0.031,0.011-0.044,0.043-0.037,0.073c0.562,1.729-0.723,3.553-2.583,3.553
		c-1.06,0-1.977-0.608-2.426-1.494c-0.013-0.032-0.044-0.042-0.077-0.032c-3.286,1.272-6.636,1.832-12.81-0.892
		C2.25,18.8,2.065,18.901,2.047,19.073L2.047,19.073z M22.773,10.412c-1.184-0.623-1.886-1.78-1.886-3.111c0-3.828,0-7.651,0-11.475
		c0-1.056-0.875-1.933-1.939-1.933c-2.354,0-4.717,0-7.073,0c-1.064,0-1.938,0.877-1.938,1.933c0,3.824,0,7.647,0,11.475
		c0,1.331-0.703,2.488-1.887,3.111C3.985,12.538,1.06,16.478,1.06,21.169c0,5.08,3.42,9.24,7.941,11.218
		c0.467,0.206,0.867,0.27,1.374,0.27c3.337,0,6.681,0,10.017,0c0.54,0,0.931-0.05,1.432-0.27c4.521-1.978,7.942-6.139,7.942-11.218
		C29.766,16.478,26.839,12.538,22.773,10.412L22.773,10.412z"/>
	<g id="Layer_4">
		<g>
			<path fill-rule="evenodd" clip-rule="evenodd" fill="#0076C7" d="M2.845,12.098c0.417,0.714,0.224,1.622-0.418,2.121
				c0.602,0.622,1.305,1.162,2.09,1.59c0.397-0.643,1.213-0.948,1.947-0.673c0.714,0.255,1.132,0.948,1.071,1.672
				C7.963,16.869,8.391,16.9,8.83,16.9s0.866-0.031,1.294-0.092c-0.061-0.724,0.357-1.417,1.07-1.672
				c0.734-0.275,1.55,0.03,1.947,0.673c0.786-0.428,1.488-0.969,2.09-1.59c-0.643-0.5-0.836-1.407-0.418-2.121
				c0.438-0.765,1.396-1.04,2.172-0.632c0.326-0.846,0.499-1.743,0.52-2.691c-0.877,0.143-1.713-0.448-1.876-1.335
				c-0.153-0.856,0.408-1.683,1.254-1.876c-0.357-0.836-0.846-1.601-1.447-2.274c-0.591,0.561-1.529,0.602-2.162,0.062
				c-0.601-0.5-0.754-1.346-0.408-2.019c-0.754-0.377-1.58-0.653-2.457-0.806C10.226,1.22,9.584,1.73,8.83,1.73
				S7.433,1.22,7.249,0.526C6.372,0.679,5.546,0.955,4.782,1.332c0.357,0.673,0.204,1.519-0.397,2.019
				c-0.632,0.541-1.57,0.5-2.162-0.062C1.621,3.962,1.132,4.727,0.775,5.563c0.846,0.193,1.407,1.02,1.253,1.876
				C1.866,8.326,1.03,8.917,0.153,8.774c0.021,0.948,0.194,1.845,0.52,2.691C1.448,11.058,2.407,11.333,2.845,12.098z M6.382,5.686
				h4.894v6.056H6.382V5.686z"/>
			<rect x="6.372" y="24.342" fill-rule="evenodd" clip-rule="evenodd" fill="#0076C7" width="5.067" height="1.753"/>
			<path fill-rule="evenodd" clip-rule="evenodd" fill="#0076C7" d="M15.864,24.057c-0.153-0.775,0.265-1.54,0.958-1.855
				c-0.316-0.847-0.765-1.631-1.315-2.325c-0.612,0.51-1.509,0.54-2.141,0.021c-0.663-0.53-0.815-1.448-0.398-2.151
				c-0.784-0.438-1.641-0.745-2.548-0.907c-0.102,0.815-0.795,1.468-1.642,1.478c-0.856,0.02-1.57-0.602-1.692-1.427
				c-0.907,0.204-1.753,0.54-2.528,0.999c0.449,0.693,0.326,1.621-0.316,2.172c-0.612,0.54-1.509,0.54-2.131,0.051
				c-0.53,0.714-0.948,1.519-1.233,2.376c0.703,0.285,1.142,1.029,1.019,1.814c-0.122,0.754-0.713,1.305-1.438,1.407
				c0.062,0.907,0.265,1.774,0.591,2.579c0.673-0.143,1.397,0.153,1.774,0.775c0.357,0.601,0.296,1.335-0.091,1.865
				c0.602,0.643,1.305,1.193,2.09,1.621c0.438-0.459,1.121-0.652,1.764-0.428c0.643,0.214,1.06,0.775,1.131,1.396
				c0.428,0.062,0.877,0.092,1.326,0.082c0.449-0.011,0.897-0.051,1.325-0.132c0.051-0.622,0.449-1.193,1.07-1.438
				c0.643-0.244,1.335-0.071,1.785,0.377c0.764-0.459,1.448-1.03,2.029-1.692c-0.408-0.52-0.49-1.254-0.153-1.866
				c0.356-0.642,1.07-0.958,1.753-0.846c0.285-0.816,0.459-1.682,0.489-2.589C16.618,25.341,16.007,24.801,15.864,24.057z
				 M8.9,28.808c-1.978,0-3.588-1.61-3.588-3.588c0-1.988,1.611-3.589,3.588-3.589c1.988,0,3.589,1.601,3.589,3.589
				C12.49,27.197,10.889,28.808,8.9,28.808z"/>
			<path fill-rule="evenodd" clip-rule="evenodd" fill="#0076C7" d="M30.168,15.778c-0.143-0.795,0.295-1.55,0.999-1.855
				c-0.306-0.856-0.744-1.652-1.285-2.354c-0.622,0.5-1.529,0.509-2.151-0.021c-0.653-0.551-0.795-1.479-0.356-2.182
				c-0.786-0.449-1.642-0.775-2.56-0.958C24.703,9.233,24,9.875,23.144,9.875c-0.867,0-1.57-0.642-1.683-1.468
				c-0.907,0.183-1.774,0.509-2.549,0.958c0.429,0.704,0.285,1.631-0.356,2.182c-0.306,0.255-0.684,0.387-1.05,0.397
				c-0.398,0.011-0.786-0.122-1.112-0.376c-0.541,0.703-0.979,1.498-1.285,2.354c0.714,0.306,1.142,1.061,0.999,1.855
				c-0.132,0.744-0.744,1.295-1.468,1.376c0.051,0.918,0.234,1.794,0.55,2.61c0.683-0.132,1.397,0.184,1.764,0.815
				c0.357,0.612,0.286,1.346-0.122,1.876c0.214,0.234,0.438,0.449,0.673,0.663c0.428,0.377,0.896,0.713,1.406,1.009
				c0.449-0.459,1.142-0.642,1.784-0.408c0.632,0.224,1.05,0.795,1.112,1.427c0.428,0.071,0.876,0.102,1.335,0.102
				c0.448,0,0.896-0.03,1.335-0.102c0.061-0.632,0.468-1.203,1.101-1.427c0.642-0.234,1.335-0.051,1.784,0.408
				c0.786-0.449,1.479-1.009,2.08-1.672c-0.408-0.53-0.479-1.264-0.123-1.876c0.367-0.632,1.081-0.948,1.774-0.815
				c0.306-0.815,0.489-1.692,0.54-2.61C30.912,17.073,30.3,16.522,30.168,15.778z M23.144,13.393c0.713,0,1.386,0.225,1.937,0.612
				l-1.937,1.937l-1.948-1.937C21.747,13.617,22.419,13.393,23.144,13.393z M20.309,18.776c-0.377-0.561-0.602-1.223-0.602-1.948
				c0-0.724,0.224-1.386,0.602-1.937l1.937,1.937L20.309,18.776z M23.144,20.265c-0.724,0-1.397-0.225-1.948-0.602l1.948-1.947
				l1.937,1.947C24.53,20.04,23.857,20.265,23.144,20.265z M25.967,18.776l-1.937-1.948l1.937-1.937
				c0.377,0.551,0.602,1.213,0.602,1.937C26.569,17.553,26.344,18.215,25.967,18.776z"/>
		</g>
	</g>
</g>
</svg>
