<?xml version="1.0" standalone="no"?>
<!DOCTYPE svg PUBLIC "-//W3C//DTD SVG 1.1//EN" "http://www.w3.org/Graphics/SVG/1.1/DTD/svg11.dtd" >
<svg xmlns="http://www.w3.org/2000/svg">
<metadata>
This is a custom SVG webfont generated by Font Squirrel.
Copyright   : Copyright c 2005 Parachute wwwparachutegr  All rights reserved
Designer    : Panos Vassiliou
Foundry     : Parachute Worldwide
Foundry URL : httpwwwparachutegr
</metadata>
<defs>
<font id="ECSquareSansProExtraBlack" horiz-adv-x="1261" >
<font-face units-per-em="2048" ascent="1536" descent="-512" />
<missing-glyph horiz-adv-x="624" />
<glyph unicode="fj" horiz-adv-x="1296" d="M61 772v197q0 49 50 49h82v110q0 180 105 276.5t343 96.5q217 0 338 -53q39 -16 46 -42t-3 -48l-33 -166q-6 -27 -18.5 -31t-55.5 2q-154 10 -174 11q-164 0 -163 -111v-45h559q47 0 47 -49v-879q0 -164 -45 -273.5t-132 -166t-189.5 -76.5t-242.5 -16q-55 0 -59 51 l-18 209q-4 29 4 40t39 19q160 31 209 65.5t49 137.5v641h-226v-672q0 -49 -47 -49h-286q-49 0 -50 49q0 211 3 672h-82q-50 0 -50 51z" />
<glyph unicode="ffj" horiz-adv-x="1894" d="M61 772v197q0 49 50 49h82q0 14 1 43t1 45q0 176 106.5 274.5t319.5 98.5q166 0 286 -43q111 86 332 86q217 0 338 -54q39 -16 46 -41.5t-3 -48.5l-33 -166q-6 -27 -18.5 -30.5t-55.5 2.5q-154 10 -174 10q-164 0 -163 -111v-65h559q47 0 47 -49v-879q0 -164 -45 -273.5 t-132 -166t-189.5 -76.5t-241.5 -16q-55 0 -60 51l-18 209q-4 29 4 40t39 19q160 31 209 65.5t49 137.5v641h-226v-672q0 -49 -47 -49h-286q-49 0 -50 49q0 211 3 672h-218v-672q0 -49 -47 -49h-286q-49 0 -50 49q0 211 3 672h-82q-50 0 -50 51zM578 1018h213v129 q-49 4 -103 4q-111 0 -110 -111v-22z" />
<glyph unicode="&#xfb00;" horiz-adv-x="1548" d="M61 772v197q0 49 50 49h82v88q0 176 107.5 274.5t320.5 98.5q178 0 297 -47q109 90 309 90q193 0 313 -54q39 -16 46 -41.5t-3 -48.5l-33 -166q-6 -27 -18 -30.5t-55 2.5q-100 10 -183 10q-111 0 -110 -111v-65h209q29 0 38 -11.5t9 -35.5v-199q0 -29 -9.5 -40t-37.5 -11 h-213v-672q0 -49 -47 -49h-287q-49 0 -49 49l2 672h-226v-672q0 -49 -47 -49h-286q-49 0 -50 49l3 672h-82q-50 0 -50 51zM578 1018h221v129q-106 4 -111 4q-111 0 -110 -111v-22z" />
<glyph unicode="&#xfb01;" horiz-adv-x="1296" d="M61 772v197q0 49 50 49h82v110q0 180 105 276.5t343 96.5q217 0 338 -53q39 -16 46 -42t-3 -48l-33 -166q-6 -27 -18.5 -31t-55.5 2q-113 10 -174 11q-164 0 -163 -111v-45h559q47 0 47 -49v-920q0 -49 -47 -49h-289q-49 0 -49 49v672h-226v-672q0 -49 -47 -49h-286 q-49 0 -50 49v672h-79q-50 0 -50 51z" />
<glyph unicode="&#xfb02;" horiz-adv-x="1296" d="M61 772v197q0 49 50 49h82v110q0 180 105 276.5t343 96.5q215 0 336 -53l160 41q47 12 47 -35v-1405q0 -49 -47 -49h-289q-49 0 -49 49v1122q-20 2 -58 3q-164 0 -163 -111v-45h114q49 0 49 -49v-197q0 -51 -49 -51h-119v-672q0 -49 -47 -49h-286q-49 0 -50 49v672h-79 q-50 0 -50 51z" />
<glyph unicode="&#xfb03;" horiz-adv-x="1894" d="M61 772v197q0 49 50 49h82v88q0 176 107.5 274.5t320.5 98.5q166 0 286 -43q111 86 332 86q217 0 338 -54q39 -16 46 -41.5t-3 -48.5l-33 -166q-6 -27 -18.5 -30.5t-55.5 2.5q-154 10 -174 10q-164 0 -163 -111v-65h559q47 0 47 -49v-920q0 -49 -47 -49h-287 q-49 0 -49 49l-2 672h-226v-672q0 -49 -47 -49h-286q-49 0 -50 49q0 211 3 672h-218v-672q0 -49 -47 -49h-286q-49 0 -50 49q0 211 3 672h-82q-50 0 -50 51zM578 1018h213v129q-49 4 -103 4q-111 0 -110 -111v-22z" />
<glyph unicode="&#xfb04;" horiz-adv-x="1894" d="M61 772v197q0 49 50 49h82v88q0 176 107.5 274.5t320.5 98.5q166 0 286 -43q111 86 332 86q219 0 338 -56l158 45q47 14 47 -26v-1436q0 -49 -47 -49h-287q-49 0 -49 49l-2 1143q-10 0 -29.5 1t-28.5 1q-164 0 -163 -111v-65h114q49 0 49 -49v-197q0 -51 -49 -51h-119 v-672q0 -49 -47 -49h-284q-49 0 -49 49v672h-218v-672q0 -49 -47 -49h-286q-49 0 -50 49q0 211 3 672h-82q-50 0 -50 51zM578 1018h213v129q-49 4 -103 4q-111 0 -110 -111v-22z" />
<glyph unicode="ft" horiz-adv-x="1603" d="M61 772v197q0 49 50 49h82v88q0 373 395 373q121 0 217 -25q35 -10 41 -29.5t2 -52.5l-23 -194q-2 -23 -15 -28t-58 -1q-25 2 -64 2q-111 0 -110 -111v-22h286v192q0 43 49 58l265 69q59 14 59 -43v-276h201q29 0 38 -11.5t9 -35.5v-199q0 -29 -9.5 -40t-37.5 -11h-205 v-242q0 -88 21.5 -120.5t79 -36t161.5 7.5q33 2 43 -3t14 -34l27 -180q8 -55 -47 -76q-137 -53 -342 -53q-174 0 -252 81.5t-78 243.5v412h-287v-672q0 -49 -47 -49h-286q-49 0 -50 49l3 672h-82q-50 0 -50 51z" />
<glyph unicode=" "  horiz-adv-x="624" />
<glyph unicode="&#x09;" horiz-adv-x="624" />
<glyph unicode="&#xa0;" horiz-adv-x="624" />
<glyph unicode="!" horiz-adv-x="663" d="M143 154q0 174 189 174q109 0 148.5 -45t39.5 -129q0 -174 -188 -174q-113 0 -151 48t-38 126zM156 1313q-2 27 8 36t35 9h272q25 0 35 -9.5t10 -35.5l-29 -846q-4 -45 -45 -45h-213q-43 0 -43 45z" />
<glyph unicode="&#x22;" horiz-adv-x="829" d="M102 1319q0 39 41 39h207q37 0 37 -39l-22 -463q0 -35 -37 -35h-170q-33 0 -33 35zM444 1319q-2 16 9.5 27.5t29.5 11.5h207q37 0 37 -39l-20 -463q-4 -35 -39 -35h-168q-35 0 -35 35z" />
<glyph unicode="#" horiz-adv-x="1359" d="M68 461l43 157q14 43 59 44h145l29 114h-151q-43 0 -31 45l41 156q14 43 59 43h144l73 293q8 29 15.5 37t29.5 8h201q25 0 33 -10.5t0 -34.5l-74 -293h152l73 293q8 29 15.5 37t29.5 8h201q25 0 33 -10.5t0 -34.5l-74 -293h150q27 0 33 -9.5t-3 -33.5l-41 -156 q-14 -45 -57 -45h-143l-29 -114h147q27 0 33 -9.5t-2 -34.5l-43 -157q-14 -45 -57 -45h-141l-93 -371q-6 -18 -9 -25.5t-11 -13.5t-25 -6h-190q-55 0 -43 45l92 371h-152l-92 -371q-6 -18 -9 -25.5t-11 -13.5t-25 -6h-190q-55 0 -43 45l92 371h-154q-42 0 -30 45zM594 662 h151l29 114h-151z" />
<glyph unicode="$" d="M110 129q-1 14 3 35l37 145q10 41 24 46t57 -5q190 -33 344 -43v215q-94 29 -163.5 59.5t-142 80t-109.5 122t-35 162.5q4 184 128 286.5t331 110.5v185q0 23 8 33t35 10h45q41 0 41 -43v-189q211 -14 346 -69q47 -20 58 -40t3 -52l-43 -146q-6 -25 -14 -35t-21.5 -12 t-29.5 2q-195 29 -299 37v-197q98 -27 166.5 -54.5t145.5 -75.5t117 -124.5t38 -177.5q-6 -195 -138.5 -290t-336.5 -111v-197q0 -43 -41 -43h-46q-27 0 -35 10.5t-8 32.5v195q-242 12 -399 78q-35 16 -50 30.5t-16 28.5zM485 946q-2 -31 22.5 -51.5t76.5 -34.5v166 q-99 -10 -99 -80zM705 305q113 12 112 84q0 61 -112 96v-180z" />
<glyph unicode="%" horiz-adv-x="2088" d="M57 944q0 45 6.5 92t31 116t65.5 119t120.5 87t186.5 37q420 0 420 -451q0 -57 -6.5 -109.5t-32 -123t-67.5 -120.5t-122.5 -86t-191.5 -36q-410 0 -410 475zM377 932q0 -207 90 -207q57 0 79.5 52t22.5 155q0 109 -21.5 158t-80.5 49q-90 0 -90 -207zM618 -16l566 1423 q12 27 33 27h233q27 0 16 -31l-563 -1426q-10 -25 -31 -24h-233q-31 0 -21 31zM1200 463q0 45 6 92t31 115.5t65.5 119t120.5 87t187 36.5q420 0 420 -450q0 -57 -6.5 -109.5t-32 -123t-67.5 -121t-123 -86t-191 -35.5q-410 0 -410 475zM1520 450.5q0 -206.5 90 -206.5 q57 0 79.5 52t22.5 155q0 109 -21.5 157.5t-80.5 48.5q-90 0 -90 -206.5z" />
<glyph unicode="&#x26;" horiz-adv-x="1581" d="M82 379q0 264 283 440q-74 127 -74 213q0 154 99 254t284 100q172 0 274.5 -95t102.5 -236q0 -102 -68 -196.5t-178 -135.5q102 -139 213 -231q111 147 139 331q2 10 5 26.5t3 22t4.5 13.5t7.5 9t10 4t15 3h25h178q49 0 62.5 -14.5t11.5 -71.5q-2 -131 -69 -285.5 t-146 -255.5q92 -74 215 -147q23 -12 27.5 -25.5t0.5 -22.5t-20 -34l-92 -145q-18 -25 -33.5 -30t-58.5 11q-115 53 -297 195q-172 -100 -449 -101q-213 0 -344 101.5t-131 302.5zM432 408q0 -68 44 -109t112 -41q88 -4 176 37q-172 174 -236 272q-96 -73 -96 -159z M600 1042q0 -35 35 -79q80 49 80 90q0 20 -15.5 35.5t-42.5 15.5q-25 0 -41 -18.5t-16 -43.5z" />
<glyph unicode="'" horiz-adv-x="489" d="M102 1319q0 39 41 39h207q37 0 37 -39l-22 -463q0 -35 -37 -35h-170q-33 0 -33 35z" />
<glyph unicode="(" horiz-adv-x="743" d="M92 618.5q0 215.5 79 432.5t212 391q29 37 47.5 40t52.5 -18l156 -90q33 -18 35 -34.5t-23 -61.5q-172 -293 -172 -660q0 -354 172 -659q25 -45 22 -62.5t-34 -33.5l-156 -90q-35 -20 -53 -17.5t-47 39.5q-133 174 -212 391t-79 432.5z" />
<glyph unicode=")" horiz-adv-x="743" d="M76 1339.5q2 16.5 35 34.5l155 90q35 20 53.5 17.5t47.5 -39.5q133 -174 211.5 -391t78.5 -432.5t-78.5 -432.5t-211.5 -391q-29 -37 -47.5 -40t-53.5 18l-155 90q-31 16 -34 33.5t21 62.5q172 305 172 659q0 367 -172 660q-24 45 -22 61.5z" />
<glyph unicode="*" horiz-adv-x="974" d="M67.5 834.5q6.5 15.5 36.5 39.5l107 89l-107 67q-31 23 -37 37t13 53l41 80q18 35 40.5 36t53.5 -17l131 -50l10 134q4 37 15.5 47t54.5 10h98q74 0 76 -62l8 -133l144 62q25 12 34 14t18 -4t23 -29l50 -75q33 -47 -3 -68l-135 -98l123 -95q33 -25 35 -40t-18 -46 l-41 -69q-18 -31 -38 -34t-52 13l-136 58l-14 -127q-4 -41 -14.5 -49.5t-48.5 -8.5h-117q-37 0 -46.5 8.5t-13.5 49.5l-16 127l-125 -52q-57 -27 -82 11l-59 88q-15 18 -8.5 33.5z" />
<glyph unicode="+" d="M137 575v177q0 49 49 49h277v278q0 49 51 49h231q49 0 50 -49v-278h284q29 0 38 -11.5t9 -35.5v-179q0 -29 -9 -40t-38 -11h-284v-297q0 -29 -11.5 -38t-35.5 -9h-234q-29 0 -40 9.5t-11 37.5v297h-277q-49 0 -49 51z" />
<glyph unicode="," horiz-adv-x="528" d="M16 -232.5q2 13.5 37 52.5q70 76 70 153q0 63 -45 115q-37 39 -38 60.5t42 58.5l158 121q43 25 62.5 18.5t55.5 -41.5q45 -43 71 -108.5t26 -122.5q0 -133 -75 -256t-175 -180q-53 -29 -94 16l-66 67q-31 33 -29 46.5z" />
<glyph unicode="-" horiz-adv-x="880" d="M59 553v199q0 49 50 49h677q29 0 38.5 -11.5t9.5 -35.5v-201q0 -29 -9.5 -40t-38.5 -11h-677q-50 0 -50 51z" />
<glyph unicode="." horiz-adv-x="516" d="M61 162q0 180 197 180q113 0 155 -46t42 -134q0 -182 -197 -182q-117 0 -157 51t-40 131z" />
<glyph unicode="/" horiz-adv-x="712" d="M14 -76q127 537 348 1458q12 37 50 37h247q45 0 41 -57l-344 -1450q-4 -16 -18 -27.5t-31 -11.5h-252q-51 0 -41 51z" />
<glyph unicode="0" d="M45 698q0 55 6 112.5t24.5 141.5t59.5 154t101.5 134.5t160 101t226.5 36.5q594 0 594 -680q0 -59 -4.5 -114.5t-18.5 -130t-39 -137t-70 -126t-106 -108.5t-152.5 -72.5t-203.5 -27.5q-154 0 -265.5 51t-170 122.5t-92.5 179t-42 186.5t-8 177zM451 680q0 -367 172 -367 q106 0 148 91.5t42 275.5q0 188 -41 276t-149 88q-96 0 -134 -95t-38 -269z" />
<glyph unicode="1" d="M197 51v219q0 49 49 49h205v682h-175q-35 0 -48 8.5t-13 37.5v122q0 61 49 84l174 82q55 27 152 27h196q55 0 56 -51v-992h221q29 0 38 -11t9 -36v-221q0 -29 -9 -40t-38 -11h-817q-49 0 -49 51z" />
<glyph unicode="2" d="M82 51v168q0 57 37 92l280 262l215 201q92 86 93 172q0 51 -36 72.5t-114 21.5q-109 0 -356 -22q-49 -4 -64.5 3t-21.5 50l-19 139q-6 37 6.5 61.5t65.5 45.5q74 31 201 46t204 15q545 0 545 -407q0 -127 -49 -216t-162 -202q-82 -80 -239 -217l4 -14h420q29 0 38 -11.5 t9 -38.5v-221q0 -29 -9.5 -40t-37.5 -11h-961q-49 0 -49 51z" />
<glyph unicode="3" d="M84 154l27 137q8 41 23.5 51t64.5 4q193 -27 327 -27q121 0 175.5 29t54.5 133q0 70 -84 84l-283 53q-43 8 -57.5 24.5t-14.5 62.5v83q0 68 27 91l188 155l-2 8h-364q-49 0 -49 50v219q0 51 49 51h889q29 0 38 -11.5t9 -39.5l-2 -164q0 -61 -43 -100l-191 -168l4 -9 l80 -20q209 -53 209 -338q0 -154 -41 -259.5t-123 -163.5t-186 -82.5t-248 -24.5q-238 0 -391 59q-61 23 -77.5 48.5t-8.5 64.5z" />
<glyph unicode="4" d="M43 336v192q0 43 23 70l559 719q35 41 94 41h291q47 0 47 -49v-711h121q29 0 38 -11.5t9 -35.5v-223q0 -29 -9.5 -40.5t-37.5 -11.5l-121 3v-230q0 -49 -47 -49h-291q-49 0 -49 49v230l-561 -3q-66 1 -66 60zM465 588h211v282h-12l-199 -270v-12z" />
<glyph unicode="5" d="M84 154l27 137q8 41 23.5 51t64.5 4q193 -27 327 -27q121 0 175.5 30t54.5 134q0 66 -82 82l-455 80q-66 12 -82 43t-6 92l82 488q8 49 31.5 71.5t77.5 22.5h718q49 0 50 -51v-219q0 -49 -50 -50h-485l-20 -120l321 -48q141 -20 223 -114t82 -248q0 -295 -152.5 -412.5 t-447.5 -117.5q-238 0 -391 59q-61 23 -77.5 48.5t-8.5 64.5z" />
<glyph unicode="6" d="M72 639q0 109 10 198t46 194.5t96.5 177t171 119.5t259.5 48q252 0 402 -57q55 -20 69.5 -42t3.5 -60l-28 -138q-8 -41 -24.5 -53t-49.5 -8q-195 23 -375 22q-78 0 -119.5 -38.5t-50.5 -124.5q156 14 269 14q221 0 335.5 -118t114.5 -349q0 -119 -50 -208t-135 -138 t-183.5 -72.5t-206.5 -23.5q-150 0 -254.5 34.5t-162.5 88t-90 145.5t-40 177t-8 212zM469 561q-4 -141 25 -203q27 -53 141 -53q172 0 172 117q0 80 -26.5 115.5t-88.5 35.5q-84 0 -223 -12z" />
<glyph unicode="7" d="M88 1092v219q0 51 49 51h977q29 0 38 -11.5t9 -39.5l-2 -150q0 -45 -41 -123l-532 -1046q-16 -33 -30.5 -39t-55.5 8l-232 100q-37 18 -40 35t16 49l446 897h-553q-49 1 -49 50z" />
<glyph unicode="8" d="M57 408q0 201 183 313q-76 37 -112 104.5t-36 137.5q0 203 145.5 310t389.5 107q238 0 383 -101t145 -308q0 -61 -39 -135t-110 -111q96 -47 142 -132t46 -181q0 -201 -158.5 -315.5t-414.5 -114.5q-262 0 -413 103.5t-151 322.5zM453 442q0 -55 45 -91t123 -36 q86 0 130 38t44 89q0 119 -177 150q-68 -12 -116.5 -50.5t-48.5 -99.5zM494 952q0 -68 137 -96q66 10 95.5 38t29.5 58q0 45 -37 70t-92 25q-63 0 -98 -27t-35 -68z" />
<glyph unicode="9" d="M68 922q0 158 89 264t214 148t272 42q150 0 254 -34.5t162.5 -88t90.5 -145.5t40 -177t8 -212q0 -109 -10 -198t-46 -194.5t-96.5 -177t-171 -119.5t-260.5 -48q-252 0 -401 57q-55 20 -69.5 41.5t-4.5 60.5l29 138q12 41 27.5 53t46.5 8q195 -23 368 -23q160 0 176 160 q-111 -10 -268 -10q-450 0 -450 455zM463 930q0 -78 25.5 -112t89.5 -34q84 0 223 13q0 150 -23 196q-27 53 -143 54q-172 0 -172 -117z" />
<glyph unicode=":" horiz-adv-x="516" d="M61 162q0 180 197 180q113 0 155 -46t42 -134q0 -182 -197 -182q-117 0 -157 51t-40 131zM61 762q0 180 197 180q113 0 155 -46t42 -134q0 -182 -197 -182q-117 0 -157 51t-40 131z" />
<glyph unicode=";" horiz-adv-x="516" d="M20.5 -232.5q2.5 13.5 36.5 52.5q70 76 70 153q0 63 -45 115q-37 39 -38 60.5t42 58.5l158 121q43 25 62.5 18.5t55.5 -41.5q45 -43 71 -108.5t26 -122.5q0 -133 -75 -256t-175 -180q-53 -29 -94 16l-66 67q-31 33 -28.5 46.5zM61 762q0 180 197 180q113 0 155 -46 t42 -134q0 -182 -197 -182q-117 0 -157 51t-40 131z" />
<glyph unicode="&#x3c;" d="M162 580v180q0 33 33 51l870 432q39 18 39 -24v-242q0 -35 -35 -53l-485 -248v-10l487 -242q35 -14 35 -51v-252q0 -18 -13.5 -23.5t-29.5 2.5l-866 426q-35 19 -35 54z" />
<glyph unicode="=" d="M137 373v178q0 49 49 49h893q29 0 38 -11t9 -36v-180q0 -29 -9 -40t-38 -11h-893q-49 0 -49 51zM137 772v178q0 49 49 49h893q29 0 38 -11t9 -36v-180q0 -29 -9 -40t-38 -11h-893q-49 0 -49 51z" />
<glyph unicode="&#x3e;" d="M164 121v252q0 37 35 51l487 242v10l-485 248q-35 18 -35 53v242q0 43 39 24l870 -432q33 -18 33 -51v-180q0 -35 -35 -54l-866 -426q-16 -8 -29.5 -2.5t-13.5 23.5z" />
<glyph unicode="?" horiz-adv-x="972" d="M74 1245q-4 39 2 51.5t41 26.5q123 53 297 53q229 0 353 -88t124 -254q0 -72 -34 -133t-64.5 -89t-83.5 -67q-80 -59 -112 -109t-32 -132v-60q0 -51 -39 -51h-260q-25 0 -36 9.5t-15 37.5q-4 37 -4 86q0 147 46 226t165 178q51 39 51 80q0 33 -29.5 47t-99.5 14 q-100 0 -186 -12q-45 -6 -56.5 0t-15.5 39zM197 154q0 174 188 174q109 0 148.5 -45t39.5 -129q0 -174 -188 -174q-113 0 -150.5 48t-37.5 126z" />
<glyph unicode="@" horiz-adv-x="1939" d="M133 737q0 338 244 559.5t620 221.5q399 0 601 -211t202 -537q0 -227 -123 -349t-299 -122q-88 0 -160.5 29.5t-107.5 83.5q-117 -80 -244 -80q-143 0 -206.5 62.5t-63.5 199.5q0 285 350 285h107v12q0 53 -109 53q-53 0 -207 -18q-43 -4 -54 1t-17 40l-15 84 q-10 61 66 86q123 41 264 41q203 0 273.5 -76t70.5 -246v-250q0 -63 72 -63q55 0 95 55t40 162q0 223 -133 368.5t-387 145.5q-287 0 -450 -151.5t-163 -381.5q0 -236 147.5 -383t405.5 -147q115 0 240 25q57 10 70.5 3.5t23.5 -40.5l29 -107q16 -55 -49 -86 q-119 -51 -318 -51q-410 0 -612.5 213t-202.5 569zM858 594q0 -45 45 -45q57 0 148 51l-2 82h-113q-78 0 -78 -88z" />
<glyph unicode="A" horiz-adv-x="1331" d="M11 10q-3 4 -3 14q0 13 6 37l381 1231q12 39 31.5 55.5t69.5 16.5h321q35 0 54.5 -9t26.5 -22.5t17 -42.5l404 -1233q5 -17 5 -28q0 -29 -32 -29h-313q-39 0 -55.5 18.5t-28.5 61.5l-55 201h-365l-57 -213q-18 -68 -86 -68h-283q-31 0 -38 10zM555 580h203l-43 172 l-51 213h-13z" />
<glyph unicode="B" horiz-adv-x="1355" d="M133 49v1264q0 49 49 49l586 2q213 0 326.5 -103.5t113.5 -289.5q0 -59 -30.5 -132t-104.5 -112v-10q170 -70 170 -299q0 -195 -132 -306.5t-318 -111.5h-611q-49 0 -49 49zM537 330h182q113 0 112 106q0 49 -27.5 80t-84.5 31h-182v-217zM537 862h163q98 0 99 82 q0 88 -99 88h-163v-170z" />
<glyph unicode="C" horiz-adv-x="1267" d="M113 680q0 106 14 197.5t56 186.5t109.5 162.5t182.5 109.5t264 42q236 0 394 -69q29 -14 43 -24.5t22 -32t2 -54.5l-31 -145q-8 -37 -23.5 -45.5t-62.5 -3.5q-221 18 -299 18q-244 0 -243 -334q0 -195 51 -275.5t190 -80.5q123 0 308 18q49 4 62 -3t24 -46l34 -133 q5 -19 5 -34q0 -21 -10 -36q-17 -25 -60 -45q-166 -74 -404 -73q-628 0 -628 700z" />
<glyph unicode="D" horiz-adv-x="1392" d="M133 49v1264q0 49 49 49h471q627 0 627 -678q0 -684 -627 -684h-471q-49 0 -49 49zM532 330h76q256 0 256 340q0 176 -52 269t-189 93h-91v-702z" />
<glyph unicode="E" horiz-adv-x="1191" d="M133 49v1264q0 49 49 49h860q23 0 36.5 -13.5t13.5 -35.5v-236q0 -45 -50 -45h-507v-164h438q23 0 36 -14t13 -35v-235q0 -45 -49 -45h-438v-209h516q23 0 36 -13.5t13 -35.5v-236q0 -45 -49 -45h-869q-49 0 -49 49z" />
<glyph unicode="F" horiz-adv-x="1118" d="M129 1313q0 49 49 49h844q23 0 36 -13.5t13 -35.5v-236q0 -45 -49 -45h-490v-164h412q23 0 36 -14t13 -35v-235q0 -45 -49 -45h-412v-490q0 -49 -47 -49h-305q-49 0 -49 49z" />
<glyph unicode="G" horiz-adv-x="1359" d="M113 680q0 106 14 197.5t56 186.5t109.5 162.5t182.5 109.5t264 42q236 0 394 -69q29 -14 43 -24.5t22 -32t2 -54.5l-33 -149q-8 -37 -22.5 -44.5t-61.5 -0.5q-176 20 -290 20q-252 0 -252 -336q0 -90 8 -148.5t30.5 -110.5t68.5 -76.5t118 -24.5q49 0 98 6v166h-119 q-49 0 -49 45v215q0 49 49 49h453q23 0 36 -13.5t13 -35.5q0 -223 -2 -580q0 -100 -65 -127q-186 -74 -461 -73q-147 0 -258 39.5t-176.5 104t-105.5 160t-53 188.5t-13 208z" />
<glyph unicode="H" horiz-adv-x="1374" d="M133 49v1264q0 49 49 49h305q47 0 48 -49v-447h305v447q0 49 49 49h305q47 0 47 -49v-1264q0 -49 -47 -49h-305q-49 0 -49 49v486h-305v-486q0 -49 -48 -49h-305q-49 0 -49 49z" />
<glyph unicode="I" horiz-adv-x="667" d="M133 49v1264q0 49 49 49h305q47 0 48 -49v-1264q0 -49 -48 -49h-305q-49 0 -49 49z" />
<glyph unicode="J" horiz-adv-x="1019" d="M16 131l39 168q8 37 18.5 43t43.5 2q102 -14 196 -14q92 0 123 34.5t31 100.5l-2 848q0 49 49 49h305q47 0 47 -49q0 -582 -2 -934q0 -190 -119.5 -293.5t-355.5 -103.5q-166 0 -287 41q-66 23 -80 40q-9 11 -10 34q0 14 4 34z" />
<glyph unicode="K" horiz-adv-x="1331" d="M117 49v1264q0 49 49 49h305q47 0 47 -49v-377h6l140 186l153 193q41 47 113 47h327q41 0 48.5 -19.5t-17.5 -48.5l-420 -506l441 -712q15 -30 15 -47q0 -8 -3 -13q-10 -16 -41 -16h-326q-70 0 -110 63l-238 410l-88 -106v-318q0 -49 -47 -49h-305q-49 0 -49 49z" />
<glyph unicode="L" horiz-adv-x="1114" d="M133 49v1264q0 49 49 49h303q49 0 50 -49v-983h522q37 0 37 -35v-250q0 -45 -50 -45h-862q-49 0 -49 49z" />
<glyph unicode="M" horiz-adv-x="1636" d="M133 49v1264q0 49 49 49h215q51 0 71.5 -11.5t39.5 -43.5l133 -265l176 -366h12l179 366l135 263q16 33 37.5 45t68.5 12h207q47 0 47 -49v-1264q0 -49 -47 -49h-293q-49 0 -49 49v469l-6 2l-72 -160l-51 -104q-39 -68 -106 -68h-121q-66 0 -103 64l-53 106l-76 166 l-4 -2v-473q0 -49 -47 -49h-293q-49 0 -49 49z" />
<glyph unicode="N" horiz-adv-x="1409" d="M133 49v1264q0 49 49 49h209q31 0 49.5 -6t26.5 -14.5t22 -28.5l224 -332l166 -250l8 2v580q0 49 47 49h293q49 0 49 -49v-1264q0 -49 -49 -49h-207q-66 0 -107 57l-200 289l-185 275h-6v-572q0 -49 -47 -49h-293q-49 0 -49 49z" />
<glyph unicode="O" horiz-adv-x="1458" d="M113 698q0 70 8 133.5t28.5 146.5t64.5 149.5t107.5 126t167 92t234.5 32.5q154 0 269.5 -41t181 -104.5t105.5 -157.5t53.5 -182t13.5 -194.5t-11.5 -192.5t-49.5 -188.5t-102.5 -172t-182 -116.5t-277.5 -47t-276.5 47t-179 116.5t-99.5 173t-46 188.5t-9 191zM539 676 q0 -190 42 -270t146 -80q109 0 156 81.5t47 268.5q0 199 -44 278.5t-159 79.5q-104 0 -146 -81.5t-42 -276.5z" />
<glyph unicode="P" horiz-adv-x="1208" d="M133 49v1264q0 49 49 49h512q211 0 347.5 -112.5t136.5 -323.5q0 -80 -20.5 -152t-70 -142.5t-149.5 -112.5t-244 -42h-159v-428q0 -49 -48 -49h-305q-49 0 -49 49zM535 797h98q131 0 131 118q0 117 -131 117h-98v-235z" />
<glyph unicode="Q" horiz-adv-x="1464" d="M113 698q0 70 8 133.5t28.5 146.5t64.5 149.5t107.5 126t167 92t234.5 32.5q154 0 269.5 -41t181 -104.5t105.5 -157.5t53.5 -182t13.5 -195q0 -362 -154 -538l182 -56q39 -12 46 -28q2 -5 2 -11q0 -16 -13 -42l-88 -220q-16 -42 -55 -41q-20 0 -45 11l-473 211 q-4 0 -12.5 -1t-12.5 -1q-160 0 -276.5 47t-179 116.5t-99.5 173t-46 188.5t-9 191zM539 676q0 -190 42 -270t146 -80q109 0 156 81.5t47 268.5q0 199 -44 278.5t-159 79.5q-104 0 -146 -81.5t-42 -276.5z" />
<glyph unicode="R" horiz-adv-x="1298" d="M133 49v1264q0 49 49 49h543q190 0 330.5 -109.5t140.5 -318.5q0 -256 -205 -367l238 -508q9 -19 9 -32q0 -27 -40 -27h-313q-72 0 -97 53l-182 441h-71v-445q0 -49 -48 -49h-305q-49 0 -49 49zM535 813h122q125 0 125 113q0 51 -32.5 78.5t-87.5 27.5h-127v-219z" />
<glyph unicode="S" horiz-adv-x="1243" d="M92 946q0 205 141.5 317.5t378.5 112.5q248 0 404 -61q41 -16 58.5 -31.5t17.5 -33t-5 -42.5l-34 -149q-10 -47 -34 -53q-9 -2 -22 -3q-22 0 -55 7q-154 20 -293 20q-133 0 -133 -76q0 -39 25.5 -54t105.5 -36q229 -55 320 -106q184 -106 184 -336q0 -121 -48 -210 t-131 -137t-180.5 -70.5t-209.5 -22.5q-242 0 -410 65q-41 16 -58.5 31.5t-17.5 33t4 42.5l31 147q10 47 29 55q8 4 23 4q18 0 46 -6q215 -29 357 -28q80 0 114.5 20.5t34.5 67.5q0 29 -19.5 46t-42 24.5t-83.5 23.5q-90 23 -143.5 38t-130 51t-118.5 78t-74 112.5 t-32 158.5z" />
<glyph unicode="T" horiz-adv-x="1103" d="M20 1077v236q0 49 50 49h964q23 0 36 -13.5t13 -35.5v-236q0 -45 -49 -45h-282v-983q0 -49 -47 -49h-306q-49 0 -49 49v983h-280q-50 0 -50 45z" />
<glyph unicode="U" horiz-adv-x="1388" d="M135 514v799q0 49 49 49h303q47 0 48 -49v-787q0 -203 157 -202q164 0 164 202l-2 787q0 49 49 49h303q47 0 47 -49v-799q0 -145 -41 -246q-61 -145 -203.5 -216.5t-316.5 -71.5q-283 0 -428 159q-129 142 -129 375z" />
<glyph unicode="V" horiz-adv-x="1378" d="M27 1303q-5 15 -5 26q0 35 46 35h270q51 0 73.5 -14.5t32.5 -53.5l121 -413l121 -424h12l115 428l109 397q20 80 96 80h301q25 0 33 -11q7 -9 6 -16q0 -3 -8 -32l-412 -1231q-8 -25 -16.5 -38t-32 -24.5t-60.5 -11.5h-286q-88 0 -111 72z" />
<glyph unicode="W" horiz-adv-x="1855" d="M27 1303q-5 15 -5 26q0 35 46 35h290q41 0 62.5 -14.5t30.5 -53.5l86 -401l79 -365h13l65 234l64 217l-105 324q-6 23 1.5 41t29.5 18h266q43 0 65.5 -14.5t31.5 -53.5l112 -458l72 -308h12l64 347l82 419q14 68 100 68h276q46 0 46 -35q0 -12 -5 -26l-309 -1231 q-23 -72 -111 -72h-225q-53 0 -74.5 17.5t-33.5 56.5l-47 147l-66 207h-12l-68 -205l-53 -149q-8 -25 -16.5 -38t-32 -24.5t-60.5 -11.5h-225q-90 0 -111 72z" />
<glyph unicode="X" horiz-adv-x="1269" d="M28 20q-1 4 -1 10q0 17 14 40l362 624l-342 600q-16 27 -8 47.5t41 20.5h316q37 0 49 -9.5t30 -41.5l64 -140l74 -161l78 174l55 123q16 33 31.5 44t44.5 11h327q54 0 54 -29q0 -13 -11 -33l-358 -606l364 -628q11 -19 11 -34q0 -11 -8 -21q-9 -11 -33 -11h-320 q-57 0 -84 51l-63 139l-90 193l-90 -201l-56 -125q-31 -57 -92 -57h-321q-33 0 -38 20z" />
<glyph unicode="Y" horiz-adv-x="1402" d="M17 1346q7 18 34 18h301q41 0 59.5 -11.5t37.5 -47.5l112 -228l125 -260h12l127 260l105 207q18 33 25.5 45t25.5 23.5t45 11.5h311q27 0 34 -16q3 -6 3 -13q0 -11 -8 -22l-485 -862v-402q0 -49 -47 -49h-306q-49 0 -49 49v402l-454 852q-10 16 -10 30q0 7 2 13z" />
<glyph unicode="Z" horiz-adv-x="1185" d="M92 49v207q0 51 31 92l518 684h-459q-49 0 -49 45v236q0 49 49 49h860q23 0 36.5 -13.5t13.5 -35.5l-2 -178q0 -72 -35 -119l-523 -686h512q49 0 50 -45v-236q0 -49 -50 -49h-903q-23 0 -36 14.5t-13 34.5z" />
<glyph unicode="[" horiz-adv-x="641" d="M68 -141v1515q0 49 49 49h409q23 0 36 -13t13 -36v-207q0 -45 -49 -45h-102v-1013h104q20 0 35 -13.5t15 -36.5v-204q0 -45 -50 -45h-411q-49 0 -49 49z" />
<glyph unicode="\" horiz-adv-x="712" d="M16 1362q-4 57 41 57h248q37 0 49 -37q221 -922 348 -1458q10 -51 -40 -51h-252q-16 0 -30.5 11.5t-19.5 27.5z" />
<glyph unicode="]" horiz-adv-x="641" d="M70 59q0 23 14 36.5t35 13.5h104v1013h-102q-49 0 -49 45v207q0 23 13 36t36 13h409q49 0 50 -49v-1515q0 -49 -50 -49h-411q-49 0 -49 45v204z" />
<glyph unicode="^" d="M56 745.5q-1 12.5 20 38.5l370 535q20 25 38 34t59 9l205 -4q33 0 50 -5t21 -10.5t19 -23.5l346 -535q20 -27 19 -39t-21 -30l-99 -74q-37 -31 -73 4l-381 420l-383 -420q-37 -35 -74 -4l-94 74q-21 18 -22 30.5z" />
<glyph unicode="_" horiz-adv-x="1024" d="M-45 -113q0 49 49 50h1018q29 0 38 -11.5t9 -36.5v-139q0 -29 -9 -40t-38 -11h-1018q-49 0 -49 51v137z" />
<glyph unicode="`" horiz-adv-x="1134" d="M313 1413q-41 41 2 76l164 139q37 29 72 -14l264 -342q29 -33 -6 -60l-111 -98q-29 -25 -63 10z" />
<glyph unicode="a" horiz-adv-x="1228" d="M74 300q0 179 104 255q106 78 295 78h215v16q0 45 -28.5 64.5t-124.5 19.5q-84 0 -259 -18q-30 -5 -48 -5q-14 0 -21 3q-16 6 -25 43l-28 131q-6 33 9 54.5t70 41.5q141 53 361 53q150 0 245 -24.5t144 -79.5t65.5 -122t16.5 -173v-262q0 -63 13.5 -79.5t64.5 -23.5 q29 -2 37 -10t8 -31v-168q0 -43 -68 -59q-66 -16 -151 -16q-201 0 -240 139l-4 2q-72 -80 -174 -112.5t-184 -32.5q-92 0 -153.5 26.5t-90.5 75.5t-39 96.5t-10 117.5zM463 315q0 -31 13 -43t48 -12q70 0 156 49v90h-133q-84 0 -84 -84z" />
<glyph unicode="b" horiz-adv-x="1167" d="M90 160v1239q0 49 49 49h289q47 0 47 -49l-2 -385q94 23 168 22q113 0 193.5 -26.5t129 -69.5t76 -111.5t36.5 -139.5t9 -167q0 -129 -19 -220t-70.5 -168t-152 -114.5t-251.5 -37.5q-281 0 -436 67q-66 31 -66 111zM473 317q33 -6 78 -6q66 0 102.5 39t36.5 156 q0 121 -29.5 163t-97.5 42q-33 0 -90 -13v-381z" />
<glyph unicode="c" horiz-adv-x="1028" d="M82 512q0 524 496 524q201 0 325 -53q55 -24 55 -73q0 -9 -2 -19l-28 -158q-8 -39 -22 -44q-6 -2 -20 -2q-17 0 -46 3q-123 12 -197 12q-172 0 -172 -184q0 -113 37 -159t127 -46q88 0 231 17q25 4 38.5 3t18.5 -10.5t11 -35.5l27 -144q6 -24 6 -41q0 -16 -5 -27 q-11 -24 -69 -46q-137 -47 -315 -47q-156 0 -259.5 44t-152.5 125.5t-66.5 164.5t-17.5 196z" />
<glyph unicode="d" horiz-adv-x="1171" d="M82 494q0 133 15.5 223t57.5 169t128 117.5t219 38.5q100 0 194 -22v379q0 49 49 49h287q47 0 47 -49v-1350q0 -49 -47 -49h-291q-45 0 -45 47v41l-4 2q-139 -106 -266 -106q-104 0 -175 38.5t-106.5 113.5t-49 159t-13.5 199zM471 512q0 -106 21.5 -143t72.5 -37 q43 0 131 37v333q-55 12 -100 13q-70 0 -97.5 -40t-27.5 -163z" />
<glyph unicode="e" horiz-adv-x="1132" d="M82 498q0 539 493 538q485 0 486 -473q0 -72 -27.5 -105.5t-95.5 -33.5h-465q8 -80 56.5 -103.5t144.5 -23.5q86 0 221 18q49 6 60.5 -1t19.5 -52l20 -121q6 -24 7 -41q0 -16 -6 -27q-11 -24 -68 -46q-131 -45 -330 -45q-156 0 -261.5 39.5t-158.5 116.5t-74.5 162 t-21.5 198zM479 635h187q0 117 -91 117q-41 0 -67.5 -30t-28.5 -87z" />
<glyph unicode="f" horiz-adv-x="942" d="M61 772v197q0 49 50 49h82v88q0 176 107.5 274.5t320.5 98.5q193 0 313 -54q39 -16 46 -42q3 -11 3 -20q0 -14 -6 -28l-33 -166q-6 -27 -18.5 -30.5t-55.5 2.5q-100 10 -182 10q-111 0 -110 -111v-22h208q29 0 38.5 -11.5t9.5 -35.5v-199q0 -29 -9.5 -40t-38.5 -11h-213 v-672q0 -49 -47 -49h-286q-49 0 -50 49l3 672h-82q-50 0 -50 51z" />
<glyph unicode="g" horiz-adv-x="1167" d="M82 508q0 119 22.5 209t78 165.5t159.5 115.5t256 40q260 0 412 -65q66 -31 65 -111v-809q0 -80 -5 -135t-22.5 -117.5t-53.5 -103.5t-91 -77t-143 -52.5t-207 -16.5q-188 0 -322 50q-55 20 -70.5 42.5t-8.5 55.5l30 145q8 39 23.5 46.5t54.5 -3.5q141 -23 272 -22 q98 0 130 29.5t32 101.5v35q-94 -23 -168 -23q-131 0 -221 37t-137 107.5t-66.5 155.5t-19.5 200zM477 526q0 -115 30 -152.5t97 -37.5q33 0 90 12v354q-33 6 -78 7q-68 0 -103.5 -36t-35.5 -147z" />
<glyph unicode="h" horiz-adv-x="1187" d="M92 49v1350q0 49 49 49h291q47 0 47 -49v-436q135 74 277 73q94 0 160.5 -27.5t101.5 -66.5t55.5 -100.5t24.5 -108.5t4 -112v-572q0 -49 -47 -49h-289q-49 0 -49 49v520q0 74 -26.5 98.5t-78.5 24.5q-47 0 -135 -33v-610q0 -49 -47 -49h-289q-49 0 -49 49z" />
<glyph unicode="i" horiz-adv-x="618" d="M113 49v920q0 49 49 49h289q47 0 47 -49v-920q0 -49 -47 -49h-289q-49 0 -49 49zM113 1284q0 180 196 180q113 0 155 -46t42 -134q0 -182 -197 -182q-117 0 -156.5 51t-39.5 131z" />
<glyph unicode="j" horiz-adv-x="647" d="M-159 -147q5 12 11.5 15t32.5 9q162 35 210 67.5t48 135.5v889q0 49 50 49h288q47 0 47 -49v-879q0 -164 -45 -273.5t-132 -166t-189 -76.5q-85 -17 -196 -17q-22 0 -46 1q-55 0 -59 51l-19 209q-3 12 -3 21q0 8 2 14zM141 1284q0 180 197 180q113 0 155 -46t42 -134 q0 -182 -197 -182q-117 0 -157 51t-40 131z" />
<glyph unicode="k" horiz-adv-x="1165" d="M92 49v1350q0 49 49 49h287q47 0 47 -49v-649l6 -2l103 126l75 91q25 29 48.5 41t70.5 12h295q41 0 47 -18.5t-20 -45.5l-299 -340l348 -548q13 -20 13 -35q0 -8 -4 -14q-11 -17 -48 -17h-279q-90 0 -122 57l-162 271l-72 -86v-193q0 -49 -47 -49h-287q-49 0 -49 49z" />
<glyph unicode="l" horiz-adv-x="673" d="M113 297v1102q0 49 49 49h289q47 0 47 -49v-1039q0 -25 9 -37t23.5 -16t47.5 -6q37 -2 43 -8t10 -33l10 -190q2 -35 -37 -52q-68 -29 -188 -28q-154 0 -228.5 70.5t-74.5 236.5z" />
<glyph unicode="m" horiz-adv-x="1757" d="M92 49v920q0 49 49 49h289q47 0 47 -49v-39l4 -2q119 109 289 108q186 0 260 -137q152 137 332 137q74 0 129 -17.5t87 -53t52.5 -69.5t27.5 -91t9 -92t2 -95v-569q0 -49 -47 -49h-289q-49 0 -49 49v504q0 74 -23.5 98.5t-68.5 24.5q-49 0 -119 -33v-594q0 -49 -47 -49 h-289q-49 0 -49 49v504q0 74 -23.5 98.5t-68.5 24.5q-49 0 -119 -33v-594q0 -49 -47 -49h-289q-49 0 -49 49z" />
<glyph unicode="n" horiz-adv-x="1193" d="M92 49v920q0 49 49 49h289q47 0 47 -49v-39l4 -2q139 106 305 106q86 0 147.5 -27.5t93.5 -65.5t50.5 -100.5t21.5 -108.5t3 -114v-569q0 -49 -47 -49h-289q-49 0 -49 49v504q0 74 -25.5 98.5t-79.5 24.5q-47 0 -135 -33v-594q0 -49 -47 -49h-289q-49 0 -49 49z" />
<glyph unicode="o" horiz-adv-x="1169" d="M82 522q0 66 8 124.5t39 133t82 129t145.5 91t221.5 36.5q510 0 509 -514q0 -80 -7 -141.5t-36.5 -140t-82 -131t-150.5 -89t-233 -36.5q-133 0 -229.5 36.5t-146.5 89t-79 131t-35 140t-6 141.5zM471 510q0 -111 22.5 -157t84.5 -46q70 0 94 48t24 155q0 109 -22.5 155 t-91.5 46q-111 0 -111 -201z" />
<glyph unicode="p" horiz-adv-x="1173" d="M92 -371v1340q0 49 49 49h289q47 0 47 -49v-39l4 -2q139 106 264 106q106 0 178 -42t108 -119.5t49.5 -163.5t13.5 -201q0 -264 -90.5 -398.5t-333.5 -134.5q-90 0 -193 25v-371q0 -49 -47 -49h-289q-49 0 -49 49zM475 315q53 -12 98 -12q72 0 99.5 38t27.5 161 q0 100 -22.5 139t-73.5 39q-47 0 -129 -35v-330z" />
<glyph unicode="q" horiz-adv-x="1167" d="M82 496q0 123 22.5 215t78 168.5t159.5 117.5t256 41q260 0 412 -65q66 -31 65 -111v-1233q0 -49 -47 -49h-289q-49 0 -49 49v375q-82 -23 -164 -22q-131 0 -221 37.5t-137 110.5t-66.5 160t-19.5 206zM477 514q0 -121 30 -163t97 -42q33 0 90 13v380q-33 6 -78 7 q-66 0 -102.5 -39t-36.5 -156z" />
<glyph unicode="r" horiz-adv-x="919" d="M115 49v920q0 49 49 49h289q47 0 47 -49v-105l4 -4q59 63 144 111.5t147 56.5q23 3 38 3h8q17 -1 25 -14t13 -44l30 -254q2 -13 3 -23q0 -7 -2 -12q-3 -12 -17 -19.5t-53 -15.5q-207 -39 -340 -86v-514q0 -49 -47 -49h-289q-49 0 -49 49z" />
<glyph unicode="s" horiz-adv-x="1048" d="M76 150l28 120q8 35 21.5 42t52.5 -1q156 -29 295 -28q113 0 113 43q0 23 -17.5 31t-60.5 12q-84 10 -136.5 20t-113.5 32.5t-95 55.5t-56.5 87t-22.5 128q0 166 125 255t321 89q184 0 320 -45q45 -16 62.5 -24.5t28.5 -27.5t3 -52l-31 -129q-8 -35 -17 -41t-48 -2 q-168 20 -299 26q-37 2 -56.5 -4t-22.5 -12t-3 -18q0 -27 90 -37q100 -12 162.5 -27.5t128 -49.5t97.5 -98.5t32 -158.5q0 -186 -137.5 -270t-347.5 -84q-180 0 -326 45q-68 20 -85 45q-10 14 -10 38q0 18 5 40z" />
<glyph unicode="t" horiz-adv-x="919" d="M49 772v197q0 49 49 49h82v192q0 43 49 58l265 69q12 3 21 3q38 0 38 -46v-276h201q29 0 38 -11.5t9 -35.5v-199q0 -29 -9.5 -40t-37.5 -11h-205v-242q0 -88 21.5 -120.5t78.5 -35.5q13 -1 29 -1q52 0 133 8q35 2 44 -3t13 -34l27 -180q1 -7 1 -14q0 -44 -48 -62 q-137 -53 -342 -53q-174 0 -252 81.5t-78 243.5v412h-78q-49 0 -49 51z" />
<glyph unicode="u" horiz-adv-x="1175" d="M86 393v576q0 49 47 49h289q49 0 49 -49v-504q0 -74 25.5 -98.5t78.5 -24.5q35 0 123 33v594q0 49 47 49h289q49 0 49 -49v-920q0 -49 -49 -49h-289q-47 0 -47 49v39l-4 2q-139 -106 -303 -106q-63 0 -111.5 13t-80 31.5t-54 53.5t-34 64.5t-17.5 78.5t-7 81t-1 87z" />
<glyph unicode="v" horiz-adv-x="1193" d="M39 956q-6 16 -6 29q0 33 45 33h276q27 0 39.5 -2t24.5 -14.5t18 -36.5l74 -265l82 -284h12l84 297l82 256q8 27 25.5 38t60.5 11h256q41 0 49 -14q3 -6 3 -15q0 -13 -7 -31l-330 -876q-16 -45 -40.5 -63.5t-73.5 -18.5h-234q-53 0 -75.5 18.5t-38.5 63.5z" />
<glyph unicode="w" horiz-adv-x="1622" d="M35 967q-4 12 -4 20q0 30 43 31h284q33 0 48.5 -9.5t23.5 -41.5l53 -215l76 -310h12l56 168q39 117 47 140l-76 215q-8 25 1 39t34 14h250q37 0 49 -9.5t24 -50.5l66 -227l72 -260h12l68 313l38 177q8 33 20.5 45t39.5 12h282q42 0 42 -32q0 -9 -3 -19l-262 -885 q-25 -82 -102 -82h-217q-63 0 -92 82l-37 102l-47 135h-9l-51 -135q-6 -12 -19.5 -48t-21.5 -54q-33 -82 -106 -82h-199q-43 0 -63.5 18.5t-36.5 63.5z" />
<glyph unicode="x" horiz-adv-x="1163" d="M27 63l307 455l-285 438q-16 20 -10 41t39 21h313q33 0 45.5 -7t28.5 -32l119 -225l118 223q14 25 26.5 33t39.5 8h332q49 0 49 -25q0 -14 -16 -37l-299 -438l307 -455q13 -16 12 -30q0 -6 -2 -13q-8 -20 -41 -20h-317q-51 0 -76 39l-135 248l-129 -244q-27 -43 -84 -43 h-318q-42 0 -42 23q0 15 18 40z" />
<glyph unicode="y" horiz-adv-x="1122" d="M20 958q-7 17 -6 29q0 31 45 31h271q27 0 39 -2t24.5 -14.5t18.5 -36.5l67 -230l72 -258h12l82 266l70 226q8 27 25.5 38t60.5 11h246q41 0 49 -16q3 -6 3 -13q0 -13 -9 -33l-496 -1318q-14 -35 -30.5 -45.5t-57.5 -10.5h-244q-37 0 -46 12.5t5 47.5l150 397z" />
<glyph unicode="z" horiz-adv-x="999" d="M51 47v162q0 49 37 90l377 420h-336q-49 0 -49 51v199q0 49 49 49h752q29 0 38 -11.5t9 -35.5v-164q0 -49 -37 -92l-375 -418h377q49 0 49 -51v-197q0 -49 -49 -49h-795q-29 0 -38 11t-9 36z" />
<glyph unicode="{" horiz-adv-x="778" d="M63 551v137q0 31 35 39q31 8 48.5 20.5t24.5 37t8 41t1 61.5v287q0 109 77 186.5t212 77.5q109 0 197 -11q37 -4 36 -45v-174q0 -41 -40 -41l-54 -4q-41 -2 -58.5 -26.5t-17.5 -73.5v-215q0 -41 -9 -83t-43 -89t-91 -64v-6q66 -20 99.5 -62t38.5 -76t5 -89v-242 q0 -49 17.5 -71.5t60.5 -24.5l52 -4q20 -2 30 -11.5t10 -31.5v-166q0 -41 -36 -45q-76 -10 -209 -10q-141 0 -209 76.5t-68 183.5v317q0 55 -2 77t-19.5 44.5t-56.5 34.5t-39 45z" />
<glyph unicode="|" horiz-adv-x="665" d="M164 -174v1552q0 49 49 49h242q47 0 47 -49v-1552q0 -49 -47 -49h-242q-49 0 -49 49z" />
<glyph unicode="}" horiz-adv-x="778" d="M59 -6q0 23 10.5 32t30.5 11l52 4q43 2 60 24.5t17 71.5v242q0 55 5.5 89t39 76t99.5 62v6q-57 16 -91 63.5t-43.5 89.5t-9.5 83v215q0 49 -17 73.5t-58 26.5l-54 4q-41 0 -41 41v174q0 41 37 45q88 10 197 11q135 0 212 -78t77 -186v-287q0 -45 1 -61.5t8 -41t24.5 -37 t48.5 -20.5q35 -8 34 -39v-137q0 -33 -39 -45q-55 -16 -66 -47t-11 -109v-317q0 -106 -68 -183t-209 -77q-133 0 -209 10q-37 4 -37 45v166z" />
<glyph unicode="~" d="M117 545q111 258 332 258q76 0 223 -47t190 -47q51 0 105 77q14 20 24 22.5t37 -11.5l107 -64q25 -14 28.5 -20t-2.5 -33q-61 -141 -140 -192.5t-187 -51.5q-53 0 -197.5 50.5t-194.5 50.5q-63 0 -133 -84q-18 -23 -23 -25t-40 10l-105 56q-38 20 -24 51z" />
<glyph unicode="&#xa1;" horiz-adv-x="663" d="M143 860q0 78 38 126t151 48q188 0 188 -174q0 -84 -40 -129t-148 -45q-189 0 -189 174zM156 -299l30 846q0 45 43 45h213q41 0 45 -45l29 -846q0 -27 -10 -36t-35 -9h-272q-25 0 -35 9t-8 36z" />
<glyph unicode="&#xa2;" d="M209 504q0 528 493 528q51 0 78 -2l41 268q4 31 33 29h74q31 -4 24 -41l-41 -274q59 -12 117 -35q59 -27 49 -80l-28 -149q-8 -37 -21.5 -45.5t-50.5 -4.5q-80 8 -111 11l-61 -410q96 4 184 16q31 4 44.5 -4t19.5 -35l28 -143q6 -27 5 -45t-16 -32.5t-52 -26.5 q-98 -33 -260 -45l-43 -285q-2 -16 -8.5 -24.5t-20.5 -6.5h-86q-31 4 -25 35l43 283q-127 10 -211.5 57t-125.5 124t-56.5 155t-15.5 182zM578 508q-6 -166 92 -199l61 402q-80 -8 -114.5 -57.5t-38.5 -145.5z" />
<glyph unicode="&#xa3;" d="M115 236q0 43 53 86q96 74 100 241h-104q-27 0 -38 9.5t-11 33.5v182q0 25 11 33t38 8h94q-2 86 -2 166t24.5 148.5t69.5 119t134 79t218 28.5q252 0 398 -57q33 -12 40 -25.5t1 -38.5l-27 -180q-8 -49 -49 -47q-143 20 -256 20t-145.5 -54t-28.5 -159h246q27 0 37 -8 t10 -33v-182q0 -25 -10.5 -34t-36.5 -9h-236q-4 -178 -53 -256h487q27 0 36 -9t9 -34l2 -219q0 -27 -9 -36t-36 -9h-915q-47 0 -47 47z" />
<glyph unicode="&#xa4;" horiz-adv-x="1134" d="M50 929.5q1 14.5 28 39.5l96 90q35 31 49.5 29.5t42.5 -29.5l86 -88q88 41 205 45q135 0 219 -49l109 104q35 29 46 28t34 -24l108 -106q23 -23 22 -36t-26 -38l-115 -115q41 -84 41 -186q0 -115 -47 -215l115 -115q25 -25 28 -38t-22 -42l-90 -92q-31 -33 -46 -35 t-40 23l-125 119q-106 -49 -211 -47q-98 0 -186 38l-107 -96q-29 -27 -42 -30t-40 20l-104 111q-20 16 -19.5 30.5t27.5 40.5l96 92q-51 119 -51 228q0 111 45 200l-100 103q-27 26 -26 40.5zM399 594q0 -82 43 -127t121 -45q82 0 129 47t47 125q0 80 -46 125t-130 45 q-78 0 -121 -45t-43 -125z" />
<glyph unicode="&#xa5;" d="M50 1343.5q9 18.5 36 18.5h276q43 0 61.5 -8t31.5 -45l178 -480h12l174 474q14 39 28.5 49t53.5 10h289q31 0 36 -20.5t-7 -38.5l-324 -652h182q29 0 36 -8t7 -33v-82q0 -29 -7 -37t-36 -8h-256v-86h256q29 0 36 -8t7 -33v-82q0 -29 -7 -37t-36 -8h-254v-180 q0 -49 -45 -49h-301q-47 0 -47 49v180h-254q-27 0 -36 9.5t-9 35.5v80q0 25 9.5 34t35.5 9h254v86h-254q-27 0 -36 9.5t-9 35.5v80q0 25 9.5 34t35.5 9h189l-314 649q-10 25 -1 43.5z" />
<glyph unicode="&#xa6;" horiz-adv-x="665" d="M164 -174v711q0 49 49 49h242q47 0 47 -49v-711q0 -49 -47 -49h-242q-49 0 -49 49zM164 772v606q0 49 49 49h242q47 0 47 -49v-606q0 -49 -47 -49h-242q-49 0 -49 49z" />
<glyph unicode="&#xa7;" horiz-adv-x="962" d="M63 1032q0 121 69 206t163 119t201 34q229 0 344 -66q14 -8 18 -11t14.5 -10.5t12.5 -13.5t2 -17t-4 -24l-43 -137q-16 -47 -38 -50t-79 11q-137 20 -188 21q-129 0 -129 -58q0 -10 6 -21t17 -21.5t22.5 -18.5t29 -18.5t28.5 -15.5t29.5 -13t22.5 -10q12 -6 57.5 -27 t61.5 -30t54 -30.5t55.5 -37t44 -42t39 -52t21.5 -61.5t9 -75q0 -158 -129 -287q129 -115 129 -272q0 -178 -129 -268t-299 -90q-229 0 -344 65q-14 8 -18 11.5t-14.5 10.5t-12.5 13t-2 17.5t4 23.5l43 137q16 47 37.5 50t79.5 -11q137 -20 188 -20q129 0 129 57 q0 10 -6 21.5t-17.5 21.5t-22.5 18.5t-28.5 18.5t-28.5 15t-29.5 13.5t-22.5 10.5q-12 6 -57.5 26.5t-62 29.5t-54 30.5t-55 37t-44 42t-39 52t-21.5 61.5t-9 75q0 158 127 287q-132 112 -132 272zM403 514q0 -39 127 -96q37 45 37 104q0 39 -127 96q-37 -65 -37 -104z" />
<glyph unicode="&#xa8;" horiz-adv-x="1134" d="M180 1270q0 80 39 122t141 42q106 0 144.5 -41t38.5 -123q0 -80 -38 -125t-145 -45q-111 0 -145.5 45t-34.5 125zM633 1270q0 78 39 121t141 43q109 0 145.5 -40t36.5 -124q0 -82 -36.5 -126t-145 -44t-144.5 45t-36 125z" />
<glyph unicode="&#xa9;" horiz-adv-x="1722" d="M133 688q0 299 213 508t514 209q307 0 518 -208t211 -509q0 -299 -213 -508t-516 -209q-301 0 -514 209t-213 508zM336 688q0 -215 153.5 -368.5t370.5 -153.5t370.5 153.5t153.5 368.5q0 217 -152.5 368.5t-371.5 151.5q-217 0 -370.5 -151.5t-153.5 -368.5zM496 682 q0 408 364 408q139 0 227 -41q27 -10 37.5 -22.5t3.5 -41.5l-16 -86q-10 -37 -51 -27q-72 10 -176 11q-141 0 -142 -197q0 -113 31 -160t111 -47q76 0 180 10q23 2 32 -3t17 -25l21 -78q12 -45 -39 -68q-96 -43 -236 -43q-364 0 -364 410z" />
<glyph unicode="&#xaa;" horiz-adv-x="847" d="M43 684q-2 123 72.5 167t212.5 44h131v12q0 47 -119 47q-70 0 -141 -8q-41 -8 -57.5 -5t-22.5 32l-17 80q-12 66 62 88q119 37 246 37q203 0 269 -65.5t66 -211.5v-166q0 -31 6.5 -38t30.5 -11q29 -2 37 -10t8 -33v-106q0 -37 -59 -54q-39 -10 -106 -10q-129 0 -166 88 h-7q-47 -47 -114.5 -68.5t-116.5 -21.5q-127 0 -170 58.5t-45 154.5zM338 698q0 -29 27 -28q43 0 88 24v49h-66q-49 0 -49 -45z" />
<glyph unicode="&#xab;" d="M86 383q-37 45 0 88l227 281q35 41 68 41h299q23 0 29 -11.5t-4 -21.5l-275 -336l260 -330q8 -8 6 -24.5t-18 -16.5h-301q-27 0 -64 43zM569 383q-37 45 0 88l228 281q35 41 67 41h299q23 0 29 -11.5t-4 -21.5l-275 -336l261 -330q8 -8 6 -24.5t-19 -16.5h-301 q-27 0 -63 43z" />
<glyph unicode="&#xac;" d="M137 590v176q0 49 49 49h893q29 0 38 -11t9 -36v-541q0 -29 -11 -38t-36 -9h-235q-29 0 -40 9.5t-11 37.5v312h-607q-49 0 -49 51z" />
<glyph unicode="&#xad;" horiz-adv-x="880" d="M59 553v199q0 49 50 49h677q29 0 38.5 -11.5t9.5 -35.5v-201q0 -29 -9.5 -40t-38.5 -11h-677q-50 0 -50 51z" />
<glyph unicode="&#xae;" horiz-adv-x="1116" d="M92 1032.5q0 196.5 140.5 333.5t338.5 137q203 0 341.5 -137t138.5 -334q0 -199 -139.5 -336t-340.5 -137q-199 0 -339 138.5t-140 335zM225 1032q0 -143 101.5 -243.5t245 -100.5t243.5 100.5t100 243.5q0 141 -100 241.5t-243.5 100.5t-245 -100.5t-101.5 -241.5z M371 809v463q0 25 22 24h203q72 0 125 -41t53 -122q0 -96 -72 -134l84 -190q12 -23 -18 -23h-117q-29 0 -39 23l-65 158h-17v-158q0 -23 -18 -23h-121q-20 0 -20 23zM530 1096h41q39 0 39 34q0 33 -39 33h-41v-67z" />
<glyph unicode="&#xaf;" horiz-adv-x="1134" d="M182 1198v176q0 49 49 49h672q29 0 38 -11t9 -36v-178q0 -29 -9 -40t-38 -11h-672q-49 0 -49 51z" />
<glyph unicode="&#xb0;" horiz-adv-x="845" d="M61 1044q0 137 107.5 237.5t257 100.5t254 -99t104.5 -239q0 -141 -104.5 -240t-253.5 -99q-166 0 -265.5 97t-99.5 242zM299 1040.5q0 -49.5 36 -84t87 -34.5q49 0 85 34.5t36 84t-36 84t-85 34.5t-86 -34.5t-37 -84z" />
<glyph unicode="&#xb1;" d="M137 55v162q0 49 49 49h893q29 0 38 -11t9 -36v-164q0 -29 -9 -40t-38 -11h-893q-49 0 -49 51zM137 700v177q0 49 49 49h277v243q0 49 51 50h231q49 0 50 -50v-243h284q29 0 38 -11.5t9 -35.5v-179q0 -29 -9 -40t-38 -11h-284v-270q0 -29 -11.5 -38t-35.5 -9h-234 q-29 0 -40 9t-11 38v270h-277q-49 0 -49 51z" />
<glyph unicode="&#xb2;" horiz-adv-x="870" d="M45 700v127q0 45 33 76l330 291q53 49 53 86q0 39 -74 39q-96 0 -235 -14q-49 -8 -62.5 -3t-19.5 44l-17 98q-2 18 -3 33.5t15.5 32t53.5 28.5q106 41 276 41q389 0 389 -281q0 -84 -36.5 -146t-112.5 -132l-121 -105h250q35 0 35 -34v-181q0 -35 -35 -34h-684 q-35 -1 -35 34z" />
<glyph unicode="&#xb3;" horiz-adv-x="870" d="M45 793l25 102q8 35 20 40t60 -3q174 -18 215 -19q72 0 101.5 12.5t29.5 63.5q0 23 -39 31l-176 35q-41 8 -54.5 23.5t-13.5 54.5v57q0 47 27 63l106 64l-2 4h-240q-37 0 -36 33v180q0 35 36 35h648q23 0 28.5 -8.5t5.5 -26.5v-123q0 -51 -36 -82l-113 -80 q176 -53 176 -237q0 -199 -108.5 -279t-315.5 -80q-158 0 -270 41q-53 18 -68.5 40t-5.5 59z" />
<glyph unicode="&#xb4;" horiz-adv-x="1134" d="M420 1233l211 379q27 47 67 24l185 -110q49 -27 12 -76l-268 -328q-31 -39 -62 -20l-129 74q-36 22 -16 57z" />
<glyph unicode="&#xb5;" horiz-adv-x="1175" d="M86 -371v1340q0 49 49 49h289q47 0 47 -49v-504q0 -74 25.5 -98.5t78.5 -24.5q35 0 123 33v594q0 49 47 49h289q49 0 49 -49v-920q0 -49 -49 -49h-289q-47 0 -47 49v39l-4 2q-102 -78 -223 -86v-375q0 -49 -47 -49h-289q-49 0 -49 49z" />
<glyph unicode="&#x3bc;" horiz-adv-x="1175" d="M86 -371v1340q0 49 49 49h289q47 0 47 -49v-504q0 -74 25.5 -98.5t78.5 -24.5q35 0 123 33v594q0 49 47 49h289q49 0 49 -49v-920q0 -49 -49 -49h-289q-47 0 -47 49v39l-4 2q-102 -78 -223 -86v-375q0 -49 -47 -49h-289q-49 0 -49 49z" />
<glyph unicode="&#xb6;" horiz-adv-x="1247" d="M55 932q0 209 116 319.5t296 110.5h649q55 0 55 -53v-197q0 -53 -55 -53h-29v-1235q0 -55 -53 -55h-172q-53 0 -53 55v1237h-162v-1237q0 -55 -55 -55h-168q-57 0 -57 55v733q-147 12 -229.5 117.5t-82.5 257.5z" />
<glyph unicode="&#xb7;" horiz-adv-x="516" d="M61 565q0 180 197 180q113 0 155 -46t42 -134q0 -182 -197 -182q-117 0 -157 51t-40 131z" />
<glyph unicode="&#xb8;" horiz-adv-x="870" d="M238 -467l20 105q2 14 27 12q86 -12 137 -12q61 0 94 17t33 71q0 10 -2 17t-6 13t-9.5 9.5t-14.5 6.5t-17 4t-22.5 2t-25 2t-30 2t-33.5 1q-49 6 -31 53l64 182q0 2 2 5.5t7 6.5t11 3h125q8 0 10.5 -6.5t0.5 -10.5l-46 -116q131 -6 178.5 -54.5t47.5 -126.5 q0 -102 -78 -169.5t-236 -67.5q-115 0 -188 24q-24 9 -18 27z" />
<glyph unicode="&#xb9;" horiz-adv-x="870" d="M123 700v181q0 33 37 32h133v381h-121q-25 0 -32 8.5t-7 26.5v105q0 25 6 36t31 21l125 59q41 18 90 19h176q39 0 39 -35v-621h143q35 0 35 -32v-181q0 -35 -35 -34h-583q-20 0 -28.5 7t-8.5 27z" />
<glyph unicode="&#xba;" horiz-adv-x="806" d="M49 829q0 55 12.5 105.5t45 109t107.5 93t185.5 34.5t186.5 -29.5t110.5 -83.5t48 -107.5t13.5 -121.5q0 -53 -5 -94t-25.5 -93t-57.5 -87t-106.5 -59.5t-164.5 -24.5q-115 0 -190.5 34t-107 94t-42 111t-10.5 119zM344 821q0 -61 11.5 -86.5t43.5 -25.5q37 0 50.5 26.5 t13.5 85.5q0 61 -12.5 87t-49.5 26q-57 0 -57 -113z" />
<glyph unicode="&#xbb;" d="M65.5 781.5q6.5 11.5 28.5 11.5h299q33 0 68 -41l227 -281q37 -43 0 -88l-227 -287q-37 -43 -64 -43h-301q-16 0 -18 16.5t6 24.5l260 330l-274 336q-11 10 -4.5 21.5zM549 781.5q6 11.5 29 11.5h299q33 0 67 -41l227 -281q37 -43 0 -88l-227 -287q-37 -43 -63 -43h-301 q-16 0 -18.5 16.5t5.5 24.5l260 330l-274 336q-10 10 -4 21.5z" />
<glyph unicode="&#xbc;" horiz-adv-x="2088" d="M113 516v180q0 33 37 33h133v381h-121q-25 0 -32 8t-7 27v104q0 25 6 36t31 22l125 59q41 18 90 18h176q39 0 39 -34v-621h143q35 0 35 -33v-180q0 -35 -35 -35h-583q-20 0 -28.5 7.5t-8.5 27.5zM602 -16l565 1423q12 27 33 27h234q27 0 16 -31l-563 -1426 q-10 -25 -31 -24h-233q-31 0 -21 31zM1110 209v137q0 33 23 60l344 452q23 29 37 36t40 7h246q35 0 35 -35v-452h78q35 0 35 -33v-172q0 -35 -35 -35h-78v-139q0 -18 -6 -26.5t-29 -8.5h-235q-20 0 -27.5 6t-7.5 29v139h-383q-20 0 -28.5 6t-8.5 29zM1399 408h135v167h-4z " />
<glyph unicode="&#xbd;" horiz-adv-x="2088" d="M88 516v180q0 33 37 33h133v381h-121q-25 0 -32 8t-7 27v104q0 25 6.5 36t30.5 22l125 59q41 18 90 18h176q39 0 39 -34v-621h144q35 0 34 -33v-180q0 -35 -34 -35h-584q-20 0 -28.5 7.5t-8.5 27.5zM569 -16l566 1423q12 27 32 27h234q27 0 16 -31l-563 -1426 q-10 -25 -31 -24h-233q-31 0 -21 31zM1225 35v127q0 45 32 76l330 290q53 49 53 86q0 39 -73 39q-96 0 -236 -14q-49 -8 -62.5 -3t-19.5 44l-16 98q-2 18 -3 33.5t15.5 32t52.5 28.5q106 41 277 41q389 0 389 -280q0 -84 -37 -146.5t-112 -132.5l-121 -104h250q35 0 34 -35 v-180q0 -35 -34 -35h-684q-35 0 -35 35z" />
<glyph unicode="&#xbe;" horiz-adv-x="2088" d="M78 608l24 103q8 35 20.5 40t59.5 -3q174 -18 215 -19q72 0 101.5 12.5t29.5 63.5q0 23 -39 31l-176 34q-41 8 -54 23.5t-13 54.5v58q0 47 26 63l107 64l-2 4h-240q-37 0 -37 32v181q0 35 37 34h647q23 0 29 -8t6 -26v-123q0 -51 -37 -82l-112 -80q176 -53 176 -238 q0 -199 -108.5 -278.5t-315.5 -79.5q-158 0 -270 41q-53 18 -68.5 39.5t-5.5 58.5zM629 -16l565 1423q12 27 33 27h233q27 0 17 -31l-564 -1426q-8 -25 -30 -24h-234q-30 0 -20 31zM1153 209v137q0 33 23 60l344 452q23 29 37 36t40 7h246q35 0 35 -35v-452h78q35 0 35 -33 v-172q0 -35 -35 -35h-78v-139q0 -18 -6 -26.5t-29 -8.5h-235q-20 0 -27.5 6t-7.5 29v139h-383q-20 0 -28.5 6t-8.5 29zM1442 408h135v167h-4z" />
<glyph unicode="&#xbf;" horiz-adv-x="972" d="M76 -23q0 72 33.5 133.5t64.5 89t84 66.5q80 59 111.5 109.5t31.5 132.5v59q0 51 39 51h260q25 0 36.5 -9t15.5 -38q4 -37 4 -86q0 -147 -46 -226t-165 -177q-51 -39 -51 -80q0 -33 29.5 -47t99.5 -14q100 0 186 12q45 6 56.5 0t15.5 -39l12 -147q4 -39 -2 -51.5 t-41 -26.5q-123 -53 -297 -54q-229 0 -353 88t-124 254zM393 858q0 174 189 174q113 0 150.5 -48t37.5 -126q0 -174 -188 -174q-109 0 -149 45t-40 129z" />
<glyph unicode="&#xc0;" horiz-adv-x="1331" d="M11 10q-7 10 3 51l381 1231q12 39 31.5 55.5t69.5 16.5h321q35 0 54.5 -9t26.5 -22.5t17 -42.5l404 -1233q18 -57 -27 -57h-313q-39 0 -55.5 18.5t-28.5 61.5l-55 201h-365l-57 -213q-18 -68 -86 -68h-283q-31 0 -38 10zM248 1696l133 170q29 37 72 2l333 -277 q31 -27 5 -59l-93 -117q-25 -29 -65 -2l-369 209q-51 31 -16 74zM555 580h203l-43 172l-51 213h-13z" />
<glyph unicode="&#xc1;" horiz-adv-x="1331" d="M11 10q-7 10 3 51l381 1231q12 39 31.5 55.5t69.5 16.5h321q35 0 54.5 -9t26.5 -22.5t17 -42.5l404 -1233q18 -57 -27 -57h-313q-39 0 -55.5 18.5t-28.5 61.5l-55 201h-365l-57 -213q-18 -68 -86 -68h-283q-31 0 -38 10zM500 1569q-23 35 12 57l367 232q49 27 71 -13 l109 -186q33 -47 -25 -70l-393 -159q-45 -18 -66 10zM555 580h203l-43 172l-51 213h-13z" />
<glyph unicode="&#xc2;" horiz-adv-x="1331" d="M11 10q-7 10 3 51l381 1231q12 39 31.5 55.5t69.5 16.5h321q35 0 54.5 -9t26.5 -22.5t17 -42.5l404 -1233q18 -57 -27 -57h-313q-39 0 -55.5 18.5t-28.5 61.5l-55 201h-365l-57 -213q-18 -68 -86 -68h-283q-31 0 -38 10zM185 1526q-1 10 20 35l270 245q4 4 12.5 11.5 t11.5 10.5t10 8t14 7t18.5 4t25.5 2h148h21q9 0 17.5 -3t12.5 -3t11 -6t8 -6t10 -8l10 -11l274 -249q20 -23 19.5 -34t-21.5 -32l-82 -88q-23 -16 -32 -15t-37 19l-291 182l-279 -182q-27 -18 -38 -20t-31 16l-80 86q-21 21 -22 31zM555 580h203l-43 172l-51 213h-13z" />
<glyph unicode="&#xc3;" horiz-adv-x="1331" d="M11 10q-7 10 3 51l381 1231q12 39 31.5 55.5t69.5 16.5h321q35 0 54.5 -9t26.5 -22.5t17 -42.5l404 -1233q18 -57 -27 -57h-313q-39 0 -55.5 18.5t-28.5 61.5l-55 201h-365l-57 -213q-18 -68 -86 -68h-283q-31 0 -38 10zM186 1540q102 262 295 262q68 0 185.5 -48 t156.5 -48q74 0 121 78q18 29 64 4l92 -51q20 -12 24 -20.5t-2 -33.5q-106 -246 -297 -245q-47 0 -171 47t-167 47q-74 0 -127 -76q-14 -20 -22 -22t-37 10l-94 45q-35 16 -21 51zM555 580h203l-43 172l-51 213h-13z" />
<glyph unicode="&#xc4;" horiz-adv-x="1331" d="M11 10q-7 10 3 51l381 1231q12 39 31.5 55.5t69.5 16.5h321q35 0 54.5 -9t26.5 -22.5t17 -42.5l404 -1233q18 -57 -27 -57h-313q-39 0 -55.5 18.5t-28.5 61.5l-55 201h-365l-57 -213q-18 -68 -86 -68h-283q-31 0 -38 10zM244 1573q0 80 39 122t141 42q106 0 144 -41 t38 -123q0 -80 -38 -125t-144 -45q-111 0 -145.5 45t-34.5 125zM555 580h203l-43 172l-51 213h-13zM696 1573q0 78 39 121t142 43q109 0 145.5 -40t36.5 -124q0 -82 -37 -126t-145.5 -44t-144.5 45t-36 125z" />
<glyph unicode="&#xc5;" horiz-adv-x="1331" d="M11 10q-7 10 3 51l381 1231q12 39 31.5 55.5t69.5 16.5h321q35 0 54.5 -9t26.5 -22.5t17 -42.5l404 -1233q18 -57 -27 -57h-313q-39 0 -55.5 18.5t-28.5 61.5l-55 201h-365l-57 -213q-18 -68 -86 -68h-283q-31 0 -38 10zM375 1649q0 117 86 194.5t200.5 77.5t196.5 -82 t82 -190q0 -113 -82 -194t-196.5 -81t-200.5 78t-86 197zM555 580h203l-43 172l-51 213h-13zM571 1649q0 -43 26 -69t65 -26q35 0 61.5 28t26.5 67t-27 65.5t-61 26.5q-37 0 -64 -26.5t-27 -65.5z" />
<glyph unicode="&#xc6;" horiz-adv-x="1951" d="M20 61l617 1242q18 37 38.5 48t76.5 11h1050q20 0 34.5 -13.5t14.5 -35.5v-236q0 -45 -49 -45h-506v-164h437q20 0 34.5 -14t14.5 -35v-235q0 -45 -49 -45h-437v-209h514q20 0 35 -13.5t15 -35.5v-236q0 -45 -50 -45h-868q-49 0 -49 49v232h-365l-108 -228 q-31 -53 -94 -53h-285q-54 0 -21 61zM680 580h213v448h-4z" />
<glyph unicode="&#xc7;" horiz-adv-x="1267" d="M113 680q0 106 14 197.5t56 186.5t109.5 162.5t182.5 109.5t264 42q236 0 394 -69q29 -14 43 -24.5t22 -32t2 -54.5l-31 -145q-8 -37 -23.5 -45.5t-62.5 -3.5q-221 18 -299 18q-244 0 -243 -334q0 -195 51 -275.5t190 -80.5q123 0 308 18q49 4 62 -3t24 -46l34 -133 q12 -45 -5 -69.5t-60 -45.5q-166 -74 -404 -73h-8l-31 -80q131 -6 178.5 -54.5t47.5 -126.5q0 -102 -78 -169.5t-236 -67.5q-115 0 -188 24q-25 8 -18 27l20 105q2 14 27 12q86 -12 137 -12q61 0 94 17t33 71q0 10 -2 17t-6 13t-9.5 9.5t-14.5 6.5t-17 4t-22.5 2t-25 2 t-30 2t-33.5 1q-49 6 -31 53l54 158q-469 80 -469 686z" />
<glyph unicode="&#xc8;" horiz-adv-x="1191" d="M133 49v1264q0 49 49 49h860q23 0 36.5 -13.5t13.5 -35.5v-236q0 -45 -50 -45h-507v-164h438q23 0 36 -14t13 -35v-235q0 -45 -49 -45h-438v-209h516q23 0 36 -13.5t13 -35.5v-236q0 -45 -49 -45h-869q-49 0 -49 49zM244 1696l133 170q29 37 72 2l333 -277q31 -27 4 -59 l-92 -117q-25 -29 -65 -2l-369 209q-51 31 -16 74z" />
<glyph unicode="&#xc9;" horiz-adv-x="1191" d="M133 49v1264q0 49 49 49h860q23 0 36.5 -13.5t13.5 -35.5v-236q0 -45 -50 -45h-507v-164h438q23 0 36 -14t13 -35v-235q0 -45 -49 -45h-438v-209h516q23 0 36 -13.5t13 -35.5v-236q0 -45 -49 -45h-869q-49 0 -49 49zM377 1569q-23 35 12 57l367 232q49 27 71 -13 l109 -186q33 -47 -25 -70l-393 -159q-45 -18 -65 10z" />
<glyph unicode="&#xca;" horiz-adv-x="1191" d="M133 49v1264q0 49 49 49h860q23 0 36.5 -13.5t13.5 -35.5v-236q0 -45 -50 -45h-507v-164h438q23 0 36 -14t13 -35v-235q0 -45 -49 -45h-438v-209h516q23 0 36 -13.5t13 -35.5v-236q0 -45 -49 -45h-869q-49 0 -49 49zM157 1526q-1 10 19 35l270 245q4 4 12.5 11.5 t11.5 10.5t10 8t14.5 7t18.5 4t26 2h147h22q9 0 17 -3t12 -3t11.5 -6t8.5 -6t9 -8l10 -11l275 -249q20 -23 19 -34t-21 -32l-82 -88q-23 -16 -32 -15t-38 19l-291 182l-278 -182q-27 -18 -38 -20t-32 16l-80 86q-20 21 -21 31z" />
<glyph unicode="&#xcb;" horiz-adv-x="1191" d="M133 49v1264q0 49 49 49h860q23 0 36.5 -13.5t13.5 -35.5v-236q0 -45 -50 -45h-507v-164h438q23 0 36 -14t13 -35v-235q0 -45 -49 -45h-438v-209h516q23 0 36 -13.5t13 -35.5v-236q0 -45 -49 -45h-869q-49 0 -49 49zM205 1573q0 80 39 122t141 42q106 0 144 -41t38 -123 q0 -80 -37.5 -125t-144.5 -45q-111 0 -145.5 45t-34.5 125zM657 1573q0 78 39 121t142 43q109 0 145.5 -40t36.5 -124q0 -82 -37 -126t-145.5 -44t-144.5 45t-36 125z" />
<glyph unicode="&#xcc;" horiz-adv-x="667" d="M-84 1696l133 170q29 37 72 2l334 -277q31 -27 4 -59l-92 -117q-25 -29 -66 -2l-369 209q-51 31 -16 74zM133 49v1264q0 49 49 49h305q47 0 48 -49v-1264q0 -49 -48 -49h-305q-49 0 -49 49z" />
<glyph unicode="&#xcd;" horiz-adv-x="667" d="M133 49v1264q0 49 49 49h305q47 0 48 -49v-1264q0 -49 -48 -49h-305q-49 0 -49 49zM180 1569q-23 35 13 57l366 232q49 27 72 -13l108 -186q33 -47 -24 -70l-393 -159q-45 -18 -66 10z" />
<glyph unicode="&#xce;" horiz-adv-x="667" d="M-110 1526q-1 10 20 35l270 245q4 4 12.5 11.5t11.5 10.5t10 8t14.5 7t18.5 4t25 2h148h21q9 0 17.5 -3t12.5 -3t11 -6t8.5 -6t9.5 -8l10 -11l274 -249q20 -23 19.5 -34t-21.5 -32l-82 -88q-23 -16 -32 -15t-37 19l-291 182l-279 -182q-27 -18 -38 -20t-31 16l-80 86 q-21 21 -22 31zM133 49v1264q0 49 49 49h305q47 0 48 -49v-1264q0 -49 -48 -49h-305q-49 0 -49 49z" />
<glyph unicode="&#xcf;" horiz-adv-x="667" d="M-66 1573q0 80 39 122t142 42q106 0 144 -41t38 -123q0 -80 -38 -125t-144 -45q-111 0 -146 45t-35 125zM133 49v1264q0 49 49 49h305q47 0 48 -49v-1264q0 -49 -48 -49h-305q-49 0 -49 49zM387 1573q0 78 39 121t141 43q109 0 146 -40t37 -124q0 -82 -37 -126 t-145.5 -44t-144.5 45t-36 125z" />
<glyph unicode="&#xd0;" horiz-adv-x="1392" d="M-23 616v148q0 41 48 41h108v508q0 49 49 49h471q627 0 627 -678q0 -684 -627 -684h-471q-49 0 -49 49v526h-108q-48 0 -48 41zM532 330h76q256 0 256 340q0 176 -52 269t-189 93h-91v-227h148q29 0 38 -9.5t9 -29.5v-150q0 -23 -9 -32t-38 -9h-148v-245z" />
<glyph unicode="&#xd1;" horiz-adv-x="1409" d="M133 49v1264q0 49 49 49h209q31 0 49.5 -6t26.5 -14.5t22 -28.5l224 -332l166 -250l8 2v580q0 49 47 49h293q49 0 49 -49v-1264q0 -49 -49 -49h-207q-66 0 -107 57l-200 289l-185 275h-6v-572q0 -49 -47 -49h-293q-49 0 -49 49zM231 1516q102 262 295 262 q68 0 185.5 -48.5t156.5 -48.5q74 0 121 78q18 29 64 4l92 -51q20 -12 24.5 -20.5t-2.5 -32.5q-106 -246 -297 -246q-47 0 -171 47t-167 47q-74 0 -126 -75q-14 -20 -22.5 -22.5t-37.5 9.5l-94 45q-35 17 -21 52z" />
<glyph unicode="&#xd2;" horiz-adv-x="1458" d="M113 698q0 70 8 133.5t28.5 146.5t64.5 149.5t107.5 126t167 92t234.5 32.5q154 0 269.5 -41t181 -104.5t105.5 -157.5t53.5 -182t13.5 -194.5t-11.5 -192.5t-49.5 -188.5t-102.5 -172t-182 -116.5t-277.5 -47t-276.5 47t-179 116.5t-99.5 173t-46 188.5t-9 191z M412 1696l133 170q29 37 71 2l334 -277q31 -27 4 -59l-92 -117q-25 -29 -65 -2l-369 209q-51 31 -16 74zM539 676q0 -190 42 -270t146 -80q109 0 156 81.5t47 268.5q0 199 -44 278.5t-159 79.5q-104 0 -146 -81.5t-42 -276.5z" />
<glyph unicode="&#xd3;" horiz-adv-x="1458" d="M113 698q0 70 8 133.5t28.5 146.5t64.5 149.5t107.5 126t167 92t234.5 32.5q154 0 269.5 -41t181 -104.5t105.5 -157.5t53.5 -182t13.5 -194.5t-11.5 -192.5t-49.5 -188.5t-102.5 -172t-182 -116.5t-277.5 -47t-276.5 47t-179 116.5t-99.5 173t-46 188.5t-9 191zM539 676 q0 -190 42 -270t146 -80q109 0 156 81.5t47 268.5q0 199 -44 278.5t-159 79.5q-104 0 -146 -81.5t-42 -276.5zM592 1569q-23 35 12 57l367 232q49 27 71 -13l109 -186q33 -47 -25 -70l-393 -159q-45 -18 -65 10z" />
<glyph unicode="&#xd4;" horiz-adv-x="1458" d="M113 698q0 70 8 133.5t28.5 146.5t64.5 149.5t107.5 126t167 92t234.5 32.5q154 0 269.5 -41t181 -104.5t105.5 -157.5t53.5 -182t13.5 -194.5t-11.5 -192.5t-49.5 -188.5t-102.5 -172t-182 -116.5t-277.5 -47t-276.5 47t-179 116.5t-99.5 173t-46 188.5t-9 191z M288 1526q-1 10 19 35l271 245q4 4 12 11.5t11 10.5t10 8t14.5 7t18.5 4t26 2h147h22q9 0 17 -3t12 -3t11.5 -6t8.5 -6t9 -8l10 -11l275 -249q20 -23 19 -34t-21 -32l-82 -88q-23 -16 -32 -15t-38 19l-291 182l-278 -182q-27 -18 -38 -20t-32 16l-80 86q-20 21 -21 31z M539 676q0 -190 42 -270t146 -80q109 0 156 81.5t47 268.5q0 199 -44 278.5t-159 79.5q-104 0 -146 -81.5t-42 -276.5z" />
<glyph unicode="&#xd5;" horiz-adv-x="1458" d="M113 698q0 70 8 133.5t28.5 146.5t64.5 149.5t107.5 126t167 92t234.5 32.5q154 0 269.5 -41t181 -104.5t105.5 -157.5t53.5 -182t13.5 -194.5t-11.5 -192.5t-49.5 -188.5t-102.5 -172t-182 -116.5t-277.5 -47t-276.5 47t-179 116.5t-99.5 173t-46 188.5t-9 191z M272 1518q102 262 295 262q68 0 185.5 -48.5t156.5 -48.5q74 0 121 78q18 29 64 4l92 -51q20 -12 24 -20t-2 -33q-106 -246 -297 -246q-47 0 -171 47t-167 47q-74 0 -127 -75q-14 -20 -22 -22.5t-37 9.5l-94 45q-35 17 -21 52zM539 676q0 -190 42 -270t146 -80 q109 0 156 81.5t47 268.5q0 199 -44 278.5t-159 79.5q-104 0 -146 -81.5t-42 -276.5z" />
<glyph unicode="&#xd6;" horiz-adv-x="1458" d="M113 698q0 70 8 133.5t28.5 146.5t64.5 149.5t107.5 126t167 92t234.5 32.5q154 0 269.5 -41t181 -104.5t105.5 -157.5t53.5 -182t13.5 -194.5t-11.5 -192.5t-49.5 -188.5t-102.5 -172t-182 -116.5t-277.5 -47t-276.5 47t-179 116.5t-99.5 173t-46 188.5t-9 191z M324 1573q0 80 38.5 122t141.5 42q106 0 144 -41t38 -123q0 -80 -38 -125t-144 -45q-111 0 -145.5 45t-34.5 125zM539 676q0 -190 42 -270t146 -80q109 0 156 81.5t47 268.5q0 199 -44 278.5t-159 79.5q-104 0 -146 -81.5t-42 -276.5zM776 1573q0 78 39 121t141 43 q109 0 146 -40t37 -124q0 -82 -37 -126t-145.5 -44t-144.5 45t-36 125z" />
<glyph unicode="&#xd7;" d="M185 406.5q-1 13.5 20 35.5l215 215l-215 215q-35 35 0 66l149 152q35 37 70 2l215 -215l211 213q35 35 72 -3l149 -149q35 -35 0 -70l-213 -211l213 -211q35 -35 -2 -71l-149 -150q-35 -35 -70 0l-211 213l-215 -215q-35 -35 -66 0l-151 150q-21 20 -22 33.5z" />
<glyph unicode="&#xd8;" horiz-adv-x="1458" d="M113 698q0 70 8 133.5t28.5 146.5t64.5 149.5t107.5 126t167 92t234.5 32.5q238 0 387 -98l39 49q20 25 30.5 27t28.5 -13l58 -45q20 -16 20 -27t-18 -36l-45 -59q123 -166 123 -478q0 -106 -11.5 -192t-49.5 -188.5t-102.5 -172t-182 -116.5t-277.5 -47q-217 0 -354 81 l-47 -61q-18 -23 -29.5 -25t-34.5 13l-55 45q-29 25 0 61l51 66q-141 171 -141 536zM539 676q0 -78 6 -135l329 430q-47 63 -147 63q-104 0 -146 -81.5t-42 -276.5zM604 371q43 -45 123 -45q109 0 156 81.5t47 268.5q0 47 -4 112z" />
<glyph unicode="&#xd9;" horiz-adv-x="1388" d="M135 514v799q0 49 49 49h303q47 0 48 -49v-787q0 -203 157 -202q164 0 164 202l-2 787q0 49 49 49h303q47 0 47 -49v-799q0 -145 -41 -246q-61 -145 -203.5 -216.5t-316.5 -71.5q-283 0 -428 159q-129 142 -129 375zM334 1696l133 170q29 37 72 2l333 -277q31 -27 5 -59 l-93 -117q-25 -29 -65 -2l-369 209q-51 31 -16 74z" />
<glyph unicode="&#xda;" horiz-adv-x="1388" d="M135 514v799q0 49 49 49h303q47 0 48 -49v-787q0 -203 157 -202q164 0 164 202l-2 787q0 49 49 49h303q47 0 47 -49v-799q0 -145 -41 -246q-61 -145 -203.5 -216.5t-316.5 -71.5q-283 0 -428 159q-129 142 -129 375zM565 1569q-23 35 13 57l366 232q49 27 72 -13 l108 -186q33 -47 -24 -70l-393 -159q-45 -18 -66 10z" />
<glyph unicode="&#xdb;" horiz-adv-x="1388" d="M135 514v799q0 49 49 49h303q47 0 48 -49v-787q0 -203 157 -202q164 0 164 202l-2 787q0 49 49 49h303q47 0 47 -49v-799q0 -145 -41 -246q-61 -145 -203.5 -216.5t-316.5 -71.5q-283 0 -428 159q-129 142 -129 375zM245 1526q-1 10 19 35l271 245q4 4 12 11.5t11 10.5 t10 8t14.5 7t18.5 4t26 2h147h22q9 0 17 -3t12 -3t11.5 -6t8.5 -6t9 -8l10 -11l275 -249q20 -23 19 -34t-21 -32l-82 -88q-23 -16 -32 -15t-38 19l-291 182l-278 -182q-27 -18 -38 -20t-32 16l-80 86q-20 21 -21 31z" />
<glyph unicode="&#xdc;" horiz-adv-x="1388" d="M135 514v799q0 49 49 49h303q47 0 48 -49v-787q0 -203 157 -202q164 0 164 202l-2 787q0 49 49 49h303q47 0 47 -49v-799q0 -145 -41 -246q-61 -145 -203.5 -216.5t-316.5 -71.5q-283 0 -428 159q-129 142 -129 375zM283 1573q0 80 38.5 122t141.5 42q106 0 144 -41 t38 -123q0 -80 -38 -125t-144 -45q-111 0 -145.5 45t-34.5 125zM735 1573q0 78 39 121t141 43q109 0 146 -40t37 -124q0 -82 -37 -126t-145.5 -44t-144.5 45t-36 125z" />
<glyph unicode="&#xdd;" horiz-adv-x="1402" d="M17.5 1345.5q7.5 18.5 33.5 18.5h301q41 0 59.5 -11.5t37.5 -47.5l112 -228l125 -260h12l127 260l105 207q18 33 25.5 45t25.5 23.5t45 11.5h311q27 0 34 -16.5t-5 -34.5l-485 -862v-402q0 -49 -47 -49h-306q-49 0 -49 49v402l-454 852q-15 24 -7.5 42.5zM539 1569 q-23 35 12 57l367 232q49 27 71 -13l109 -186q33 -47 -25 -70l-393 -159q-45 -18 -66 10z" />
<glyph unicode="&#xde;" horiz-adv-x="1228" d="M133 49v1264q0 49 49 49h305q47 0 48 -49v-166h159q211 0 347.5 -112.5t136.5 -323.5q0 -80 -20.5 -152t-70 -142.5t-149.5 -112.5t-244 -42h-159v-213q0 -49 -48 -49h-305q-49 0 -49 49zM535 582h98q131 0 131 118q0 117 -131 117h-98v-235z" />
<glyph unicode="&#xdf;" horiz-adv-x="1175" d="M90 49v948q0 225 139.5 347t331.5 122q201 0 324 -99t123 -286q0 -164 -99 -250q193 -82 193 -376q0 -268 -120 -388t-353 -94q-66 6 -64 68l10 188q2 23 6.5 28t18.5 11q8 2 12 4q53 20 76 64.5t23 142.5q0 80 -29 122t-107 54q-25 4 -32.5 12.5t-7.5 24.5v129 q0 41 36 56q55 25 70.5 60.5t15.5 98.5q0 115 -94 115q-39 0 -63.5 -30.5t-24.5 -90.5v-981q0 -49 -47 -49h-289q-49 0 -49 49z" />
<glyph unicode="&#xe0;" horiz-adv-x="1228" d="M74 293q-2 184 104.5 262t294.5 78h215v16q0 45 -28.5 64.5t-124.5 19.5q-84 0 -259 -18q-53 -8 -69.5 -2t-24.5 43l-28 131q-6 33 9 54.5t70 41.5q141 53 361 53q150 0 245 -24.5t144 -79.5t65.5 -122t16.5 -173v-262q0 -63 13.5 -79.5t64.5 -23.5q29 -2 37 -10t8 -31 v-168q0 -43 -68 -59q-66 -16 -151 -16q-201 0 -240 139l-4 2q-72 -80 -174 -112.5t-184 -32.5q-92 0 -153.5 26.5t-90.5 75.5t-39 96.5t-10 110.5zM315 1413q-41 41 2 76l164 139q37 29 72 -14l264 -342q29 -33 -6 -60l-111 -98q-29 -25 -63 10zM463 315q0 -31 13 -43 t48 -12q70 0 156 49v90h-133q-84 0 -84 -84z" />
<glyph unicode="&#xe1;" horiz-adv-x="1228" d="M74 293q-2 184 104.5 262t294.5 78h215v16q0 45 -28.5 64.5t-124.5 19.5q-84 0 -259 -18q-53 -8 -69.5 -2t-24.5 43l-28 131q-6 33 9 54.5t70 41.5q141 53 361 53q150 0 245 -24.5t144 -79.5t65.5 -122t16.5 -173v-262q0 -63 13.5 -79.5t64.5 -23.5q29 -2 37 -10t8 -31 v-168q0 -43 -68 -59q-66 -16 -151 -16q-201 0 -240 139l-4 2q-72 -80 -174 -112.5t-184 -32.5q-92 0 -153.5 26.5t-90.5 75.5t-39 96.5t-10 110.5zM461 1233l211 379q27 47 67 24l185 -110q49 -27 12 -76l-268 -328q-31 -39 -62 -20l-129 74q-36 22 -16 57zM463 315 q0 -31 13 -43t48 -12q70 0 156 49v90h-133q-84 0 -84 -84z" />
<glyph unicode="&#xe2;" horiz-adv-x="1228" d="M74 293q-2 184 104.5 262t294.5 78h215v16q0 45 -28.5 64.5t-124.5 19.5q-84 0 -259 -18q-53 -8 -69.5 -2t-24.5 43l-28 131q-6 33 9 54.5t70 41.5q141 53 361 53q150 0 245 -24.5t144 -79.5t65.5 -122t16.5 -173v-262q0 -63 13.5 -79.5t64.5 -23.5q29 -2 37 -10t8 -31 v-168q0 -43 -68 -59q-66 -16 -151 -16q-201 0 -240 139l-4 2q-72 -80 -174 -112.5t-184 -32.5q-92 0 -153.5 26.5t-90.5 75.5t-39 96.5t-10 110.5zM124 1186q-1 10 19 35l275 286q2 2 7 8.5t6 7.5l6 6q5 5 7 6t7.5 4t8.5 4l9 3q6 2 12 2t13.5 1t15.5 1h147q39 0 54.5 -7 t36.5 -30l278 -294q20 -25 19 -35t-21 -31l-86 -82q-23 -16 -34 -15t-36 19l-290 203l-279 -203q-27 -18 -38 -20t-32 16l-84 84q-20 21 -21 31zM463 315q0 -31 13 -43t48 -12q70 0 156 49v90h-133q-84 0 -84 -84z" />
<glyph unicode="&#xe3;" horiz-adv-x="1228" d="M74 293q-2 184 104.5 262t294.5 78h215v16q0 45 -28.5 64.5t-124.5 19.5q-84 0 -259 -18q-53 -8 -69.5 -2t-24.5 43l-28 131q-6 33 9 54.5t70 41.5q141 53 361 53q150 0 245 -24.5t144 -79.5t65.5 -122t16.5 -173v-262q0 -63 13.5 -79.5t64.5 -23.5q29 -2 37 -10t8 -31 v-168q0 -43 -68 -59q-66 -16 -151 -16q-201 0 -240 139l-4 2q-72 -80 -174 -112.5t-184 -32.5q-92 0 -153.5 26.5t-90.5 75.5t-39 96.5t-10 110.5zM180 1225q98 252 281 252q66 0 178.5 -46.5t148.5 -46.5q72 0 115 74q16 29 62 4l86 -49q20 -12 24 -20.5t-2 -30.5 q-57 -133 -126.5 -184.5t-155.5 -51.5q-45 0 -164 45.5t-160 45.5q-70 0 -121 -72q-14 -20 -22.5 -22.5t-34.5 10.5l-88 43q-35 16 -21 49zM463 315q0 -31 13 -43t48 -12q70 0 156 49v90h-133q-84 0 -84 -84z" />
<glyph unicode="&#xe4;" horiz-adv-x="1228" d="M74 293q-2 184 104.5 262t294.5 78h215v16q0 45 -28.5 64.5t-124.5 19.5q-84 0 -259 -18q-53 -8 -69.5 -2t-24.5 43l-28 131q-6 33 9 54.5t70 41.5q141 53 361 53q150 0 245 -24.5t144 -79.5t65.5 -122t16.5 -173v-262q0 -63 13.5 -79.5t64.5 -23.5q29 -2 37 -10t8 -31 v-168q0 -43 -68 -59q-66 -16 -151 -16q-201 0 -240 139l-4 2q-72 -80 -174 -112.5t-184 -32.5q-92 0 -153.5 26.5t-90.5 75.5t-39 96.5t-10 110.5zM201 1270q0 80 39 122t141 42q106 0 144 -41t38 -123q0 -80 -38 -125t-144 -45q-111 0 -145.5 45t-34.5 125zM463 315 q0 -31 13 -43t48 -12q70 0 156 49v90h-133q-84 0 -84 -84zM653 1270q0 78 39 121t142 43q109 0 145.5 -40t36.5 -124q0 -82 -37 -126t-145.5 -44t-144.5 45t-36 125z" />
<glyph unicode="&#xe5;" horiz-adv-x="1228" d="M74 293q-2 184 104.5 262t294.5 78h215v16q0 45 -28.5 64.5t-124.5 19.5q-84 0 -259 -18q-53 -8 -69.5 -2t-24.5 43l-28 131q-6 33 9 54.5t70 41.5q141 53 361 53q150 0 245 -24.5t144 -79.5t65.5 -122t16.5 -173v-262q0 -63 13.5 -79.5t64.5 -23.5q29 -2 37 -10t8 -31 v-168q0 -43 -68 -59q-66 -16 -151 -16q-201 0 -240 139l-4 2q-72 -80 -174 -112.5t-184 -32.5q-92 0 -153.5 26.5t-90.5 75.5t-39 96.5t-10 110.5zM338 1368q0 117 86 194.5t200.5 77.5t196.5 -81.5t82 -190.5q0 -113 -82 -193.5t-196.5 -80.5t-200.5 77.5t-86 196.5z M463 315q0 -31 13 -43t48 -12q70 0 156 49v90h-133q-84 0 -84 -84zM535 1368q0 -43 25.5 -68.5t64.5 -25.5q35 0 61.5 27.5t26.5 66.5t-27 65.5t-61 26.5q-37 0 -63.5 -26.5t-26.5 -65.5z" />
<glyph unicode="&#xe6;" horiz-adv-x="1759" d="M90 293q-2 184 104.5 262t294.5 78h216v16q0 45 -29 64.5t-125 19.5q-84 0 -258 -18q-53 -8 -69.5 -2t-24.5 43l-29 131q-6 33 9.5 54.5t70.5 41.5q141 53 360 53q223 0 320 -86q106 86 264 86q485 0 485 -473q0 -150 -123 -149h-464q4 -35 16 -57.5t26.5 -35t44 -17.5 t50 -6t63.5 -1q86 0 221 18q47 6 59.5 -2t20.5 -51l21 -121q12 -45 1 -68.5t-69 -45.5q-131 -45 -329 -45q-283 0 -406 139q-168 -137 -408 -137q-102 0 -167.5 26.5t-95 76.5t-40 95t-10.5 111zM479 315q0 -31 13.5 -43t48.5 -12q88 0 178 45q-8 35 -17 109h-116 q-59 0 -83 -24t-24 -75zM1102 631h178q0 43 -22.5 77.5t-61.5 34.5t-64.5 -31.5t-29.5 -80.5z" />
<glyph unicode="&#xe7;" horiz-adv-x="1028" d="M82 512q0 524 496 524q201 0 325 -53q66 -29 53 -92l-28 -158q-8 -39 -21.5 -44t-66.5 1q-123 12 -197 12q-172 0 -172 -184q0 -113 37 -159t127 -46q88 0 231 17q25 4 38.5 3t18.5 -10.5t11 -35.5l27 -144q12 -45 0.5 -68.5t-68.5 -45.5q-131 -43 -299 -47l-31 -82 q131 -6 178 -54.5t47 -126.5q0 -102 -77.5 -169.5t-235.5 -67.5q-115 0 -188 24q-25 8 -19 27l21 105q2 14 26 12q86 -12 138 -12q61 0 94 17t33 71q0 10 -2.5 17t-6.5 13t-9 9.5t-14 6.5t-17.5 4t-22.5 2t-24.5 2t-30 2t-33.5 1q-49 6 -31 53l53 156q-90 14 -156.5 52 t-105.5 85t-61.5 114.5t-29.5 129t-7 139.5z" />
<glyph unicode="&#xe8;" horiz-adv-x="1132" d="M82 498q0 539 493 538q485 0 486 -473q0 -72 -27.5 -105.5t-95.5 -33.5h-465q8 -80 56.5 -103.5t144.5 -23.5q86 0 221 18q49 6 60.5 -1t19.5 -52l20 -121q12 -45 1 -68.5t-68 -45.5q-131 -45 -330 -45q-156 0 -261.5 39.5t-158.5 116.5t-74.5 162t-21.5 198zM276 1413 q-41 41 3 76l163 139q37 29 72 -14l264 -342q29 -33 -6 -60l-110 -98q-29 -25 -64 10zM479 635h187q0 117 -91 117q-41 0 -67.5 -30t-28.5 -87z" />
<glyph unicode="&#xe9;" horiz-adv-x="1132" d="M82 498q0 539 493 538q485 0 486 -473q0 -72 -27.5 -105.5t-95.5 -33.5h-465q8 -80 56.5 -103.5t144.5 -23.5q86 0 221 18q49 6 60.5 -1t19.5 -52l20 -121q12 -45 1 -68.5t-68 -45.5q-131 -45 -330 -45q-156 0 -261.5 39.5t-158.5 116.5t-74.5 162t-21.5 198zM430 1233 l211 379q27 47 68 24l184 -110q49 -27 12 -76l-268 -328q-31 -39 -62 -20l-129 74q-36 22 -16 57zM479 635h187q0 117 -91 117q-41 0 -67.5 -30t-28.5 -87z" />
<glyph unicode="&#xea;" horiz-adv-x="1132" d="M82 498q0 539 493 538q485 0 486 -473q0 -72 -27.5 -105.5t-95.5 -33.5h-465q8 -80 56.5 -103.5t144.5 -23.5q86 0 221 18q49 6 60.5 -1t19.5 -52l20 -121q12 -45 1 -68.5t-68 -45.5q-131 -45 -330 -45q-156 0 -261.5 39.5t-158.5 116.5t-74.5 162t-21.5 198zM118 1186 q-1 10 19 35l275 286q2 2 7 8.5t6 7.5l6 6q5 5 7 6t7.5 4t8.5 4l9 3q6 2 12 2t13.5 1t15.5 1h147q39 0 54.5 -7t35.5 -30l279 -294q20 -25 19 -35t-21 -31l-86 -82q-23 -16 -34 -15t-36 19l-291 203l-278 -203q-27 -18 -38 -20t-32 16l-84 84q-20 21 -21 31zM479 635h187 q0 117 -91 117q-41 0 -67.5 -30t-28.5 -87z" />
<glyph unicode="&#xeb;" horiz-adv-x="1132" d="M82 498q0 539 493 538q485 0 486 -473q0 -72 -27.5 -105.5t-95.5 -33.5h-465q8 -80 56.5 -103.5t144.5 -23.5q86 0 221 18q49 6 60.5 -1t19.5 -52l20 -121q12 -45 1 -68.5t-68 -45.5q-131 -45 -330 -45q-156 0 -261.5 39.5t-158.5 116.5t-74.5 162t-21.5 198zM172 1270 q0 80 39 122t141 42q106 0 144.5 -41t38.5 -123q0 -80 -38 -125t-145 -45q-111 0 -145.5 45t-34.5 125zM479 635h187q0 117 -91 117q-41 0 -67.5 -30t-28.5 -87zM625 1270q0 78 38.5 121t141.5 43q109 0 145.5 -40t36.5 -124q0 -82 -37 -126t-145.5 -44t-144 45t-35.5 125z " />
<glyph unicode="&#xec;" horiz-adv-x="589" d="M-23 1413q-41 41 3 76l163 139q37 29 72 -14l264 -342q29 -33 -6 -60l-111 -98q-29 -25 -63 10zM102 49v920q0 49 50 49h288q47 0 47 -49v-920q0 -49 -47 -49h-288q-50 0 -50 49z" />
<glyph unicode="&#xed;" horiz-adv-x="661" d="M102 49v920q0 49 50 49h288q47 0 47 -49v-920q0 -49 -47 -49h-288q-50 0 -50 49zM162 1233l211 379q27 47 67 24l185 -110q49 -27 12 -76l-268 -328q-31 -39 -62 -20l-129 74q-36 22 -16 57z" />
<glyph unicode="&#xee;" horiz-adv-x="882" d="M-19 1186q-1 10 19 35l274 286q2 2 7.5 8.5t6.5 7.5l6 6q5 5 7 6t7 4t8 4l10 3q6 2 12 2t13 1t16 1h147q39 0 54.5 -7t35.5 -30l279 -294q20 -25 19 -35t-21 -31l-86 -82q-23 -16 -34 -15t-36 19l-291 203l-278 -203q-27 -18 -38.5 -20t-31.5 16l-84 84q-20 21 -21 31z M242 49v920q0 49 49 49h289q47 0 47 -49v-920q0 -49 -47 -49h-289q-49 0 -49 49z" />
<glyph unicode="&#xef;" horiz-adv-x="774" d="M-20 1270q0 80 38.5 122t141.5 42q106 0 144 -41t38 -123q0 -80 -38 -125t-144 -45q-111 0 -145.5 45t-34.5 125zM195 49v920q0 49 49 49h288q47 0 48 -49v-920q0 -49 -48 -49h-288q-49 0 -49 49zM432 1270q0 78 39 121t141 43q109 0 146 -40t37 -124q0 -82 -37 -126 t-145.5 -44t-144.5 45t-36 125z" />
<glyph unicode="&#xf0;" horiz-adv-x="1150" d="M66 489q0 213 118.5 369t329.5 156q84 0 156 -31l4 6q-35 88 -103 158l-133 -62q-41 -20 -53 9l-20 49q-12 27 14 37l100 47q-90 68 -114 84q-80 53 -50 100l54 88q33 53 86 33q145 -53 284 -166l144 68q23 10 32 8t19 -23l18 -39q8 -14 9.5 -22t-4 -12.5t-17.5 -10.5 l-106 -51q133 -133 191 -293t58 -377q0 -74 -6 -135t-23.5 -139t-53 -137.5t-91 -111.5t-143.5 -80.5t-201 -28.5q-117 0 -207 30.5t-144 78.5t-89 116.5t-47 137t-12 144.5zM453 510q0 -111 22.5 -157t83.5 -46q70 0 94.5 48t24.5 155q0 111 -20.5 156t-90.5 45 q-114 0 -114 -201z" />
<glyph unicode="&#xf1;" horiz-adv-x="1187" d="M113 49v920q0 49 49 49h289q47 0 47 -49v-39l4 -2q139 106 305 106q86 0 147.5 -27.5t93 -65.5t50 -100.5t21.5 -108.5t3 -114v-569q0 -49 -47 -49h-289q-49 0 -49 49v504q0 74 -25.5 98.5t-78.5 24.5q-47 0 -135 -33v-594q0 -49 -47 -49h-289q-49 0 -49 49zM152 1225 q98 252 280 252q66 0 178.5 -46.5t149.5 -46.5q72 0 114 74q16 29 62 4l86 -49q20 -12 24.5 -20.5t-2.5 -30.5q-57 -133 -126.5 -184.5t-155.5 -51.5q-45 0 -164 45.5t-160 45.5q-70 0 -121 -72q-14 -20 -22 -22.5t-35 10.5l-88 43q-34 16 -20 49z" />
<glyph unicode="&#xf2;" horiz-adv-x="1169" d="M82 522q0 66 8 124.5t39 133t82 129t145.5 91t221.5 36.5q510 0 509 -514q0 -80 -7 -141.5t-36.5 -140t-82 -131t-150.5 -89t-233 -36.5q-133 0 -229.5 36.5t-146.5 89t-79 131t-35 140t-6 141.5zM262 1413q-41 41 2 76l164 139q37 29 72 -14l264 -342q29 -33 -6 -60 l-111 -98q-29 -25 -63 10zM471 510q0 -111 22.5 -157t84.5 -46q70 0 94 48t24 155q0 109 -22.5 155t-91.5 46q-111 0 -111 -201z" />
<glyph unicode="&#xf3;" horiz-adv-x="1169" d="M82 522q0 66 8 124.5t39 133t82 129t145.5 91t221.5 36.5q510 0 509 -514q0 -80 -7 -141.5t-36.5 -140t-82 -131t-150.5 -89t-233 -36.5q-133 0 -229.5 36.5t-146.5 89t-79 131t-35 140t-6 141.5zM455 1233l211 379q27 47 67 24l185 -110q49 -27 12 -76l-268 -328 q-31 -39 -62 -20l-129 74q-36 22 -16 57zM471 510q0 -111 22.5 -157t84.5 -46q70 0 94 48t24 155q0 109 -22.5 155t-91.5 46q-111 0 -111 -201z" />
<glyph unicode="&#xf4;" horiz-adv-x="1169" d="M82 522q0 66 8 124.5t39 133t82 129t145.5 91t221.5 36.5q510 0 509 -514q0 -80 -7 -141.5t-36.5 -140t-82 -131t-150.5 -89t-233 -36.5q-133 0 -229.5 36.5t-146.5 89t-79 131t-35 140t-6 141.5zM128 1186q-1 10 19 35l275 286q2 2 7 8.5t6 7.5l6 6q5 5 7.5 6t7.5 4t8 4 l9 3q6 2 12.5 2t13.5 1t15 1h148q39 0 54 -7t36 -30l278 -294q20 -25 19.5 -35t-21.5 -31l-86 -82q-23 -16 -34 -15t-36 19l-290 203l-279 -203q-27 -18 -38 -20t-32 16l-83 84q-21 21 -22 31zM471 510q0 -111 22.5 -157t84.5 -46q70 0 94 48t24 155q0 109 -22.5 155 t-91.5 46q-111 0 -111 -201z" />
<glyph unicode="&#xf5;" horiz-adv-x="1169" d="M82 522q0 66 8 124.5t39 133t82 129t145.5 91t221.5 36.5q510 0 509 -514q0 -80 -7 -141.5t-36.5 -140t-82 -131t-150.5 -89t-233 -36.5q-133 0 -229.5 36.5t-146.5 89t-79 131t-35 140t-6 141.5zM154 1225q98 252 280 252q66 0 178.5 -46.5t149.5 -46.5q72 0 115 74 q16 29 61 4l86 -49q20 -12 24.5 -20.5t-1.5 -30.5q-57 -133 -127 -184.5t-156 -51.5q-45 0 -164 45.5t-160 45.5q-72 0 -121 -72q-14 -20 -22 -22.5t-35 10.5l-88 43q-34 16 -20 49zM471 510q0 -111 22.5 -157t84.5 -46q70 0 94 48t24 155q0 109 -22.5 155t-91.5 46 q-111 0 -111 -201z" />
<glyph unicode="&#xf6;" horiz-adv-x="1169" d="M82 522q0 66 8 124.5t39 133t82 129t145.5 91t221.5 36.5q510 0 509 -514q0 -80 -7 -141.5t-36.5 -140t-82 -131t-150.5 -89t-233 -36.5q-133 0 -229.5 36.5t-146.5 89t-79 131t-35 140t-6 141.5zM184 1278q0 80 39 122t142 42q106 0 144 -41t38 -123q0 -80 -38 -125 t-144 -45q-111 0 -146 45t-35 125zM471 510q0 -111 22.5 -157t84.5 -46q70 0 94 48t24 155q0 109 -22.5 155t-91.5 46q-111 0 -111 -201zM637 1278q0 78 39 121t141 43q109 0 145.5 -40t36.5 -124q0 -82 -36.5 -126t-145 -44t-144.5 45t-36 125z" />
<glyph unicode="&#xf7;" d="M137 575v177q0 49 49 49h893q29 0 38 -11.5t9 -35.5v-179q0 -29 -9 -40t-38 -11h-893q-49 0 -49 51zM434 272q0 84 41 129t152 45q113 0 152.5 -43t39.5 -131q0 -86 -40 -133t-152 -47q-117 0 -155 48t-38 132zM434 1046.5q0 83.5 41 129t152 45.5q113 0 152.5 -43 t39.5 -131q0 -86 -40 -133.5t-152 -47.5q-117 0 -155 48.5t-38 132z" />
<glyph unicode="&#xf8;" horiz-adv-x="1169" d="M82 522q0 66 8 124.5t39 133t82 129t145.5 91t221.5 36.5q190 0 309 -69l84 98q20 25 30.5 27t28.5 -13l37 -28q20 -16 20 -27.5t-18 -36.5l-86 -102q104 -125 104 -363q0 -80 -7 -141.5t-36.5 -140t-82 -131t-150.5 -89t-233 -36.5q-184 0 -302 69l-57 -67 q-18 -23 -29.5 -25t-33.5 12l-35 29q-29 25 0 61l61 72q-100 125 -100 387zM471 475l182 215q-27 20 -71 21q-111 0 -111 -201v-35zM510 328q23 -20 68 -21q70 0 94 48t24 155v37z" />
<glyph unicode="&#xf9;" horiz-adv-x="1175" d="M86 393v576q0 49 47 49h289q49 0 49 -49v-504q0 -74 25.5 -98.5t78.5 -24.5q35 0 123 33v594q0 49 47 49h289q49 0 49 -49v-920q0 -49 -49 -49h-289q-47 0 -47 49v39l-4 2q-139 -106 -303 -106q-63 0 -111.5 13t-80 31.5t-54 53.5t-34 64.5t-17.5 78.5t-7 81t-1 87z M240 1413q-41 41 2 76l164 139q37 29 71 -14l264 -342q29 -33 -6 -60l-110 -98q-29 -25 -64 10z" />
<glyph unicode="&#xfa;" horiz-adv-x="1175" d="M86 393v576q0 49 47 49h289q49 0 49 -49v-504q0 -74 25.5 -98.5t78.5 -24.5q35 0 123 33v594q0 49 47 49h289q49 0 49 -49v-920q0 -49 -49 -49h-289q-47 0 -47 49v39l-4 2q-139 -106 -303 -106q-63 0 -111.5 13t-80 31.5t-54 53.5t-34 64.5t-17.5 78.5t-7 81t-1 87z M424 1233l211 379q27 47 67 24l185 -110q49 -27 12 -76l-268 -328q-31 -39 -62 -20l-129 74q-36 22 -16 57z" />
<glyph unicode="&#xfb;" horiz-adv-x="1175" d="M86 393v576q0 49 47 49h289q49 0 49 -49v-504q0 -74 25.5 -98.5t78.5 -24.5q35 0 123 33v594q0 49 47 49h289q49 0 49 -49v-920q0 -49 -49 -49h-289q-47 0 -47 49v39l-4 2q-139 -106 -303 -106q-63 0 -111.5 13t-80 31.5t-54 53.5t-34 64.5t-17.5 78.5t-7 81t-1 87z M124 1186q-1 10 19 35l275 286q2 2 7 8.5t6 7.5l6 6q5 5 7 6t7.5 4t8.5 4l9 3q6 2 12 2t13.5 1t15.5 1h147q39 0 54.5 -7t36.5 -30l278 -294q20 -25 19 -35t-21 -31l-86 -82q-23 -16 -34 -15t-36 19l-290 203l-279 -203q-27 -18 -38 -20t-32 16l-84 84q-20 21 -21 31z" />
<glyph unicode="&#xfc;" horiz-adv-x="1175" d="M86 393v576q0 49 47 49h289q49 0 49 -49v-504q0 -74 25.5 -98.5t78.5 -24.5q35 0 123 33v594q0 49 47 49h289q49 0 49 -49v-920q0 -49 -49 -49h-289q-47 0 -47 49v39l-4 2q-139 -106 -303 -106q-63 0 -111.5 13t-80 31.5t-54 53.5t-34 64.5t-17.5 78.5t-7 81t-1 87z M186 1270q0 80 39 122t142 42q106 0 144 -41t38 -123q0 -80 -38 -125t-144 -45q-111 0 -146 45t-35 125zM639 1270q0 78 39 121t141 43q109 0 145.5 -40t36.5 -124q0 -82 -36.5 -126t-145 -44t-144.5 45t-36 125z" />
<glyph unicode="&#xfd;" horiz-adv-x="1122" d="M20 958q-25 59 39 60h271q27 0 39 -2t24.5 -14.5t18.5 -36.5l67 -230l72 -258h12l82 266l70 226q8 27 25.5 38t60.5 11h246q41 0 49 -15.5t-6 -46.5l-496 -1318q-14 -35 -30.5 -45.5t-57.5 -10.5h-244q-37 0 -46 12.5t5 47.5l150 397zM424 1233l211 379q27 47 67 24 l185 -110q49 -27 12 -76l-268 -328q-31 -39 -62 -20l-129 74q-36 22 -16 57z" />
<glyph unicode="&#xfe;" horiz-adv-x="1173" d="M92 -371v1684q0 49 49 49h289q47 0 47 -49v-383l4 -2q139 106 264 106q106 0 178 -42t108 -119.5t49.5 -163.5t13.5 -201q0 -264 -90.5 -398.5t-333.5 -134.5q-90 0 -193 25v-371q0 -49 -47 -49h-289q-49 0 -49 49zM475 315q53 -12 98 -12q72 0 99.5 38t27.5 161 q0 100 -22.5 139t-73.5 39q-47 0 -129 -35v-330z" />
<glyph unicode="&#xff;" horiz-adv-x="1122" d="M20 958q-25 59 39 60h271q27 0 39 -2t24.5 -14.5t18.5 -36.5l67 -230l72 -258h12l82 266l70 226q8 27 25.5 38t60.5 11h246q41 0 49 -15.5t-6 -46.5l-496 -1318q-14 -35 -30.5 -45.5t-57.5 -10.5h-244q-37 0 -46 12.5t5 47.5l150 397zM152 1270q0 80 38.5 122t141.5 42 q106 0 144 -41t38 -123q0 -80 -38 -125t-144 -45q-111 0 -145.5 45t-34.5 125zM604 1270q0 78 39 121t141 43q109 0 146 -40t37 -124q0 -82 -37 -126t-145.5 -44t-144.5 45t-36 125z" />
<glyph unicode="&#x100;" horiz-adv-x="1331" d="M11 10q-7 10 3 51l381 1231q12 39 31.5 55.5t69.5 16.5h321q35 0 54.5 -9t26.5 -22.5t17 -42.5l404 -1233q18 -57 -27 -57h-313q-39 0 -55.5 18.5t-28.5 61.5l-55 201h-365l-57 -213q-18 -68 -86 -68h-283q-31 0 -38 10zM272 1487v176q0 49 50 49h671q29 0 38 -11t9 -36 v-178q0 -29 -9 -40t-38 -11h-671q-50 0 -50 51zM555 580h203l-43 172l-51 213h-13z" />
<glyph unicode="&#x101;" horiz-adv-x="1228" d="M74 293q-2 184 104.5 262t294.5 78h215v16q0 45 -28.5 64.5t-124.5 19.5q-84 0 -259 -18q-53 -8 -69.5 -2t-24.5 43l-28 131q-6 33 9 54.5t70 41.5q141 53 361 53q150 0 245 -24.5t144 -79.5t65.5 -122t16.5 -173v-262q0 -63 13.5 -79.5t64.5 -23.5q29 -2 37 -10t8 -31 v-168q0 -43 -68 -59q-66 -16 -151 -16q-201 0 -240 139l-4 2q-72 -80 -174 -112.5t-184 -32.5q-92 0 -153.5 26.5t-90.5 75.5t-39 96.5t-10 110.5zM207 1198v176q0 49 49 49h672q29 0 38 -11t9 -36v-178q0 -29 -9.5 -40t-37.5 -11h-672q-49 0 -49 51zM463 315q0 -31 13 -43 t48 -12q70 0 156 49v90h-133q-84 0 -84 -84z" />
<glyph unicode="&#x102;" horiz-adv-x="1331" d="M11 10q-7 10 3 51l381 1231q12 39 31.5 55.5t69.5 16.5h321q35 0 54.5 -9t26.5 -22.5t17 -42.5l404 -1233q18 -57 -27 -57h-313q-39 0 -55.5 18.5t-28.5 61.5l-55 201h-365l-57 -213q-18 -68 -86 -68h-283q-31 0 -38 10zM176 1705q-2 17 25 46l88 70q23 16 39 15t22 -7 t29 -31q109 -129 254 -129q162 0 256 129q23 31 40 35t50 -14l86 -52q33 -27 31 -47t-29 -65q-139 -244 -428 -244q-139 0 -260 59.5t-180 176.5q-21 41 -23 58zM555 580h203l-43 172l-51 213h-13z" />
<glyph unicode="&#x103;" horiz-adv-x="1228" d="M74 293q-2 184 104.5 262t294.5 78h215v16q0 45 -28.5 64.5t-124.5 19.5q-84 0 -259 -18q-53 -8 -69.5 -2t-24.5 43l-28 131q-6 33 9 54.5t70 41.5q141 53 361 53q150 0 245 -24.5t144 -79.5t65.5 -122t16.5 -173v-262q0 -63 13.5 -79.5t64.5 -23.5q29 -2 37 -10t8 -31 v-168q0 -43 -68 -59q-66 -16 -151 -16q-201 0 -240 139l-4 2q-72 -80 -174 -112.5t-184 -32.5q-92 0 -153.5 26.5t-90.5 75.5t-39 96.5t-10 110.5zM130 1428.5q3 17.5 22 31.5l88 70q23 16 39 15t22 -7t29 -31q72 -84 127 -117.5t131 -33.5q139 0 252 151q23 31 40 35 t50 -14l86 -51q23 -14 27 -32t-1.5 -33t-23.5 -48q-145 -276 -428 -277q-137 0 -261 71t-179 198q-14 31 -18.5 43t-1.5 29.5zM463 315q0 -31 13 -43t48 -12q70 0 156 49v90h-133q-84 0 -84 -84z" />
<glyph unicode="&#x104;" horiz-adv-x="1331" d="M11 10q-7 10 3 51l381 1231q12 39 31.5 55.5t69.5 16.5h321q35 0 54.5 -9t26.5 -22.5t17 -42.5l404 -1233q18 -57 -27 -57h-86q-39 -74 -39 -147q0 -66 82 -66q55 0 111 16q37 12 45 -16l29 -90q12 -37 -27 -55q-98 -47 -221 -47.5t-189.5 63t-66.5 170.5q0 86 55 172h-6 q-39 0 -55.5 18.5t-28.5 61.5l-55 201h-365l-57 -213q-18 -68 -86 -68h-283q-31 0 -38 10zM555 580h203l-43 172l-51 213h-13z" />
<glyph unicode="&#x105;" horiz-adv-x="1228" d="M74 293q-2 184 104.5 262t294.5 78h215v16q0 45 -28.5 64.5t-124.5 19.5q-84 0 -259 -18q-53 -8 -69.5 -2t-24.5 43l-28 131q-6 33 9 54.5t70 41.5q141 53 361 53q150 0 245 -24.5t144 -79.5t65.5 -122t16.5 -173v-262q0 -63 13.5 -79.5t64.5 -23.5q29 -2 37 -10t8 -31 v-168q0 -43 -68 -59q-57 -12 -137 -16q-33 -68 -33 -135q0 -66 82 -66q55 0 111 16q37 12 45 -16l29 -90q12 -37 -27 -55q-98 -47 -221 -47.5t-189.5 63t-66.5 170.5q0 104 75 203q-41 33 -59 96l-4 2q-72 -80 -174 -112.5t-184 -32.5q-92 0 -153.5 26.5t-90.5 75.5 t-39 96.5t-10 110.5zM463 315q0 -31 13 -43t48 -12q70 0 156 49v90h-133q-84 0 -84 -84z" />
<glyph unicode="&#x106;" horiz-adv-x="1267" d="M113 680q0 106 14 197.5t56 186.5t109.5 162.5t182.5 109.5t264 42q236 0 394 -69q29 -14 43 -24.5t22 -32t2 -54.5l-31 -145q-8 -37 -23.5 -45.5t-62.5 -3.5q-221 18 -299 18q-244 0 -243 -334q0 -195 51 -275.5t190 -80.5q123 0 308 18q49 4 62 -3t24 -46l34 -133 q12 -45 -5 -69.5t-60 -45.5q-166 -74 -404 -73q-628 0 -628 700zM565 1569q-23 35 13 57l366 232q49 27 72 -13l108 -186q33 -47 -24 -70l-393 -159q-45 -18 -66 10z" />
<glyph unicode="&#x107;" horiz-adv-x="1028" d="M82 512q0 524 496 524q201 0 325 -53q66 -29 53 -92l-28 -158q-8 -39 -21.5 -44t-66.5 1q-123 12 -197 12q-172 0 -172 -184q0 -113 37 -159t127 -46q88 0 231 17q25 4 38.5 3t18.5 -10.5t11 -35.5l27 -144q12 -45 0.5 -68.5t-68.5 -45.5q-137 -47 -315 -47 q-156 0 -259.5 44t-152.5 125.5t-66.5 164.5t-17.5 196zM344 1233l211 379q27 47 68 24l184 -110q49 -27 12 -76l-268 -328q-31 -39 -62 -20l-129 74q-36 22 -16 57z" />
<glyph unicode="&#x108;" horiz-adv-x="1267" d="M113 680q0 106 14 197.5t56 186.5t109.5 162.5t182.5 109.5t264 42q236 0 394 -69q29 -14 43 -24.5t22 -32t2 -54.5l-31 -145q-8 -37 -23.5 -45.5t-62.5 -3.5q-221 18 -299 18q-244 0 -243 -334q0 -195 51 -275.5t190 -80.5q123 0 308 18q49 4 62 -3t24 -46l34 -133 q12 -45 -5 -69.5t-60 -45.5q-166 -74 -404 -73q-628 0 -628 700zM269 1526q-1 10 20 35l270 245q4 4 12.5 11.5t11.5 10.5t10 8t14 7t18.5 4t25.5 2h148h21q9 0 17.5 -3t12.5 -3t11 -6t8 -6t10 -8l10 -11l274 -249q20 -23 19.5 -34t-21.5 -32l-82 -88q-23 -16 -32 -15 t-37 19l-291 182l-279 -182q-27 -18 -38 -20t-31 16l-80 86q-21 21 -22 31z" />
<glyph unicode="&#x109;" horiz-adv-x="1028" d="M82 512q0 524 496 524q201 0 325 -53q66 -29 53 -92l-28 -158q-8 -39 -21.5 -44t-66.5 1q-123 12 -197 12q-172 0 -172 -184q0 -113 37 -159t127 -46q88 0 231 17q25 4 38.5 3t18.5 -10.5t11 -35.5l27 -144q12 -45 0.5 -68.5t-68.5 -45.5q-137 -47 -315 -47 q-156 0 -259.5 44t-152.5 125.5t-66.5 164.5t-17.5 196zM85 1186q-1 10 19 35l275 286q2 2 7 8.5t6 7.5l6 6q5 5 7.5 6t7.5 4t8 4l9 3q6 2 12.5 2t13.5 1t15 1h147q39 0 54.5 -7t36.5 -30l278 -294q20 -25 19.5 -35t-21.5 -31l-86 -82q-23 -16 -34 -15t-36 19l-290 203 l-279 -203q-27 -18 -38 -20t-32 16l-84 84q-20 21 -21 31z" />
<glyph unicode="&#x10a;" horiz-adv-x="1267" d="M113 680q0 106 14 197.5t56 186.5t109.5 162.5t182.5 109.5t264 42q236 0 394 -69q29 -14 43 -24.5t22 -32t2 -54.5l-31 -145q-8 -37 -23.5 -45.5t-62.5 -3.5q-221 18 -299 18q-244 0 -243 -334q0 -195 51 -275.5t190 -80.5q123 0 308 18q49 4 62 -3t24 -46l34 -133 q12 -45 -5 -69.5t-60 -45.5q-166 -74 -404 -73q-628 0 -628 700zM547 1626q0 180 196 180q113 0 155 -46t42 -134q0 -182 -197 -182q-117 0 -156.5 51t-39.5 131z" />
<glyph unicode="&#x10b;" horiz-adv-x="1028" d="M82 512q0 524 496 524q201 0 325 -53q66 -29 53 -92l-28 -158q-8 -39 -21.5 -44t-66.5 1q-123 12 -197 12q-172 0 -172 -184q0 -113 37 -159t127 -46q88 0 231 17q25 4 38.5 3t18.5 -10.5t11 -35.5l27 -144q12 -45 0.5 -68.5t-68.5 -45.5q-137 -47 -315 -47 q-156 0 -259.5 44t-152.5 125.5t-66.5 164.5t-17.5 196zM379 1298q0 180 196 181q113 0 155 -46.5t42 -134.5q0 -182 -197 -182q-117 0 -156.5 51t-39.5 131z" />
<glyph unicode="&#x10c;" horiz-adv-x="1267" d="M113 680q0 106 14 197.5t56 186.5t109.5 162.5t182.5 109.5t264 42q236 0 394 -69q29 -14 43 -24.5t22 -32t2 -54.5l-31 -145q-8 -37 -23.5 -45.5t-62.5 -3.5q-221 18 -299 18q-244 0 -243 -334q0 -195 51 -275.5t190 -80.5q123 0 308 18q49 4 62 -3t24 -46l34 -133 q12 -45 -5 -69.5t-60 -45.5q-166 -74 -404 -73q-628 0 -628 700zM263 1736.5q1 10.5 22 30.5l75 86q20 18 31.5 16.5t38.5 -20.5l279 -161l290 161q25 18 36.5 19.5t33.5 -15.5l80 -86q20 -20 21 -30.5t-19 -34.5l-272 -250q-14 -16 -21.5 -22.5t-24 -10.5t-45.5 -4h-147 q-27 0 -45 6t-23.5 12.5t-23.5 24.5l-266 244q-21 24 -20 34.5z" />
<glyph unicode="&#x10d;" horiz-adv-x="1028" d="M82 512q0 524 496 524q201 0 325 -53q66 -29 53 -92l-28 -158q-8 -39 -21.5 -44t-66.5 1q-123 12 -197 12q-172 0 -172 -184q0 -113 37 -159t127 -46q88 0 231 17q25 4 38.5 3t18.5 -10.5t11 -35.5l27 -144q12 -45 0.5 -68.5t-68.5 -45.5q-137 -47 -315 -47 q-156 0 -259.5 44t-152.5 125.5t-66.5 164.5t-17.5 196zM83 1444q1 10 21 31l84 84q20 18 31.5 16t38.5 -21l279 -202l290 202q25 18 36 19.5t34 -14.5l86 -82q20 -20 21.5 -30.5t-19.5 -35.5l-278 -295q-14 -16 -21.5 -22.5t-24 -10.5t-45.5 -4h-147q-27 0 -45 6.5 t-23.5 12.5t-23.5 24l-275 287q-20 25 -19 35z" />
<glyph unicode="&#x10e;" horiz-adv-x="1392" d="M133 49v1264q0 49 49 49h471q627 0 627 -678q0 -684 -627 -684h-471q-49 0 -49 49zM146 1736.5q1 10.5 22 30.5l76 86q20 18 31.5 16.5t37.5 -20.5l279 -161l291 161q25 18 36 19.5t33 -15.5l80 -86q20 -20 21.5 -30.5t-19.5 -34.5l-272 -250q-14 -16 -21.5 -22.5 t-24 -10.5t-44.5 -4h-148q-27 0 -45 6t-23 12.5t-24 24.5l-266 244q-21 24 -20 34.5zM532 330h76q256 0 256 340q0 176 -52 269t-189 93h-91v-702z" />
<glyph unicode="&#x10f;" horiz-adv-x="1611" d="M82 494q0 133 15.5 223t57.5 169t128 117.5t219 38.5q100 0 194 -22v379q0 49 49 49h287q47 0 47 -49v-1350q0 -49 -47 -49h-291q-45 0 -45 47v41l-4 2q-139 -106 -266 -106q-104 0 -175 38.5t-106.5 113.5t-49 159t-13.5 199zM471 512q0 -106 21.5 -143t72.5 -37 q43 0 131 37v333q-55 12 -100 13q-70 0 -97.5 -40t-27.5 -163zM1170 1342.5q-1 21.5 42 58.5l158 121q43 25 62.5 18.5t56.5 -41.5q45 -43 70.5 -108.5t25.5 -122.5q0 -135 -60.5 -240.5t-156.5 -163.5q-53 -29 -94 17l-66 67q-31 33 -28.5 46.5t37.5 52.5q47 51 47 124 q0 47 -56 111q-37 39 -38 60.5z" />
<glyph unicode="&#x110;" horiz-adv-x="1392" d="M0 604v148q0 41 47 41h86v520q0 49 49 49h471q627 0 627 -678q0 -684 -627 -684h-471q-49 0 -49 49v514h-86q-47 0 -47 41zM532 330h76q256 0 256 340q0 176 -52 269t-189 93h-91v-239h170q29 0 38.5 -9.5t9.5 -29.5v-150q0 -23 -9.5 -32t-38.5 -9h-170v-233z" />
<glyph unicode="&#x111;" horiz-adv-x="1214" d="M82 453q0 131 15.5 216t57.5 155.5t128 103.5t219 33q100 0 194 -23v125h-250q-23 0 -29.5 7t-6.5 30v125q0 25 6 30t30 5h250v139q0 49 49 49h287q47 0 47 -49v-139h76q20 0 26.5 -7.5t6.5 -29.5v-125q0 -20 -5 -27.5t-26 -7.5h-78v-1014q0 -49 -47 -49h-287 q-49 0 -49 49v39l-4 2q-139 -106 -266 -106q-201 0 -272.5 118t-71.5 351zM471 471q0 -80 21.5 -109.5t72.5 -29.5q43 0 131 37v252q-55 12 -100 12q-66 0 -95.5 -38t-29.5 -124z" />
<glyph unicode="&#x112;" horiz-adv-x="1191" d="M133 49v1264q0 49 49 49h860q23 0 36.5 -13.5t13.5 -35.5v-236q0 -45 -50 -45h-507v-164h438q23 0 36 -14t13 -35v-235q0 -45 -49 -45h-438v-209h516q23 0 36 -13.5t13 -35.5v-236q0 -45 -49 -45h-869q-49 0 -49 49zM244 1487v176q0 49 49 49h672q29 0 38 -11t9 -36v-178 q0 -29 -9.5 -40t-37.5 -11h-672q-49 0 -49 51z" />
<glyph unicode="&#x113;" horiz-adv-x="1132" d="M82 498q0 539 493 538q485 0 486 -473q0 -72 -27.5 -105.5t-95.5 -33.5h-465q8 -80 56.5 -103.5t144.5 -23.5q86 0 221 18q49 6 60.5 -1t19.5 -52l20 -121q12 -45 1 -68.5t-68 -45.5q-131 -45 -330 -45q-156 0 -261.5 39.5t-158.5 116.5t-74.5 162t-21.5 198zM182 1198 v176q0 49 49 49h672q29 0 38 -11t9 -36v-178q0 -29 -9 -40t-38 -11h-672q-49 0 -49 51zM479 635h187q0 117 -91 117q-41 0 -67.5 -30t-28.5 -87z" />
<glyph unicode="&#x114;" horiz-adv-x="1191" d="M133 49v1264q0 49 49 49h860q23 0 36.5 -13.5t13.5 -35.5v-236q0 -45 -50 -45h-507v-164h438q23 0 36 -14t13 -35v-235q0 -45 -49 -45h-438v-209h516q23 0 36 -13.5t13 -35.5v-236q0 -45 -49 -45h-869q-49 0 -49 49zM139 1705q-2 17 25 46l88 70q23 16 39 15t22 -7 t29 -31q109 -129 254 -129q162 0 256 129q23 31 40 35t50 -14l86 -52q33 -27 31 -47t-29 -65q-139 -244 -428 -244q-139 0 -260 59.5t-180 176.5q-21 41 -23 58z" />
<glyph unicode="&#x115;" horiz-adv-x="1132" d="M82 498q0 539 493 538q485 0 486 -473q0 -72 -27.5 -105.5t-95.5 -33.5h-465q8 -80 56.5 -103.5t144.5 -23.5q86 0 221 18q49 6 60.5 -1t19.5 -52l20 -121q12 -45 1 -68.5t-68 -45.5q-131 -45 -330 -45q-156 0 -261.5 39.5t-158.5 116.5t-74.5 162t-21.5 198z M107.5 1428.5q3.5 17.5 21.5 31.5l88 70q23 16 39 15t22.5 -7t28.5 -31q72 -84 127 -117.5t131 -33.5q139 0 252 151q23 31 40 35t50 -14l86 -51q23 -14 27 -32t-1 -33t-24 -48q-145 -276 -428 -277q-137 0 -261 71t-179 198q-14 31 -18.5 43t-1 29.5zM479 635h187 q0 117 -91 117q-41 0 -67.5 -30t-28.5 -87z" />
<glyph unicode="&#x116;" horiz-adv-x="1191" d="M133 49v1264q0 49 49 49h860q23 0 36.5 -13.5t13.5 -35.5v-236q0 -45 -50 -45h-507v-164h438q23 0 36 -14t13 -35v-235q0 -45 -49 -45h-438v-209h516q23 0 36 -13.5t13 -35.5v-236q0 -45 -49 -45h-869q-49 0 -49 49zM436 1606q0 180 197 180q113 0 154.5 -46t41.5 -134 q0 -182 -196 -183q-117 0 -157 51.5t-40 131.5z" />
<glyph unicode="&#x117;" horiz-adv-x="1132" d="M82 498q0 539 493 538q485 0 486 -473q0 -72 -27.5 -105.5t-95.5 -33.5h-465q8 -80 56.5 -103.5t144.5 -23.5q86 0 221 18q49 6 60.5 -1t19.5 -52l20 -121q12 -45 1 -68.5t-68 -45.5q-131 -45 -330 -45q-156 0 -261.5 39.5t-158.5 116.5t-74.5 162t-21.5 198zM397 1298 q0 180 197 181q113 0 155 -46.5t42 -134.5q0 -182 -197 -182q-117 0 -157 51t-40 131zM479 635h187q0 117 -91 117q-41 0 -67.5 -30t-28.5 -87z" />
<glyph unicode="&#x118;" horiz-adv-x="1191" d="M133 49v1264q0 49 49 49h860q23 0 36.5 -13.5t13.5 -35.5v-236q0 -45 -50 -45h-507v-164h438q23 0 36 -14t13 -35v-235q0 -45 -49 -45h-438v-209h516q23 0 36 -13.5t13 -35.5v-236q0 -45 -49 -45h-50q-39 -74 -38 -147q0 -66 81 -66q55 0 111 16q37 12 45 -16l29 -90 q12 -37 -27 -55q-98 -47 -221 -47.5t-189.5 63t-66.5 170.5q0 86 55 172h-598q-49 0 -49 49z" />
<glyph unicode="&#x119;" horiz-adv-x="1132" d="M82 498q0 539 493 538q485 0 486 -473q0 -72 -27.5 -105.5t-95.5 -33.5h-465q8 -80 56.5 -103.5t144.5 -23.5q86 0 221 18q49 6 60.5 -1t19.5 -52l20 -121q12 -45 1 -68.5t-68 -45.5l-31 -11q-47 -82 -47 -163q0 -66 82 -66q55 0 110 16q37 12 45 -16l29 -90 q12 -37 -26 -55q-98 -47 -221.5 -47.5t-190 63t-66.5 170.5q0 80 43 156q-20 -2 -57 -2q-156 0 -261.5 39.5t-158.5 116.5t-74.5 162t-21.5 198zM479 635h187q0 117 -91 117q-41 0 -67.5 -30t-28.5 -87z" />
<glyph unicode="&#x11a;" horiz-adv-x="1191" d="M133 49v1264q0 49 49 49h860q23 0 36.5 -13.5t13.5 -35.5v-236q0 -45 -50 -45h-507v-164h438q23 0 36 -14t13 -35v-235q0 -45 -49 -45h-438v-209h516q23 0 36 -13.5t13 -35.5v-236q0 -45 -49 -45h-869q-49 0 -49 49zM167 1736.5q1 10.5 21 30.5l76 86q20 18 31.5 16.5 t38.5 -20.5l278 -161l291 161q25 18 36 19.5t34 -15.5l80 -86q20 -20 21 -30.5t-19 -34.5l-273 -250q-14 -16 -21 -22.5t-23.5 -10.5t-45.5 -4h-147q-27 0 -45.5 6t-23.5 12.5t-23 24.5l-267 244q-20 24 -19 34.5z" />
<glyph unicode="&#x11b;" horiz-adv-x="1132" d="M82 498q0 539 493 538q485 0 486 -473q0 -72 -27.5 -105.5t-95.5 -33.5h-465q8 -80 56.5 -103.5t144.5 -23.5q86 0 221 18q49 6 60.5 -1t19.5 -52l20 -121q12 -45 1 -68.5t-68 -45.5q-131 -45 -330 -45q-156 0 -261.5 39.5t-158.5 116.5t-74.5 162t-21.5 198zM126 1444 q1 10 21 31l84 84q20 18 31.5 16t38.5 -21l279 -202l290 202q25 18 36.5 19.5t33.5 -14.5l86 -82q20 -20 21.5 -30.5t-19.5 -35.5l-278 -295q-14 -16 -21.5 -22.5t-24 -10.5t-45.5 -4h-147q-27 0 -45 6.5t-23.5 12.5t-23.5 24l-275 287q-20 25 -19 35zM479 635h187 q0 117 -91 117q-41 0 -67.5 -30t-28.5 -87z" />
<glyph unicode="&#x11c;" horiz-adv-x="1359" d="M113 680q0 106 14 197.5t56 186.5t109.5 162.5t182.5 109.5t264 42q236 0 394 -69q29 -14 43 -24.5t22 -32t2 -54.5l-33 -149q-8 -37 -22.5 -44.5t-61.5 -0.5q-176 20 -290 20q-252 0 -252 -336q0 -90 8 -148.5t30.5 -110.5t68.5 -76.5t118 -24.5q49 0 98 6v166h-119 q-49 0 -49 45v215q0 49 49 49h453q23 0 36 -13.5t13 -35.5q0 -223 -2 -580q0 -100 -65 -127q-186 -74 -461 -73q-147 0 -258 39.5t-176.5 104t-105.5 160t-53 188.5t-13 208zM269 1526q-1 10 20 35l270 245q4 4 12.5 11.5t11.5 10.5t10 8t14 7t18.5 4t25.5 2h148h21 q9 0 17.5 -3t12.5 -3t11 -6t8 -6t10 -8l10 -11l274 -249q20 -23 19.5 -34t-21.5 -32l-82 -88q-23 -16 -32 -15t-37 19l-291 182l-279 -182q-27 -18 -38 -20t-31 16l-80 86q-21 21 -22 31z" />
<glyph unicode="&#x11d;" horiz-adv-x="1167" d="M82 508q0 119 22.5 209t78 165.5t159.5 115.5t256 40q260 0 412 -65q66 -31 65 -111v-809q0 -80 -5 -135t-22.5 -117.5t-53.5 -103.5t-91 -77t-143 -52.5t-207 -16.5q-188 0 -322 50q-55 20 -70.5 42.5t-8.5 55.5l30 145q8 39 23.5 46.5t54.5 -3.5q141 -23 272 -22 q98 0 130 29.5t32 101.5v35q-94 -23 -168 -23q-131 0 -221 37t-137 107.5t-66.5 155.5t-19.5 200zM173 1186q-1 10 20 35l274 286q2 2 7 8.5t6 7.5l6 6q5 5 7.5 6t7.5 4t8 4l9 3q6 2 12.5 2t13.5 1t15 1h148q39 0 54 -7t36 -30l278 -294q20 -25 19.5 -35t-21.5 -31l-86 -82 q-23 -16 -34 -15t-35 19l-291 203l-279 -203q-27 -18 -38 -20t-31 16l-84 84q-21 21 -22 31zM477 526q0 -115 30 -152.5t97 -37.5q33 0 90 12v354q-33 6 -78 7q-68 0 -103.5 -36t-35.5 -147z" />
<glyph unicode="&#x11e;" horiz-adv-x="1359" d="M113 680q0 106 14 197.5t56 186.5t109.5 162.5t182.5 109.5t264 42q236 0 394 -69q29 -14 43 -24.5t22 -32t2 -54.5l-33 -149q-8 -37 -22.5 -44.5t-61.5 -0.5q-176 20 -290 20q-252 0 -252 -336q0 -90 8 -148.5t30.5 -110.5t68.5 -76.5t118 -24.5q49 0 98 6v166h-119 q-49 0 -49 45v215q0 49 49 49h453q23 0 36 -13.5t13 -35.5q0 -223 -2 -580q0 -100 -65 -127q-186 -74 -461 -73q-147 0 -258 39.5t-176.5 104t-105.5 160t-53 188.5t-13 208zM252 1705q-2 17 24 46l89 70q23 16 39 15t22 -7t29 -31q109 -129 254 -129q162 0 256 129 q23 31 40 35t50 -14l86 -52q33 -27 30.5 -47t-28.5 -65q-139 -244 -428 -244q-139 0 -260 59.5t-181 176.5q-20 41 -22 58z" />
<glyph unicode="&#x11f;" horiz-adv-x="1167" d="M82 508q0 119 22.5 209t78 165.5t159.5 115.5t256 40q260 0 412 -65q66 -31 65 -111v-809q0 -80 -5 -135t-22.5 -117.5t-53.5 -103.5t-91 -77t-143 -52.5t-207 -16.5q-188 0 -322 50q-55 20 -70.5 42.5t-8.5 55.5l30 145q8 39 23.5 46.5t54.5 -3.5q141 -23 272 -22 q98 0 130 29.5t32 101.5v35q-94 -23 -168 -23q-131 0 -221 37t-137 107.5t-66.5 155.5t-19.5 200zM130 1428.5q3 17.5 22 31.5l88 70q23 16 39 15t22 -7t29 -31q72 -84 127 -117.5t131 -33.5q139 0 252 151q23 31 40 35t50 -14l86 -51q23 -14 27 -32t-1.5 -33t-23.5 -48 q-145 -276 -428 -277q-137 0 -261 71t-179 198q-14 31 -18.5 43t-1.5 29.5zM477 526q0 -115 30 -152.5t97 -37.5q33 0 90 12v354q-33 6 -78 7q-68 0 -103.5 -36t-35.5 -147z" />
<glyph unicode="&#x120;" horiz-adv-x="1359" d="M113 680q0 106 14 197.5t56 186.5t109.5 162.5t182.5 109.5t264 42q236 0 394 -69q29 -14 43 -24.5t22 -32t2 -54.5l-33 -149q-8 -37 -22.5 -44.5t-61.5 -0.5q-176 20 -290 20q-252 0 -252 -336q0 -90 8 -148.5t30.5 -110.5t68.5 -76.5t118 -24.5q49 0 98 6v166h-119 q-49 0 -49 45v215q0 49 49 49h453q23 0 36 -13.5t13 -35.5q0 -223 -2 -580q0 -100 -65 -127q-186 -74 -461 -73q-147 0 -258 39.5t-176.5 104t-105.5 160t-53 188.5t-13 208zM563 1606q0 180 197 180q113 0 154.5 -46t41.5 -134q0 -182 -196 -183q-117 0 -157 51.5 t-40 131.5z" />
<glyph unicode="&#x121;" horiz-adv-x="1167" d="M82 508q0 119 22.5 209t78 165.5t159.5 115.5t256 40q260 0 412 -65q66 -31 65 -111v-809q0 -80 -5 -135t-22.5 -117.5t-53.5 -103.5t-91 -77t-143 -52.5t-207 -16.5q-188 0 -322 50q-55 20 -70.5 42.5t-8.5 55.5l30 145q8 39 23.5 46.5t54.5 -3.5q141 -23 272 -22 q98 0 130 29.5t32 101.5v35q-94 -23 -168 -23q-131 0 -221 37t-137 107.5t-66.5 155.5t-19.5 200zM428 1298q0 180 197 181q113 0 154.5 -46.5t41.5 -134.5q0 -182 -196 -182q-117 0 -157 51t-40 131zM477 526q0 -115 30 -152.5t97 -37.5q33 0 90 12v354q-33 6 -78 7 q-68 0 -103.5 -36t-35.5 -147z" />
<glyph unicode="&#x122;" horiz-adv-x="1359" d="M113 680q0 106 14 197.5t56 186.5t109.5 162.5t182.5 109.5t264 42q236 0 394 -69q29 -14 43 -24.5t22 -32t2 -54.5l-33 -149q-8 -37 -22.5 -44.5t-61.5 -0.5q-176 20 -290 20q-252 0 -252 -336q0 -90 8 -148.5t30.5 -110.5t68.5 -76.5t118 -24.5q49 0 98 6v166h-119 q-49 0 -49 45v215q0 49 49 49h453q23 0 36 -13.5t13 -35.5q0 -223 -2 -580q0 -100 -65 -127q-186 -74 -461 -73q-147 0 -258 39.5t-176.5 104t-105.5 160t-53 188.5t-13 208zM525 -259.5q-1 21.5 42 58.5l158 121q43 25 62.5 18.5t56.5 -40.5q45 -43 70.5 -108.5 t25.5 -123.5q0 -135 -60.5 -240.5t-156.5 -162.5q-53 -29 -94 16l-66 68q-31 33 -28.5 46t36.5 52q47 51 47 125q0 47 -55 111q-37 38 -38 59.5z" />
<glyph unicode="&#x123;" horiz-adv-x="1167" d="M82 557q0 119 22.5 209t78 166t159.5 115.5t256 39.5q260 0 412 -65q66 -31 65 -111v-809q0 -80 -5 -135t-22.5 -117.5t-53.5 -103.5t-91 -77t-143 -52t-207 -16q-188 0 -322 49q-55 20 -70.5 42.5t-8.5 55.5l30 146q8 39 23.5 46t54.5 -3q141 -23 272 -23q98 0 130 29.5 t32 101.5v35q-94 -23 -168 -23q-131 0 -221 37t-137 107.5t-66.5 155.5t-19.5 200zM442 1393q0 135 60.5 240.5t156.5 162.5q53 29 95 -16l65 -68q31 -33 29 -46t-37 -52q-47 -51 -47 -125q0 -47 55 -111q37 -39 38 -60.5t-42 -57.5l-158 -121q-43 -25 -62.5 -19t-55.5 41 q-45 43 -71 109t-26 123zM477 575q0 -115 30 -152.5t97 -37.5q33 0 90 12v355q-33 6 -78 6q-68 0 -103.5 -36t-35.5 -147z" />
<glyph unicode="&#x124;" horiz-adv-x="1374" d="M133 49v1264q0 49 49 49h305q47 0 48 -49v-447h305v447q0 49 49 49h305q47 0 47 -49v-1264q0 -49 -47 -49h-305q-49 0 -49 49v486h-305v-486q0 -49 -48 -49h-305q-49 0 -49 49zM237 1526q-1 10 19 35l270 245q4 4 12.5 11.5t11.5 10.5t10 8t14.5 7t18.5 4t25 2h148h21 q9 0 17.5 -3t12.5 -3t11.5 -6t8.5 -6t9 -8l10 -11l274 -249q20 -23 19.5 -34t-21.5 -32l-81 -88q-23 -16 -32 -15t-38 19l-291 182l-278 -182q-27 -18 -38.5 -20t-31.5 16l-80 86q-20 21 -21 31z" />
<glyph unicode="&#x125;" horiz-adv-x="1187" d="M-157 1566.5q-1 10.5 20 35.5l270 245q4 4 12.5 11.5t11.5 10.5t10 8t14 7t18.5 4t25.5 2h148h21q9 0 17.5 -3t12.5 -3t11 -6t8 -6t10 -8l10 -11l274 -249q20 -23 19.5 -34t-21.5 -32l-82 -88q-23 -16 -32 -15t-37 19l-291 182l-279 -182q-27 -18 -38 -20t-31 16l-80 86 q-21 20 -22 30.5zM92 49v1350q0 49 49 49h291q47 0 47 -49v-436q135 74 277 73q94 0 160.5 -27.5t101.5 -66.5t55.5 -100.5t24.5 -108.5t4 -112v-572q0 -49 -47 -49h-289q-49 0 -49 49v520q0 74 -26.5 98.5t-78.5 24.5q-47 0 -135 -33v-610q0 -49 -47 -49h-289q-49 0 -49 49 z" />
<glyph unicode="&#x126;" horiz-adv-x="1374" d="M43 1051v123q0 49 49 49h41v90q0 49 49 49h305q47 0 48 -49v-90h305v90q0 49 49 49h305q47 0 47 -49v-90h45q29 0 38 -11.5t9 -35.5v-125q0 -29 -9 -40.5t-38 -11.5h-45v-950q0 -49 -47 -49h-305q-49 0 -49 49v486h-305v-486q0 -49 -48 -49h-305q-49 0 -49 49v950h-41 q-49 1 -49 52zM535 866h305v133h-305v-133z" />
<glyph unicode="&#x127;" horiz-adv-x="1187" d="M-18 1100v125q0 25 6 30t30 5h74v139q0 49 49 49h291q47 0 47 -49v-139h326q20 0 26.5 -7.5t6.5 -29.5v-125q0 -20 -5.5 -27.5t-25.5 -7.5h-328v-178q135 74 277 73q94 0 160.5 -27.5t101.5 -66.5t55.5 -100.5t24.5 -108.5t4 -112v-494q0 -49 -47 -49h-289q-49 0 -49 49 v443q0 74 -26.5 98t-78.5 24q-47 0 -135 -32v-533q0 -49 -47 -49h-289q-49 0 -49 49v1014h-74q-23 0 -29.5 7t-6.5 30z" />
<glyph unicode="&#x128;" horiz-adv-x="667" d="M-129 1559q102 262 295 262q68 0 185.5 -48.5t156.5 -48.5q74 0 121 78q18 29 63 4l92 -51q20 -12 24.5 -20.5t-1.5 -32.5q-106 -246 -297 -246q-47 0 -171 47t-167 47q-74 0 -127 -75q-14 -20 -22.5 -22.5t-36.5 9.5l-95 45q-34 17 -20 52zM133 49v1264q0 49 49 49h305 q47 0 48 -49v-1264q0 -49 -48 -49h-305q-49 0 -49 49z" />
<glyph unicode="&#x129;" horiz-adv-x="905" d="M-16 1210q102 262 295 263q68 0 185.5 -48.5t156.5 -48.5q74 0 120 78q18 29 64 4l92 -51q20 -12 24.5 -20.5t-1.5 -32.5q-59 -137 -132 -191.5t-165 -54.5q-47 0 -171 47t-167 47q-74 0 -127 -76q-14 -20 -22.5 -22t-37.5 10l-94 45q-34 16 -20 51zM260 49v920 q0 49 49 49h289q47 0 47 -49v-920q0 -49 -47 -49h-289q-49 0 -49 49z" />
<glyph unicode="&#x12a;" horiz-adv-x="727" d="M-20 1487v176q0 49 49 49h671q29 0 38.5 -11t9.5 -36v-178q0 -29 -9.5 -40t-38.5 -11h-671q-49 0 -49 51zM168 49v1264q0 49 49 49h305q47 0 47 -49v-1264q0 -49 -47 -49h-305q-49 0 -49 49z" />
<glyph unicode="&#x12b;" horiz-adv-x="727" d="M-20 1198v176q0 49 49 49h671q29 0 38.5 -11t9.5 -36v-178q0 -29 -9.5 -40t-38.5 -11h-671q-49 0 -49 51zM164 49v920q0 49 49 49h289q47 0 47 -49v-920q0 -49 -47 -49h-289q-49 0 -49 49z" />
<glyph unicode="&#x12c;" horiz-adv-x="878" d="M-20.5 1705q-2.5 17 24.5 46l88 70q23 16 39 15t22.5 -7t28.5 -31q109 -129 254 -129q162 0 256 129q23 31 40.5 35t49.5 -14l86 -52q33 -27 31 -47t-29 -65q-139 -244 -428 -244q-139 0 -260 59.5t-180 176.5q-20 41 -22.5 58zM233 49v1264q0 49 50 49h305q47 0 47 -49 v-1264q0 -49 -47 -49h-305q-50 0 -50 49z" />
<glyph unicode="&#x12d;" horiz-adv-x="878" d="M-17 1440.5q3 17.5 21 32.5l88 69q23 16 39 15t22.5 -7t28.5 -30q72 -84 127.5 -118t130.5 -34q139 0 252 152q23 31 40.5 35t49.5 -15l86 -51q23 -14 27 -31.5t-1 -33t-24 -48.5q-145 -276 -428 -276q-137 0 -261 70.5t-179 197.5q-14 31 -18 43t-1 29.5zM236 49v920 q0 49 49 49h288q47 0 48 -49v-920q0 -49 -48 -49h-288q-49 0 -49 49z" />
<glyph unicode="&#x12e;" horiz-adv-x="667" d="M133 49v1264q0 49 49 49h305q47 0 48 -49v-1264q0 -49 -48 -49h-67q-39 -74 -39 -147q0 -66 82 -66q55 0 110 16q37 12 45 -16l29 -90q12 -37 -26 -55q-90 -43 -179 -48q-143 -8 -221 56.5t-78 177.5q0 86 56 172h-17q-49 0 -49 49z" />
<glyph unicode="&#x12f;" horiz-adv-x="618" d="M113 49v920q0 49 49 49h289q47 0 47 -49v-920q0 -49 -47 -49h-58q-39 -74 -39 -147q0 -66 82 -66q55 0 111 16q37 12 45 -16l29 -90q12 -37 -27 -55q-98 -47 -221 -47.5t-189.5 63t-66.5 170.5q0 86 55 172h-10q-49 0 -49 49zM113 1284q0 180 196 180q113 0 155 -46 t42 -134q0 -182 -197 -182q-117 0 -156.5 51t-39.5 131z" />
<glyph unicode="&#x130;" horiz-adv-x="667" d="M133 49v1264q0 49 49 49h305q47 0 48 -49v-1264q0 -49 -48 -49h-305q-49 0 -49 49zM141 1647q0 180 197 180q113 0 155 -46t42 -134q0 -182 -197 -183q-117 0 -157 51.5t-40 131.5z" />
<glyph unicode="&#x131;" horiz-adv-x="589" d="M102 49v920q0 49 50 49h288q47 0 47 -49v-920q0 -49 -47 -49h-288q-50 0 -50 49z" />
<glyph unicode="&#x132;" horiz-adv-x="1636" d="M133 49v1264q0 49 49 49h305q47 0 48 -49v-1264q0 -49 -48 -49h-305q-49 0 -49 49zM633 131l39 168q8 37 18 43t43 2q102 -14 197 -14q92 0 122.5 34.5t30.5 100.5l-2 848q0 49 49 49h306q47 0 47 -49q0 -582 -2 -934q0 -190 -120 -293.5t-355 -103.5q-166 0 -287 41 q-66 23 -81 41t-5 67z" />
<glyph unicode="&#x133;" horiz-adv-x="1173" d="M113 49v920q0 49 49 49h289q47 0 47 -49v-920q0 -49 -47 -49h-289q-49 0 -49 49zM113 1284q0 180 196 180q113 0 155 -46t42 -134q0 -182 -197 -182q-117 0 -156.5 51t-39.5 131zM369 -182q-4 37 2 44t41 15q162 35 210 67.5t48 135.5v889q0 49 49 49h289q47 0 47 -49 v-879q0 -164 -45 -273.5t-132 -166t-189.5 -76.5t-242.5 -16q-55 0 -59 51zM668 1284q0 180 196 180q113 0 155 -46t42 -134q0 -182 -197 -182q-117 0 -156.5 51t-39.5 131z" />
<glyph unicode="&#x134;" horiz-adv-x="1089" d="M16 133l39 168q8 37 18.5 43t43.5 2q102 -14 196 -14q92 0 123 34.5t31 100.5l-2 848q0 49 49 49h305q47 0 47 -49q0 -582 -2 -934q0 -190 -119.5 -293.5t-355.5 -103.5q-166 0 -287 41q-66 23 -81 41t-5 67zM206 1530q-1 10 19 35l271 245q4 4 12 11.5t11 10.5t10.5 8 t14.5 7t18 4t26 2h147h22q9 0 17 -3t12.5 -3t11.5 -6t8 -6t9 -8l10 -10l275 -250q20 -23 19 -34t-21 -32l-82 -88q-23 -16 -32 -15t-38 19l-291 182l-278 -182q-27 -18 -38 -20t-32 16l-80 86q-20 21 -21 31z" />
<glyph unicode="&#x135;" horiz-adv-x="919" d="M-18 -182q-4 29 4 40t39 19q160 31 209 65.5t49 137.5v889q0 49 49 49h289q47 0 47 -49v-879q0 -164 -45 -273.5t-132.5 -166t-189.5 -76.5t-242 -16q-55 0 -59 51zM17 1235q-1 10 20 35l274 286q2 2 7.5 8.5t6.5 7.5l6 6q5 5 7 6t7 4t8 4l9 3q6 2 12.5 2t13.5 1t15 1 h148q39 0 54.5 -7t35.5 -29l279 -295q20 -25 19 -35t-21 -31l-87 -82q-23 -16 -34 -15t-35 19l-291 203l-278 -203q-27 -18 -38.5 -20t-31.5 16l-84 84q-21 21 -22 31z" />
<glyph unicode="&#x136;" horiz-adv-x="1331" d="M117 49v1264q0 49 49 49h305q47 0 47 -49v-377h6l140 186l153 193q41 47 113 47h327q41 0 48.5 -19.5t-17.5 -48.5l-420 -506l441 -712q23 -43 12.5 -59.5t-41.5 -16.5h-326q-70 0 -110 63l-238 410l-88 -106v-318q0 -49 -47 -49h-305q-49 0 -49 49zM419 -218.5 q-1 21.5 42 58.5l157 121q43 25 62.5 18.5t56.5 -40.5q45 -43 71 -109t26 -123q0 -135 -60.5 -240.5t-157.5 -162.5q-53 -29 -94 16l-65 68q-31 33 -29 46t37 52q47 51 47 125q0 47 -55 110q-37 39 -38 60.5z" />
<glyph unicode="&#x137;" horiz-adv-x="1165" d="M92 49v1350q0 49 49 49h287q47 0 47 -49v-649l6 -2l103 126l75 91q25 29 48.5 41t70.5 12h295q41 0 47 -18.5t-20 -45.5l-299 -340l348 -548q20 -31 9 -48.5t-48 -17.5h-279q-90 0 -122 57l-162 271l-72 -86v-193q0 -49 -47 -49h-287q-49 0 -49 49zM337 -259.5 q-1 21.5 42 58.5l158 121q43 25 62 18.5t56 -40.5q45 -43 71 -108.5t26 -123.5q0 -135 -60.5 -240.5t-156.5 -162.5q-53 -29 -95 16l-65 68q-31 33 -29 46t37 52q47 51 47 125q0 47 -55 111q-37 38 -38 59.5z" />
<glyph unicode="&#x138;" horiz-adv-x="1165" d="M92 49v920q0 49 49 49h287q47 0 47 -49v-228l109 133l75 91q25 29 48.5 41t70.5 12h295q35 0 43 -18.5t-16 -45.5l-299 -340l348 -548q14 -18 4 -42t-43 -24h-279q-90 0 -122 57l-162 271l-72 -86v-193q0 -49 -47 -49h-287q-49 0 -49 49z" />
<glyph unicode="&#x139;" horiz-adv-x="1114" d="M133 49v1264q0 49 49 49h303q49 0 50 -49v-983h522q37 0 37 -35v-250q0 -45 -50 -45h-862q-49 0 -49 49zM166 1569q-23 35 12 57l367 232q49 27 71 -13l109 -186q33 -47 -25 -70l-393 -159q-45 -18 -65 10z" />
<glyph unicode="&#x13a;" horiz-adv-x="673" d="M113 297v1102q0 49 49 49h289q47 0 47 -49v-1039q0 -25 9 -37t23.5 -16t47.5 -6q37 -2 43 -8t10 -33l10 -190q2 -35 -37 -52q-68 -29 -188 -28q-154 0 -228.5 70.5t-74.5 236.5zM170 1651q-23 35 12 57l367 231q49 27 72 -12l108 -186q33 -47 -24 -70l-394 -160 q-45 -18 -65 11z" />
<glyph unicode="&#x13b;" horiz-adv-x="1114" d="M133 49v1264q0 49 49 49h303q49 0 50 -49v-983h522q37 0 37 -35v-250q0 -45 -50 -45h-862q-49 0 -49 49zM359 -259.5q-1 21.5 42 58.5l158 121q43 25 62.5 18.5t56.5 -40.5q45 -43 70.5 -108.5t25.5 -123.5q0 -135 -60.5 -240.5t-156.5 -162.5q-53 -29 -94 16l-66 68 q-31 33 -28.5 46t37.5 52q47 51 47 125q0 47 -56 111q-37 38 -38 59.5z" />
<glyph unicode="&#x13c;" horiz-adv-x="673" d="M113 297v1102q0 49 49 49h289q47 0 47 -49v-1039q0 -25 9 -37t23.5 -16t47.5 -6q37 -2 43 -8t10 -33l10 -190q2 -35 -37 -52q-68 -29 -188 -28q-154 0 -228.5 70.5t-74.5 236.5zM118 -259.5q-1 21.5 42 58.5l157 121q43 25 62.5 18.5t56.5 -40.5q45 -43 70.5 -108.5 t25.5 -123.5q0 -135 -60 -240.5t-157 -162.5q-53 -29 -94 16l-65 68q-31 33 -29 46t37 52q47 51 47 125q0 47 -55 111q-37 38 -38 59.5z" />
<glyph unicode="&#x13d;" horiz-adv-x="1114" d="M133 49v1264q0 49 49 49h303q49 0 50 -49v-983h522q37 0 37 -35v-250q0 -45 -50 -45h-862q-49 0 -49 49zM693 1201.5q-1 21.5 42 58.5l158 120q43 25 62.5 19t56.5 -41q45 -43 70.5 -108.5t25.5 -123.5q0 -135 -60.5 -240.5t-156.5 -162.5q-53 -29 -94 16l-66 68 q-31 33 -28.5 46t36.5 52q47 51 47 125q0 47 -55 111q-37 39 -38 60.5z" />
<glyph unicode="&#x13e;" horiz-adv-x="974" d="M113 297v1102q0 49 49 49h289q47 0 47 -49v-1039q0 -25 9 -37t23.5 -16t47.5 -6q37 -2 43 -8t10 -33l10 -190q2 -35 -37 -52q-68 -29 -188 -28q-154 0 -228.5 70.5t-74.5 236.5zM585 1301.5q-1 21.5 42 58.5l157 121q43 25 62.5 18.5t56.5 -41.5q45 -43 70.5 -108.5 t25.5 -122.5q0 -135 -60 -240.5t-157 -163.5q-53 -29 -94 17l-65 67q-31 33 -29 46.5t37 52.5q47 51 47 124q0 47 -55 111q-37 39 -38 60.5z" />
<glyph unicode="&#x13f;" horiz-adv-x="1114" d="M133 49v1264q0 49 49 49h303q49 0 50 -49v-983h522q37 0 37 -35v-250q0 -45 -50 -45h-862q-49 0 -49 49zM688 774q0 180 197 180q113 0 154.5 -46t41.5 -134q0 -182 -196 -182q-117 0 -157 51t-40 131z" />
<glyph unicode="&#x140;" horiz-adv-x="962" d="M106 297v1102q0 49 50 49h288q47 0 48 -49v-1039q0 -25 9 -37t23.5 -16t46.5 -6q37 -2 44.5 -8t9.5 -33l10 -190q2 -35 -37 -52q-68 -29 -188 -28q-154 0 -229 70.5t-75 236.5zM569 829q0 180 197 181q113 0 155 -46t42 -135q0 -182 -197 -182q-117 0 -157 51t-40 131z " />
<glyph unicode="&#x141;" horiz-adv-x="1153" d="M0 494q-25 43 18 67l154 88v664q0 49 49 49h303q49 0 49 -49v-428l123 71q41 25 64 -18l65 -111q14 -23 12.5 -38t-28.5 -29l-236 -139v-291h523q37 0 37 -35v-250q0 -45 -50 -45h-862q-49 0 -49 49v338l-39 -22q-41 -25 -70 18z" />
<glyph unicode="&#x142;" horiz-adv-x="761" d="M0 530q-25 43 18 68l150 86v715q0 49 49 49h289q47 0 47 -49v-490l78 45q41 25 63 -18l66 -111q14 -23 12 -38t-29 -29l-190 -113v-285q0 -25 9 -37t23.5 -16t47.5 -6q37 -2 44 -8t9 -33l10 -190q2 -35 -37 -52q-68 -29 -188 -28q-154 0 -228.5 70.5t-74.5 236.5v125 l-35 -21q-41 -25 -70 19z" />
<glyph unicode="&#x143;" horiz-adv-x="1409" d="M133 49v1264q0 49 49 49h209q31 0 49.5 -6t26.5 -14.5t22 -28.5l224 -332l166 -250l8 2v580q0 49 47 49h293q49 0 49 -49v-1264q0 -49 -49 -49h-207q-66 0 -107 57l-200 289l-185 275h-6v-572q0 -49 -47 -49h-293q-49 0 -49 49zM518 1569q-23 35 12 57l367 232 q49 27 72 -13l108 -186q33 -47 -24 -70l-394 -159q-45 -18 -65 10z" />
<glyph unicode="&#x144;" horiz-adv-x="1187" d="M113 49v920q0 49 49 49h289q47 0 47 -49v-39l4 -2q139 106 305 106q86 0 147.5 -27.5t93 -65.5t50 -100.5t21.5 -108.5t3 -114v-569q0 -49 -47 -49h-289q-49 0 -49 49v504q0 74 -25.5 98.5t-78.5 24.5q-47 0 -135 -33v-594q0 -49 -47 -49h-289q-49 0 -49 49zM408 1233 l210 379q27 47 68 24l184 -110q49 -27 13 -76l-269 -328q-31 -39 -61 -20l-129 74q-36 22 -16 57z" />
<glyph unicode="&#x145;" horiz-adv-x="1409" d="M133 49v1264q0 49 49 49h209q31 0 49.5 -6t26.5 -14.5t22 -28.5l224 -332l166 -250l8 2v580q0 49 47 49h293q49 0 49 -49v-1264q0 -49 -49 -49h-207q-66 0 -107 57l-200 289l-185 275h-6v-572q0 -49 -47 -49h-293q-49 0 -49 49zM468 -218.5q-1 21.5 42 58.5l158 121 q43 25 62.5 18.5t55.5 -40.5q45 -43 71 -109t26 -123q0 -135 -60.5 -240.5t-156.5 -162.5q-53 -29 -95 16l-65 68q-31 33 -29 46t37 52q47 51 47 125q0 47 -55 110q-37 39 -38 60.5z" />
<glyph unicode="&#x146;" horiz-adv-x="1187" d="M113 49v920q0 49 49 49h289q47 0 47 -49v-39l4 -2q139 106 305 106q86 0 147.5 -27.5t93 -65.5t50 -100.5t21.5 -108.5t3 -114v-569q0 -49 -47 -49h-289q-49 0 -49 49v504q0 74 -25.5 98.5t-78.5 24.5q-47 0 -135 -33v-594q0 -49 -47 -49h-289q-49 0 -49 49zM357 -259.5 q-1 21.5 42 58.5l158 121q43 25 62.5 18.5t56.5 -40.5q45 -43 70.5 -108.5t25.5 -123.5q0 -135 -60.5 -240.5t-156.5 -162.5q-53 -29 -94 16l-66 68q-31 33 -28.5 46t36.5 52q47 51 48 125q0 47 -56 111q-37 38 -38 59.5z" />
<glyph unicode="&#x147;" horiz-adv-x="1409" d="M133 49v1264q0 49 49 49h209q31 0 49.5 -6t26.5 -14.5t22 -28.5l224 -332l166 -250l8 2v580q0 49 47 49h293q49 0 49 -49v-1264q0 -49 -49 -49h-207q-66 0 -107 57l-200 289l-185 275h-6v-572q0 -49 -47 -49h-293q-49 0 -49 49zM255 1736.5q1 10.5 21 30.5l76 86 q20 18 31.5 16.5t38.5 -20.5l278 -161l291 161q25 18 36 19.5t34 -15.5l80 -86q20 -20 21 -30.5t-19 -34.5l-273 -250q-14 -16 -21 -22.5t-23.5 -10.5t-45.5 -4h-147q-27 0 -45.5 6t-23.5 12.5t-23 24.5l-267 244q-20 24 -19 34.5z" />
<glyph unicode="&#x148;" horiz-adv-x="1187" d="M97 1444q1 10 22 31l84 84q20 18 31.5 16t37.5 -21l279 -202l291 202q25 18 36 19.5t33 -14.5l86 -82q20 -20 21.5 -30.5t-19.5 -35.5l-278 -295q-14 -16 -21.5 -22.5t-24 -10.5t-44.5 -4h-148q-27 0 -45 6.5t-23 12.5t-24 24l-274 287q-21 25 -20 35zM113 49v920 q0 49 49 49h289q47 0 47 -49v-39l4 -2q139 106 305 106q86 0 147.5 -27.5t93 -65.5t50 -100.5t21.5 -108.5t3 -114v-569q0 -49 -47 -49h-289q-49 0 -49 49v504q0 74 -25.5 98.5t-78.5 24.5q-47 0 -135 -33v-594q0 -49 -47 -49h-289q-49 0 -49 49z" />
<glyph unicode="&#x149;" horiz-adv-x="1492" d="M1 1352.5q-1 21.5 42 58.5l158 121q43 25 62.5 18.5t55.5 -41.5q45 -43 71 -108.5t26 -122.5q0 -135 -60.5 -240.5t-156.5 -163.5q-53 -29 -95 17l-65 67q-31 33 -29 46.5t37 52.5q47 51 47 125q0 47 -55 110q-37 39 -38 60.5zM418 49v920q0 49 49 49h289q47 0 47 -49 v-39l4 -2q139 106 305 106q86 0 147.5 -27.5t93 -65.5t50 -100.5t21.5 -108.5t3 -114v-569q0 -49 -47 -49h-288q-49 0 -50 49v504q0 74 -25.5 98.5t-78.5 24.5q-47 0 -135 -33v-594q0 -49 -47 -49h-289q-49 0 -49 49z" />
<glyph unicode="&#x14a;" horiz-adv-x="1409" d="M133 49v1264q0 49 49 49h209q31 0 49.5 -6t26.5 -14.5t22 -28.5l224 -332l166 -250l8 2v580q0 49 47 49h293q49 0 49 -49v-1422q0 -172 -101.5 -273t-312.5 -101q-106 0 -162 14q-27 8 -24 43l20 233q2 25 35 27q100 8 130 34t30 101v121l-178 256l-185 275h-6v-572 q0 -49 -47 -49h-293q-49 0 -49 49z" />
<glyph unicode="&#x14b;" horiz-adv-x="1187" d="M92 49v920q0 49 49 49h289q47 0 47 -49v-39l4 -2q139 106 305 106q86 0 147.5 -27.5t93.5 -65.5t50.5 -100.5t21.5 -108.5t3 -114v-727q0 -172 -101.5 -273t-312.5 -101q-106 0 -162 14q-27 8 -24 43l20 233q2 25 35 27q100 8 130 34t30 101v584q0 74 -25.5 98.5 t-79.5 24.5q-47 0 -135 -33v-594q0 -49 -47 -49h-289q-49 0 -49 49z" />
<glyph unicode="&#x14c;" horiz-adv-x="1458" d="M113 698q0 70 8 133.5t28.5 146.5t64.5 149.5t107.5 126t167 92t234.5 32.5q154 0 269.5 -41t181 -104.5t105.5 -157.5t53.5 -182t13.5 -194.5t-11.5 -192.5t-49.5 -188.5t-102.5 -172t-182 -116.5t-277.5 -47t-276.5 47t-179 116.5t-99.5 173t-46 188.5t-9 191z M344 1497v176q0 49 49 49h672q29 0 38 -11t9 -36v-178q0 -29 -9 -40t-38 -11h-672q-49 0 -49 51zM539 676q0 -190 42 -270t146 -80q109 0 156 81.5t47 268.5q0 199 -44 278.5t-159 79.5q-104 0 -146 -81.5t-42 -276.5z" />
<glyph unicode="&#x14d;" horiz-adv-x="1169" d="M82 522q0 66 8 124.5t39 133t82 129t145.5 91t221.5 36.5q510 0 509 -514q0 -80 -7 -141.5t-36.5 -140t-82 -131t-150.5 -89t-233 -36.5q-133 0 -229.5 36.5t-146.5 89t-79 131t-35 140t-6 141.5zM201 1198v176q0 49 49 49h672q29 0 38 -11t9 -36v-178q0 -29 -9.5 -40 t-37.5 -11h-672q-49 0 -49 51zM471 510q0 -111 22.5 -157t84.5 -46q70 0 94 48t24 155q0 109 -22.5 155t-91.5 46q-111 0 -111 -201z" />
<glyph unicode="&#x14e;" horiz-adv-x="1458" d="M113 698q0 70 8 133.5t28.5 146.5t64.5 149.5t107.5 126t167 92t234.5 32.5q154 0 269.5 -41t181 -104.5t105.5 -157.5t53.5 -182t13.5 -194.5t-11.5 -192.5t-49.5 -188.5t-102.5 -172t-182 -116.5t-277.5 -47t-276.5 47t-179 116.5t-99.5 173t-46 188.5t-9 191z M258 1705q-2 17 25 46l88 70q23 16 39 15t22 -7t29 -31q109 -129 254 -129q162 0 256 129q23 31 40 35t50 -14l86 -52q33 -27 31 -47t-29 -65q-139 -244 -428 -244q-139 0 -260 59.5t-180 176.5q-21 41 -23 58zM539 676q0 -190 42 -270t146 -80q109 0 156 81.5t47 268.5 q0 199 -44 278.5t-159 79.5q-104 0 -146 -81.5t-42 -276.5z" />
<glyph unicode="&#x14f;" horiz-adv-x="1169" d="M82 522q0 66 8 124.5t39 133t82 129t145.5 91t221.5 36.5q510 0 509 -514q0 -80 -7 -141.5t-36.5 -140t-82 -131t-150.5 -89t-233 -36.5q-133 0 -229.5 36.5t-146.5 89t-79 131t-35 140t-6 141.5zM112 1428.5q3 17.5 21 31.5l88 70q23 16 39 15t22.5 -7t28.5 -31 q72 -84 127.5 -117.5t130.5 -33.5q139 0 252 151q23 31 40.5 35t49.5 -14l86 -51q23 -14 27 -32t-1 -33t-24 -48q-145 -276 -428 -277q-137 0 -261 71t-179 198q-14 31 -18 43t-1 29.5zM471 510q0 -111 22.5 -157t84.5 -46q70 0 94 48t24 155q0 109 -22.5 155t-91.5 46 q-111 0 -111 -201z" />
<glyph unicode="&#x150;" horiz-adv-x="1458" d="M113 698q0 70 8 133.5t28.5 146.5t64.5 149.5t107.5 126t167 92t234.5 32.5q154 0 269.5 -41t181 -104.5t105.5 -157.5t53.5 -182t13.5 -194.5t-11.5 -192.5t-49.5 -188.5t-102.5 -172t-182 -116.5t-277.5 -47t-276.5 47t-179 116.5t-99.5 173t-46 188.5t-9 191z M301 1524q-27 33 4 59l334 277q43 35 72 -2l133 -170q37 -43 -17 -74l-368 -209q-41 -27 -66 2zM539 676q0 -190 42 -270t146 -80q109 0 156 81.5t47 268.5q0 199 -44 278.5t-159 79.5q-104 0 -146 -81.5t-42 -276.5zM842 1524q-27 33 4 59l334 277q43 35 71 -2l133 -170 q37 -43 -16 -74l-369 -209q-41 -27 -65 2z" />
<glyph unicode="&#x151;" horiz-adv-x="1169" d="M82 522q0 66 8 124.5t39 133t82 129t145.5 91t221.5 36.5q510 0 509 -514q0 -80 -7 -141.5t-36.5 -140t-82 -131t-150.5 -89t-233 -36.5q-133 0 -229.5 36.5t-146.5 89t-79 131t-35 140t-6 141.5zM260 1233l211 379q27 47 68 24l184 -110q49 -27 12 -76l-268 -328 q-31 -39 -61 -20l-130 74q-36 22 -16 57zM471 510q0 -111 22.5 -157t84.5 -46q70 0 94 48t24 155q0 109 -22.5 155t-91.5 46q-111 0 -111 -201zM664 1233l210 379q27 47 68 24l184 -110q49 -27 13 -76l-269 -328q-31 -39 -61 -20l-129 74q-36 22 -16 57z" />
<glyph unicode="&#x152;" horiz-adv-x="1781" d="M113 698q0 70 8 133.5t28.5 146.5t64.5 149.5t107.5 126t167 92t234.5 32.5q94 0 180 -16h729q23 0 36 -13.5t13 -35.5v-236q0 -45 -49 -45h-481v-164h412q23 0 36 -14t13 -35v-235q0 -45 -49 -45h-412v-209h489q23 0 36.5 -13.5t13.5 -35.5v-236q0 -45 -50 -45h-731 q-82 -18 -186 -18q-160 0 -276.5 47t-179 116.5t-99.5 173t-46 188.5t-9 191zM539 676q0 -190 42 -270t146 -80h23v706q-4 0 -11.5 1t-11.5 1q-104 0 -146 -81.5t-42 -276.5z" />
<glyph unicode="&#x153;" horiz-adv-x="1753" d="M82 522q0 66 8 124.5t39 133t82 129t145.5 91t221.5 36.5q205 0 317 -96q117 96 301 96q485 0 485 -473q0 -72 -27.5 -105.5t-94.5 -33.5h-465q8 -80 56 -103.5t144 -23.5q86 0 222 18q47 6 59 -2t20 -51l21 -121q12 -45 1 -68.5t-69 -45.5q-131 -45 -329 -45 q-215 0 -328 102q-106 -100 -313 -100q-133 0 -229.5 36.5t-146.5 89t-79 131t-35 140t-6 141.5zM471 510q0 -111 22.5 -157t84.5 -46q70 0 94 48t24 155q0 109 -22.5 155t-91.5 46q-111 0 -111 -201zM1104 645h178q0 43 -22.5 70.5t-61.5 27.5t-65.5 -25.5t-28.5 -72.5z " />
<glyph unicode="&#x154;" horiz-adv-x="1298" d="M133 49v1264q0 49 49 49h543q190 0 330.5 -109.5t140.5 -318.5q0 -256 -205 -367l238 -508q29 -59 -31 -59h-313q-72 0 -97 53l-182 441h-71v-445q0 -49 -48 -49h-305q-49 0 -49 49zM440 1569q-23 35 13 57l366 232q49 27 72 -13l108 -186q33 -47 -24 -70l-393 -159 q-45 -18 -66 10zM535 813h122q125 0 125 113q0 51 -32.5 78.5t-87.5 27.5h-127v-219z" />
<glyph unicode="&#x155;" horiz-adv-x="919" d="M115 49v920q0 49 49 49h289q47 0 47 -49v-105l4 -4q59 63 144 111.5t147 56.5q29 4 46 3t25 -14t13 -44l30 -254q4 -23 1 -35t-17 -19.5t-53 -15.5q-207 -39 -340 -86v-514q0 -49 -47 -49h-289q-49 0 -49 49zM246 1233l211 379q27 47 67 24l185 -110q49 -27 12 -76 l-268 -328q-31 -39 -62 -20l-129 74q-36 22 -16 57z" />
<glyph unicode="&#x156;" horiz-adv-x="1298" d="M133 49v1264q0 49 49 49h543q190 0 330.5 -109.5t140.5 -318.5q0 -256 -205 -367l238 -508q29 -59 -31 -59h-313q-72 0 -97 53l-182 441h-71v-445q0 -49 -48 -49h-305q-49 0 -49 49zM431 -218.5q-1 21.5 42 58.5l158 121q43 25 62.5 18.5t56.5 -40.5q45 -43 70.5 -109 t25.5 -123q0 -135 -60.5 -240.5t-156.5 -162.5q-53 -29 -94 16l-66 68q-31 33 -29 46t37 52q47 51 47 125q0 47 -55 110q-37 39 -38 60.5zM535 813h122q125 0 125 113q0 51 -32.5 78.5t-87.5 27.5h-127v-219z" />
<glyph unicode="&#x157;" horiz-adv-x="919" d="M85 -259.5q-1 21.5 42 58.5l158 121q43 25 62.5 18.5t55.5 -40.5q45 -43 71 -108.5t26 -123.5q0 -135 -60.5 -240.5t-156.5 -162.5q-53 -29 -95 16l-65 68q-31 33 -29 46t37 52q47 51 47 125q0 47 -55 111q-37 38 -38 59.5zM115 49v920q0 49 49 49h289q47 0 47 -49v-105 l4 -4q59 63 144 111.5t147 56.5q29 4 46 3t25 -14t13 -44l30 -254q4 -23 1 -35t-17 -19.5t-53 -15.5q-207 -39 -340 -86v-514q0 -49 -47 -49h-289q-49 0 -49 49z" />
<glyph unicode="&#x158;" horiz-adv-x="1298" d="M133 49v1264q0 49 49 49h543q190 0 330.5 -109.5t140.5 -318.5q0 -256 -205 -367l238 -508q29 -59 -31 -59h-313q-72 0 -97 53l-182 441h-71v-445q0 -49 -48 -49h-305q-49 0 -49 49zM173 1736.5q1 10.5 22 30.5l75 86q20 18 31.5 16.5t38.5 -20.5l278 -161l291 161 q25 18 36 19.5t34 -15.5l80 -86q20 -20 21 -30.5t-19 -34.5l-273 -250q-14 -16 -21 -22.5t-23.5 -10.5t-45.5 -4h-147q-27 0 -45.5 6t-23.5 12.5t-23 24.5l-266 244q-21 24 -20 34.5zM535 813h122q125 0 125 113q0 51 -32.5 78.5t-87.5 27.5h-127v-219z" />
<glyph unicode="&#x159;" horiz-adv-x="919" d="M-48 1444q1 10 21 31l84 84q20 18 31.5 16t38.5 -21l279 -202l290 202q25 18 36 19.5t34 -14.5l86 -82q20 -20 21 -30.5t-19 -35.5l-279 -295q-14 -16 -21 -22.5t-23.5 -10.5t-45.5 -4h-147q-27 0 -45.5 6.5t-23.5 12.5t-23 24l-275 287q-20 25 -19 35zM115 49v920 q0 49 49 49h289q47 0 47 -49v-105l4 -4q59 63 144 111.5t147 56.5q29 4 46 3t25 -14t13 -44l30 -254q4 -23 1 -35t-17 -19.5t-53 -15.5q-207 -39 -340 -86v-514q0 -49 -47 -49h-289q-49 0 -49 49z" />
<glyph unicode="&#x15a;" horiz-adv-x="1243" d="M92 946q0 205 141.5 317.5t378.5 112.5q248 0 404 -61q41 -16 58.5 -31.5t17.5 -33t-5 -42.5l-34 -149q-10 -47 -34 -53.5t-77 4.5q-154 20 -293 20q-133 0 -133 -76q0 -39 25.5 -54t105.5 -36q229 -55 320 -106q184 -106 184 -336q0 -121 -48 -210t-131 -137 t-180.5 -70.5t-209.5 -22.5q-242 0 -410 65q-41 16 -58.5 31.5t-17.5 33t4 42.5l31 147q10 47 28.5 55.5t69.5 -2.5q215 -29 357 -28q80 0 114.5 20.5t34.5 67.5q0 29 -19.5 46t-42 24.5t-83.5 23.5q-90 23 -143.5 38t-130 51t-118.5 78t-74 112.5t-32 158.5zM379 1569 q-23 35 12 57l367 232q49 27 71 -13l109 -186q33 -47 -25 -70l-393 -159q-45 -18 -65 10z" />
<glyph unicode="&#x15b;" horiz-adv-x="1048" d="M76 150l28 120q8 35 21.5 42t52.5 -1q156 -29 295 -28q113 0 113 43q0 23 -17.5 31t-60.5 12q-84 10 -136.5 20t-113.5 32.5t-95 55.5t-56.5 87t-22.5 128q0 166 125 255t321 89q184 0 320 -45q45 -16 62.5 -24.5t28.5 -27.5t3 -52l-31 -129q-8 -35 -17 -41t-48 -2 q-168 20 -299 26q-37 2 -56.5 -4t-22.5 -12t-3 -18q0 -27 90 -37q100 -12 162.5 -27.5t128 -49.5t97.5 -98.5t32 -158.5q0 -186 -137.5 -270t-347.5 -84q-180 0 -326 45q-68 20 -85 45t-5 78zM358 1233l211 379q27 47 68 24l184 -110q49 -27 13 -76l-269 -328 q-31 -39 -61 -20l-129 74q-37 22 -17 57z" />
<glyph unicode="&#x15c;" horiz-adv-x="1243" d="M92 946q0 205 141.5 317.5t378.5 112.5q248 0 404 -61q41 -16 58.5 -31.5t17.5 -33t-5 -42.5l-34 -149q-10 -47 -34 -53.5t-77 4.5q-154 20 -293 20q-133 0 -133 -76q0 -39 25.5 -54t105.5 -36q229 -55 320 -106q184 -106 184 -336q0 -121 -48 -210t-131 -137 t-180.5 -70.5t-209.5 -22.5q-242 0 -410 65q-41 16 -58.5 31.5t-17.5 33t4 42.5l31 147q10 47 28.5 55.5t69.5 -2.5q215 -29 357 -28q80 0 114.5 20.5t34.5 67.5q0 29 -19.5 46t-42 24.5t-83.5 23.5q-90 23 -143.5 38t-130 51t-118.5 78t-74 112.5t-32 158.5zM177 1526 q-1 10 20 35l270 245q4 4 12 11.5t11.5 10.5t10.5 8t14 7t18.5 4t25.5 2h148h21q9 0 17.5 -3t12.5 -3t11 -6t8 -6t9 -8l11 -11l274 -249q20 -23 19.5 -34t-21.5 -32l-82 -88q-23 -16 -32 -15t-37 19l-291 182l-279 -182q-27 -18 -38 -20t-31 16l-80 86q-21 21 -22 31z" />
<glyph unicode="&#x15d;" horiz-adv-x="1048" d="M46 1186q-1 10 20 35l274 286q2 2 7 8.5t6 7.5l6 6q5 5 7.5 6t7.5 4t8 4l9 3q6 2 12.5 2t13.5 1t15 1h148q39 0 54 -7t36 -30l278 -294q20 -25 19.5 -35t-21.5 -31l-86 -82q-23 -16 -34 -15t-35 19l-291 203l-279 -203q-27 -18 -38 -20t-31 16l-84 84q-21 21 -22 31z M76 150l28 120q8 35 21.5 42t52.5 -1q156 -29 295 -28q113 0 113 43q0 23 -17.5 31t-60.5 12q-84 10 -136.5 20t-113.5 32.5t-95 55.5t-56.5 87t-22.5 128q0 166 125 255t321 89q184 0 320 -45q45 -16 62.5 -24.5t28.5 -27.5t3 -52l-31 -129q-8 -35 -17 -41t-48 -2 q-168 20 -299 26q-37 2 -56.5 -4t-22.5 -12t-3 -18q0 -27 90 -37q100 -12 162.5 -27.5t128 -49.5t97.5 -98.5t32 -158.5q0 -186 -137.5 -270t-347.5 -84q-180 0 -326 45q-68 20 -85 45t-5 78z" />
<glyph unicode="&#x15e;" horiz-adv-x="1243" d="M92 946q0 205 141.5 317.5t378.5 112.5q248 0 404 -61q41 -16 58.5 -31.5t17.5 -33t-5 -42.5l-34 -149q-10 -47 -34 -53.5t-77 4.5q-154 20 -293 20q-133 0 -133 -76q0 -39 25.5 -54t105.5 -36q229 -55 320 -106q184 -106 184 -336q0 -211 -137 -315.5t-350 -120.5 l-33 -86q131 -6 178 -54.5t47 -126.5q0 -102 -78 -169.5t-235 -67.5q-115 0 -189 24q-25 8 -18 27l20 105q2 14 27 12q86 -12 137 -12q61 0 94 17t33 71q0 10 -2 17t-6 13t-9 9.5t-14.5 6.5t-17.5 4t-22.5 2t-24.5 2t-29.5 2t-34.5 1q-49 6 -30 53l51 148q-209 14 -336 63 q-41 16 -58.5 31.5t-17.5 33t4 42.5l31 147q10 47 28.5 55.5t69.5 -2.5q215 -29 357 -28q80 0 114.5 20.5t34.5 67.5q0 29 -19.5 46t-42 24.5t-83.5 23.5q-90 23 -143.5 38t-130 51t-118.5 78t-74 112.5t-32 158.5z" />
<glyph unicode="&#x15f;" horiz-adv-x="1048" d="M76 150l28 120q8 35 21.5 42t52.5 -1q156 -29 295 -28q113 0 113 43q0 23 -17.5 31t-60.5 12q-84 10 -136.5 20t-113.5 32.5t-95 55.5t-56.5 87t-22.5 128q0 166 125 255t321 89q184 0 320 -45q45 -16 62.5 -24.5t28.5 -27.5t3 -52l-31 -129q-8 -35 -17 -41t-48 -2 q-168 20 -299 26q-37 2 -56.5 -4t-22.5 -12t-3 -18q0 -27 90 -37q100 -12 162.5 -27.5t128 -49.5t97.5 -98.5t32 -158.5q0 -164 -107.5 -248t-281.5 -100l-33 -88q131 -6 178 -54.5t47 -126.5q0 -102 -77.5 -169.5t-235.5 -67.5q-115 0 -188 24q-25 8 -19 27l21 105 q2 14 26 12q86 -12 137 -12q61 0 94 17t33 71q0 10 -2 17t-6 13t-9 9.5t-14.5 6.5t-17.5 4t-22.5 2t-24.5 2t-29.5 2t-33.5 1q-49 6 -31 53l51 148q-168 12 -266 43q-68 20 -85 45t-5 78z" />
<glyph unicode="&#x160;" horiz-adv-x="1243" d="M92 946q0 205 141.5 317.5t378.5 112.5q248 0 404 -61q41 -16 58.5 -31.5t17.5 -33t-5 -42.5l-34 -149q-10 -47 -34 -53.5t-77 4.5q-154 20 -293 20q-133 0 -133 -76q0 -39 25.5 -54t105.5 -36q229 -55 320 -106q184 -106 184 -336q0 -121 -48 -210t-131 -137 t-180.5 -70.5t-209.5 -22.5q-242 0 -410 65q-41 16 -58.5 31.5t-17.5 33t4 42.5l31 147q10 47 28.5 55.5t69.5 -2.5q215 -29 357 -28q80 0 114.5 20.5t34.5 67.5q0 29 -19.5 46t-42 24.5t-83.5 23.5q-90 23 -143.5 38t-130 51t-118.5 78t-74 112.5t-32 158.5zM161 1736.5 q1 10.5 21 30.5l76 86q20 18 31.5 16.5t38.5 -20.5l278 -161l291 161q25 18 36 19.5t34 -15.5l80 -86q20 -20 21 -30.5t-19 -34.5l-273 -250q-14 -16 -21 -22.5t-23.5 -10.5t-45.5 -4h-147q-27 0 -45.5 6t-23.5 12.5t-24 24.5l-266 244q-20 24 -19 34.5z" />
<glyph unicode="&#x161;" horiz-adv-x="1048" d="M67 1444q1 10 21 31l84 84q20 18 31.5 16t38.5 -21l278 -202l291 202q25 18 36 19.5t34 -14.5l86 -82q20 -20 21 -30.5t-19 -35.5l-279 -295q-14 -16 -21 -22.5t-23.5 -10.5t-45.5 -4h-147q-27 0 -45.5 6.5t-23.5 12.5t-24 24l-274 287q-20 25 -19 35zM76 150l28 120 q8 35 21.5 42t52.5 -1q156 -29 295 -28q113 0 113 43q0 23 -17.5 31t-60.5 12q-84 10 -136.5 20t-113.5 32.5t-95 55.5t-56.5 87t-22.5 128q0 166 125 255t321 89q184 0 320 -45q45 -16 62.5 -24.5t28.5 -27.5t3 -52l-31 -129q-8 -35 -17 -41t-48 -2q-168 20 -299 26 q-37 2 -56.5 -4t-22.5 -12t-3 -18q0 -27 90 -37q100 -12 162.5 -27.5t128 -49.5t97.5 -98.5t32 -158.5q0 -186 -137.5 -270t-347.5 -84q-180 0 -326 45q-68 20 -85 45t-5 78z" />
<glyph unicode="&#x162;" horiz-adv-x="1103" d="M20 1077v236q0 49 50 49h964q23 0 36 -13.5t13 -35.5v-236q0 -45 -49 -45h-282v-983q0 -49 -47 -49h-306q-49 0 -49 49v983h-280q-50 0 -50 45zM312 -259.5q-1 21.5 42 58.5l158 121q43 25 62.5 18.5t56.5 -40.5q45 -43 70.5 -108.5t25.5 -123.5q0 -135 -60.5 -240.5 t-156.5 -162.5q-53 -29 -94 16l-66 68q-31 33 -28.5 46t36.5 52q47 51 48 125q0 47 -56 111q-37 38 -38 59.5z" />
<glyph unicode="&#x163;" horiz-adv-x="919" d="M49 772v197q0 49 49 49h82v192q0 43 49 58l265 69q59 14 59 -43v-276h201q29 0 38 -11.5t9 -35.5v-199q0 -29 -9.5 -40t-37.5 -11h-205v-242q0 -88 21.5 -120.5t79 -36t161.5 7.5q35 2 44 -3t13 -34l27 -180q8 -55 -47 -76q-137 -53 -342 -53q-174 0 -252 81.5t-78 243.5 v412h-78q-49 0 -49 51zM218 -259.5q-1 21.5 42 58.5l158 121q43 25 62.5 18.5t56.5 -40.5q45 -43 70.5 -108.5t25.5 -123.5q0 -135 -60.5 -240.5t-156.5 -162.5q-53 -29 -94 16l-66 68q-31 33 -29 46t37 52q47 51 47 125q0 47 -55 111q-37 38 -38 59.5z" />
<glyph unicode="&#x164;" horiz-adv-x="1103" d="M20 1077v236q0 49 50 49h964q23 0 36 -13.5t13 -35.5v-236q0 -45 -49 -45h-282v-983q0 -49 -47 -49h-306q-49 0 -49 49v983h-280q-50 0 -50 45zM99 1736.5q1 10.5 22 30.5l76 86q20 18 31.5 16.5t37.5 -20.5l279 -161l291 161q25 18 36 19.5t33 -15.5l80 -86 q20 -20 21.5 -30.5t-19.5 -34.5l-272 -250q-14 -16 -21.5 -22.5t-24 -10.5t-44.5 -4h-148q-27 0 -45 6t-23.5 12.5t-23.5 24.5l-266 244q-21 24 -20 34.5z" />
<glyph unicode="&#x165;" horiz-adv-x="1107" d="M49 772v197q0 49 49 49h82v192q0 43 49 58l265 69q59 14 59 -43v-276h201q29 0 38 -11.5t9 -35.5v-199q0 -29 -9.5 -40t-37.5 -11h-205v-242q0 -88 21.5 -120.5t79 -36t161.5 7.5q35 2 44 -3t13 -34l27 -180q8 -55 -47 -76q-137 -53 -342 -53q-174 0 -252 81.5t-78 243.5 v412h-78q-49 0 -49 51zM732 1498.5q-1 21.5 42 57.5l158 121q43 25 62.5 19t56.5 -41q45 -43 70.5 -108.5t25.5 -123.5q0 -135 -60.5 -240.5t-156.5 -162.5q-53 -29 -94 16l-66 68q-31 33 -29 46t37 52q47 51 47 125q0 47 -55 111q-37 39 -38 60.5z" />
<glyph unicode="&#x166;" horiz-adv-x="1103" d="M20 1077v236q0 49 50 49h964q23 0 36 -13.5t13 -35.5v-236q0 -45 -49 -45h-282v-203h184q29 0 38 -11t9 -36v-129q0 -29 -9 -40t-38 -11h-184v-553q0 -49 -47 -49h-306q-49 0 -49 49v553h-166q-49 0 -49 51v127q0 49 49 49h166v203h-280q-50 0 -50 45z" />
<glyph unicode="&#x167;" horiz-adv-x="919" d="M49 772v197q0 49 49 49h82v192q0 43 49 58l265 69q59 14 59 -43v-276h201q29 0 38 -11.5t9 -35.5v-199q0 -29 -9.5 -40t-37.5 -11h-205v-82h174q29 0 38 -11.5t9 -35.5v-129q0 -29 -9 -40t-38 -11h-170q10 -74 66.5 -86.5t191.5 4.5q35 2 44 -3t13 -34l27 -180 q8 -55 -47 -76q-137 -53 -342 -53q-174 0 -252 81.5t-78 243.5v103h-67q-49 0 -50 51v127q0 49 50 49h67v82h-78q-49 0 -49 51z" />
<glyph unicode="&#x168;" horiz-adv-x="1388" d="M135 514v799q0 49 49 49h303q47 0 48 -49v-787q0 -203 157 -202q164 0 164 202l-2 787q0 49 49 49h303q47 0 47 -49v-799q0 -145 -41 -246q-61 -145 -203.5 -216.5t-316.5 -71.5q-283 0 -428 159q-129 142 -129 375zM246 1518q102 262 295 262q68 0 185.5 -48.5 t156.5 -48.5q74 0 121 78q18 29 63 4l92 -51q20 -12 24.5 -20t-1.5 -33q-59 -137 -132 -191.5t-165 -54.5q-47 0 -171 47t-167 47q-74 0 -127 -75q-14 -20 -22.5 -22.5t-37.5 9.5l-94 45q-34 17 -20 52z" />
<glyph unicode="&#x169;" horiz-adv-x="1175" d="M86 393v576q0 49 47 49h289q49 0 49 -49v-504q0 -74 25.5 -98.5t78.5 -24.5q35 0 123 33v594q0 49 47 49h289q49 0 49 -49v-920q0 -49 -49 -49h-289q-47 0 -47 49v39l-4 2q-139 -106 -303 -106q-63 0 -111.5 13t-80 31.5t-54 53.5t-34 64.5t-17.5 78.5t-7 81t-1 87z M135 1210q102 262 295 263q68 0 185.5 -48.5t156.5 -48.5q74 0 121 78q18 29 63 4l93 -51q20 -12 24 -20.5t-2 -32.5q-59 -137 -132 -191.5t-165 -54.5q-47 0 -171 47t-167 47q-74 0 -127 -76q-14 -20 -22 -22t-37 10l-94 45q-35 16 -21 51z" />
<glyph unicode="&#x16a;" horiz-adv-x="1388" d="M135 514v799q0 49 49 49h303q47 0 48 -49v-787q0 -203 157 -202q164 0 164 202l-2 787q0 49 49 49h303q47 0 47 -49v-799q0 -145 -41 -246q-61 -145 -203.5 -216.5t-316.5 -71.5q-283 0 -428 159q-129 142 -129 375zM309 1487v176q0 49 49 49h672q29 0 38 -11t9 -36v-178 q0 -29 -9 -40t-38 -11h-672q-49 0 -49 51z" />
<glyph unicode="&#x16b;" horiz-adv-x="1175" d="M86 393v576q0 49 47 49h289q49 0 49 -49v-504q0 -74 25.5 -98.5t78.5 -24.5q35 0 123 33v594q0 49 47 49h289q49 0 49 -49v-920q0 -49 -49 -49h-289q-47 0 -47 49v39l-4 2q-139 -106 -303 -106q-63 0 -111.5 13t-80 31.5t-54 53.5t-34 64.5t-17.5 78.5t-7 81t-1 87z M195 1198v176q0 49 49 49h671q29 0 38.5 -11t9.5 -36v-178q0 -29 -9.5 -40t-38.5 -11h-671q-49 0 -49 51z" />
<glyph unicode="&#x16c;" horiz-adv-x="1388" d="M135 514v799q0 49 49 49h303q47 0 48 -49v-787q0 -203 157 -202q164 0 164 202l-2 787q0 49 49 49h303q47 0 47 -49v-799q0 -145 -41 -246q-61 -145 -203.5 -216.5t-316.5 -71.5q-283 0 -428 159q-129 142 -129 375zM218 1735.5q3 17.5 22 31.5l88 70q23 16 39 15t22 -7 t29 -30q72 -84 127 -118t131 -34q139 0 252 152q23 31 40 34.5t50 -14.5l86 -51q23 -14 27 -31.5t-1.5 -33t-23.5 -48.5q-145 -276 -428 -276q-137 0 -261 70.5t-179 197.5q-14 31 -18.5 43t-1.5 29.5z" />
<glyph unicode="&#x16d;" horiz-adv-x="1175" d="M86 393v576q0 49 47 49h289q49 0 49 -49v-504q0 -74 25.5 -98.5t78.5 -24.5q35 0 123 33v594q0 49 47 49h289q49 0 49 -49v-920q0 -49 -49 -49h-289q-47 0 -47 49v39l-4 2q-139 -106 -303 -106q-63 0 -111.5 13t-80 31.5t-54 53.5t-34 64.5t-17.5 78.5t-7 81t-1 87z M109.5 1428.5q3.5 17.5 21.5 31.5l88 70q23 16 39 15t22.5 -7t28.5 -31q72 -84 127.5 -117.5t130.5 -33.5q139 0 252 151q23 31 40.5 35t49.5 -14l86 -51q23 -14 27 -32t-1 -33t-24 -48q-145 -276 -428 -277q-137 0 -261 71t-179 198q-14 31 -18.5 43t-1 29.5z" />
<glyph unicode="&#x16e;" horiz-adv-x="1388" d="M135 514v799q0 49 49 49h303q47 0 48 -49v-787q0 -203 157 -202q164 0 164 202l-2 787q0 49 49 49h303q47 0 47 -49v-799q0 -145 -41 -246q-61 -145 -203.5 -216.5t-316.5 -71.5q-283 0 -428 159q-129 142 -129 375zM408 1647q0 117 86 194.5t200.5 77.5t196.5 -82 t82 -190q0 -113 -82 -194t-196.5 -81t-200.5 78t-86 197zM604 1647q0 -43 25.5 -69t64.5 -26q35 0 61.5 28t26.5 67t-26.5 65.5t-61.5 26.5q-37 0 -63.5 -26.5t-26.5 -65.5z" />
<glyph unicode="&#x16f;" horiz-adv-x="1175" d="M86 393v576q0 49 47 49h289q49 0 49 -49v-504q0 -74 25.5 -98.5t78.5 -24.5q35 0 123 33v594q0 49 47 49h289q49 0 49 -49v-920q0 -49 -49 -49h-289q-47 0 -47 49v39l-4 2q-139 -106 -303 -106q-63 0 -111.5 13t-80 31.5t-54 53.5t-34 64.5t-17.5 78.5t-7 81t-1 87z M301 1368q0 117 86 194.5t200.5 77.5t196.5 -81.5t82 -190.5q0 -113 -82 -193.5t-196.5 -80.5t-200.5 77.5t-86 196.5zM498 1368q0 -43 25.5 -68.5t64.5 -25.5q35 0 61.5 27.5t26.5 66.5t-26.5 65.5t-61.5 26.5q-37 0 -63.5 -26.5t-26.5 -65.5z" />
<glyph unicode="&#x170;" horiz-adv-x="1388" d="M135 514v799q0 49 49 49h303q47 0 48 -49v-787q0 -203 157 -202q164 0 164 202l-2 787q0 49 49 49h303q47 0 47 -49v-799q0 -145 -41 -246q-61 -145 -203.5 -216.5t-316.5 -71.5q-283 0 -428 159q-129 142 -129 375zM283 1524q-27 33 4 59l334 277q43 35 71 -2l133 -170 q35 -43 -16 -74l-369 -209q-41 -27 -65 2zM823 1524q-27 33 4 59l334 277q43 35 72 -2l133 -170q35 -43 -16 -74l-369 -209q-41 -27 -66 2z" />
<glyph unicode="&#x171;" horiz-adv-x="1175" d="M86 393v576q0 49 47 49h289q49 0 49 -49v-504q0 -74 25.5 -98.5t78.5 -24.5q35 0 123 33v594q0 49 47 49h289q49 0 49 -49v-920q0 -49 -49 -49h-289q-47 0 -47 49v39l-4 2q-139 -106 -303 -106q-63 0 -111.5 13t-80 31.5t-54 53.5t-34 64.5t-17.5 78.5t-7 81t-1 87z M231 1233l211 379q27 47 68 24l184 -110q49 -27 13 -76l-269 -328q-31 -39 -61 -20l-129 74q-37 22 -17 57zM635 1233l211 379q27 47 67 24l185 -110q49 -27 12 -76l-268 -328q-31 -39 -62 -20l-129 74q-36 22 -16 57z" />
<glyph unicode="&#x172;" horiz-adv-x="1388" d="M135 514v799q0 49 49 49h303q47 0 48 -49v-787q0 -203 157 -202q164 0 164 202l-2 787q0 49 49 49h303q47 0 47 -49v-799q0 -145 -41 -246q-55 -129 -172.5 -199.5t-267.5 -84.5q-31 -66 -31 -131.5t82 -65.5q55 0 111 16q37 12 45 -16l29 -90q12 -37 -27 -55 q-98 -47 -221 -47.5t-189.5 63t-66.5 170.5q0 84 49 164q-180 29 -289 147q-129 142 -129 375z" />
<glyph unicode="&#x173;" horiz-adv-x="1175" d="M86 393v576q0 49 47 49h289q49 0 49 -49v-504q0 -74 25.5 -98.5t78.5 -24.5q35 0 123 33v594q0 49 47 49h289q49 0 49 -49v-920q0 -49 -49 -49h-55q-39 -74 -39 -147q0 -66 82 -66q55 0 111 16q37 12 45 -16l28 -90q12 -37 -26 -55q-98 -47 -221 -47.5t-190 63t-67 170.5 q0 86 56 172h-13q-47 0 -47 49v39l-4 2q-139 -106 -303 -106q-63 0 -111.5 13t-80 31.5t-54 53.5t-34 64.5t-17.5 78.5t-7 81t-1 87z" />
<glyph unicode="&#x174;" horiz-adv-x="1855" d="M27 1303q-20 61 41 61h290q41 0 62.5 -14.5t30.5 -53.5l86 -401l79 -365h13l65 234l64 217l-105 324q-6 23 1.5 41t29.5 18h266q43 0 65.5 -14.5t31.5 -53.5l112 -458l72 -308h12l64 347l82 419q14 68 100 68h276q61 0 41 -61l-309 -1231q-23 -72 -111 -72h-225 q-53 0 -74.5 17.5t-33.5 56.5l-47 147l-66 207h-12l-68 -205l-53 -149q-8 -25 -16.5 -38t-32 -24.5t-60.5 -11.5h-225q-90 0 -111 72zM413 1526q-1 10 19 35l270 245q4 4 12.5 11.5t11.5 10.5t10 8t14.5 7t18.5 4t26 2h147h22q9 0 17 -3t12 -3t11.5 -6t8.5 -6t9 -8l10 -11 l275 -249q20 -23 19 -34t-21 -32l-82 -88q-23 -16 -32 -15t-38 19l-291 182l-278 -182q-27 -18 -38 -20t-32 16l-80 86q-20 21 -21 31z" />
<glyph unicode="&#x175;" horiz-adv-x="1622" d="M35 967q-16 51 39 51h284q33 0 48.5 -9.5t23.5 -41.5l53 -215l76 -310h12l56 168q39 117 47 140l-76 215q-8 25 1 39t34 14h250q37 0 49 -9.5t24 -50.5l66 -227l72 -260h12l68 313l38 177q8 33 20.5 45t39.5 12h282q53 0 39 -51l-262 -885q-25 -82 -102 -82h-217 q-63 0 -92 82l-37 102l-47 135h-9l-51 -135q-6 -12 -19.5 -48t-21.5 -54q-33 -82 -106 -82h-199q-43 0 -63.5 18.5t-36.5 63.5zM323 1186q-1 10 19 35l274 286q2 2 7.5 8.5t6.5 7.5l6 6q5 5 7 6t7 4t8 4l10 3q6 2 12 2t13 1t16 1h147q39 0 54.5 -7t35.5 -30l279 -294 q20 -25 19 -35t-21 -31l-86 -82q-23 -16 -34 -15t-36 19l-291 203l-278 -203q-27 -18 -38 -20t-32 16l-84 84q-20 21 -21 31z" />
<glyph unicode="&#x176;" horiz-adv-x="1402" d="M17.5 1345.5q7.5 18.5 33.5 18.5h301q41 0 59.5 -11.5t37.5 -47.5l112 -228l125 -260h12l127 260l105 207q18 33 25.5 45t25.5 23.5t45 11.5h311q27 0 34 -16.5t-5 -34.5l-485 -862v-402q0 -49 -47 -49h-306q-49 0 -49 49v402l-454 852q-15 24 -7.5 42.5zM232 1526 q-1 10 20 35l270 245q4 4 12.5 11.5t11.5 10.5t10 8t14.5 7t18.5 4t25 2h148h21q9 0 17.5 -3t12.5 -3t11 -6t8.5 -6t9.5 -8l10 -11l274 -249q20 -23 19.5 -34t-21.5 -32l-82 -88q-23 -16 -32 -15t-37 19l-291 182l-279 -182q-27 -18 -38 -20t-31 16l-80 86q-21 21 -22 31z " />
<glyph unicode="&#x177;" horiz-adv-x="1122" d="M20 958q-25 59 39 60h271q27 0 39 -2t24.5 -14.5t18.5 -36.5l67 -230l72 -258h12l82 266l70 226q8 27 25.5 38t60.5 11h246q41 0 49 -15.5t-6 -46.5l-496 -1318q-14 -35 -30.5 -45.5t-57.5 -10.5h-244q-37 0 -46 12.5t5 47.5l150 397zM110 1186q-1 10 19 35l274 286 q2 2 7.5 8.5t6.5 7.5l6 6q5 5 7 6t7 4t8 4l10 3q6 2 12 2t13 1t16 1h147q39 0 54.5 -7t35.5 -30l279 -294q20 -25 19 -35t-21 -31l-86 -82q-23 -16 -34 -15t-36 19l-291 203l-278 -203q-27 -18 -38 -20t-32 16l-84 84q-20 21 -21 31z" />
<glyph unicode="&#x178;" horiz-adv-x="1402" d="M17.5 1345.5q7.5 18.5 33.5 18.5h301q41 0 59.5 -11.5t37.5 -47.5l112 -228l125 -260h12l127 260l105 207q18 33 25.5 45t25.5 23.5t45 11.5h311q27 0 34 -16.5t-5 -34.5l-485 -862v-402q0 -49 -47 -49h-306q-49 0 -49 49v402l-454 852q-15 24 -7.5 42.5zM287 1573 q0 80 39 122t141 42q106 0 144 -41t38 -123q0 -80 -38 -125t-144 -45q-111 0 -145.5 45t-34.5 125zM739 1573q0 78 39 121t142 43q109 0 145.5 -40t36.5 -124q0 -82 -37 -126t-145.5 -44t-144.5 45t-36 125z" />
<glyph unicode="&#x179;" horiz-adv-x="1185" d="M92 49v207q0 51 31 92l518 684h-459q-49 0 -49 45v236q0 49 49 49h860q23 0 36.5 -13.5t13.5 -35.5l-2 -178q0 -72 -35 -119l-523 -686h512q49 0 50 -45v-236q0 -49 -50 -49h-903q-23 0 -36 14.5t-13 34.5zM383 1569q-23 35 12 57l367 232q49 27 72 -13l108 -186 q33 -47 -24 -70l-394 -159q-45 -18 -65 10z" />
<glyph unicode="&#x17a;" horiz-adv-x="999" d="M51 47v162q0 49 37 90l377 420h-336q-49 0 -49 51v199q0 49 49 49h752q29 0 38 -11.5t9 -35.5v-164q0 -49 -37 -92l-375 -418h377q49 0 49 -51v-197q0 -49 -49 -49h-795q-29 0 -38 11t-9 36zM369 1233l211 379q27 47 67 24l184 -110q49 -27 13 -76l-269 -328 q-31 -39 -61 -20l-129 74q-36 22 -16 57z" />
<glyph unicode="&#x17b;" horiz-adv-x="1185" d="M92 49v207q0 51 31 92l518 684h-459q-49 0 -49 45v236q0 49 49 49h860q23 0 36.5 -13.5t13.5 -35.5l-2 -178q0 -72 -35 -119l-523 -686h512q49 0 50 -45v-236q0 -49 -50 -49h-903q-23 0 -36 14.5t-13 34.5zM434 1638q0 180 197 181q113 0 154.5 -46.5t41.5 -134.5 q0 -182 -196 -182q-117 0 -157 51t-40 131z" />
<glyph unicode="&#x17c;" horiz-adv-x="999" d="M51 47v162q0 49 37 90l377 420h-336q-49 0 -49 51v199q0 49 49 49h752q29 0 38 -11.5t9 -35.5v-164q0 -49 -37 -92l-375 -418h377q49 0 49 -51v-197q0 -49 -49 -49h-795q-29 0 -38 11t-9 36zM342 1298q0 180 197 181q113 0 154.5 -46.5t41.5 -134.5q0 -182 -196 -182 q-117 0 -157 51t-40 131z" />
<glyph unicode="&#x17d;" horiz-adv-x="1185" d="M92 49v207q0 51 31 92l518 684h-459q-49 0 -49 45v236q0 49 49 49h860q23 0 36.5 -13.5t13.5 -35.5l-2 -178q0 -72 -35 -119l-523 -686h512q49 0 50 -45v-236q0 -49 -50 -49h-903q-23 0 -36 14.5t-13 34.5zM173 1736.5q1 10.5 22 30.5l75 86q20 18 31.5 16.5t38.5 -20.5 l278 -161l291 161q25 18 36 19.5t34 -15.5l80 -86q20 -20 21 -30.5t-19 -34.5l-273 -250q-14 -16 -21 -22.5t-23.5 -10.5t-45.5 -4h-147q-27 0 -45.5 6t-23.5 12.5t-23 24.5l-266 244q-21 24 -20 34.5z" />
<glyph unicode="&#x17e;" horiz-adv-x="999" d="M50 1444q1 10 22 31l84 84q20 18 31.5 16t37.5 -21l279 -202l291 202q25 18 36 19.5t33 -14.5l86 -82q20 -20 21.5 -30.5t-19.5 -35.5l-278 -295q-14 -16 -21.5 -22.5t-24 -10.5t-44.5 -4h-148q-27 0 -45 6.5t-23.5 12.5t-23.5 24l-274 287q-21 25 -20 35zM51 47v162 q0 49 37 90l377 420h-336q-49 0 -49 51v199q0 49 49 49h752q29 0 38 -11.5t9 -35.5v-164q0 -49 -37 -92l-375 -418h377q49 0 49 -51v-197q0 -49 -49 -49h-795q-29 0 -38 11t-9 36z" />
<glyph unicode="&#x192;" d="M57 -127l35 160q8 35 16.5 42t36.5 3q70 -8 117 -8q68 0 93.5 45t43.5 153l56 342h-123q-31 0 -40 8.5t-9 34.5l2 170q0 31 7 39t38 8h157l31 189q25 147 116 246.5t273 99.5q141 0 281 -41q25 -8 14 -47l-45 -180q-6 -25 -14 -30t-37 -1q-66 10 -94 10 q-72 0 -101.5 -33.5t-42.5 -107.5l-16 -105h156q31 0 41 -7t10 -34v-176q0 -31 -7.5 -37t-41.5 -6h-189l-86 -532q-20 -127 -114.5 -216t-264.5 -89q-164 0 -270 37q-39 14 -29 63z" />
<glyph unicode="&#x1a0;" horiz-adv-x="1458" d="M113 698q0 70 8 133.5t28.5 146.5t64.5 149.5t107.5 126t167 92t234.5 32.5q238 0 383 -96q51 8 66.5 49t15.5 144v88q0 29 31 28h215q29 0 28 -28v-195q0 -252 -172 -315q55 -141 56 -355q0 -106 -11.5 -192t-49.5 -188.5t-102.5 -172t-182 -116.5t-277.5 -47t-276.5 47 t-179 116.5t-99.5 173t-46 188.5t-9 191zM539 676q0 -190 42 -270t146 -80q109 0 156 81.5t47 268.5q0 199 -44 278.5t-159 79.5q-104 0 -146 -81.5t-42 -276.5z" />
<glyph unicode="&#x1a1;" horiz-adv-x="1212" d="M82 522q0 66 8 124.5t39 133t82 129t145.5 91t221.5 36.5q186 0 303 -67q41 12 54 52t13 136v88q0 29 31 29h215q29 0 29 -29v-194q0 -244 -164 -312q29 -92 28 -217q0 -80 -7 -141.5t-36.5 -140t-82 -131t-150.5 -89t-233 -36.5q-133 0 -229.5 36.5t-146.5 89t-79 131 t-35 140t-6 141.5zM471 510q0 -111 22.5 -157t84.5 -46q70 0 94 48t24 155q0 109 -22.5 155t-91.5 46q-111 0 -111 -201z" />
<glyph unicode="&#x1af;" horiz-adv-x="1550" d="M135 514v799q0 49 49 49h303q47 0 48 -49v-787q0 -203 157 -202q164 0 164 202l-2 787q0 49 49 49h303q47 0 47 -49v-23q47 8 61.5 41t14.5 119v117q0 29 31 28h215q29 0 29 -28v-199q0 -154 -73 -245t-222 -91h-56v-518q0 -145 -41 -246q-61 -145 -203.5 -216.5 t-316.5 -71.5q-283 0 -428 159q-129 142 -129 375z" />
<glyph unicode="&#x1b0;" horiz-adv-x="1427" d="M86 393v576q0 49 47 49h289q49 0 49 -49v-504q0 -74 25.5 -98.5t78.5 -24.5q35 0 123 33v594q0 49 47 49h289q49 0 49 -49v-4q57 6 75 45t18 147v88q0 29 30 29h215q29 0 29 -29v-194q0 -154 -72.5 -245t-222.5 -91h-72v-666q0 -49 -49 -49h-289q-47 0 -47 49v39l-4 2 q-139 -106 -303 -106q-63 0 -111.5 13t-80 31.5t-54 53.5t-34 64.5t-17.5 78.5t-7 81t-1 87z" />
<glyph unicode="&#x1fc;" horiz-adv-x="1951" d="M20 61l617 1242q18 37 38.5 48t76.5 11h1050q20 0 34.5 -13.5t14.5 -35.5v-236q0 -45 -49 -45h-506v-164h437q20 0 34.5 -14t14.5 -35v-235q0 -45 -49 -45h-437v-209h514q20 0 35 -13.5t15 -35.5v-236q0 -45 -50 -45h-868q-49 0 -49 49v232h-365l-108 -228 q-31 -53 -94 -53h-285q-54 0 -21 61zM680 580h213v448h-4zM981 1569q-23 35 12 57l367 232q49 27 72 -13l108 -186q33 -47 -24 -70l-394 -159q-45 -18 -65 10z" />
<glyph unicode="&#x1fd;" horiz-adv-x="1759" d="M90 293q-2 184 104.5 262t294.5 78h216v16q0 45 -29 64.5t-125 19.5q-84 0 -258 -18q-53 -8 -69.5 -2t-24.5 43l-29 131q-6 33 9.5 54.5t70.5 41.5q141 53 360 53q223 0 320 -86q106 86 264 86q485 0 485 -473q0 -150 -123 -149h-464q4 -35 16 -57.5t26.5 -35t44 -17.5 t50 -6t63.5 -1q86 0 221 18q47 6 59.5 -2t20.5 -51l21 -121q12 -45 1 -68.5t-69 -45.5q-131 -45 -329 -45q-283 0 -406 139q-168 -137 -408 -137q-102 0 -167.5 26.5t-95 76.5t-40 95t-10.5 111zM479 315q0 -31 13.5 -43t48.5 -12q88 0 178 45q-8 35 -17 109h-116 q-59 0 -83 -24t-24 -75zM776 1233l211 379q27 47 68 24l184 -110q49 -27 12 -76l-268 -328q-31 -39 -61 -20l-129 74q-37 22 -17 57zM1102 631h178q0 43 -22.5 77.5t-61.5 34.5t-64.5 -31.5t-29.5 -80.5z" />
<glyph unicode="&#x1fe;" horiz-adv-x="1458" d="M113 698q0 70 8 133.5t28.5 146.5t64.5 149.5t107.5 126t167 92t234.5 32.5q250 0 399 -106l62 76q20 25 30.5 26.5t28.5 -12.5l37 -29q20 -16 20 -27.5t-18 -35.5l-68 -84q131 -168 132 -488q0 -106 -11.5 -192t-49.5 -188.5t-102.5 -172t-182 -116.5t-277.5 -47 q-250 0 -397 110l-76 -94q-18 -23 -29.5 -25t-34.5 13l-34 28q-29 25 0 62l86 106q-125 166 -125 516zM539 676q0 -84 4 -119l334 412q-47 66 -150 65q-104 0 -146 -81.5t-42 -276.5zM578 1569q-23 35 12 57l366 232q49 27 72 -13l109 -186q33 -47 -25 -70l-393 -159 q-45 -18 -66 10zM580 406q45 -80 147 -80q109 0 156 81.5t47 268.5q0 68 -8 149z" />
<glyph unicode="&#x1ff;" horiz-adv-x="1169" d="M82 522q0 66 8 124.5t39 133t82 129t145.5 91t221.5 36.5q184 0 299 -65l73 90q20 25 30.5 27t29.5 -13l37 -28q20 -16 20 -27.5t-18 -36.5l-74 -90q113 -127 112 -371q0 -80 -7 -141.5t-36.5 -140t-82 -131t-150.5 -89t-233 -36.5q-178 0 -289 61l-51 -61 q-18 -23 -29.5 -25t-34.5 12l-35 29q-29 25 0 61l51 64q-108 125 -108 397zM453 1233l211 379q27 47 67 24l184 -110q49 -27 13 -76l-269 -328q-31 -39 -61 -20l-129 74q-36 22 -16 57zM471 471l180 221q-25 18 -69 19q-111 0 -111 -201v-39zM514 326q25 -18 64 -19 q70 0 94 48t24 155v39z" />
<glyph unicode="&#x218;" horiz-adv-x="1243" d="M92 946q0 205 141.5 317.5t378.5 112.5q248 0 404 -61q41 -16 58.5 -31.5t17.5 -33t-5 -42.5l-34 -149q-10 -47 -34 -53.5t-77 4.5q-154 20 -293 20q-133 0 -133 -76q0 -39 25.5 -54t105.5 -36q229 -55 320 -106q184 -106 184 -336q0 -121 -48 -210t-131 -137 t-180.5 -70.5t-209.5 -22.5q-242 0 -410 65q-41 16 -58.5 31.5t-17.5 33t4 42.5l31 147q10 47 28.5 55.5t69.5 -2.5q215 -29 357 -28q80 0 114.5 20.5t34.5 67.5q0 29 -19.5 46t-42 24.5t-83.5 23.5q-90 23 -143.5 38t-130 51t-118.5 78t-74 112.5t-32 158.5zM398 -259.5 q-1 21.5 42 58.5l158 121q43 25 62.5 18.5t56.5 -40.5q45 -43 70.5 -108.5t25.5 -123.5q0 -135 -60.5 -240.5t-156.5 -162.5q-53 -29 -94 16l-66 68q-31 33 -28.5 46t36.5 52q47 51 48 125q0 47 -56 111q-37 38 -38 59.5z" />
<glyph unicode="&#x219;" horiz-adv-x="1048" d="M76 150l28 120q8 35 21.5 42t52.5 -1q156 -29 295 -28q113 0 113 43q0 23 -17.5 31t-60.5 12q-84 10 -136.5 20t-113.5 32.5t-95 55.5t-56.5 87t-22.5 128q0 166 125 255t321 89q184 0 320 -45q45 -16 62.5 -24.5t28.5 -27.5t3 -52l-31 -129q-8 -35 -17 -41t-48 -2 q-168 20 -299 26q-37 2 -56.5 -4t-22.5 -12t-3 -18q0 -27 90 -37q100 -12 162.5 -27.5t128 -49.5t97.5 -98.5t32 -158.5q0 -186 -137.5 -270t-347.5 -84q-180 0 -326 45q-68 20 -85 45t-5 78zM310 -259.5q-1 21.5 42 58.5l158 121q43 25 62.5 18.5t56.5 -40.5 q45 -43 70.5 -108.5t25.5 -123.5q0 -135 -60.5 -240.5t-156.5 -162.5q-53 -29 -94 16l-66 68q-31 33 -28.5 46t36.5 52q47 51 47 125q0 47 -55 111q-37 38 -38 59.5z" />
<glyph unicode="&#x21a;" horiz-adv-x="1103" d="M20 1077v236q0 49 50 49h964q23 0 36 -13.5t13 -35.5v-236q0 -45 -49 -45h-282v-983q0 -49 -47 -49h-306q-49 0 -49 49v983h-280q-50 0 -50 45zM312 -259.5q-1 21.5 42 58.5l158 121q43 25 62.5 18.5t56.5 -40.5q45 -43 70.5 -108.5t25.5 -123.5q0 -135 -60.5 -240.5 t-156.5 -162.5q-53 -29 -94 16l-66 68q-31 33 -28.5 46t36.5 52q47 51 48 125q0 47 -56 111q-37 38 -38 59.5z" />
<glyph unicode="&#x21b;" horiz-adv-x="919" d="M49 772v197q0 49 49 49h82v192q0 43 49 58l265 69q59 14 59 -43v-276h201q29 0 38 -11.5t9 -35.5v-199q0 -29 -9.5 -40t-37.5 -11h-205v-242q0 -88 21.5 -120.5t79 -36t161.5 7.5q35 2 44 -3t13 -34l27 -180q8 -55 -47 -76q-137 -53 -342 -53q-174 0 -252 81.5t-78 243.5 v412h-78q-49 0 -49 51zM218 -259.5q-1 21.5 42 58.5l158 121q43 25 62.5 18.5t56.5 -40.5q45 -43 70.5 -108.5t25.5 -123.5q0 -135 -60.5 -240.5t-156.5 -162.5q-53 -29 -94 16l-66 68q-31 33 -29 46t37 52q47 51 47 125q0 47 -55 111q-37 38 -38 59.5z" />
<glyph unicode="&#x259;" horiz-adv-x="1142" d="M86 457q0 72 27.5 105.5t95.5 33.5h461q-8 80 -56.5 103.5t-144.5 23.5q-78 0 -213 -18q-47 -6 -59.5 2t-20.5 51l-20 121q-12 45 -1 68.5t68 45.5q131 45 322 45q156 0 261 -40t158.5 -116.5t75 -161.5t21.5 -198q0 -539 -500 -538q-475 0 -475 473zM477 385 q0 -117 90 -117q41 0 68 30t29 87h-187z" />
<glyph unicode="&#x2b9;" horiz-adv-x="673" d="M55 848l273 610q14 39 67 21l226 -107q49 -18 16 -67l-330 -574q-25 -35 -53 -22l-182 84q-31 12 -17 55z" />
<glyph unicode="&#x2c6;" horiz-adv-x="1153" d="M103 1186q-1 10 20 35l274 286q2 2 7.5 8.5t6.5 7.5l6 6q5 5 7 6t7 4t8 4l10 3q6 2 12 2t13 1t15 1h148q39 0 54.5 -7t35.5 -30l279 -294q20 -25 19 -35t-21 -31l-86 -82q-23 -16 -34.5 -15t-35.5 19l-291 203l-278 -203q-27 -18 -38.5 -20t-31.5 16l-84 84 q-21 21 -22 31z" />
<glyph unicode="&#x2c7;" horiz-adv-x="1142" d="M112 1444q1 10 21 31l84 84q20 18 31.5 16t38.5 -21l278 -202l291 202q25 18 36 19.5t34 -14.5l86 -82q20 -20 21 -30.5t-19 -35.5l-279 -295q-14 -16 -21 -22.5t-23.5 -10.5t-45.5 -4h-147q-27 0 -45.5 6.5t-23.5 12.5t-23 24l-275 287q-20 25 -19 35z" />
<glyph unicode="&#x2d8;" horiz-adv-x="1134" d="M114 1428.5q3 17.5 21 31.5l88 70q23 16 39.5 15t22.5 -7t28 -31q72 -84 127.5 -117.5t130.5 -33.5q139 0 252 151q23 31 40.5 35t49.5 -14l86 -51q23 -14 27 -32t-1 -33t-24 -48q-145 -276 -428 -277q-137 0 -261 71t-179 198q-14 31 -18 43t-1 29.5z" />
<glyph unicode="&#x2d9;" horiz-adv-x="1142" d="M371 1298q0 180 196 181q113 0 155 -46.5t42 -134.5q0 -182 -197 -182q-117 0 -156.5 51t-39.5 131z" />
<glyph unicode="&#x2da;" horiz-adv-x="1101" d="M285 1368q0 117 86 194.5t200.5 77.5t196.5 -81.5t82 -190.5q0 -113 -82 -193.5t-196.5 -80.5t-200.5 77.5t-86 196.5zM481 1368q0 -43 25.5 -68.5t64.5 -25.5q35 0 61.5 27.5t26.5 66.5t-26.5 65.5t-61.5 26.5q-37 0 -63.5 -26.5t-26.5 -65.5z" />
<glyph unicode="&#x2db;" horiz-adv-x="788" d="M160 -172q0 150 164 297h200q-127 -145 -127 -272q0 -66 82 -66q55 0 111 16q37 12 45 -16l29 -90q12 -37 -27 -55q-98 -47 -221 -47.5t-189.5 63.5t-66.5 170z" />
<glyph unicode="&#x2dc;" horiz-adv-x="1153" d="M129 1210q102 262 295 263q68 0 185.5 -48.5t156.5 -48.5q74 0 121 78q18 29 63 4l92 -51q20 -12 24.5 -20.5t-1.5 -32.5q-106 -246 -297 -246q-47 0 -171 47t-167 47q-74 0 -127 -76q-14 -20 -22.5 -22t-36.5 10l-94 45q-35 16 -21 51z" />
<glyph unicode="&#x2dd;" horiz-adv-x="1306" d="M297 1233l211 379q27 47 67 24l185 -110q49 -27 12 -76l-268 -328q-31 -39 -62 -20l-129 74q-36 22 -16 57zM700 1233l211 379q27 47 68 24l184 -110q49 -27 13 -76l-269 -328q-31 -39 -61 -20l-129 74q-37 22 -17 57z" />
<glyph unicode="&#x384;" horiz-adv-x="1134" d="M420 1233l211 379q27 47 67 24l185 -110q49 -27 12 -76l-268 -328q-31 -39 -62 -20l-129 74q-36 22 -16 57z" />
<glyph unicode="&#x385;" horiz-adv-x="1228" d="M53 1270q0 80 39 122t141 42q106 0 144.5 -41t38.5 -123q0 -80 -38 -125t-145 -45q-111 0 -145.5 45t-34.5 125zM440 1159l109 420q14 55 59 41l207 -61q55 -14 31 -68l-178 -385q-18 -47 -56 -37l-141 41q-43 6 -31 49zM811 1270q0 78 39 121t141 43q109 0 146 -40 t37 -124q0 -82 -37 -126t-145.5 -44t-144.5 45t-36 125z" />
<glyph unicode="&#x386;" horiz-adv-x="1331" d="M-266 1008l211 378q27 47 67 25l185 -111q49 -27 12 -75l-268 -328q-31 -39 -62 -20l-129 73q-36 23 -16 58zM11 10q-7 10 3 51l381 1231q12 39 31.5 55.5t69.5 16.5h321q35 0 54.5 -9t26.5 -22.5t17 -42.5l404 -1233q18 -57 -27 -57h-313q-39 0 -55.5 18.5t-28.5 61.5 l-55 201h-365l-57 -213q-18 -68 -86 -68h-283q-31 0 -38 10zM555 580h203l-43 172l-51 213h-13z" />
<glyph unicode="&#x387;" horiz-adv-x="516" d="M61 762q0 180 197 180q113 0 155 -46t42 -134q0 -182 -197 -182q-117 0 -157 51t-40 131z" />
<glyph unicode="&#x388;" horiz-adv-x="1191" d="M-432 1008l211 378q27 47 67 25l185 -111q49 -27 12 -75l-268 -328q-31 -39 -62 -20l-129 73q-36 23 -16 58zM133 49v1264q0 49 49 49h860q23 0 36.5 -13.5t13.5 -35.5v-236q0 -45 -50 -45h-507v-164h438q23 0 36 -14t13 -35v-235q0 -45 -49 -45h-438v-209h516 q23 0 36 -13.5t13 -35.5v-236q0 -45 -49 -45h-869q-49 0 -49 49z" />
<glyph unicode="&#x389;" horiz-adv-x="1374" d="M-416 1008l211 378q27 47 68 25l184 -111q49 -27 12 -75l-268 -328q-31 -39 -61 -20l-129 73q-37 23 -17 58zM133 49v1264q0 49 49 49h305q47 0 48 -49v-447h305v447q0 49 49 49h305q47 0 47 -49v-1264q0 -49 -47 -49h-305q-49 0 -49 49v486h-305v-486q0 -49 -48 -49 h-305q-49 0 -49 49z" />
<glyph unicode="&#x38a;" horiz-adv-x="667" d="M-412 1008l211 378q27 47 68 25l184 -111q49 -27 12 -75l-268 -328q-31 -39 -61 -20l-129 73q-37 23 -17 58zM133 49v1264q0 49 49 49h305q47 0 48 -49v-1264q0 -49 -48 -49h-305q-49 0 -49 49z" />
<glyph unicode="&#x38c;" horiz-adv-x="1458" d="M-358 1008l211 378q27 47 67 25l184 -111q49 -27 13 -75l-269 -328q-31 -39 -61 -20l-129 73q-36 23 -16 58zM113 698q0 70 8 133.5t28.5 146.5t64.5 149.5t107.5 126t167 92t234.5 32.5q154 0 269.5 -41t181 -104.5t105.5 -157.5t53.5 -182t13.5 -194.5t-11.5 -192.5 t-49.5 -188.5t-102.5 -172t-182 -116.5t-277.5 -47t-276.5 47t-179 116.5t-99.5 173t-46 188.5t-9 191zM539 676q0 -190 42 -270t146 -80q109 0 156 81.5t47 268.5q0 199 -44 278.5t-159 79.5q-104 0 -146 -81.5t-42 -276.5z" />
<glyph unicode="&#x38e;" horiz-adv-x="1402" d="M-498 1008l211 378q27 47 68 25l184 -111q49 -27 12 -75l-268 -328q-31 -39 -61 -20l-129 73q-37 23 -17 58zM17.5 1345.5q7.5 18.5 33.5 18.5h301q41 0 59.5 -11.5t37.5 -47.5l112 -228l125 -260h12l127 260l105 207q18 33 25.5 45t25.5 23.5t45 11.5h311q27 0 34 -16.5 t-5 -34.5l-485 -862v-402q0 -49 -47 -49h-306q-49 0 -49 49v402l-454 852q-15 24 -7.5 42.5z" />
<glyph unicode="&#x38f;" horiz-adv-x="1460" d="M-348 1008l211 378q27 47 67 25l185 -111q49 -27 12 -75l-268 -328q-31 -39 -62 -20l-129 73q-36 23 -16 58zM90 49v227q0 45 49 46h97l4 4q-61 49 -91 164.5t-30 207.5q0 68 9 133.5t30.5 146.5t67.5 149.5t109.5 127t165 91t228.5 32.5q150 0 262.5 -41t179 -105.5 t109.5 -156.5t57.5 -182t14.5 -195q0 -72 -31 -187.5t-90 -182.5l2 -6h86q49 0 49 -46v-227q0 -49 -49 -49h-473q-51 0 -51 51v271q0 14 5 26t11 17.5t15.5 13.5t11.5 10q98 90 98 279q0 193 -45 279.5t-158 86.5q-188 0 -188 -366q0 -205 67 -273q2 -2 11.5 -10t14.5 -13 t10 -19.5t5 -30.5v-271q0 -51 -45 -51h-469q-49 0 -49 49z" />
<glyph unicode="&#x390;" horiz-adv-x="759" d="M-166 1270q0 80 39 122t141 42q106 0 144.5 -41t38.5 -123q0 -80 -38 -125t-145 -45q-111 0 -145.5 45t-34.5 125zM199 49v920q0 49 49 49h289q47 0 47 -49v-920q0 -49 -47 -49h-289q-49 0 -49 49zM221 1159l109 420q14 55 59 41l207 -61q55 -14 31 -68l-178 -385 q-18 -47 -56 -37l-141 41q-43 6 -31 49zM592 1270q0 78 39 121t141 43q109 0 145.5 -40t36.5 -124q0 -82 -36.5 -126t-145 -44t-144.5 45t-36 125z" />
<glyph unicode="&#x391;" horiz-adv-x="1331" d="M11 10q-7 10 3 51l381 1231q12 39 31.5 55.5t69.5 16.5h321q35 0 54.5 -9t26.5 -22.5t17 -42.5l404 -1233q18 -57 -27 -57h-313q-39 0 -55.5 18.5t-28.5 61.5l-55 201h-365l-57 -213q-18 -68 -86 -68h-283q-31 0 -38 10zM555 580h203l-43 172l-51 213h-13z" />
<glyph unicode="&#x392;" horiz-adv-x="1355" d="M133 49v1264q0 49 49 49l586 2q213 0 326.5 -103.5t113.5 -289.5q0 -59 -30.5 -132t-104.5 -112v-10q170 -70 170 -299q0 -195 -132 -306.5t-318 -111.5h-611q-49 0 -49 49zM537 330h182q113 0 112 106q0 49 -27.5 80t-84.5 31h-182v-217zM537 862h163q98 0 99 82 q0 88 -99 88h-163v-170z" />
<glyph unicode="&#x393;" horiz-adv-x="1118" d="M129 1313q0 49 49 49h844q23 0 36 -13.5t13 -35.5v-236q0 -45 -49 -45h-490v-983q0 -49 -47 -49h-305q-49 0 -49 49z" />
<glyph unicode="&#x394;" horiz-adv-x="1331" d="M14 61l389 1231q12 39 32 55.5t69 16.5h307q35 0 54.5 -9t26.5 -22.5t17 -42.5l410 -1233q18 -57 -27 -57h-1243q-55 0 -35 61zM481 328h342l-104 397l-55 231h-13l-55 -227z" />
<glyph unicode="&#x2206;" horiz-adv-x="1331" d="M14 61l389 1231q12 39 32 55.5t69 16.5h307q35 0 54.5 -9t26.5 -22.5t17 -42.5l410 -1233q18 -57 -27 -57h-1243q-55 0 -35 61zM481 328h342l-104 397l-55 231h-13l-55 -227z" />
<glyph unicode="&#x395;" horiz-adv-x="1191" d="M133 49v1264q0 49 49 49h860q23 0 36.5 -13.5t13.5 -35.5v-236q0 -45 -50 -45h-507v-164h438q23 0 36 -14t13 -35v-235q0 -45 -49 -45h-438v-209h516q23 0 36 -13.5t13 -35.5v-236q0 -45 -49 -45h-869q-49 0 -49 49z" />
<glyph unicode="&#x396;" horiz-adv-x="1185" d="M92 49v207q0 51 31 92l518 684h-459q-49 0 -49 45v236q0 49 49 49h860q23 0 36.5 -13.5t13.5 -35.5l-2 -178q0 -72 -35 -119l-523 -686h512q49 0 50 -45v-236q0 -49 -50 -49h-903q-23 0 -36 14.5t-13 34.5z" />
<glyph unicode="&#x397;" horiz-adv-x="1374" d="M133 49v1264q0 49 49 49h305q47 0 48 -49v-447h305v447q0 49 49 49h305q47 0 47 -49v-1264q0 -49 -47 -49h-305q-49 0 -49 49v486h-305v-486q0 -49 -48 -49h-305q-49 0 -49 49z" />
<glyph unicode="&#x398;" horiz-adv-x="1458" d="M113 698q0 70 8 133.5t28.5 146.5t64.5 149.5t107.5 126t167 92t234.5 32.5q154 0 269.5 -41t181 -104.5t105.5 -157.5t53.5 -182t13.5 -194.5t-11.5 -192.5t-49.5 -188.5t-102.5 -172t-182 -116.5t-277.5 -47t-276.5 47t-179 116.5t-99.5 173t-46 188.5t-9 191zM539 676 q0 -190 42 -270t146 -80q109 0 156 81.5t47 268.5q0 199 -44 278.5t-159 79.5q-104 0 -146 -81.5t-42 -276.5zM608 573v211q0 49 49 50h148q49 0 49 -50v-211q0 -47 -49 -47h-148q-49 0 -49 47z" />
<glyph unicode="&#x399;" horiz-adv-x="667" d="M133 49v1264q0 49 49 49h305q47 0 48 -49v-1264q0 -49 -48 -49h-305q-49 0 -49 49z" />
<glyph unicode="&#x39a;" horiz-adv-x="1331" d="M117 49v1264q0 49 49 49h305q47 0 47 -49v-377h6l140 186l153 193q41 47 113 47h327q41 0 48.5 -19.5t-17.5 -48.5l-420 -506l441 -712q23 -43 12.5 -59.5t-41.5 -16.5h-326q-70 0 -110 63l-238 410l-88 -106v-318q0 -49 -47 -49h-305q-49 0 -49 49z" />
<glyph unicode="&#x39b;" horiz-adv-x="1331" d="M14 61l389 1231q12 39 32 55.5t69 16.5h307q35 0 54.5 -9t26.5 -22.5t17 -42.5l410 -1233q18 -57 -27 -57h-313q-39 0 -55.5 18.5t-28.5 61.5l-176 643l-55 233h-13l-55 -229l-178 -659q-18 -68 -86 -68h-283q-55 0 -35 61z" />
<glyph unicode="&#x39c;" horiz-adv-x="1636" d="M133 49v1264q0 49 49 49h215q51 0 71.5 -11.5t39.5 -43.5l133 -265l176 -366h12l179 366l135 263q16 33 37.5 45t68.5 12h207q47 0 47 -49v-1264q0 -49 -47 -49h-293q-49 0 -49 49v469l-6 2l-72 -160l-51 -104q-39 -68 -106 -68h-121q-66 0 -103 64l-53 106l-76 166 l-4 -2v-473q0 -49 -47 -49h-293q-49 0 -49 49z" />
<glyph unicode="&#x39d;" horiz-adv-x="1409" d="M133 49v1264q0 49 49 49h209q31 0 49.5 -6t26.5 -14.5t22 -28.5l224 -332l166 -250l8 2v580q0 49 47 49h293q49 0 49 -49v-1264q0 -49 -49 -49h-207q-66 0 -107 57l-200 289l-185 275h-6v-572q0 -49 -47 -49h-293q-49 0 -49 49z" />
<glyph unicode="&#x39e;" horiz-adv-x="1251" d="M92 45v236q0 23 13.5 36t35.5 13h289v209h-190q-49 0 -50 45v235q0 20 13.5 34.5t36.5 14.5h190v164h-264q-49 0 -49 45v236q0 23 13 36t36 13h919q20 0 35 -13.5t15 -35.5v-236q0 -45 -50 -45h-264v-164h191q20 0 34.5 -14t14.5 -35v-235q0 -45 -49 -45h-191v-209h289 q20 0 34.5 -13.5t14.5 -35.5v-236q0 -45 -49 -45h-969q-49 0 -49 45z" />
<glyph unicode="&#x39f;" horiz-adv-x="1458" d="M113 698q0 70 8 133.5t28.5 146.5t64.5 149.5t107.5 126t167 92t234.5 32.5q154 0 269.5 -41t181 -104.5t105.5 -157.5t53.5 -182t13.5 -194.5t-11.5 -192.5t-49.5 -188.5t-102.5 -172t-182 -116.5t-277.5 -47t-276.5 47t-179 116.5t-99.5 173t-46 188.5t-9 191zM539 676 q0 -190 42 -270t146 -80q109 0 156 81.5t47 268.5q0 199 -44 278.5t-159 79.5q-104 0 -146 -81.5t-42 -276.5z" />
<glyph unicode="&#x3a0;" horiz-adv-x="1374" d="M133 49v1264q0 49 49 49h1012q47 0 47 -49v-1264q0 -49 -47 -49h-305q-49 0 -49 49v981h-305v-981q0 -49 -48 -49h-305q-49 0 -49 49z" />
<glyph unicode="&#x3a1;" horiz-adv-x="1208" d="M133 49v1264q0 49 49 49h512q211 0 347.5 -112.5t136.5 -323.5q0 -80 -20.5 -152t-70 -142.5t-149.5 -112.5t-244 -42h-159v-428q0 -49 -48 -49h-305q-49 0 -49 49zM535 797h98q131 0 131 118q0 117 -131 117h-98v-235z" />
<glyph unicode="&#x3a3;" horiz-adv-x="1155" d="M92 1130v168q0 25 13.5 42.5t37.5 17.5h865q49 0 49 -49v-236q0 -45 -49 -45h-467l215 -285q35 -43 2 -90l-215 -323h501q49 0 50 -45v-236q0 -49 -50 -49h-892q-20 0 -35 14.5t-15 34.5v207q0 51 31 92l227 350l-233 314q-35 46 -35 118z" />
<glyph unicode="&#x3a4;" horiz-adv-x="1103" d="M20 1077v236q0 49 50 49h964q23 0 36 -13.5t13 -35.5v-236q0 -45 -49 -45h-282v-983q0 -49 -47 -49h-306q-49 0 -49 49v983h-280q-50 0 -50 45z" />
<glyph unicode="&#x3a5;" horiz-adv-x="1402" d="M17.5 1345.5q7.5 18.5 33.5 18.5h301q41 0 59.5 -11.5t37.5 -47.5l112 -228l125 -260h12l127 260l105 207q18 33 25.5 45t25.5 23.5t45 11.5h311q27 0 34 -16.5t-5 -34.5l-485 -862v-402q0 -49 -47 -49h-306q-49 0 -49 49v402l-454 852q-15 24 -7.5 42.5z" />
<glyph unicode="&#x3a6;" horiz-adv-x="1787" d="M113 721q0 57 13 118.5t53 138.5t102.5 138.5t172 108.5t251.5 57v31q0 49 49 49h305q47 0 47 -49v-33q162 -14 278.5 -70.5t177 -139.5t87 -169t26.5 -180q0 -72 -13 -141.5t-52 -147.5t-99.5 -137t-165 -105.5t-239.5 -58.5v-82q0 -49 -47 -49h-305q-49 0 -49 49v78 q-145 10 -255 55t-172.5 105.5t-101.5 140.5t-51 149.5t-12 143.5zM530 702q0 -211 175 -243v493q-175 -37 -175 -250zM1106 463q162 41 162 239q0 211 -162 246v-485z" />
<glyph unicode="&#x3a7;" horiz-adv-x="1269" d="M28 20.5q-5 20.5 13 49.5l362 624l-342 600q-16 27 -8 47.5t41 20.5h316q37 0 49 -9.5t30 -41.5l64 -140l74 -161l78 174l55 123q16 33 31.5 44t44.5 11h327q78 0 43 -62l-358 -606l364 -628q8 -14 10.5 -28.5t-7 -26t-33.5 -11.5h-320q-57 0 -84 51l-63 139l-90 193 l-90 -201l-56 -125q-31 -57 -92 -57h-321q-33 0 -38 20.5z" />
<glyph unicode="&#x3a8;" horiz-adv-x="1736" d="M113 1313q0 49 49 49h295q47 0 47 -49v-457q0 -94 47 -151.5t119 -65.5v674q0 49 49 49h305q47 0 47 -49v-672q72 12 118 68.5t46 146.5v457q0 49 49 49h291q47 0 47 -49q0 -41 1 -75t1 -384q0 -242 -143.5 -387t-409.5 -158v-260q0 -49 -47 -49h-305q-49 0 -49 49v260 q-555 18 -555 545z" />
<glyph unicode="&#x3a9;" horiz-adv-x="1460" d="M90 49v227q0 45 49 46h97l4 4q-61 49 -91 164.5t-30 207.5q0 68 9 133.5t30.5 146.5t67.5 149.5t109.5 127t165 91t228.5 32.5q150 0 262.5 -41t179 -105.5t109.5 -156.5t57.5 -182t14.5 -195q0 -72 -31 -187.5t-90 -182.5l2 -6h86q49 0 49 -46v-227q0 -49 -49 -49h-473 q-51 0 -51 51v271q0 14 5 26t11 17.5t15.5 13.5t11.5 10q98 90 98 279q0 193 -45 279.5t-158 86.5q-188 0 -188 -366q0 -205 67 -273q2 -2 11.5 -10t14.5 -13t10 -19.5t5 -30.5v-271q0 -51 -45 -51h-469q-49 0 -49 49z" />
<glyph unicode="&#x3aa;" horiz-adv-x="667" d="M-70 1573q0 80 39 122t142 42q106 0 144 -41t38 -123q0 -80 -38 -125t-144 -45q-111 0 -146 45t-35 125zM133 49v1264q0 49 49 49h305q47 0 48 -49v-1264q0 -49 -48 -49h-305q-49 0 -49 49zM383 1573q0 78 39 121t141 43q109 0 145.5 -40t36.5 -124q0 -82 -36.5 -126 t-145 -44t-144.5 45t-36 125z" />
<glyph unicode="&#x3ab;" horiz-adv-x="1402" d="M17.5 1345.5q7.5 18.5 33.5 18.5h301q41 0 59.5 -11.5t37.5 -47.5l112 -228l125 -260h12l127 260l105 207q18 33 25.5 45t25.5 23.5t45 11.5h311q27 0 34 -16.5t-5 -34.5l-485 -862v-402q0 -49 -47 -49h-306q-49 0 -49 49v402l-454 852q-15 24 -7.5 42.5zM283 1573 q0 80 38.5 122t141.5 42q106 0 144 -41t38 -123q0 -80 -38 -125t-144 -45q-111 0 -145.5 45t-34.5 125zM735 1573q0 78 39 121t141 43q109 0 146 -40t37 -124q0 -82 -37 -126t-145.5 -44t-144.5 45t-36 125z" />
<glyph unicode="&#x3ac;" horiz-adv-x="1245" d="M82 498q0 227 94 381.5t297 154.5q133 0 236 -82l4 2v25q0 20 8 29.5t37 9.5h276q47 0 47 -49v-615q0 -53 7.5 -65.5t39.5 -16.5q29 -2 37.5 -10t8.5 -31v-168q0 -43 -68 -59q-66 -16 -152 -16q-90 0 -145 28.5t-78 110.5l-4 2q-139 -145 -313 -145q-100 0 -168 39.5 t-102.5 115.5t-48 161t-13.5 198zM442 1233l211 379q27 47 68 24l184 -110q49 -27 13 -76l-269 -328q-31 -39 -61 -20l-129 74q-37 22 -17 57zM471 496q0 -102 22.5 -141.5t73.5 -39.5q68 0 131 35v314q-57 23 -102 22q-125 0 -125 -190z" />
<glyph unicode="&#x3ad;" horiz-adv-x="1032" d="M82 313q0 135 121 205v6q-104 61 -105 181q0 96 45 166.5t118 105.5t145.5 49t150.5 14q219 0 350 -57q66 -29 54 -92l-29 -133q-8 -39 -21.5 -44t-66.5 1q-143 18 -271 18q-76 0 -75 -49q0 -23 26.5 -37t67.5 -14h129q51 0 51 -47v-137q0 -27 -11 -39.5t-40 -12.5h-148 q-90 0 -90 -47q0 -29 17.5 -45t72.5 -16q156 0 308 20q37 4 48 -3t19 -40l27 -123q12 -45 1 -68.5t-69 -45.5q-135 -47 -329 -47q-496 -1 -496 331zM354 1233l211 379q27 47 68 24l184 -110q49 -27 12 -76l-268 -328q-31 -39 -61 -20l-129 74q-37 22 -17 57z" />
<glyph unicode="&#x3ae;" horiz-adv-x="1187" d="M92 49v920q0 49 49 49h289q47 0 47 -49v-39l4 -2q139 106 305 106q86 0 147.5 -27.5t93.5 -65.5t50.5 -100.5t21.5 -108.5t3 -114v-569q0 -49 -47 -49h-289q-49 0 -49 49v504q0 74 -25.5 98.5t-79.5 24.5q-47 0 -135 -33v-594q0 -49 -47 -49h-289q-49 0 -49 49zM399 1233 l211 379q27 47 68 24l184 -110q49 -27 12 -76l-268 -328q-31 -39 -61 -20l-129 74q-37 22 -17 57z" />
<glyph unicode="&#x3af;" horiz-adv-x="618" d="M113 49v920q0 49 49 49h289q47 0 47 -49v-920q0 -49 -47 -49h-289q-49 0 -49 49zM145 1233l211 379q27 47 68 24l184 -110q49 -27 13 -76l-269 -328q-31 -39 -61 -20l-129 74q-37 22 -17 57z" />
<glyph unicode="&#x3b0;" horiz-adv-x="1181" d="M41 1270q0 80 39 122t141 42q106 0 144 -41t38 -123q0 -80 -37.5 -125t-144.5 -45q-111 0 -145.5 45t-34.5 125zM92 408v561q0 49 47 49h289q49 0 49 -49v-535q0 -129 107 -129q59 0 90 38t31 91v535q0 49 47 49h288q49 0 50 -49v-561q0 -182 -133.5 -302t-372.5 -120 q-244 0 -368 113.5t-124 308.5zM428 1159l109 420q14 55 59 41l207 -61q55 -14 31 -68l-179 -385q-18 -47 -55 -37l-141 41q-43 6 -31 49zM799 1270q0 78 39 121t141 43q109 0 145.5 -40t36.5 -124q0 -82 -37 -126t-145.5 -44t-144 45t-35.5 125z" />
<glyph unicode="&#x3b1;" horiz-adv-x="1245" d="M82 498q0 227 94 381.5t297 154.5q133 0 236 -82l4 2v25q0 20 8 29.5t37 9.5h276q47 0 47 -49v-615q0 -53 7.5 -65.5t39.5 -16.5q29 -2 37.5 -10t8.5 -31v-168q0 -43 -68 -59q-66 -16 -152 -16q-90 0 -145 28.5t-78 110.5l-4 2q-139 -145 -313 -145q-100 0 -168 39.5 t-102.5 115.5t-48 161t-13.5 198zM471 496q0 -102 22.5 -141.5t73.5 -39.5q68 0 131 35v314q-57 23 -102 22q-125 0 -125 -190z" />
<glyph unicode="&#x3b2;" horiz-adv-x="1175" d="M92 -289v1264q0 231 130 359t335 128q207 0 335 -102.5t128 -276.5q0 -156 -119 -237q66 -31 108 -74t59 -96t21.5 -89t4.5 -85q0 -266 -93.5 -396.5t-322.5 -130.5q-117 0 -201 25v-289q0 -49 -47 -49h-289q-49 0 -49 49zM475 315q51 -12 107 -12q68 0 93 41t25 162 q0 96 -20.5 135t-79.5 45h-37q-33 0 -33 29v166q0 35 25 47q29 14 45 25.5t31.5 39t15.5 64.5q0 39 -21.5 67.5t-62.5 28.5q-88 0 -88 -141v-697z" />
<glyph unicode="&#x3b3;" horiz-adv-x="1183" d="M8 969q-2 27 27 39q86 37 188.5 36.5t151.5 -36t76 -123.5q131 -424 145 -469h12l84 297l82 256q8 27 25.5 38t60.5 11h256q41 0 50.5 -14.5t-5.5 -45.5l-368 -956v-373q0 -49 -48 -49h-288q-49 0 -49 49v353l-256 694l-13 27q-4 9 -14 17.5t-25 8.5h-22q-29 0 -33 23z " />
<glyph unicode="&#x3b4;" horiz-adv-x="1171" d="M82 506q0 106 50 224t155 171q-74 49 -102.5 100.5t-28.5 124.5q0 166 125 255t321 89q184 0 320 -45q23 -8 33 -11t26 -11t19.5 -13.5t13.5 -16.5t5 -22.5t-3 -29.5l-27 -119q-8 -41 -30.5 -49t-90.5 2q-102 14 -247 21q-37 2 -56.5 -4.5t-22.5 -12.5t-3 -18 q0 -25 41 -45.5t121.5 -54t136.5 -68.5q127 -78 189.5 -182.5t62.5 -284.5q0 -74 -9.5 -137.5t-42 -137t-85 -126t-147.5 -87t-222 -34.5q-131 0 -227.5 35.5t-147.5 86t-82 127t-38 137t-7 136.5zM477 494q0 -109 19.5 -149t81.5 -40q121 0 120 189q0 195 -110 213 q-51 -18 -81 -78.5t-30 -134.5z" />
<glyph unicode="&#x3b5;" horiz-adv-x="1032" d="M82 313q0 135 121 205v6q-104 61 -105 181q0 96 45 166.5t118 105.5t145.5 49t150.5 14q219 0 350 -57q66 -29 54 -92l-29 -133q-8 -39 -21.5 -44t-66.5 1q-143 18 -271 18q-76 0 -75 -49q0 -23 26.5 -37t67.5 -14h129q51 0 51 -47v-137q0 -27 -11 -39.5t-40 -12.5h-148 q-90 0 -90 -47q0 -29 17.5 -45t72.5 -16q156 0 308 20q37 4 48 -3t19 -40l27 -123q12 -45 1 -68.5t-69 -45.5q-135 -47 -329 -47q-496 -1 -496 331z" />
<glyph unicode="&#x3b6;" horiz-adv-x="970" d="M72 430q0 174 113.5 353.5t287.5 312.5l-2 14h-297q-51 0 -51 59v189q0 63 47 63h836q29 0 38 -14t9 -47v-96q0 -86 -43 -121q-539 -426 -539 -637q0 -74 37 -116t182 -103q76 -33 108.5 -48.5t81 -43t68 -49t34.5 -55.5t15 -75q0 -100 -74.5 -209.5t-172.5 -197.5 q-27 -27 -45.5 -30t-57.5 18l-129 84q-35 23 -38 36t24 58q61 102 69 141q4 20 -11 32.5t-48 24.5q-14 6 -43 17q-84 33 -126 50t-104.5 56t-92 79t-53 105.5t-23.5 149.5z" />
<glyph unicode="&#x3b7;" horiz-adv-x="1187" d="M92 49v920q0 49 49 49h289q47 0 47 -49v-39l4 -2q139 106 305 106q86 0 147.5 -27.5t93.5 -65.5t50.5 -100.5t21.5 -108.5t3 -114v-569q0 -49 -47 -49h-289q-49 0 -49 49v504q0 74 -25.5 98.5t-79.5 24.5q-47 0 -135 -33v-594q0 -49 -47 -49h-289q-49 0 -49 49z" />
<glyph unicode="&#x3b8;" horiz-adv-x="1220" d="M82 737q0 68 3 124.5t16.5 133t34 137t60.5 123t93 103.5t134 67.5t181 26.5q137 0 236.5 -41t156 -103.5t89 -161.5t43 -192.5t10.5 -216.5q0 -96 -5.5 -167.5t-21.5 -168t-52 -163t-92.5 -129t-149.5 -94t-214 -31.5q-104 0 -185 24.5t-135.5 62.5t-93 100t-59 120.5 t-32 143.5t-14.5 148.5t-3 153.5zM477 614q-2 -166 28 -240.5t101 -74.5q78 0 110 69.5t29 245.5h-268zM483 881h256q-4 141 -32.5 199.5t-100.5 58.5q-55 0 -88 -67.5t-35 -190.5z" />
<glyph unicode="&#x3b9;" horiz-adv-x="618" d="M113 49v920q0 49 49 49h289q47 0 47 -49v-920q0 -49 -47 -49h-289q-49 0 -49 49z" />
<glyph unicode="&#x3ba;" horiz-adv-x="1165" d="M92 49v920q0 49 49 49h287q47 0 47 -49v-228l109 133l75 91q25 29 48.5 41t70.5 12h295q35 0 43 -18.5t-16 -45.5l-299 -340l348 -548q14 -18 4 -42t-43 -24h-279q-90 0 -122 57l-162 271l-72 -86v-193q0 -49 -47 -49h-287q-49 0 -49 49z" />
<glyph unicode="&#x3bb;" horiz-adv-x="1099" d="M14 47l359 907l-35 113q-18 53 -36.5 70.5t-65.5 17.5l-35 -2q-20 -2 -28.5 5t-12.5 26l-35 194q-4 27 31 39q121 41 250 41q102 0 165.5 -36t100.5 -152l289 -930q10 -35 21 -48t42 -13h18q27 0 29 -19l16 -194q4 -37 -26 -48q-96 -33 -219 -32q-98 0 -147.5 53 t-78.5 141l-36 123l-43 166h-11l-61 -197l-80 -235q-12 -37 -41 -37h-303q-45 0 -27 47z" />
<glyph unicode="&#x3bd;" horiz-adv-x="1193" d="M39 956q-23 61 39 62h276q27 0 39.5 -2t24.5 -14.5t18 -36.5l74 -265l82 -284h12l84 297l82 256q8 27 25.5 38t60.5 11h256q41 0 49 -14.5t-4 -45.5l-330 -876q-16 -45 -40.5 -63.5t-73.5 -18.5h-234q-53 0 -75.5 18.5t-38.5 63.5z" />
<glyph unicode="&#x3be;" horiz-adv-x="1015" d="M82 416q0 96 40 188t132 148l2 12q-80 35 -116 105.5t-36 144.5q0 215 137.5 326.5t364.5 111.5q219 0 350 -57q66 -29 54 -92l-27 -134q-8 -39 -22.5 -45t-67.5 2q-16 2 -217 17q-86 6 -130 -21.5t-42 -109.5q4 -104 153 -105h195q51 0 51 -47v-178q0 -27 -11 -39 t-40 -12h-160q-104 0 -152 -35t-48 -131q0 -63 44 -97t212 -110q160 -74 224 -127t64 -129q0 -94 -79.5 -219t-151.5 -182q-29 -25 -48.5 -27t-58.5 20l-125 82q-35 23 -36.5 39.5t26.5 61.5q51 78 51 108q0 33 -55 54q-80 31 -116.5 45t-99 42.5t-91.5 51t-69 58.5t-57 74 t-30.5 90.5t-13.5 115.5z" />
<glyph unicode="&#x3bf;" horiz-adv-x="1169" d="M82 522q0 66 8 124.5t39 133t82 129t145.5 91t221.5 36.5q510 0 509 -514q0 -80 -7 -141.5t-36.5 -140t-82 -131t-150.5 -89t-233 -36.5q-133 0 -229.5 36.5t-146.5 89t-79 131t-35 140t-6 141.5zM471 510q0 -111 22.5 -157t84.5 -46q70 0 94 48t24 155q0 109 -22.5 155 t-91.5 46q-111 0 -111 -201z" />
<glyph unicode="&#x3c0;" horiz-adv-x="1193" d="M92 49v920q0 49 49 49h914q29 0 38 -11.5t9 -35.5v-922q0 -49 -47 -49h-289q-49 0 -49 49l2 666h-242v-666q0 -49 -47 -49h-289q-49 0 -49 49z" />
<glyph unicode="&#x3c1;" horiz-adv-x="1175" d="M92 -371v867q0 260 126 402t374 142q150 0 252 -43t154.5 -121.5t74 -166.5t21.5 -201q0 -264 -90.5 -398.5t-333.5 -134.5q-90 0 -193 25v-371q0 -49 -47 -49h-289q-49 0 -49 49zM475 315q53 -12 98 -12q70 0 98.5 43t28.5 166q0 193 -108 193q-117 0 -117 -136v-254z " />
<glyph unicode="&#x3c2;" horiz-adv-x="962" d="M78 479q0 104 20.5 192.5t70.5 175.5t154.5 138t254.5 51q201 0 325 -53q66 -29 53 -92l-28 -148q-8 -41 -21.5 -49t-66.5 -4q-123 12 -197 12q-170 0 -170 -206q0 -76 33 -116t153 -93q166 -72 232.5 -123t66.5 -125q0 -86 -62 -197.5t-148 -199.5q-25 -27 -47.5 -28 t-59.5 21l-139 86q-18 10 -25.5 19.5t-5.5 23t7 22.5l20 36q43 78 41 100q-2 31 -52 49q-215 88 -266 121q-106 72 -131 217q-12 68 -12 170z" />
<glyph unicode="&#x3c3;" horiz-adv-x="1214" d="M82 518q0 63 10 122.5t43 131.5t86 124t149.5 87t223.5 35h532q29 0 38.5 -11.5t9.5 -35.5v-199q0 -29 -9.5 -40t-38.5 -11h-112l-4 -10q61 -92 61 -228q0 -63 -7 -118.5t-38 -129t-82 -126t-148.5 -89t-228.5 -36.5q-133 0 -228 36.5t-143.5 88t-76 132.5t-32.5 138 t-5 139zM461 506q0 -117 26.5 -161t81.5 -44q59 0 89 44t30 161q0 113 -25.5 159t-89.5 46q-112 0 -112 -205z" />
<glyph unicode="&#x3c4;" horiz-adv-x="978" d="M23 772v197q0 49 49 49h733q29 0 38 -11.5t9 -35.5v-199q0 -29 -9 -40t-38 -11h-205v-242q0 -88 21.5 -120.5t79 -36t161.5 7.5q33 2 43 -3t15 -34l26 -180q8 -55 -47 -76q-137 -53 -342 -53q-174 0 -252 81.5t-78 243.5v412h-155q-49 0 -49 51z" />
<glyph unicode="&#x3c5;" horiz-adv-x="1181" d="M92 408v561q0 49 47 49h289q49 0 49 -49v-535q0 -129 107 -129q59 0 90 38t31 91v535q0 49 47 49h288q49 0 50 -49v-561q0 -182 -133.5 -302t-372.5 -120q-244 0 -368 113.5t-124 308.5z" />
<glyph unicode="&#x3c6;" horiz-adv-x="1622" d="M82 516q0 170 66.5 286t234.5 179q57 27 84 -18l108 -201q14 -25 -16 -49q-53 -47 -74.5 -93.5t-21.5 -119.5q0 -197 153 -201v594q0 74 47.5 111.5t124.5 37.5h189q156 0 270.5 -45t176 -123.5t89 -167t27.5 -190.5q0 -227 -129 -373.5t-410 -162.5v-291q0 -49 -47 -49 h-288q-49 0 -50 49v288q-143 2 -245.5 38t-156.5 85.5t-86 126t-39 140t-7 149.5zM1004 303q78 -2 115.5 56.5t37.5 140.5q0 88 -35 149.5t-118 59.5v-406z" />
<glyph unicode="&#x3c7;" horiz-adv-x="1140" d="M17.5 20.5q-7.5 20.5 9.5 42.5l323 455l-301 438q-14 20 -6 41t37 21h293q33 0 45 -7t28 -32l123 -205l121 203q14 25 26.5 33t39.5 8h313q29 0 39 -12.5t7 -24.5t-11 -25l-316 -438l322 -455q14 -14 7 -38.5t-40 -24.5h-293q-53 0 -77 39l-138 227l-133 -223 q-27 -43 -84 -43h-299q-28 0 -35.5 20.5z" />
<glyph unicode="&#x3c8;" horiz-adv-x="1591" d="M86 432v537q0 49 47 49h289q49 0 49 -49v-531q0 -129 127 -133h2v785q0 49 49 49h289q47 0 47 -49v-785q68 2 101.5 41t33.5 92v531q0 49 47 49h289q49 0 49 -49v-537q0 -182 -141 -312t-379 -134v-297q0 -49 -47 -49h-289q-49 0 -49 49v297h-2q-246 2 -379 126.5 t-133 319.5z" />
<glyph unicode="&#x3c9;" horiz-adv-x="1646" d="M82 504q0 416 369 538q51 16 76.5 10.5t43.5 -42.5l74 -150q16 -23 12 -39t-43 -39q-88 -53 -116.5 -109.5t-28.5 -168.5q0 -205 94 -205q88 0 88 113l2 229q0 49 49 49h248q47 0 47 -49v-229q0 -113 86 -113q94 0 95 205q0 113 -29 169t-117 109q-39 23 -43 39.5 t12 38.5l74 150q18 37 44 43t77 -11q369 -123 369 -538q0 -520 -447 -520q-86 0 -169 34.5t-122 104.5h-10q-39 -70 -121 -104.5t-168 -34.5q-446 0 -446 520z" />
<glyph unicode="&#x3ca;" horiz-adv-x="618" d="M-96 1270q0 80 39 122t141 42q106 0 144 -41t38 -123q0 -80 -38 -125t-144 -45q-111 0 -145.5 45t-34.5 125zM113 49v920q0 49 49 49h289q47 0 47 -49v-920q0 -49 -47 -49h-289q-49 0 -49 49zM356 1270q0 78 39 121t142 43q109 0 145.5 -40t36.5 -124q0 -82 -37 -126 t-145.5 -44t-144.5 45t-36 125z" />
<glyph unicode="&#x3cb;" horiz-adv-x="1181" d="M92 408v561q0 49 47 49h289q49 0 49 -49v-535q0 -129 107 -129q59 0 90 38t31 91v535q0 49 47 49h288q49 0 50 -49v-561q0 -182 -133.5 -302t-372.5 -120q-244 0 -368 113.5t-124 308.5zM180 1270q0 80 39 122t141 42q106 0 144.5 -41t38.5 -123q0 -80 -38 -125t-145 -45 q-111 0 -145.5 45t-34.5 125zM633 1270q0 78 39 121t141 43q109 0 145.5 -40t36.5 -124q0 -82 -36.5 -126t-145 -44t-144.5 45t-36 125z" />
<glyph unicode="&#x3cc;" horiz-adv-x="1169" d="M82 522q0 66 8 124.5t39 133t82 129t145.5 91t221.5 36.5q510 0 509 -514q0 -80 -7 -141.5t-36.5 -140t-82 -131t-150.5 -89t-233 -36.5q-133 0 -229.5 36.5t-146.5 89t-79 131t-35 140t-6 141.5zM455 1233l211 379q27 47 67 24l185 -110q49 -27 12 -76l-268 -328 q-31 -39 -62 -20l-129 74q-36 22 -16 57zM471 510q0 -111 22.5 -157t84.5 -46q70 0 94 48t24 155q0 109 -22.5 155t-91.5 46q-111 0 -111 -201z" />
<glyph unicode="&#x3cd;" horiz-adv-x="1181" d="M92 408v561q0 49 47 49h289q49 0 49 -49v-535q0 -129 107 -129q59 0 90 38t31 91v535q0 49 47 49h288q49 0 50 -49v-561q0 -182 -133.5 -302t-372.5 -120q-244 0 -368 113.5t-124 308.5zM440 1233l211 379q27 47 68 24l184 -110q49 -27 12 -76l-268 -328q-31 -39 -61 -20 l-129 74q-37 22 -17 57z" />
<glyph unicode="&#x3ce;" horiz-adv-x="1646" d="M82 504q0 416 369 538q51 16 76.5 10.5t43.5 -42.5l74 -150q16 -23 12 -39t-43 -39q-88 -53 -116.5 -109.5t-28.5 -168.5q0 -205 94 -205q88 0 88 113l2 229q0 49 49 49h248q47 0 47 -49v-229q0 -113 86 -113q94 0 95 205q0 113 -29 169t-117 109q-39 23 -43 39.5 t12 38.5l74 150q18 37 44 43t77 -11q369 -123 369 -538q0 -520 -447 -520q-86 0 -169 34.5t-122 104.5h-10q-39 -70 -121 -104.5t-168 -34.5q-446 0 -446 520zM686 1233l211 379q27 47 68 24l184 -110q49 -27 12 -76l-268 -328q-31 -39 -62 -20l-129 74q-36 22 -16 57z" />
<glyph unicode="&#x400;" horiz-adv-x="1191" d="M133 49v1264q0 49 49 49h860q23 0 36.5 -13.5t13.5 -35.5v-236q0 -45 -50 -45h-507v-164h438q23 0 36 -14t13 -35v-235q0 -45 -49 -45h-438v-209h516q23 0 36 -13.5t13 -35.5v-236q0 -45 -49 -45h-869q-49 0 -49 49zM250 1696l133 170q29 37 72 2l333 -277q31 -27 5 -59 l-93 -117q-25 -29 -65 -2l-369 209q-53 31 -16 74z" />
<glyph unicode="&#x401;" horiz-adv-x="1191" d="M133 49v1264q0 49 49 49h860q23 0 36.5 -13.5t13.5 -35.5v-236q0 -45 -50 -45h-507v-164h438q23 0 36 -14t13 -35v-235q0 -45 -49 -45h-438v-209h516q23 0 36 -13.5t13 -35.5v-236q0 -45 -49 -45h-869q-49 0 -49 49zM190 1573q0 80 39 122t142 42q106 0 144 -41t38 -123 q0 -80 -38 -125t-144 -45q-111 0 -146 45t-35 125zM643 1573q0 78 39 121t141 43q109 0 146 -40t37 -124q0 -82 -37 -126t-145.5 -44t-144.5 45t-36 125z" />
<glyph unicode="&#x402;" horiz-adv-x="1579" d="M20 1077v236q0 49 50 49h1091q23 0 36 -13.5t13 -35.5v-236q0 -45 -49 -45h-409v-196q139 35 252 34q145 0 251.5 -43t164 -116.5t83 -156.5t25.5 -177q0 -260 -109.5 -426t-345.5 -305q-43 -23 -60.5 -15.5t-39.5 43.5l-94 138q-20 31 -19.5 47t29.5 41 q137 109 192.5 222.5t55.5 246.5q0 188 -197 188q-68 0 -188 -37v-471q0 -49 -47 -49h-306q-49 0 -49 49v983h-280q-50 0 -50 45z" />
<glyph unicode="&#x403;" horiz-adv-x="1118" d="M129 1313q0 49 49 49h844q23 0 36 -13.5t13 -35.5v-236q0 -45 -49 -45h-490v-983q0 -49 -47 -49h-305q-49 0 -49 49zM346 1569q-23 35 12 57l367 232q49 27 72 -13l108 -186q33 -47 -24 -70l-394 -159q-45 -18 -65 10z" />
<glyph unicode="&#x404;" horiz-adv-x="1267" d="M113 680q0 106 14 197.5t56 186.5t109.5 162.5t182.5 109.5t264 42q236 0 394 -69q29 -14 43 -24.5t22 -32t2 -54.5l-31 -145q-8 -37 -27.5 -46.5t-58.5 -2.5q-123 18 -299 18q-182 0 -227 -180h416q23 0 36 -13.5t13 -35.5v-215q0 -45 -49 -46h-422q16 -106 69.5 -153 t161.5 -47q123 0 308 18q41 4 58 -4t28 -45l34 -133q12 -45 -5 -69.5t-60 -45.5q-166 -74 -404 -73q-628 0 -628 700z" />
<glyph unicode="&#x405;" horiz-adv-x="1243" d="M92 946q0 205 141.5 317.5t378.5 112.5q248 0 404 -61q41 -16 58.5 -31.5t17.5 -33t-5 -42.5l-34 -149q-10 -47 -34 -53.5t-77 4.5q-154 20 -293 20q-133 0 -133 -76q0 -39 25.5 -54t105.5 -36q229 -55 320 -106q184 -106 184 -336q0 -121 -48 -210t-131 -137 t-180.5 -70.5t-209.5 -22.5q-242 0 -410 65q-41 16 -58.5 31.5t-17.5 33t4 42.5l31 147q10 47 28.5 55.5t69.5 -2.5q215 -29 357 -28q80 0 114.5 20.5t34.5 67.5q0 29 -19.5 46t-42 24.5t-83.5 23.5q-90 23 -143.5 38t-130 51t-118.5 78t-74 112.5t-32 158.5z" />
<glyph unicode="&#x406;" horiz-adv-x="667" d="M133 49v1264q0 49 49 49h305q47 0 48 -49v-1264q0 -49 -48 -49h-305q-49 0 -49 49z" />
<glyph unicode="&#x407;" horiz-adv-x="667" d="M-72 1573q0 80 39 122t142 42q106 0 144 -41t38 -123q0 -80 -38 -125t-144 -45q-111 0 -146 45t-35 125zM133 49v1264q0 49 49 49h305q47 0 48 -49v-1264q0 -49 -48 -49h-305q-49 0 -49 49zM381 1573q0 78 39 121t141 43q109 0 145.5 -40t36.5 -124q0 -82 -36.5 -126 t-145 -44t-144.5 45t-36 125z" />
<glyph unicode="&#x408;" horiz-adv-x="1019" d="M16 131l39 168q8 37 18.5 43t43.5 2q102 -14 196 -14q92 0 123 34.5t31 100.5l-2 848q0 49 49 49h305q47 0 47 -49q0 -582 -2 -934q0 -190 -119.5 -293.5t-355.5 -103.5q-166 0 -287 41q-66 23 -81 41t-5 67z" />
<glyph unicode="&#x409;" horiz-adv-x="1945" d="M33 203q-2 31 8 41t41 18q96 27 134 83t46 214l45 754q0 23 14.5 36t34.5 13h801q23 0 36 -13.5t13 -35.5v-443h172q143 0 248 -41t158 -109.5t76.5 -140t23.5 -149.5q0 -211 -145.5 -320.5t-360.5 -109.5h-526q-49 0 -49 49v985h-146l-20 -370q-23 -324 -57 -433 q-55 -170 -218 -223q-90 -31 -229 -35q-57 -2 -73.5 12.5t-18.5 51.5zM1204 324h144q57 0 93 30.5t36 77.5q0 123 -129 123h-144v-231z" />
<glyph unicode="&#x40a;" horiz-adv-x="1921" d="M133 49v1264q0 49 49 49h305q47 0 48 -49v-447h243v447q0 49 49 49h308q47 0 47 -49v-443h172q143 0 247.5 -41t157.5 -109.5t77 -140t24 -149.5q0 -211 -145.5 -320.5t-360.5 -109.5h-527q-49 0 -49 49v486h-243v-486q0 -49 -48 -49h-305q-49 0 -49 49zM1180 324h143 q57 0 93 30.5t36 77.5q0 123 -129 123h-143v-231z" />
<glyph unicode="&#x40b;" horiz-adv-x="1605" d="M20 1077v236q0 49 50 49h1091q23 0 36 -13.5t13 -35.5v-236q0 -45 -49 -45h-409v-158q160 53 292 54q131 0 223.5 -34t139.5 -96.5t66.5 -133t19.5 -158.5v-457q0 -49 -47 -49h-305q-49 0 -49 49v434q0 117 -123 117q-82 0 -217 -45v-506q0 -49 -47 -49h-306 q-49 0 -49 49v983h-280q-50 0 -50 45z" />
<glyph unicode="&#x40c;" horiz-adv-x="1355" d="M133 49v1264q0 49 49 49h305q47 0 48 -49v-441h69q111 0 150 115l94 299q16 43 33.5 56.5t72.5 13.5h275q53 0 37 -51l-109 -347q-37 -109 -75 -170t-93 -86q41 -18 73 -57t47 -76t42 -114l129 -404q16 -51 -37 -51h-293q-55 0 -72.5 13.5t-33.5 56.5l-103 360 q-23 68 -59.5 91.5t-89.5 23.5h-57v-496q0 -49 -48 -49h-305q-49 0 -49 49zM496 1569q-23 35 12 57l366 232q49 27 72 -13l109 -186q33 -47 -25 -70l-393 -159q-45 -18 -66 10z" />
<glyph unicode="&#x40d;" horiz-adv-x="1445" d="M133 49v1264q0 49 49 49h305q47 0 48 -49v-594l8 -2l358 579q18 27 25.5 34t31 19.5t56.5 12.5h252q47 0 47 -49v-1264q0 -49 -47 -49h-305q-49 0 -50 49v619l-8 2l-379 -602q-43 -68 -121 -68h-221q-49 0 -49 49zM395 1696l133 170q29 37 72 2l334 -277q31 -27 4 -59 l-92 -117q-25 -29 -66 -2l-368 209q-52 31 -17 74z" />
<glyph unicode="&#x40e;" horiz-adv-x="1357" d="M51 1303q-29 61 27 61h301q41 0 59.5 -11.5t36.5 -47.5l109 -277l106 -295h12l111 301l92 250q18 33 25.5 45t26 23.5t44.5 11.5h289q27 0 34 -16.5t-5 -34.5l-387 -951q-47 -109 -79 -168t-85 -123.5t-124 -92t-169 -27.5q-127 0 -201 20q-45 14 -56 33t-7 64l16 139 q4 35 18.5 41t69.5 2q98 -8 132 1t49 36l16 32zM239 1723.5q3 17.5 21 31.5l88 70q23 16 39 15t22.5 -7t28.5 -31q72 -84 127.5 -117.5t130.5 -33.5q139 0 252 151q23 31 40.5 35t49.5 -14l86 -51q23 -14 27 -32t-1 -33t-24 -48q-145 -276 -428 -277q-137 0 -261 71 t-179 198q-14 31 -18 43t-1 29.5z" />
<glyph unicode="&#x40f;" horiz-adv-x="1374" d="M133 49v1264q0 49 47 49h305q49 0 50 -49v-981h305v981q0 49 47 49h305q49 0 49 -49v-1264q0 -49 -49 -49h-320l-14 -266q-2 -55 -12 -68.5t-49 -13.5h-217q-37 0 -48.5 11t-13.5 54l-12 283h-326q-47 0 -47 49z" />
<glyph unicode="&#x410;" horiz-adv-x="1331" d="M11 10q-7 10 3 51l381 1231q12 39 31.5 55.5t69.5 16.5h321q35 0 54.5 -9t26.5 -22.5t17 -42.5l404 -1233q18 -57 -27 -57h-313q-39 0 -55.5 18.5t-28.5 61.5l-55 201h-365l-57 -213q-18 -68 -86 -68h-283q-31 0 -38 10zM555 580h203l-43 172l-51 213h-13z" />
<glyph unicode="&#x411;" horiz-adv-x="1275" d="M133 49v1264q0 23 13.5 36t35.5 13h838q20 0 34.5 -13.5t14.5 -35.5v-236q0 -45 -49 -45h-483v-162h172q143 0 247.5 -41t157.5 -109.5t76.5 -140t23.5 -149.5q0 -211 -145 -320.5t-360 -109.5h-527q-49 0 -49 49zM535 324h141q57 0 94 30.5t37 77.5q0 123 -131 123h-141 v-231z" />
<glyph unicode="&#x412;" horiz-adv-x="1355" d="M133 49v1264q0 49 49 49l586 2q213 0 326.5 -103.5t113.5 -289.5q0 -59 -30.5 -132t-104.5 -112v-10q170 -70 170 -299q0 -195 -132 -306.5t-318 -111.5h-611q-49 0 -49 49zM537 330h182q113 0 112 106q0 49 -27.5 80t-84.5 31h-182v-217zM537 862h163q98 0 99 82 q0 88 -99 88h-163v-170z" />
<glyph unicode="&#x413;" horiz-adv-x="1118" d="M145 1313q0 49 50 49h843q23 0 36 -13.5t13 -35.5v-236q0 -45 -49 -45h-489v-983q0 -49 -47 -49h-305q-49 0 -50 49z" />
<glyph unicode="&#x414;" horiz-adv-x="1517" d="M23 236q-2 39 8 56t47 25l76 13q72 61 103.5 155.5t43.5 237.5l45 555q6 84 88 84h852q20 0 34.5 -13.5t14.5 -35.5v-991l88 -9q57 -6 52 -77l-23 -488q-2 -55 -12 -68.5t-49 -13.5h-217q-37 0 -50.5 11.5t-15.5 54.5l-10 268h-684l-19 -268q-2 -43 -14 -54.5t-49 -11.5 h-228q-39 0 -49 13.5t-12 68.5zM596 332h338v710h-225l-29 -352q-18 -231 -84 -358z" />
<glyph unicode="&#x415;" horiz-adv-x="1191" d="M133 49v1264q0 49 49 49h860q23 0 36.5 -13.5t13.5 -35.5v-236q0 -45 -50 -45h-507v-164h438q23 0 36 -14t13 -35v-235q0 -45 -49 -45h-438v-209h516q23 0 36 -13.5t13 -35.5v-236q0 -45 -49 -45h-869q-49 0 -49 49z" />
<glyph unicode="&#x416;" horiz-adv-x="1996" d="M76 51l129 404q27 78 42 114.5t47 75.5t73 57q-55 25 -93 86.5t-75 169.5l-109 347q-16 51 37 51h274q55 0 73 -13.5t34 -56.5l94 -299q39 -115 150 -115h49v441q0 49 49 49h299q47 0 47 -49v-441h49q111 0 150 115l94 299q16 43 33.5 56.5t72.5 13.5h275q53 0 37 -51 l-109 -347q-37 -109 -74.5 -170t-93.5 -86q41 -18 73 -57t47 -76t42 -114l129 -404q16 -51 -37 -51h-293q-55 0 -72.5 13.5t-33.5 56.5l-103 360q-23 68 -59.5 91.5t-89.5 23.5h-37v-496q0 -49 -47 -49h-299q-49 0 -49 49v496h-37q-53 0 -90 -23.5t-60 -91.5l-102 -360 q-16 -43 -33.5 -56.5t-72.5 -13.5h-293q-53 0 -37 51z" />
<glyph unicode="&#x417;" horiz-adv-x="1243" d="M49 154l27 137q8 41 23.5 51t64.5 4q193 -27 348 -27q106 0 157.5 31t51.5 103q0 117 -131 116h-195q-43 0 -57 13.5t-14 58.5v160q0 41 14 57t53 16h193q129 0 129 84q0 102 -185 103q-115 0 -307 -33q-47 -8 -62.5 1t-25.5 44l-35 156q-8 35 7.5 57.5t72.5 44.5 q170 63 408 64q260 0 393 -105.5t133 -290.5q0 -80 -40 -153.5t-111 -114.5q82 -27 125.5 -105.5t43.5 -176.5q0 -229 -155.5 -348t-427.5 -119q-82 0 -208 14t-204 45q-61 23 -77.5 48.5t-8.5 64.5z" />
<glyph unicode="&#x418;" horiz-adv-x="1445" d="M133 49v1264q0 49 49 49h305q47 0 48 -49v-594l8 -2l358 579q18 27 25.5 34t31 19.5t56.5 12.5h252q47 0 47 -49v-1264q0 -49 -47 -49h-305q-49 0 -50 49v619l-8 2l-379 -602q-43 -68 -121 -68h-221q-49 0 -49 49z" />
<glyph unicode="&#x419;" horiz-adv-x="1445" d="M133 49v1264q0 49 49 49h305q47 0 48 -49v-608l366 591q18 27 25.5 34t31 19.5t56.5 12.5h252q47 0 47 -49v-1264q0 -49 -47 -49h-305q-49 0 -50 49v633l-387 -614q-43 -68 -121 -68h-221q-49 0 -49 49zM284 1741.5q3 17.5 21 32.5l88 69q23 16 39.5 15.5t22.5 -7 t28 -30.5q72 -84 127.5 -118t130.5 -34q139 0 252 152q23 31 40.5 35t49.5 -15l86 -51q23 -14 27 -31.5t-1 -33t-24 -48.5q-145 -276 -428 -276q-137 0 -261 70.5t-179 197.5q-14 31 -18 43t-1 29.5z" />
<glyph unicode="&#x41a;" horiz-adv-x="1355" d="M133 49v1264q0 49 49 49h305q47 0 48 -49v-441h69q111 0 150 115l94 299q16 43 33.5 56.5t72.5 13.5h275q53 0 37 -51l-109 -347q-37 -109 -75 -170t-93 -86q41 -18 73 -57t47 -76t42 -114l129 -404q16 -51 -37 -51h-293q-55 0 -72.5 13.5t-33.5 56.5l-103 360 q-23 68 -59.5 91.5t-89.5 23.5h-57v-496q0 -49 -48 -49h-305q-49 0 -49 49z" />
<glyph unicode="&#x41b;" horiz-adv-x="1337" d="M33 203q-2 31 8 41t41 18q96 27 134 83t46 214l45 754q0 23 14.5 36t34.5 13h799q20 0 34.5 -13.5t14.5 -35.5v-1264q0 -49 -47 -49h-305q-49 0 -49 49v985h-146l-20 -370q-23 -324 -57 -433q-55 -170 -218 -223q-90 -31 -229 -35q-57 -2 -73.5 12.5t-18.5 51.5z" />
<glyph unicode="&#x41c;" horiz-adv-x="1636" d="M133 49v1264q0 49 49 49h215q51 0 71.5 -11.5t39.5 -43.5l133 -265l176 -366h12l179 366l135 263q16 33 37.5 45t68.5 12h207q47 0 47 -49v-1264q0 -49 -47 -49h-293q-49 0 -49 49v469l-6 2l-72 -160l-51 -104q-39 -68 -106 -68h-121q-66 0 -103 64l-53 106l-76 166 l-4 -2v-473q0 -49 -47 -49h-293q-49 0 -49 49z" />
<glyph unicode="&#x41d;" horiz-adv-x="1374" d="M133 49v1264q0 49 49 49h305q47 0 48 -49v-447h305v447q0 49 49 49h305q47 0 47 -49v-1264q0 -49 -47 -49h-305q-49 0 -49 49v486h-305v-486q0 -49 -48 -49h-305q-49 0 -49 49z" />
<glyph unicode="&#x41e;" horiz-adv-x="1458" d="M113 698q0 70 8 133.5t28.5 146.5t64.5 149.5t107.5 126t167 92t234.5 32.5q154 0 269.5 -41t181 -104.5t105.5 -157.5t53.5 -182t13.5 -194.5t-11.5 -192.5t-49.5 -188.5t-102.5 -172t-182 -116.5t-277.5 -47t-276.5 47t-179 116.5t-99.5 173t-46 188.5t-9 191zM539 676 q0 -190 42 -270t146 -80q109 0 156 81.5t47 268.5q0 199 -44 278.5t-159 79.5q-104 0 -146 -81.5t-42 -276.5z" />
<glyph unicode="&#x41f;" horiz-adv-x="1374" d="M133 49v1264q0 49 49 49h1012q47 0 47 -49v-1264q0 -49 -47 -49h-305q-49 0 -49 49v981h-305v-981q0 -49 -48 -49h-305q-49 0 -49 49z" />
<glyph unicode="&#x420;" horiz-adv-x="1208" d="M133 49v1264q0 49 49 49h512q211 0 347.5 -112.5t136.5 -323.5q0 -80 -20.5 -152t-70 -142.5t-149.5 -112.5t-244 -42h-159v-428q0 -49 -48 -49h-305q-49 0 -49 49zM535 797h98q131 0 131 118q0 117 -131 117h-98v-235z" />
<glyph unicode="&#x421;" horiz-adv-x="1267" d="M113 680q0 106 14 197.5t56 186.5t109.5 162.5t182.5 109.5t264 42q236 0 394 -69q29 -14 43 -24.5t22 -32t2 -54.5l-31 -145q-8 -37 -23.5 -45.5t-62.5 -3.5q-221 18 -299 18q-244 0 -243 -334q0 -195 51 -275.5t190 -80.5q123 0 308 18q49 4 62 -3t24 -46l34 -133 q12 -45 -5 -69.5t-60 -45.5q-166 -74 -404 -73q-628 0 -628 700z" />
<glyph unicode="&#x422;" horiz-adv-x="1103" d="M20 1077v236q0 49 50 49h964q23 0 36 -13.5t13 -35.5v-236q0 -45 -49 -45h-282v-983q0 -49 -47 -49h-306q-49 0 -49 49v983h-280q-50 0 -50 45z" />
<glyph unicode="&#x423;" horiz-adv-x="1357" d="M51 1303q-29 61 27 61h301q41 0 59.5 -11.5t36.5 -47.5l109 -277l106 -295h12l111 301l92 250q18 33 25.5 45t26 23.5t44.5 11.5h289q27 0 34 -16.5t-5 -34.5l-387 -951q-47 -109 -79 -168t-85 -123.5t-124 -92t-169 -27.5q-127 0 -201 20q-45 14 -56 33t-7 64l16 139 q4 35 18.5 41t69.5 2q98 -8 132 1t49 36l16 32z" />
<glyph unicode="&#x424;" horiz-adv-x="1787" d="M113 721q0 57 13 118.5t53 138.5t102.5 138.5t172 108.5t251.5 57v31q0 49 49 49h305q47 0 47 -49v-33q162 -14 278.5 -70.5t177 -139.5t87 -169t26.5 -180q0 -72 -13 -141.5t-52 -147.5t-99.5 -137t-165 -105.5t-239.5 -58.5v-82q0 -49 -47 -49h-305q-49 0 -49 49v78 q-145 10 -255 55t-172.5 105.5t-101.5 140.5t-51 149.5t-12 143.5zM530 702q0 -211 175 -243v493q-175 -37 -175 -250zM1106 463q162 41 162 239q0 211 -162 246v-485z" />
<glyph unicode="&#x425;" horiz-adv-x="1269" d="M28 20.5q-5 20.5 13 49.5l362 624l-342 600q-16 27 -8 47.5t41 20.5h316q37 0 49 -9.5t30 -41.5l64 -140l74 -161l78 174l55 123q16 33 31.5 44t44.5 11h327q78 0 43 -62l-358 -606l364 -628q8 -14 10.5 -28.5t-7 -26t-33.5 -11.5h-320q-57 0 -84 51l-63 139l-90 193 l-90 -201l-56 -125q-31 -57 -92 -57h-321q-33 0 -38 20.5z" />
<glyph unicode="&#x426;" horiz-adv-x="1466" d="M133 49v1264q0 49 47 49h305q49 0 50 -49v-981h305v981q0 49 47 49h305q49 0 49 -49v-973l131 -14q57 -6 51 -78l-26 -500q-4 -55 -13.5 -68.5t-48.5 -13.5h-213q-37 0 -48 11.5t-13 54.5l-14 268h-867q-47 0 -47 49z" />
<glyph unicode="&#x427;" horiz-adv-x="1337" d="M61 858v457q0 49 48 49h305q49 0 49 -49v-434q0 -117 123 -117q82 0 217 45v506q0 49 47 49h305q49 0 49 -49v-1264q0 -49 -49 -49h-305q-23 0 -36 13.5t-13 35.5l2 438q-160 -53 -293 -53q-131 0 -223 34t-139.5 96.5t-67 133t-19.5 158.5z" />
<glyph unicode="&#x428;" horiz-adv-x="1923" d="M133 49v1264q0 49 47 49h305q49 0 50 -49v-981h217v981q0 49 47 49h305q49 0 49 -49v-981h236v981q0 49 47 49h305q49 0 49 -49v-1264q0 -49 -47 -49h-1563q-47 0 -47 49z" />
<glyph unicode="&#x429;" horiz-adv-x="2015" d="M133 49v1264q0 49 47 49h305q49 0 50 -49v-981h217v981q0 49 47 49h305q49 0 49 -49v-981h236v981q0 49 47 49h305q49 0 49 -49v-973l131 -14q57 -6 51 -78l-26 -500q-4 -55 -13.5 -68.5t-48.5 -13.5h-213q-37 0 -48 11.5t-13 54.5l-15 268h-1415q-47 0 -47 49z" />
<glyph unicode="&#x42a;" horiz-adv-x="1583" d="M20 1077v236q0 49 50 49h725q20 0 34.5 -13.5t14.5 -35.5v-443h172q143 0 247.5 -41t158 -109.5t77 -140t23.5 -149.5q0 -211 -145.5 -320.5t-360.5 -109.5h-527q-49 0 -49 49l-2 983h-368q-50 0 -50 45zM842 324h143q57 0 93 30.5t36 77.5q0 123 -129 123h-143v-231z " />
<glyph unicode="&#x42b;" horiz-adv-x="1855" d="M133 49v1264q0 23 13.5 36t35.5 13h305q20 0 35 -13.5t15 -35.5v-443h172q143 0 247.5 -41t157.5 -109.5t76.5 -140t23.5 -149.5q0 -211 -145 -320.5t-360 -109.5h-527q-49 0 -49 49zM535 324h143q57 0 93 30.5t36 77.5q0 123 -129 123h-143v-231zM1321 49v1264 q0 49 49 49h305q47 0 47 -49v-1264q0 -49 -47 -49h-305q-49 0 -49 49z" />
<glyph unicode="&#x42c;" horiz-adv-x="1275" d="M133 49v1264q0 23 13.5 36t35.5 13h305q20 0 35 -13.5t15 -35.5v-443h172q143 0 247.5 -41t157.5 -109.5t76.5 -140t23.5 -149.5q0 -211 -145 -320.5t-360 -109.5h-527q-49 0 -49 49zM535 324h143q57 0 93 30.5t36 77.5q0 123 -129 123h-143v-231z" />
<glyph unicode="&#x42d;" horiz-adv-x="1288" d="M78 168l35 133q10 37 27.5 45t58.5 4q184 -18 307 -18q109 0 162 47t69 153h-422q-49 0 -49 46v215q0 23 14.5 36t34.5 13h416q-10 180 -207 180q-176 0 -299 -18q-39 -6 -58.5 3t-27.5 46l-30 145q-10 45 7 67.5t60 43.5q158 70 393 69q150 0 262.5 -43t177 -108.5 t103.5 -161.5t51.5 -186.5t12.5 -198.5q0 -700 -629 -700q-238 0 -404 73q-43 20 -60 45t-5 70z" />
<glyph unicode="&#x42e;" horiz-adv-x="1964" d="M133 49v1264q0 49 49 49h305q47 0 48 -49v-451h139q12 76 34.5 142.5t66.5 136t105.5 119t157 81t213.5 31.5q600 0 600 -678q0 -713 -600 -712q-158 0 -272.5 47t-177 132t-93 175t-40.5 203h-133v-490q0 -49 -48 -49h-305q-49 0 -49 49zM1085 674q0 -184 42 -267 t128 -83q180 0 181 350q0 195 -42 275.5t-139 80.5q-90 0 -130 -83t-40 -273z" />
<glyph unicode="&#x42f;" horiz-adv-x="1337" d="M86 51l121 352q29 86 56.5 124t76.5 67q-106 39 -152.5 134t-46.5 206q0 211 137.5 319.5t331.5 108.5h545q49 0 49 -49v-1264q0 -49 -49 -49h-305q-47 0 -47 49v461h-74q-76 0 -117 -113l-110 -327q-16 -43 -33.5 -56.5t-73.5 -13.5h-272q-53 0 -37 51zM555 922 q0 -57 36 -83t83 -26h129v219h-123q-53 0 -89 -29.5t-36 -80.5z" />
<glyph unicode="&#x430;" horiz-adv-x="1228" d="M74 293q-2 184 104.5 262t294.5 78h215v16q0 45 -28.5 64.5t-124.5 19.5q-84 0 -259 -18q-53 -8 -69.5 -2t-24.5 43l-28 131q-6 33 9 54.5t70 41.5q141 53 361 53q150 0 245 -24.5t144 -79.5t65.5 -122t16.5 -173v-262q0 -63 13.5 -79.5t64.5 -23.5q29 -2 37 -10t8 -31 v-168q0 -43 -68 -59q-66 -16 -151 -16q-201 0 -240 139l-4 2q-72 -80 -174 -112.5t-184 -32.5q-92 0 -153.5 26.5t-90.5 75.5t-39 96.5t-10 110.5zM463 315q0 -31 13 -43t48 -12q70 0 156 49v90h-133q-84 0 -84 -84z" />
<glyph unicode="&#x431;" horiz-adv-x="1175" d="M78 612q0 262 43 402q76 244 293 362q33 18 66.5 32.5t79.5 31t74 26t96.5 31t100.5 31.5q45 14 60 -23l70 -188q12 -20 11 -43t-28 -31q-20 -6 -89 -27.5t-101 -31.5q-143 -49 -210 -101.5t-79 -150.5h2q84 57 195 57q438 0 438 -503.5t-510 -503.5q-100 0 -180 19 t-133.5 50t-91.5 81t-58.5 99.5t-31.5 120t-14 125.5t-3 135zM481 487q0 -92 22.5 -137t84.5 -45q70 0 93.5 49t23.5 142q-2 92 -24 133t-89 41q-111 -1 -111 -183z" />
<glyph unicode="&#x432;" horiz-adv-x="1136" d="M92 45v928q0 45 49 45h508q193 0 289 -77t96 -220q0 -41 -26.5 -94.5t-92.5 -85.5q150 -63 150 -219q0 -150 -113.5 -236t-279.5 -86h-531q-49 0 -49 45zM467 283h139q35 0 53.5 19.5t18.5 45.5q0 61 -72 62h-139v-127zM467 635h115q29 0 44 15.5t15 33.5q0 53 -59 53 h-115v-102z" />
<glyph unicode="&#x433;" horiz-adv-x="980" d="M92 45v924q0 49 45 49h770q43 0 43 -49v-201q0 -47 -43 -47h-430v-676q0 -45 -47 -45h-289q-49 0 -49 45z" />
<glyph unicode="&#x434;" horiz-adv-x="1351" d="M23 203q-2 37 16 58.5t43 25.5l59 8q90 102 111 235l49 340q14 86 52 117t128 31h639q57 0 58 -60v-669l61 -6q66 -8 59 -88l-20 -410q-2 -43 -17.5 -54.5t-56.5 -11.5h-178q-33 0 -45 11.5t-14 42.5l-11 227h-583l-21 -227q-2 -35 -13 -44.5t-38 -9.5h-213 q-31 0 -40 12.5t-11 47.5zM561 297h232v422h-144l-24 -217q-15 -123 -64 -205z" />
<glyph unicode="&#x435;" horiz-adv-x="1132" d="M82 498q0 539 493 538q485 0 486 -473q0 -72 -27.5 -105.5t-95.5 -33.5h-465q8 -80 56.5 -103.5t144.5 -23.5q86 0 221 18q49 6 60.5 -1t19.5 -52l20 -121q12 -45 1 -68.5t-68 -45.5q-131 -45 -330 -45q-156 0 -261.5 39.5t-158.5 116.5t-74.5 162t-21.5 198zM479 635 h187q0 117 -91 117q-41 0 -67.5 -30t-28.5 -87z" />
<glyph unicode="&#x436;" horiz-adv-x="1681" d="M35 51l69 221q41 119 87.5 172.5t119.5 71.5v6q-61 16 -103 69.5t-83 174.5l-68 199q-8 16 3.5 33.5t33.5 17.5h246q55 0 72.5 -13.5t33.5 -56.5l70 -170q16 -45 40 -65.5t35 -21.5t48 -1h14v281q0 49 49 49h283q47 0 47 -49v-281h15h10q29 0 44 3t35.5 23.5t37.5 61.5 l69 170q16 43 33.5 56.5t73.5 13.5h245q23 0 34 -17.5t3 -33.5l-67 -199q-41 -119 -85 -173t-106 -71v-6q74 -18 118 -70.5t85 -173.5l70 -221q8 -16 -3.5 -33.5t-33.5 -17.5h-262q-55 0 -73 13.5t-34 56.5l-61 192q-39 115 -133 115h-15v-328q0 -49 -47 -49h-283 q-49 0 -49 49v328h-14q-98 0 -137 -115l-62 -192q-16 -43 -33.5 -56.5t-72.5 -13.5h-262q-23 0 -34 17.5t-3 33.5z" />
<glyph unicode="&#x437;" horiz-adv-x="1032" d="M42 74.5q-11 23.5 1 68.5l27 123q8 33 19 40t48 3q168 -23 301 -22q59 0 88 17.5t29 39.5q0 49 -98 49h-121q-31 0 -40 9.5t-9 35.5v158q0 25 9 33t40 8h94q113 0 113 47q0 49 -68 49q-88 0 -268 -18q-53 -8 -66.5 -2t-21.5 45l-29 133q-12 59 57 88q141 61 379 61 q113 0 202 -27.5t151.5 -97t62.5 -174.5q0 -47 -31.5 -110.5t-93.5 -98.5v-6q137 -66 137 -213q0 -100 -46 -169.5t-124.5 -102.5t-154.5 -46t-162 -13q-221 0 -356 47q-58 22 -69 45.5z" />
<glyph unicode="&#x438;" horiz-adv-x="1212" d="M92 49v920q0 49 49 49h289q47 0 47 -49v-396h8l129 211l117 185q35 49 107 49h235q47 0 47 -49v-920q0 -49 -47 -49h-289q-49 0 -49 49v414h-8l-125 -197l-139 -211q-39 -55 -107 -55h-215q-49 0 -49 49z" />
<glyph unicode="&#x439;" horiz-adv-x="1212" d="M92 49v920q0 49 49 49h289q47 0 47 -49v-396h8l129 211l117 185q35 49 107 49h235q47 0 47 -49v-920q0 -49 -47 -49h-289q-49 0 -49 49v414h-8l-125 -197l-139 -211q-39 -55 -107 -55h-215q-49 0 -49 49zM157 1428.5q3 17.5 21 31.5l88 70q23 16 39.5 15t22.5 -7t28 -31 q72 -84 127.5 -117.5t130.5 -33.5q139 0 252 151q23 31 40.5 35t49.5 -14l86 -51q23 -14 27 -32t-1 -33t-24 -48q-145 -276 -428 -277q-137 0 -261 71t-179 198q-14 31 -18 43t-1 29.5z" />
<glyph unicode="&#x43a;" horiz-adv-x="1140" d="M92 49v920q0 49 49 49h289q47 0 47 -49v-281h15h14h14q2 0 13.5 1t14.5 2l12 4q9 3 13.5 8.5t12.5 11.5t12 15t10 20.5t13 25.5l69 170q16 43 33.5 56.5t73.5 13.5h245q23 0 34 -17.5t3 -33.5l-67 -199q-41 -119 -85 -173t-108 -71v-6q74 -18 118 -70.5t85 -173.5 l70 -221q8 -16 -3.5 -33.5t-33.5 -17.5h-262q-55 0 -73 13.5t-34 56.5l-61 192q-39 115 -133 115h-15v-328q0 -49 -47 -49h-289q-49 0 -49 49z" />
<glyph unicode="&#x43b;" horiz-adv-x="1210" d="M16 197q-2 29 7.5 41t44.5 24q80 27 113.5 60.5t43.5 121.5l49 416q10 94 50.5 126t146.5 32h600q47 0 47 -45v-928q0 -45 -47 -45h-289q-49 0 -49 45v674h-129l-39 -342q-10 -96 -30.5 -159.5t-69.5 -125t-144.5 -92.5t-240.5 -31q-31 0 -39 11.5t-10 44.5z" />
<glyph unicode="&#x43c;" horiz-adv-x="1368" d="M92 45v926q0 45 47 45h238q47 0 65.5 -9.5t34.5 -39.5l103 -213l108 -224l115 228l102 209q14 29 33.5 39t67.5 10h223q47 0 47 -43v-928q0 -45 -47 -45h-273q-47 0 -47 45v336h-4l-43 -102l-35 -80q-23 -47 -82 -47h-110q-72 0 -92 47l-33 69l-47 113h-4v-336 q0 -45 -47 -45h-273q-47 0 -47 45z" />
<glyph unicode="&#x43d;" horiz-adv-x="1191" d="M92 49v920q0 49 45 49h297q43 0 43 -49v-305h238v305q0 49 45 49h297q43 0 43 -49v-920q0 -49 -43 -49h-297q-45 0 -45 49v338h-238v-338q0 -49 -43 -49h-297q-45 0 -45 49z" />
<glyph unicode="&#x43e;" horiz-adv-x="1169" d="M82 522q0 66 8 124.5t39 133t82 129t145.5 91t221.5 36.5q510 0 509 -514q0 -80 -7 -141.5t-36.5 -140t-82 -131t-150.5 -89t-233 -36.5q-133 0 -229.5 36.5t-146.5 89t-79 131t-35 140t-6 141.5zM471 510q0 -111 22.5 -157t84.5 -46q70 0 94 48t24 155q0 109 -22.5 155 t-91.5 46q-111 0 -111 -201z" />
<glyph unicode="&#x43f;" horiz-adv-x="1193" d="M92 49v920q0 49 49 49h914q29 0 38 -11.5t9 -35.5v-922q0 -49 -47 -49h-289q-49 0 -49 49l2 666h-242v-666q0 -49 -47 -49h-289q-49 0 -49 49z" />
<glyph unicode="&#x440;" horiz-adv-x="1173" d="M92 -371v1340q0 49 49 49h289q47 0 47 -49v-39l4 -2q139 106 264 106q106 0 178 -42t108 -119.5t49.5 -163.5t13.5 -201q0 -264 -90.5 -398.5t-333.5 -134.5q-90 0 -193 25v-371q0 -49 -47 -49h-289q-49 0 -49 49zM475 315q53 -12 98 -12q72 0 99.5 38t27.5 161 q0 100 -22.5 139t-73.5 39q-47 0 -129 -35v-330z" />
<glyph unicode="&#x441;" horiz-adv-x="1028" d="M82 512q0 524 496 524q201 0 325 -53q66 -29 53 -92l-28 -158q-8 -39 -21.5 -44t-66.5 1q-123 12 -197 12q-172 0 -172 -184q0 -113 37 -159t127 -46q88 0 231 17q25 4 38.5 3t18.5 -10.5t11 -35.5l27 -144q12 -45 0.5 -68.5t-68.5 -45.5q-137 -47 -315 -47 q-156 0 -259.5 44t-152.5 125.5t-66.5 164.5t-17.5 196z" />
<glyph unicode="&#x442;" horiz-adv-x="1011" d="M20 766v201q0 49 41 49h889q41 0 41 -49v-201q0 -47 -41 -47h-250v-674q0 -45 -47 -45h-288q-49 0 -50 45v674h-254q-41 0 -41 47z" />
<glyph unicode="&#x443;" horiz-adv-x="1122" d="M20 958q-25 59 39 60h271q27 0 39 -2t24.5 -14.5t18.5 -36.5l67 -230l72 -258h12l82 266l70 226q8 27 25.5 38t60.5 11h246q41 0 49 -15.5t-6 -46.5l-496 -1318q-14 -35 -30.5 -45.5t-57.5 -10.5h-244q-37 0 -46 12.5t5 47.5l150 397z" />
<glyph unicode="&#x444;" horiz-adv-x="1585" d="M82 518q0 88 25.5 169t82 157t161 128t247.5 68v273q0 49 45 49h297q43 0 43 -49v-269q145 -14 250.5 -66t162 -129t82 -159t25.5 -172q0 -477 -520 -541v-290q0 -49 -43 -49h-297q-45 0 -45 49v290q-516 33 -516 541zM459 506q0 -188 141 -207v416q-61 -12 -101 -63.5 t-40 -145.5zM985 297q137 25 137 209q0 190 -137 211v-420z" />
<glyph unicode="&#x445;" horiz-adv-x="1163" d="M27 63l307 455l-285 438q-16 20 -10 41t39 21h313q33 0 45.5 -7t28.5 -32l119 -225l118 223q14 25 26.5 33t39.5 8h332q78 0 33 -62l-299 -438l307 -455q18 -23 10 -43t-41 -20h-317q-51 0 -76 39l-135 248l-129 -244q-27 -43 -84 -43h-318q-69 0 -24 63z" />
<glyph unicode="&#x446;" horiz-adv-x="1232" d="M92 49v920q0 49 45 49h297q43 0 43 -49v-672h225v672q0 49 46 49h294q43 0 43 -49v-672l72 -6q33 -4 40 -18.5t3 -57.5l-20 -430q-2 -45 -12.5 -55.5t-47.5 -10.5h-192q-39 0 -51.5 11.5t-14.5 42.5l-6 227h-719q-45 0 -45 49z" />
<glyph unicode="&#x447;" horiz-adv-x="1163" d="M61 666v303q0 49 43 49h299q43 0 43 -49v-273q0 -74 27 -98.5t78 -24.5q47 0 135 33v363q0 49 43 49h297q45 0 45 -49v-920q0 -49 -45 -49h-299q-43 0 -43 49v262q-139 -61 -276 -61q-94 0 -161 27.5t-101.5 66.5t-55 100.5t-25 108.5t-4.5 113z" />
<glyph unicode="&#x448;" horiz-adv-x="1665" d="M92 49v920q0 49 45 49h297q43 0 43 -49v-666h162v666q0 49 45 49h297q43 0 43 -49v-666h162v666q0 49 47 49h295q43 0 43 -49l2 -920q0 -49 -45 -49h-1391q-45 0 -45 49z" />
<glyph unicode="&#x449;" horiz-adv-x="1720" d="M92 49v920q0 49 45 49h297q43 0 43 -49v-672h162v672q0 49 45 49h297q43 0 43 -49v-672h166v672q0 49 45 49h295q43 0 43 -49v-672l72 -6q33 -4 40 -18.5t3 -57.5l-21 -430q-2 -45 -12 -55.5t-47 -10.5h-193q-39 0 -51 11.5t-14 42.5l-7 227h-1206q-45 0 -45 49z" />
<glyph unicode="&#x44a;" horiz-adv-x="1363" d="M20 764v209q0 20 8.5 30.5t15.5 11.5t19 1q176 0 331 1t298 1q47 0 47 -45v-281h148q129 0 219 -33.5t132 -92t58.5 -114t16.5 -118.5q0 -162 -118 -248t-308 -86h-477q-49 0 -50 45v674h-297q-23 0 -33 9t-10 36zM741 293h121q90 0 90 57q0 68 -90 68h-121v-125z" />
<glyph unicode="&#x44b;" horiz-adv-x="1619" d="M92 45v928q0 45 45 45h299q41 0 41 -45v-281h141q129 0 219.5 -33.5t132.5 -92t58 -114t16 -118.5q0 -162 -117.5 -248t-308.5 -86h-481q-45 0 -45 45zM479 293h115q90 0 90 57q0 68 -90 68h-115v-125zM1143 49v920q0 49 45 49h297q43 0 43 -49v-920q0 -49 -43 -49h-297 q-45 0 -45 49z" />
<glyph unicode="&#x44c;" horiz-adv-x="1095" d="M92 45v928q0 45 45 45h299q41 0 41 -45v-281h141q129 0 219.5 -33.5t132.5 -92t58 -114t16 -118.5q0 -162 -117.5 -248t-308.5 -86h-481q-45 0 -45 45zM479 293h115q90 0 90 57q0 68 -90 68h-115v-125z" />
<glyph unicode="&#x44d;" horiz-adv-x="1038" d="M77 74.5q-11 23.5 1 68.5l16 123q8 37 17.5 42t50.5 1q143 -16 231 -16q133 0 156 98h-262q-59 0 -60 53v154q0 29 10.5 38t49.5 9h254q-25 88 -142 88q-70 0 -192 -12q-53 -6 -66.5 -1t-21.5 44l-25 127q-12 63 53 92q125 53 330 53q121 0 211 -31.5t140.5 -81t80 -123 t38.5 -139t9 -149.5q0 -111 -19 -196t-70.5 -165.5t-156 -124.5t-259.5 -44q-168 0 -306 47q-57 22 -68 45.5z" />
<glyph unicode="&#x44e;" horiz-adv-x="1609" d="M92 49v920q0 49 45 49h297q43 0 43 -49v-307h105q12 72 40.5 133t80 117.5t138.5 89t201 32.5q485 0 486 -514q0 -78 -7.5 -140.5t-36 -140t-78.5 -130t-143.5 -89t-220.5 -36.5q-424 0 -467 407h-98v-342q0 -49 -43 -49h-297q-45 0 -45 49zM940 510q0 -109 23.5 -156 t78.5 -47q63 0 88 49.5t25 153.5q0 106 -22.5 152.5t-85.5 46.5q-107 0 -107 -199z" />
<glyph unicode="&#x44f;" horiz-adv-x="1132" d="M55 51l58 178q55 164 137 205q-143 70 -144 250q0 164 116 250t304 86h471q27 0 35 -10.5t8 -32.5v-934q0 -23 -8 -33t-35 -10h-295q-47 0 -47 43v307h-30q-82 0 -121 -114l-51 -166q-16 -43 -34 -56.5t-73 -13.5h-254q-53 0 -37 51zM489 684q0 -63 78 -63h88v122h-92 q-35 0 -54.5 -17t-19.5 -42z" />
<glyph unicode="&#x450;" horiz-adv-x="1132" d="M82 498q0 539 493 538q485 0 486 -473q0 -72 -27.5 -105.5t-95.5 -33.5h-465q8 -80 56.5 -103.5t144.5 -23.5q86 0 221 18q49 6 60.5 -1t19.5 -52l20 -121q12 -45 1 -68.5t-68 -45.5q-131 -45 -330 -45q-156 0 -261.5 39.5t-158.5 116.5t-74.5 162t-21.5 198zM313 1413 q-41 41 2 76l164 139q37 29 72 -14l264 -342q29 -33 -6 -60l-111 -98q-29 -25 -63 10zM479 635h187q0 117 -91 117q-41 0 -67.5 -30t-28.5 -87z" />
<glyph unicode="&#x451;" horiz-adv-x="1132" d="M82 498q0 539 493 538q485 0 486 -473q0 -72 -27.5 -105.5t-95.5 -33.5h-465q8 -80 56.5 -103.5t144.5 -23.5q86 0 221 18q49 6 60.5 -1t19.5 -52l20 -121q12 -45 1 -68.5t-68 -45.5q-131 -45 -330 -45q-156 0 -261.5 39.5t-158.5 116.5t-74.5 162t-21.5 198zM162 1284 q0 80 39 122t141 42q106 0 144 -41t38 -123q0 -80 -37.5 -125t-144.5 -45q-111 0 -145.5 45t-34.5 125zM479 635h187q0 117 -91 117q-41 0 -67.5 -30t-28.5 -87zM614 1284q0 78 39 121t142 43q109 0 145.5 -40t36.5 -124q0 -82 -37 -126t-145.5 -44t-144.5 45t-36 125z" />
<glyph unicode="&#x452;" horiz-adv-x="1361" d="M84 1100v125q0 25 6 30t31 5h74v139q0 49 45 49h301q41 0 41 -49v-139h346q20 0 26.5 -7.5t6.5 -29.5v-125q0 -20 -5.5 -27.5t-25.5 -7.5h-350v-193h2q125 68 305 68q203 0 298 -142.5t95 -381.5q0 -217 -109.5 -403.5t-324.5 -289.5q-45 -23 -67.5 -19.5t-41.5 36.5 l-78 131q-20 45 -14 57.5t55 48.5q207 154 207 449q0 100 -40 141t-117 41q-72 0 -170 -39v-518q0 -49 -41 -49h-299q-45 0 -45 49v1014h-74q-23 0 -30 7t-7 30z" />
<glyph unicode="&#x453;" horiz-adv-x="980" d="M92 45v924q0 49 45 49h770q43 0 43 -49v-201q0 -47 -43 -47h-430v-676q0 -45 -47 -45h-289q-49 0 -49 45zM307 1233l211 379q27 47 68 24l184 -110q49 -27 12 -76l-268 -328q-31 -39 -61 -20l-129 74q-37 22 -17 57z" />
<glyph unicode="&#x454;" horiz-adv-x="1038" d="M82 512q0 524 496 524q201 0 325 -53q66 -29 53 -92l-24 -127q-8 -39 -21.5 -44t-66.5 1q-123 12 -197 12q-125 0 -149 -88h254q39 0 49 -9t10 -38v-154q0 -53 -59 -53h-263q23 -98 156 -98q88 0 232 16q25 4 38 3t18 -10t11 -36l17 -123q12 -45 0.5 -68.5t-68.5 -45.5 q-137 -47 -315 -47q-156 0 -259.5 44t-152.5 125.5t-66.5 164.5t-17.5 196z" />
<glyph unicode="&#x455;" horiz-adv-x="1048" d="M76 150l28 120q8 35 21.5 42t52.5 -1q156 -29 295 -28q113 0 113 43q0 23 -17.5 31t-60.5 12q-84 10 -136.5 20t-113.5 32.5t-95 55.5t-56.5 87t-22.5 128q0 166 125 255t321 89q184 0 320 -45q45 -16 62.5 -24.5t28.5 -27.5t3 -52l-31 -129q-8 -35 -17 -41t-48 -2 q-168 20 -299 26q-37 2 -56.5 -4t-22.5 -12t-3 -18q0 -27 90 -37q100 -12 162.5 -27.5t128 -49.5t97.5 -98.5t32 -158.5q0 -186 -137.5 -270t-347.5 -84q-180 0 -326 45q-68 20 -85 45t-5 78z" />
<glyph unicode="&#x456;" horiz-adv-x="618" d="M113 49v920q0 49 49 49h289q47 0 47 -49v-920q0 -49 -47 -49h-289q-49 0 -49 49zM113 1284q0 180 196 180q113 0 155 -46t42 -134q0 -182 -197 -182q-117 0 -156.5 51t-39.5 131z" />
<glyph unicode="&#x457;" horiz-adv-x="589" d="M-111 1270q0 80 39 122t142 42q106 0 144 -41t38 -123q0 -80 -38 -125t-144 -45q-111 0 -146 45t-35 125zM102 49v920q0 49 50 49h288q47 0 47 -49v-920q0 -49 -47 -49h-288q-50 0 -50 49zM342 1270q0 78 39 121t141 43q109 0 146 -40t37 -124q0 -82 -37 -126t-145.5 -44 t-144.5 45t-36 125z" />
<glyph unicode="&#x458;" horiz-adv-x="647" d="M-159 -147.5q5 12.5 11.5 15.5t32.5 9q162 35 210 67.5t48 135.5v889q0 49 50 49h288q47 0 47 -49v-879q0 -164 -45 -273.5t-132 -166t-189.5 -76.5t-241.5 -16q-55 0 -59 51l-19 209q-6 22 -1 34.5zM141 1284q0 180 197 180q113 0 155 -46t42 -134q0 -182 -197 -182 q-117 0 -157 51t-40 131z" />
<glyph unicode="&#x459;" horiz-adv-x="1722" d="M16 197q-2 29 7.5 41t44.5 24q80 27 113.5 60.5t43.5 121.5l49 416q10 94 50.5 126t146.5 32h600q33 0 33 -49v-277h141q129 0 219 -33.5t132 -92t58.5 -114t16.5 -118.5q0 -162 -117.5 -248t-308.5 -86h-477q-49 0 -49 41v678h-115l-39 -342q-10 -96 -30.5 -159.5 t-69.5 -125t-144.5 -92.5t-240.5 -31q-31 0 -39 11.5t-10 44.5zM1106 293h123q35 0 56.5 16.5t21.5 40.5q0 68 -78 68h-123v-125z" />
<glyph unicode="&#x45a;" horiz-adv-x="1656" d="M92 47v922q0 49 43 49h299q43 0 43 -49v-291h176v291q0 49 43 49h299q43 0 43 -49v-283h142q129 0 219 -32.5t132 -90t58.5 -112t16.5 -117.5q0 -162 -118 -248t-308 -86h-484q-43 0 -43 47v352h-176v-352q0 -47 -43 -47h-299q-43 0 -43 47zM1038 293h127q78 0 78 55 q0 68 -78 68h-127v-123z" />
<glyph unicode="&#x45b;" horiz-adv-x="1187" d="M-18 1100v125q0 25 6 30t30 5h74v139q0 49 45 49h299q43 0 43 -49v-139h326q20 0 26.5 -7.5t6.5 -29.5v-125q0 -20 -5.5 -27.5t-25.5 -7.5h-328v-178q135 74 277 73q94 0 160.5 -27.5t101.5 -66.5t55.5 -100.5t24.5 -108.5t4 -112v-498q0 -45 -47 -45h-289q-49 0 -49 45 v447q0 74 -26.5 98t-78.5 24q-47 0 -135 -32v-537q0 -45 -43 -45h-297q-45 0 -45 45v1018h-74q-23 0 -29.5 7t-6.5 30z" />
</font>
</defs>
</svg>
